<svg width="31" height="31" viewBox="0 0 31 31" xmlns="http://www.w3.org/2000/svg">
<path d="M18.4095 29.5098H4.58851C3.78629 29.5098 3.13365 28.864 3.13365 28.0703V13.4355C3.1312 13.3098 3.07903 13.1901 2.98836 13.1021C2.89768 13.0141 2.77574 12.9648 2.64873 12.9648C2.52171 12.9648 2.39977 13.0141 2.30909 13.1021C2.21842 13.1901 2.16625 13.3098 2.1638 13.4355V28.0703C2.1638 29.3931 3.25153 30.4694 4.58857 30.4694H18.4096C18.4732 30.4694 18.5363 30.457 18.5951 30.4329C18.654 30.4088 18.7074 30.3735 18.7525 30.3289C18.7975 30.2843 18.8332 30.2314 18.8576 30.1732C18.8819 30.115 18.8945 30.0526 18.8945 29.9896C18.8945 29.9266 18.8819 29.8642 18.8576 29.806C18.8332 29.7477 18.7975 29.6948 18.7524 29.6503C18.7074 29.6057 18.6539 29.5704 18.5951 29.5463C18.5363 29.5222 18.4732 29.5098 18.4095 29.5098ZM26.8961 13.4355V15.8347C26.8954 15.8981 26.9074 15.9611 26.9315 16.0199C26.9555 16.0787 26.9911 16.1323 27.0362 16.1774C27.0813 16.2225 27.135 16.2583 27.1942 16.2828C27.2534 16.3072 27.3169 16.3198 27.3811 16.3198C27.4452 16.3198 27.5087 16.3072 27.5679 16.2828C27.6271 16.2583 27.6808 16.2225 27.7259 16.1774C27.771 16.1323 27.8066 16.0787 27.8306 16.0199C27.8547 15.9611 27.8667 15.8981 27.866 15.8347V13.4355C27.8635 13.3098 27.8114 13.1901 27.7207 13.1021C27.63 13.0141 27.5081 12.9648 27.3811 12.9648C27.254 12.9648 27.1321 13.0141 27.0414 13.1021C26.9508 13.1901 26.8986 13.3098 26.8961 13.4355Z" fill="white"/>
<path d="M4.83098 12.9556C4.76729 12.9556 4.70422 12.968 4.64538 12.9922C4.58654 13.0163 4.53308 13.0516 4.48805 13.0962C4.44301 13.1407 4.40729 13.1936 4.38292 13.2518C4.35855 13.3101 4.34602 13.3725 4.34602 13.4355V19.1935C4.34602 19.9872 4.99866 20.633 5.80088 20.633H15.4999C15.5636 20.633 15.6266 20.6206 15.6855 20.5965C15.7443 20.5723 15.7978 20.537 15.8428 20.4924C15.8878 20.4479 15.9236 20.395 15.9479 20.3367C15.9723 20.2785 15.9848 20.2161 15.9848 20.1531C15.9848 20.0901 15.9723 20.0277 15.9479 19.9695C15.9235 19.9113 15.8878 19.8584 15.8428 19.8138C15.7977 19.7693 15.7443 19.7339 15.6854 19.7098C15.6266 19.6857 15.5636 19.6733 15.4999 19.6733H5.80088C5.53347 19.6733 5.31593 19.4581 5.31593 19.1934V13.4354C5.31594 13.3724 5.3034 13.31 5.27903 13.2518C5.25466 13.1936 5.21894 13.1407 5.1739 13.0961C5.12887 13.0516 5.0754 13.0162 5.01656 12.9921C4.95772 12.968 4.89466 12.9556 4.83098 12.9556ZM7.86188 9.87977C8.54856 11.1385 9.89408 11.996 11.4384 11.996C12.9827 11.996 14.3282 11.1387 15.0149 9.87977C15.7015 11.1385 17.047 11.996 18.5913 11.996C20.1356 11.996 21.4811 11.1387 22.1678 9.87977C22.8545 11.1385 24.2 11.996 25.7443 11.996C27.9838 11.996 29.8058 10.1933 29.8058 7.9774V5.43505C29.8058 5.33941 29.8135 5.24021 29.7862 5.14767C29.7551 5.04216 29.6903 4.96021 29.6079 4.88933L24.0674 0.122354L24.0621 0.117831C23.9738 0.041877 23.8608 3.20097e-05 23.7438 0L6.28577 0C6.16883 1.2741e-06 6.05583 0.0418284 5.9676 0.117772C5.77622 0.282437 0.360969 4.92284 0.299561 5.02454C0.262932 5.08512 0.24128 5.15457 0.230273 5.22402C0.196412 5.43814 0.223778 7.892 0.223778 7.97716C0.223778 10.193 2.0457 11.9957 4.28522 11.9957C5.82969 11.996 7.1752 11.1385 7.86188 9.87977ZM11.4384 11.0363C9.73373 11.0363 8.34689 9.66405 8.34689 7.9774V5.75819H14.53V7.9774C14.53 9.66399 13.1431 11.0363 11.4384 11.0363ZM18.5914 11.0363C16.8867 11.0363 15.4999 9.66405 15.4999 7.9774V5.75819H21.6829V7.9774C21.6829 9.66399 20.2961 11.0363 18.5914 11.0363ZM28.836 7.9774C28.836 9.66411 27.4491 11.0363 25.7444 11.0363C24.0398 11.0363 22.6529 9.66405 22.6529 7.9774V5.75819H28.836V7.9774ZM6.46717 0.959847H23.5626L28.0241 4.79846H2.00559L6.46717 0.959847ZM1.19386 7.9774V5.75819H7.37693V7.9774C7.37693 9.66411 5.99004 11.0363 4.2854 11.0363C2.58076 11.0363 1.19386 9.66399 1.19386 7.9774ZM23.5016 16.5544C19.6243 16.5544 16.4698 19.6755 16.4698 23.5119C16.4698 27.3484 19.6242 30.4694 23.5016 30.4694C27.3789 30.4694 30.5333 27.3483 30.5333 23.5119C30.5333 19.6754 27.3788 16.5544 23.5016 16.5544ZM23.5016 29.5098C20.159 29.5098 17.4397 26.8192 17.4397 23.5119C17.4397 20.2047 20.159 17.5141 23.5016 17.5141C26.8441 17.5141 29.5634 20.2047 29.5634 23.5119C29.5634 26.8192 26.844 29.5098 23.5016 29.5098Z" fill="white"/>
<path d="M24.7139 19.6732H23.9865V18.9534C23.9851 18.8271 23.9334 18.7064 23.8426 18.6176C23.7518 18.5288 23.6293 18.4789 23.5016 18.4789C23.3739 18.4789 23.2514 18.5288 23.1606 18.6176C23.0698 18.7064 23.0181 18.8271 23.0167 18.9534V19.6732H22.2893C21.4871 19.6732 20.8344 20.3189 20.8344 21.1127V22.3123C20.8344 23.2383 21.5959 23.9917 22.5318 23.9917H24.4716C24.8726 23.9917 25.199 24.3145 25.199 24.7114V25.9109C25.199 26.1755 24.9814 26.3908 24.7141 26.3908H22.2893C22.0219 26.3908 21.8044 26.1756 21.8044 25.9109V25.4312C21.8052 25.3677 21.7931 25.3047 21.7691 25.2459C21.745 25.1871 21.7094 25.1335 21.6643 25.0884C21.6192 25.0433 21.5655 25.0075 21.5063 24.983C21.4472 24.9586 21.3837 24.946 21.3195 24.946C21.2554 24.946 21.1919 24.9586 21.1327 24.983C21.0735 25.0075 21.0198 25.0433 20.9747 25.0884C20.9296 25.1335 20.894 25.1871 20.8699 25.2459C20.8459 25.3047 20.8339 25.3677 20.8346 25.4312V25.9109C20.8346 26.7046 21.4872 27.3504 22.2894 27.3504H23.0168V28.0702C23.0168 28.3352 23.234 28.5499 23.5018 28.5499C23.7696 28.5499 23.9867 28.3351 23.9867 28.0702V27.3504H24.7141C25.5163 27.3504 26.1689 26.7047 26.1689 25.9109V24.7114C26.1689 23.7854 25.4075 23.032 24.4716 23.032H22.5318C22.1307 23.032 21.8044 22.7091 21.8044 22.3123V21.1127C21.8044 20.8481 22.0219 20.6328 22.2893 20.6328H24.714C24.9814 20.6328 25.1989 20.8481 25.1989 21.1127V21.5925C25.2003 21.7189 25.2521 21.8396 25.3428 21.9284C25.4336 22.0172 25.5562 22.067 25.6838 22.067C25.8115 22.067 25.9341 22.0172 26.0248 21.9284C26.1156 21.8396 26.1673 21.7189 26.1688 21.5925V21.1127C26.1687 20.319 25.5161 19.6732 24.7139 19.6732Z" fill="white"/>
</svg>
