<svg width="31" height="30" viewBox="0 0 31 30"  xmlns="http://www.w3.org/2000/svg">
<path d="M12.5746 17.8859C12.4365 17.8859 12.3041 17.8204 12.2065 17.704C12.1089 17.5875 12.054 17.4296 12.054 17.2649V12.8266C12.054 12.6619 12.1089 12.504 12.2065 12.3875C12.3041 12.271 12.4365 12.2056 12.5746 12.2056C12.7126 12.2056 12.845 12.271 12.9426 12.3875C13.0402 12.504 13.0951 12.6619 13.0951 12.8266V17.2657C13.0949 17.4302 13.04 17.588 12.9424 17.7043C12.8448 17.8205 12.7125 17.8859 12.5746 17.8859Z" fill="white"/>
<path d="M11.8458 29.9993H1.2839C0.594872 29.9993 0.034668 29.2821 0.034668 28.4004V1.59976C0.034668 0.718001 0.594872 0.000793457 1.2839 0.000793457H11.8458C12.5348 0.000793457 13.095 0.718001 13.095 1.59976V9.29112C13.095 9.45581 13.0402 9.61375 12.9426 9.7302C12.845 9.84666 12.7126 9.91208 12.5745 9.91208C12.4365 9.91208 12.3041 9.84666 12.2065 9.7302C12.1089 9.61375 12.054 9.45581 12.054 9.29112V1.59976C12.054 1.38941 11.9441 1.24271 11.8458 1.24271H1.2839C1.18566 1.24271 1.0757 1.38941 1.0757 1.59976V28.4004C1.0757 28.6107 1.18566 28.7574 1.2839 28.7574H11.8458C11.9441 28.7574 12.054 28.6107 12.054 28.4004V20.6182C12.054 20.4535 12.1089 20.2956 12.2065 20.1791C12.3041 20.0627 12.4365 19.9972 12.5745 19.9972C12.7126 19.9972 12.845 20.0627 12.9426 20.1791C13.0402 20.2956 13.095 20.4535 13.095 20.6182V28.4004C13.095 29.2821 12.5348 29.9993 11.8458 29.9993Z" fill="white"/>
<path d="M8.92769 3.91428H4.20206C4.09585 3.91432 3.99218 3.8756 3.90495 3.80331C3.81772 3.73102 3.75112 3.62863 3.71408 3.50988L2.87995 0.838208C2.83172 0.683812 2.83688 0.512883 2.89429 0.363024C2.9517 0.213164 3.05666 0.0966491 3.18608 0.039111C3.3155 -0.0184271 3.45878 -0.0122753 3.5844 0.0562132C3.71002 0.124702 3.80769 0.249917 3.85592 0.404312L4.56317 2.67237H8.56658L9.27383 0.407417C9.32206 0.253022 9.41973 0.127807 9.54535 0.0593181C9.67097 -0.00917048 9.81425 -0.0153225 9.94367 0.0422156C10.0731 0.0997537 10.178 0.216269 10.2355 0.366128C10.2929 0.515988 10.298 0.686917 10.2498 0.841312L9.41567 3.51221C9.37831 3.63053 9.31157 3.73242 9.22437 3.80427C9.13717 3.87611 9.03366 3.9145 8.92769 3.91428Z" fill="white"/>
<path d="M9.59914 30C9.50293 30.0001 9.40859 29.9684 9.32658 29.9083C9.24458 29.8483 9.17812 29.7624 9.13458 29.66L8.1417 27.3276H4.98868L3.9958 29.66C3.96482 29.7328 3.92215 29.7975 3.8702 29.8505C3.81825 29.9036 3.75806 29.9439 3.69305 29.9692C3.62804 29.9945 3.55949 30.0043 3.49131 29.998C3.42314 29.9917 3.35667 29.9694 3.2957 29.9325C3.23474 29.8955 3.18047 29.8446 3.136 29.7826C3.09153 29.7207 3.05773 29.6489 3.03652 29.5713C3.01532 29.4938 3.00712 29.412 3.01241 29.3306C3.01769 29.2493 3.03636 29.17 3.06733 29.0973L4.2053 26.4256C4.24879 26.3234 4.31515 26.2375 4.39703 26.1775C4.47891 26.1175 4.57312 26.0857 4.66921 26.0856H8.46051C8.55661 26.0857 8.65082 26.1175 8.7327 26.1775C8.81458 26.2375 8.88094 26.3234 8.92442 26.4256L10.0624 29.0973C10.1028 29.1919 10.1222 29.2973 10.1187 29.4034C10.1152 29.5095 10.089 29.6127 10.0425 29.7033C9.99601 29.7938 9.93086 29.8686 9.85324 29.9206C9.77563 29.9725 9.68814 29.9999 9.59914 30Z" fill="white"/>
<path d="M17.8148 17.7942C17.6767 17.7942 17.5443 17.7288 17.4467 17.6124C17.3491 17.4959 17.2943 17.338 17.2943 17.1733V12.735C17.2943 12.5703 17.3491 12.4123 17.4467 12.2959C17.5443 12.1794 17.6767 12.114 17.8148 12.114C17.9528 12.114 18.0852 12.1794 18.1828 12.2959C18.2805 12.4123 18.3353 12.5703 18.3353 12.735V17.1733C18.3353 17.338 18.2805 17.4959 18.1828 17.6124C18.0852 17.7288 17.9528 17.7942 17.8148 17.7942Z" fill="white"/>
<path d="M29.1054 29.9991H18.5435C17.8545 29.9991 17.2943 29.2819 17.2943 28.4002V20.7088C17.2943 20.5441 17.3491 20.3862 17.4467 20.2697C17.5443 20.1533 17.6767 20.0879 17.8148 20.0879C17.9528 20.0879 18.0852 20.1533 18.1828 20.2697C18.2804 20.3862 18.3353 20.5441 18.3353 20.7088V28.4002C18.3353 28.6105 18.4452 28.7572 18.5435 28.7572H29.1054C29.2036 28.7572 29.3136 28.6105 29.3136 28.4002V1.59958C29.3136 1.38923 29.2036 1.24253 29.1054 1.24253H18.5435C18.4452 1.24253 18.3353 1.38923 18.3353 1.59958V9.38175C18.3353 9.54644 18.2804 9.70438 18.1828 9.82084C18.0852 9.93729 17.9528 10.0027 17.8148 10.0027C17.6767 10.0027 17.5443 9.93729 17.4467 9.82084C17.3491 9.70438 17.2943 9.54644 17.2943 9.38175V1.59958C17.2943 0.717818 17.8545 0.000610352 18.5435 0.000610352H29.1054C29.7944 0.000610352 30.3546 0.717818 30.3546 1.59958V28.4002C30.3546 29.2819 29.7944 29.9991 29.1054 29.9991Z" fill="white"/>
<path d="M26.1906 3.91429H21.4617C21.3555 3.91433 21.2518 3.8756 21.1646 3.80332C21.0774 3.73103 21.0108 3.62864 20.9737 3.50989L20.1396 0.838216C20.0961 0.685062 20.1044 0.517711 20.1628 0.371751C20.2211 0.225791 20.3249 0.112734 20.452 0.0566224C20.5791 0.00051036 20.7196 0.00576918 20.8435 0.0712806C20.9674 0.136792 21.065 0.257388 21.1156 0.407425L21.8235 2.67548H25.8262L26.5341 0.407425C26.5824 0.25303 26.68 0.127815 26.8057 0.059326C26.9313 -0.00916255 27.0746 -0.0153143 27.204 0.0422238C27.3334 0.0997619 27.4384 0.216277 27.4958 0.366136C27.5532 0.515996 27.5583 0.686925 27.5101 0.84132L26.6753 3.51222C26.6382 3.62992 26.5719 3.73138 26.4854 3.80317C26.3988 3.87497 26.296 3.91372 26.1906 3.91429Z" fill="white"/>
<path d="M26.8582 30C26.762 30.0001 26.6676 29.9684 26.5856 29.9083C26.5036 29.8483 26.4371 29.7624 26.3936 29.66L25.4007 27.3276H22.2483L21.2555 29.66C21.2245 29.7328 21.1818 29.7975 21.1299 29.8505C21.0779 29.9036 21.0177 29.9439 20.9527 29.9692C20.8877 29.9945 20.8192 30.0043 20.751 29.998C20.6828 29.9917 20.6163 29.9694 20.5554 29.9325C20.4944 29.8955 20.4401 29.8446 20.3957 29.7826C20.3512 29.7207 20.3174 29.6489 20.2962 29.5713C20.275 29.4938 20.2668 29.412 20.2721 29.3306C20.2774 29.2493 20.296 29.17 20.327 29.0973L21.465 26.4256C21.5085 26.3234 21.5748 26.2375 21.6567 26.1775C21.7386 26.1175 21.8328 26.0857 21.9289 26.0856H25.7202C25.8163 26.0857 25.9105 26.1175 25.9924 26.1775C26.0742 26.2375 26.1406 26.3234 26.1841 26.4256L27.3221 29.0973C27.3625 29.192 27.3818 29.2974 27.3783 29.4036C27.3748 29.5097 27.3485 29.613 27.302 29.7036C27.2554 29.7942 27.1902 29.869 27.1125 29.9209C27.0348 29.9728 26.9472 30 26.8582 30Z" fill="white"/>
<path d="M15.3898 22.7953C15.2518 22.7953 15.1194 22.7299 15.0218 22.6134C14.9242 22.497 14.8693 22.339 14.8693 22.1744V21.239H9.59911C9.46106 21.239 9.32867 21.1736 9.23105 21.0572C9.13344 20.9407 9.0786 20.7828 9.0786 20.6181V17.2649C9.0786 17.1002 9.13344 16.9423 9.23105 16.8258C9.32867 16.7094 9.46106 16.6439 9.59911 16.6439H14.8693V15.7078C14.8694 15.6017 14.8923 15.4973 14.9359 15.4047C14.9794 15.3121 15.0422 15.2344 15.1181 15.179C15.194 15.1235 15.2805 15.0922 15.3694 15.0881C15.4584 15.0839 15.5467 15.107 15.626 15.1552L20.9724 18.3881C21.0581 18.4399 21.1302 18.5192 21.1805 18.6169C21.2308 18.7147 21.2575 18.8272 21.2575 18.9419C21.2575 19.0566 21.2308 19.1691 21.1805 19.2668C21.1302 19.3646 21.0581 19.4438 20.9724 19.4957L15.626 22.7293C15.5527 22.773 15.4718 22.7956 15.3898 22.7953ZM10.1196 19.9971H15.3898C15.5279 19.9971 15.6603 20.0625 15.7579 20.179C15.8555 20.2954 15.9104 20.4534 15.9104 20.6181V21.1614L19.5845 18.9392L15.9104 16.7192V17.2626C15.9104 17.4273 15.8555 17.5852 15.7579 17.7017C15.6603 17.8181 15.5279 17.8835 15.3898 17.8835H10.1196V19.9971ZM14.9995 14.913C14.9178 14.9128 14.8373 14.8897 14.7646 14.8455L9.41693 11.6126C9.33117 11.5607 9.25913 11.4815 9.2088 11.3838C9.15848 11.286 9.13184 11.1735 9.13184 11.0588C9.13184 10.9441 9.15848 10.8316 9.2088 10.7338C9.25913 10.6361 9.33117 10.5569 9.41693 10.505L14.7633 7.27134C14.8427 7.2231 14.9311 7.2 15.0202 7.20423C15.1092 7.20846 15.1958 7.23989 15.2718 7.29551C15.3477 7.35112 15.4104 7.42907 15.4539 7.52187C15.4973 7.61468 15.5201 7.71924 15.52 7.82555V8.76087H20.7902C20.9282 8.76087 21.0606 8.82629 21.1582 8.94274C21.2559 9.05919 21.3107 9.21714 21.3107 9.38182V12.735C21.3107 12.8997 21.2559 13.0576 21.1582 13.1741C21.0606 13.2905 20.9282 13.356 20.7902 13.356H15.52V14.2921C15.52 14.4567 15.4651 14.6147 15.3675 14.7311C15.2699 14.8476 15.1375 14.913 14.9995 14.913ZM10.8048 11.0584L14.4789 13.2807V12.7373C14.4789 12.5726 14.5338 12.4147 14.6314 12.2982C14.729 12.1818 14.8614 12.1164 14.9995 12.1164H20.2697V10.0051H14.9995C14.8614 10.0051 14.729 9.93969 14.6314 9.82324C14.5338 9.70679 14.4789 9.54884 14.4789 9.38415V8.84081L10.8048 11.0584Z" fill="white"/>
</svg>
