<svg width="31" height="30" viewBox="0 0 31 30"  xmlns="http://www.w3.org/2000/svg">
<path d="M21.1961 9.09106C20.8692 9.09106 20.6039 9.35299 20.6039 9.67685C20.6039 10.0005 20.8692 10.2628 21.1961 10.2628C21.5236 10.2628 21.7883 10.0005 21.7883 9.67685C21.7884 9.59989 21.7731 9.52367 21.7433 9.45255C21.7136 9.38144 21.67 9.31683 21.615 9.26242C21.56 9.20801 21.4947 9.16487 21.4228 9.13546C21.3509 9.10606 21.2739 9.09097 21.1961 9.09106ZM10.436 19.7374C10.1084 19.7374 9.84379 19.9999 9.84379 20.3234C9.84371 20.4003 9.85897 20.4766 9.88871 20.5477C9.91844 20.6188 9.96206 20.6834 10.0171 20.7379C10.0721 20.7923 10.1374 20.8355 10.2093 20.8649C10.2812 20.8943 10.3582 20.9094 10.436 20.9093C10.7629 20.9093 11.0282 20.6475 11.0282 20.3234C11.0282 19.9999 10.7629 19.7374 10.436 19.7374Z" fill="black"/>
<path d="M30.2402 3.60488C30.1418 3.58222 30.0393 3.58484 29.9423 3.61248C29.8452 3.64012 29.757 3.69187 29.6859 3.76279L27.2308 6.21121H26.0538L24.7581 4.88297V3.70215L27.1781 1.27201C27.2485 1.20125 27.2996 1.1139 27.3266 1.0182C27.3535 0.922501 27.3554 0.82159 27.3321 0.724965C27.3088 0.628359 27.2611 0.539188 27.1935 0.465837C27.1258 0.392487 27.0404 0.337365 26.9453 0.305655C26.3374 0.102856 25.7012 7.90952e-05 25.0542 7.90952e-05C23.1254 7.90952e-05 21.373 0.890029 20.2465 2.44164C19.192 3.89417 18.867 5.67424 19.3327 7.37785L14.9705 11.694L7.70301 4.48674V3.07225C7.70302 2.97106 7.67654 2.87159 7.62615 2.78353C7.57577 2.69548 7.50319 2.62184 7.41549 2.56979L3.22818 0.0835778C3.11495 0.0162877 2.98223 -0.0115861 2.85114 0.00439491C2.72005 0.0203759 2.59813 0.0792927 2.5048 0.171764L0.829981 1.82867C0.736641 1.92114 0.677186 2.0418 0.66105 2.17151C0.644914 2.30122 0.673022 2.43255 0.740913 2.54465L3.25311 6.68777C3.3057 6.77449 3.38008 6.84627 3.46902 6.89612C3.55795 6.94597 3.65841 6.9722 3.76063 6.97225L5.18986 6.97272L12.458 14.18L8.11246 18.4797C6.39068 18.0191 4.59067 18.3412 3.12194 19.3851C1.55478 20.4992 0.655991 22.2325 0.655991 24.141C0.655991 24.781 0.759864 25.4106 0.964826 26.0119C0.997063 26.1066 1.05323 26.1916 1.12799 26.2587C1.20275 26.3259 1.29363 26.373 1.39198 26.3956C1.49033 26.4182 1.59289 26.4156 1.68992 26.3879C1.78694 26.3603 1.87522 26.3086 1.94635 26.2377L4.40122 23.7894H5.58474L6.9332 25.1236V26.2946L4.45878 28.7236C4.38712 28.794 4.33483 28.8813 4.30688 28.9773C4.27894 29.0733 4.27627 29.1748 4.29912 29.2721C4.32197 29.3694 4.36959 29.4594 4.43745 29.5333C4.50531 29.6073 4.59116 29.6629 4.68684 29.6948C5.29456 29.8976 5.93095 30.0004 6.57775 30.0004C8.50657 30.0004 10.2583 29.1109 11.3843 27.5602C12.4395 26.107 12.7649 24.3262 12.2995 22.6226L15.7896 19.1694L16.5891 20.0286L16.2222 20.3914C15.9908 20.6203 15.9908 20.9913 16.2222 21.2202C16.4535 21.4489 16.8282 21.4489 17.0598 21.2202L17.392 20.8915L24.8932 28.9534C24.8987 28.9594 24.9045 28.9651 24.9103 28.9708C26.2983 30.3441 28.5471 30.3446 29.9357 28.9706C31.3205 27.5998 31.3205 25.3693 29.9357 23.9984C29.9297 23.9924 29.9235 23.9867 29.9172 23.981L21.7566 16.5733L22.0851 16.2482C22.3164 16.0196 22.3164 15.6486 22.0851 15.4197C21.8538 15.1908 21.479 15.1907 21.2474 15.4197L20.8831 15.7804L20.013 14.9902L23.52 11.5203C24.0204 11.6525 24.5362 11.7193 25.0542 11.719C28.3196 11.719 30.976 9.09036 30.976 5.85964C30.976 5.21942 30.8721 4.58999 30.6672 3.98845C30.635 3.89377 30.5789 3.80882 30.5041 3.74169C30.4294 3.67455 30.3385 3.62745 30.2402 3.60488ZM5.85467 5.97296C5.74363 5.8628 5.59303 5.80678 5.43574 5.80678L4.09635 5.80631L1.99449 2.33406L3.01534 1.32399L6.51859 3.40413V4.72933C6.51861 4.88449 6.58084 5.03332 6.69164 5.14313L14.1331 12.5228L13.2954 13.3513L5.85467 5.97296ZM20.9182 17.4027L29.1066 24.8355C30.0213 25.7501 30.0185 27.231 29.098 28.1422C28.1755 29.055 26.6821 29.0577 25.7558 28.1502L18.2302 20.062L20.9182 17.4027ZM20.0447 16.6096L17.4273 19.199L16.6278 18.3398L19.1747 15.8195L20.0447 16.6096ZM25.0542 10.547C24.5396 10.5476 24.0284 10.4651 23.5406 10.3028C23.4361 10.2681 23.3238 10.2629 23.2165 10.2878C23.1091 10.3127 23.0109 10.3667 22.9329 10.4438C19.964 13.3814 13.5668 19.7109 11.2111 22.0419C11.1331 22.119 11.0784 22.2162 11.0532 22.3225C11.028 22.4288 11.0334 22.54 11.0686 22.6434C11.5609 24.0897 11.3254 25.6324 10.4223 26.8765C9.52173 28.1168 8.12033 28.8284 6.57781 28.8284C6.40453 28.8284 6.2322 28.819 6.06147 28.801L7.94243 26.9543C7.99792 26.8998 8.04197 26.835 8.07202 26.7636C8.10208 26.6923 8.11755 26.6157 8.11755 26.5384V24.8808C8.11752 24.7254 8.0551 24.5763 7.94403 24.4665L6.24867 22.789C6.13763 22.6791 5.98703 22.6173 5.82998 22.6173H4.15463C4.07645 22.6173 3.99905 22.6326 3.92687 22.6623C3.8547 22.6921 3.78919 22.7357 3.7341 22.7905L1.86794 24.6516C1.84939 24.482 1.84012 24.3114 1.84017 24.1408C1.84017 22.6143 2.5591 21.228 3.81298 20.3368C5.07 19.4433 6.62939 19.2101 8.09143 19.6973C8.19594 19.7322 8.30821 19.7375 8.41558 19.7126C8.52295 19.6876 8.62114 19.6335 8.6991 19.5564C8.73173 19.5243 20.4125 7.96656 20.4209 7.9583C20.4988 7.88114 20.5535 7.78398 20.5787 7.67775C20.6038 7.57153 20.5985 7.46045 20.5634 7.35705C20.0709 5.91067 20.3059 4.36844 21.2083 3.12527C22.1097 1.88387 23.5113 1.17199 25.054 1.17199C25.2326 1.17199 25.41 1.18183 25.5858 1.20105L23.744 3.05068C23.6349 3.16026 23.5737 3.30794 23.5737 3.46179V5.11946C23.5737 5.27127 23.6332 5.41717 23.7398 5.52635L25.376 7.20394C25.4313 7.26057 25.4974 7.3056 25.5707 7.33635C25.6439 7.36709 25.7226 7.38292 25.8021 7.38289H27.4775C27.5556 7.38289 27.633 7.36758 27.7051 7.33784C27.7773 7.3081 27.8427 7.26453 27.8978 7.20962L29.7639 5.34874C29.7824 5.51767 29.7916 5.68819 29.7916 5.85964C29.7916 8.44429 27.6664 10.547 25.0542 10.547H25.0542Z" fill="black"/>
<path d="M19.1025 10.9197L11.6919 18.2521C11.4607 18.4808 11.4607 18.8519 11.6919 19.0807C11.9232 19.3096 12.2982 19.3096 12.5295 19.0807L19.9402 11.7483C20.1715 11.5196 20.1715 11.1486 19.9402 10.9197C19.7089 10.6909 19.3339 10.6908 19.1025 10.9197V10.9197ZM26.586 26.4853C26.8174 26.7135 27.1924 26.7135 27.4237 26.4839C27.6546 26.2548 27.6539 25.8837 27.4224 25.6553L22.0844 20.3906C21.8528 20.1622 21.4776 20.1629 21.247 20.3921C21.0159 20.6214 21.0166 20.9922 21.2481 21.2206L26.586 26.4853Z" fill="black"/>
</svg>
