<svg width="40" height="22" viewBox="0 0 40 22" xmlns="http://www.w3.org/2000/svg">
<path d="M11.5413 21V19.3333C11.5413 17.1232 12.4287 15.0036 14.0081 13.4408C15.5876 11.878 17.7298 11 19.9636 11M19.9636 11C22.1973 11 24.3395 11.878 25.919 13.4408C27.4984 15.0036 28.3858 17.1232 28.3858 19.3333V21M19.9636 11C21.3038 11 22.5891 10.4732 23.5368 9.53553C24.4845 8.59785 25.0169 7.32608 25.0169 6C25.0169 4.67392 24.4845 3.40215 23.5368 2.46447C22.5891 1.52678 21.3038 1 19.9636 1C18.6233 1 17.338 1.52678 16.3903 2.46447C15.4426 3.40215 14.9102 4.67392 14.9102 6C14.9102 7.32608 15.4426 8.59785 16.3903 9.53553C17.338 10.4732 18.6233 11 19.9636 11ZM1.43466 21V19.3333C1.43466 18.0073 1.96707 16.7355 2.91475 15.7978C3.86243 14.8601 5.14777 14.3333 6.488 14.3333M6.488 14.3333C7.38148 14.3333 8.23837 13.9821 8.87016 13.357C9.50195 12.7319 9.85688 11.8841 9.85688 11C9.85688 10.1159 9.50195 9.2681 8.87016 8.64298C8.23837 8.01786 7.38148 7.66667 6.488 7.66667C5.59451 7.66667 4.73762 8.01786 4.10583 8.64298C3.47404 9.2681 3.11911 10.1159 3.11911 11C3.11911 11.8841 3.47404 12.7319 4.10583 13.357C4.73762 13.9821 5.59451 14.3333 6.488 14.3333ZM38.4924 21V19.3333C38.4924 18.0073 37.96 16.7355 37.0124 15.7978C36.0647 14.8601 34.7793 14.3333 33.4391 14.3333M33.4391 14.3333C34.3326 14.3333 35.1895 13.9821 35.8213 13.357C36.4531 12.7319 36.808 11.8841 36.808 11C36.808 10.1159 36.4531 9.2681 35.8213 8.64298C35.1895 8.01786 34.3326 7.66667 33.4391 7.66667C32.5456 7.66667 31.6887 8.01786 31.0569 8.64298C30.4252 9.2681 30.0702 10.1159 30.0702 11C30.0702 11.8841 30.4252 12.7319 31.0569 13.357C31.6887 13.9821 32.5456 14.3333 33.4391 14.3333Z" stroke="white" stroke-width="1.5" stroke-linecap="round" stroke-linejoin="round"/>
</svg>
