<svg width="32" height="30" viewBox="0 0 32 30"  xmlns="http://www.w3.org/2000/svg">
<path d="M30.3511 13.0499L30.3487 13.0476L17.9793 0.809261C17.4521 0.287256 16.7511 0 16.0055 0C15.2599 0 14.5589 0.287256 14.0314 0.809203L1.66844 13.0414C1.6643 13.0455 1.65992 13.0498 1.65601 13.054C0.57326 14.1314 0.575155 15.8795 1.66134 16.9542C2.15752 17.4455 2.81267 17.7298 3.51347 17.7597C3.54214 17.7625 3.57086 17.7638 3.59976 17.7638H4.09251V26.7704C4.09251 28.5529 5.55832 30.003 7.35982 30.003H12.1991C12.6898 30.003 13.0875 29.6092 13.0875 29.124V22.0628C13.0875 21.2495 13.7563 20.5879 14.5783 20.5879H17.4326C18.2547 20.5879 18.9232 21.2495 18.9232 22.0628V29.124C18.9232 29.6093 19.3209 30.003 19.8116 30.003H24.6509C26.4526 30.003 27.9182 28.5529 27.9182 26.7704V17.7639H28.3754C29.1208 17.7639 29.8217 17.4766 30.3494 16.9545C31.4368 15.8782 31.4373 14.1269 30.3511 13.0499ZM29.093 15.7116C28.999 15.8051 28.8872 15.8793 28.764 15.9299C28.6408 15.9804 28.5087 16.0063 28.3754 16.006H27.0298C26.5391 16.006 26.1414 16.3994 26.1414 16.885V26.7704C26.1414 27.5835 25.4728 28.245 24.6508 28.245H20.7V22.0628C20.7 20.2803 19.2343 18.8299 17.4326 18.8299H14.5784C12.7766 18.8299 11.3108 20.2803 11.3108 22.0628V28.245H7.35994C6.53814 28.245 5.86931 27.5834 5.86931 26.7704V16.8849C5.86931 16.3994 5.47162 16.0059 4.98094 16.0059H3.65851C3.64465 16.0049 3.63077 16.0043 3.61688 16.004C3.3522 15.9995 3.10399 15.8956 2.91803 15.7113C2.52241 15.3198 2.52241 14.6828 2.91803 14.2912V14.2912L2.91915 14.29L15.2881 2.05216C15.382 1.95858 15.4938 1.88439 15.617 1.83389C15.7401 1.78339 15.8722 1.75759 16.0055 1.75799C16.2764 1.75799 16.5311 1.86236 16.7229 2.05216L29.089 14.2875L29.0948 14.293C29.4884 14.6852 29.4877 15.3209 29.093 15.7116Z" fill="black"/>
</svg>
