<svg width="343" height="70" viewBox="0 0 343 70" fill="none" xmlns="http://www.w3.org/2000/svg">
<rect x="0.5" y="0.5" width="342" height="69" rx="5.5" fill="#FEF9E6" stroke="black"/>
<path d="M134.05 41.36C134.05 42.1067 133.87 42.8067 133.51 43.46C133.164 44.1133 132.61 44.64 131.85 45.04C131.104 45.44 130.157 45.64 129.01 45.64H126.67V51H123.87V37.04H129.01C130.09 37.04 131.01 37.2267 131.77 37.6C132.53 37.9733 133.097 38.4867 133.47 39.14C133.857 39.7933 134.05 40.5333 134.05 41.36ZM128.89 43.38C129.664 43.38 130.237 43.2067 130.61 42.86C130.984 42.5 131.17 42 131.17 41.36C131.17 40 130.41 39.32 128.89 39.32H126.67V43.38H128.89ZM138.838 41.64C139.198 41.0533 139.665 40.5933 140.238 40.26C140.825 39.9267 141.492 39.76 142.238 39.76V42.7H141.498C140.618 42.7 139.952 42.9067 139.498 43.32C139.058 43.7333 138.838 44.4533 138.838 45.48V51H136.038V39.92H138.838V41.64ZM149.044 51.18C147.977 51.18 147.017 50.9467 146.164 50.48C145.311 50 144.637 49.3267 144.144 48.46C143.664 47.5933 143.424 46.5933 143.424 45.46C143.424 44.3267 143.671 43.3267 144.164 42.46C144.671 41.5933 145.357 40.9267 146.224 40.46C147.091 39.98 148.057 39.74 149.124 39.74C150.191 39.74 151.157 39.98 152.024 40.46C152.891 40.9267 153.571 41.5933 154.064 42.46C154.571 43.3267 154.824 44.3267 154.824 45.46C154.824 46.5933 154.564 47.5933 154.044 48.46C153.537 49.3267 152.844 50 151.964 50.48C151.097 50.9467 150.124 51.18 149.044 51.18ZM149.044 48.74C149.551 48.74 150.024 48.62 150.464 48.38C150.917 48.1267 151.277 47.7533 151.544 47.26C151.811 46.7667 151.944 46.1667 151.944 45.46C151.944 44.4067 151.664 43.6 151.104 43.04C150.557 42.4667 149.884 42.18 149.084 42.18C148.284 42.18 147.611 42.4667 147.064 43.04C146.531 43.6 146.264 44.4067 146.264 45.46C146.264 46.5133 146.524 47.3267 147.044 47.9C147.577 48.46 148.244 48.74 149.044 48.74ZM156.158 45.46C156.158 44.3133 156.391 43.3133 156.858 42.46C157.325 41.5933 157.971 40.9267 158.798 40.46C159.625 39.98 160.571 39.74 161.638 39.74C163.011 39.74 164.145 40.0867 165.038 40.78C165.945 41.46 166.551 42.42 166.858 43.66H163.838C163.678 43.18 163.405 42.8067 163.018 42.54C162.645 42.26 162.178 42.12 161.618 42.12C160.818 42.12 160.185 42.4133 159.718 43C159.251 43.5733 159.018 44.3933 159.018 45.46C159.018 46.5133 159.251 47.3333 159.718 47.92C160.185 48.4933 160.818 48.78 161.618 48.78C162.751 48.78 163.491 48.2733 163.838 47.26H166.858C166.551 48.46 165.945 49.4133 165.038 50.12C164.131 50.8267 162.998 51.18 161.638 51.18C160.571 51.18 159.625 50.9467 158.798 50.48C157.971 50 157.325 49.3333 156.858 48.48C156.391 47.6133 156.158 46.6067 156.158 45.46ZM179.209 45.22C179.209 45.62 179.183 45.98 179.129 46.3H171.029C171.096 47.1 171.376 47.7267 171.869 48.18C172.363 48.6333 172.969 48.86 173.689 48.86C174.729 48.86 175.469 48.4133 175.909 47.52H178.929C178.609 48.5867 177.996 49.4667 177.089 50.16C176.183 50.84 175.069 51.18 173.749 51.18C172.683 51.18 171.723 50.9467 170.869 50.48C170.029 50 169.369 49.3267 168.889 48.46C168.423 47.5933 168.189 46.5933 168.189 45.46C168.189 44.3133 168.423 43.3067 168.889 42.44C169.356 41.5733 170.009 40.9067 170.849 40.44C171.689 39.9733 172.656 39.74 173.749 39.74C174.803 39.74 175.743 39.9667 176.569 40.42C177.409 40.8733 178.056 41.52 178.509 42.36C178.976 43.1867 179.209 44.14 179.209 45.22ZM176.309 44.42C176.296 43.7 176.036 43.1267 175.529 42.7C175.023 42.26 174.403 42.04 173.669 42.04C172.976 42.04 172.389 42.2533 171.909 42.68C171.443 43.0933 171.156 43.6733 171.049 44.42H176.309ZM185.493 51.18C184.586 51.18 183.773 51.02 183.053 50.7C182.333 50.3667 181.76 49.92 181.333 49.36C180.92 48.8 180.693 48.18 180.653 47.5H183.473C183.526 47.9267 183.733 48.28 184.093 48.56C184.466 48.84 184.926 48.98 185.473 48.98C186.006 48.98 186.42 48.8733 186.713 48.66C187.02 48.4467 187.173 48.1733 187.173 47.84C187.173 47.48 186.986 47.2133 186.613 47.04C186.253 46.8533 185.673 46.6533 184.873 46.44C184.046 46.24 183.366 46.0333 182.833 45.82C182.313 45.6067 181.86 45.28 181.473 44.84C181.1 44.4 180.913 43.8067 180.913 43.06C180.913 42.4467 181.086 41.8867 181.433 41.38C181.793 40.8733 182.3 40.4733 182.953 40.18C183.62 39.8867 184.4 39.74 185.293 39.74C186.613 39.74 187.666 40.0733 188.453 40.74C189.24 41.3933 189.673 42.28 189.753 43.4H187.073C187.033 42.96 186.846 42.6133 186.513 42.36C186.193 42.0933 185.76 41.96 185.213 41.96C184.706 41.96 184.313 42.0533 184.033 42.24C183.766 42.4267 183.633 42.6867 183.633 43.02C183.633 43.3933 183.82 43.68 184.193 43.88C184.566 44.0667 185.146 44.26 185.933 44.46C186.733 44.66 187.393 44.8667 187.913 45.08C188.433 45.2933 188.88 45.6267 189.253 46.08C189.64 46.52 189.84 47.1067 189.853 47.84C189.853 48.48 189.673 49.0533 189.313 49.56C188.966 50.0667 188.46 50.4667 187.793 50.76C187.14 51.04 186.373 51.18 185.493 51.18ZM196.391 51.18C195.485 51.18 194.671 51.02 193.951 50.7C193.231 50.3667 192.658 49.92 192.231 49.36C191.818 48.8 191.591 48.18 191.551 47.5H194.371C194.425 47.9267 194.631 48.28 194.991 48.56C195.365 48.84 195.825 48.98 196.371 48.98C196.905 48.98 197.318 48.8733 197.611 48.66C197.918 48.4467 198.071 48.1733 198.071 47.84C198.071 47.48 197.885 47.2133 197.511 47.04C197.151 46.8533 196.571 46.6533 195.771 46.44C194.945 46.24 194.265 46.0333 193.731 45.82C193.211 45.6067 192.758 45.28 192.371 44.84C191.998 44.4 191.811 43.8067 191.811 43.06C191.811 42.4467 191.985 41.8867 192.331 41.38C192.691 40.8733 193.198 40.4733 193.851 40.18C194.518 39.8867 195.298 39.74 196.191 39.74C197.511 39.74 198.565 40.0733 199.351 40.74C200.138 41.3933 200.571 42.28 200.651 43.4H197.971C197.931 42.96 197.745 42.6133 197.411 42.36C197.091 42.0933 196.658 41.96 196.111 41.96C195.605 41.96 195.211 42.0533 194.931 42.24C194.665 42.4267 194.531 42.6867 194.531 43.02C194.531 43.3933 194.718 43.68 195.091 43.88C195.465 44.0667 196.045 44.26 196.831 44.46C197.631 44.66 198.291 44.8667 198.811 45.08C199.331 45.2933 199.778 45.6267 200.151 46.08C200.538 46.52 200.738 47.1067 200.751 47.84C200.751 48.48 200.571 49.0533 200.211 49.56C199.865 50.0667 199.358 50.4667 198.691 50.76C198.038 51.04 197.271 51.18 196.391 51.18ZM207.97 51.18C206.903 51.18 205.943 50.9467 205.09 50.48C204.237 50 203.563 49.3267 203.07 48.46C202.59 47.5933 202.35 46.5933 202.35 45.46C202.35 44.3267 202.597 43.3267 203.09 42.46C203.597 41.5933 204.283 40.9267 205.15 40.46C206.017 39.98 206.983 39.74 208.05 39.74C209.117 39.74 210.083 39.98 210.95 40.46C211.817 40.9267 212.497 41.5933 212.99 42.46C213.497 43.3267 213.75 44.3267 213.75 45.46C213.75 46.5933 213.49 47.5933 212.97 48.46C212.463 49.3267 211.77 50 210.89 50.48C210.023 50.9467 209.05 51.18 207.97 51.18ZM207.97 48.74C208.477 48.74 208.95 48.62 209.39 48.38C209.843 48.1267 210.203 47.7533 210.47 47.26C210.737 46.7667 210.87 46.1667 210.87 45.46C210.87 44.4067 210.59 43.6 210.03 43.04C209.483 42.4667 208.81 42.18 208.01 42.18C207.21 42.18 206.537 42.4667 205.99 43.04C205.457 43.6 205.19 44.4067 205.19 45.46C205.19 46.5133 205.45 47.3267 205.97 47.9C206.503 48.46 207.17 48.74 207.97 48.74ZM218.604 41.64C218.964 41.0533 219.43 40.5933 220.004 40.26C220.59 39.9267 221.257 39.76 222.004 39.76V42.7H221.264C220.384 42.7 219.717 42.9067 219.264 43.32C218.824 43.7333 218.604 44.4533 218.604 45.48V51H215.804V39.92H218.604V41.64Z" fill="black"/>
<path d="M178.622 20.92H174.086V25.576H170.918V20.92H166.382V17.992H170.918V13.336H174.086V17.992H178.622V20.92Z" fill="black"/>
</svg>
