<svg width="343" height="70" viewBox="0 0 343 70" fill="none" xmlns="http://www.w3.org/2000/svg">
<rect x="0.5" y="0.5" width="342" height="69" rx="5.5" fill="#FEF9E6" stroke="black"/>
<path d="M150.038 37.04V51H147.238V41.92L143.498 51H141.378L137.618 41.92V51H134.818V37.04H137.998L142.438 47.42L146.878 37.04H150.038ZM157.726 51.18C156.659 51.18 155.699 50.9467 154.846 50.48C153.992 50 153.319 49.3267 152.826 48.46C152.346 47.5933 152.106 46.5933 152.106 45.46C152.106 44.3267 152.352 43.3267 152.846 42.46C153.352 41.5933 154.039 40.9267 154.906 40.46C155.772 39.98 156.739 39.74 157.806 39.74C158.872 39.74 159.839 39.98 160.706 40.46C161.572 40.9267 162.252 41.5933 162.746 42.46C163.252 43.3267 163.506 44.3267 163.506 45.46C163.506 46.5933 163.246 47.5933 162.726 48.46C162.219 49.3267 161.526 50 160.646 50.48C159.779 50.9467 158.806 51.18 157.726 51.18ZM157.726 48.74C158.232 48.74 158.706 48.62 159.146 48.38C159.599 48.1267 159.959 47.7533 160.226 47.26C160.492 46.7667 160.626 46.1667 160.626 45.46C160.626 44.4067 160.346 43.6 159.786 43.04C159.239 42.4667 158.566 42.18 157.766 42.18C156.966 42.18 156.292 42.4667 155.746 43.04C155.212 43.6 154.946 44.4067 154.946 45.46C154.946 46.5133 155.206 47.3267 155.726 47.9C156.259 48.46 156.926 48.74 157.726 48.74ZM171.7 39.76C173.02 39.76 174.086 40.18 174.9 41.02C175.713 41.8467 176.12 43.0067 176.12 44.5V51H173.32V44.88C173.32 44 173.1 43.3267 172.66 42.86C172.22 42.38 171.62 42.14 170.86 42.14C170.086 42.14 169.473 42.38 169.02 42.86C168.58 43.3267 168.36 44 168.36 44.88V51H165.56V39.92H168.36V41.3C168.733 40.82 169.206 40.4467 169.78 40.18C170.366 39.9 171.006 39.76 171.7 39.76ZM180.202 38.6C179.709 38.6 179.296 38.4467 178.962 38.14C178.642 37.82 178.482 37.4267 178.482 36.96C178.482 36.4933 178.642 36.1067 178.962 35.8C179.296 35.48 179.709 35.32 180.202 35.32C180.696 35.32 181.102 35.48 181.422 35.8C181.756 36.1067 181.922 36.4933 181.922 36.96C181.922 37.4267 181.756 37.82 181.422 38.14C181.102 38.4467 180.696 38.6 180.202 38.6ZM181.582 39.92V51H178.782V39.92H181.582ZM187.609 42.22V47.58C187.609 47.9533 187.695 48.2267 187.869 48.4C188.055 48.56 188.362 48.64 188.789 48.64H190.089V51H188.329C185.969 51 184.789 49.8533 184.789 47.56V42.22H183.469V39.92H184.789V37.18H187.609V39.92H190.089V42.22H187.609ZM197.023 51.18C195.956 51.18 194.996 50.9467 194.143 50.48C193.289 50 192.616 49.3267 192.123 48.46C191.643 47.5933 191.403 46.5933 191.403 45.46C191.403 44.3267 191.649 43.3267 192.143 42.46C192.649 41.5933 193.336 40.9267 194.203 40.46C195.069 39.98 196.036 39.74 197.103 39.74C198.169 39.74 199.136 39.98 200.003 40.46C200.869 40.9267 201.549 41.5933 202.043 42.46C202.549 43.3267 202.803 44.3267 202.803 45.46C202.803 46.5933 202.543 47.5933 202.023 48.46C201.516 49.3267 200.823 50 199.943 50.48C199.076 50.9467 198.103 51.18 197.023 51.18ZM197.023 48.74C197.529 48.74 198.003 48.62 198.443 48.38C198.896 48.1267 199.256 47.7533 199.523 47.26C199.789 46.7667 199.923 46.1667 199.923 45.46C199.923 44.4067 199.643 43.6 199.083 43.04C198.536 42.4667 197.863 42.18 197.063 42.18C196.263 42.18 195.589 42.4667 195.043 43.04C194.509 43.6 194.243 44.4067 194.243 45.46C194.243 46.5133 194.503 47.3267 195.023 47.9C195.556 48.46 196.223 48.74 197.023 48.74ZM207.657 41.64C208.017 41.0533 208.483 40.5933 209.057 40.26C209.643 39.9267 210.31 39.76 211.057 39.76V42.7H210.317C209.437 42.7 208.77 42.9067 208.317 43.32C207.877 43.7333 207.657 44.4533 207.657 45.48V51H204.857V39.92H207.657V41.64Z" fill="black"/>
<path d="M178.622 20.92H174.086V25.576H170.918V20.92H166.382V17.992H170.918V13.336H174.086V17.992H178.622V20.92Z" fill="black"/>
</svg>
