<svg width="343" height="70" viewBox="0 0 343 70" fill="none" xmlns="http://www.w3.org/2000/svg">
<rect x="0.5" y="0.5" width="342" height="69" rx="5.5" fill="#FEF9E6" stroke="black"/>
<path d="M121.356 48.34H115.796L114.876 51H111.936L116.956 37.02H120.216L125.236 51H122.276L121.356 48.34ZM120.596 46.1L118.576 40.26L116.556 46.1H120.596ZM126.392 45.46C126.392 44.3133 126.626 43.3133 127.092 42.46C127.559 41.5933 128.206 40.9267 129.032 40.46C129.859 39.98 130.806 39.74 131.872 39.74C133.246 39.74 134.379 40.0867 135.272 40.78C136.179 41.46 136.786 42.42 137.092 43.66H134.072C133.912 43.18 133.639 42.8067 133.252 42.54C132.879 42.26 132.412 42.12 131.852 42.12C131.052 42.12 130.419 42.4133 129.952 43C129.486 43.5733 129.252 44.3933 129.252 45.46C129.252 46.5133 129.486 47.3333 129.952 47.92C130.419 48.4933 131.052 48.78 131.852 48.78C132.986 48.78 133.726 48.2733 134.072 47.26H137.092C136.786 48.46 136.179 49.4133 135.272 50.12C134.366 50.8267 133.232 51.18 131.872 51.18C130.806 51.18 129.859 50.9467 129.032 50.48C128.206 50 127.559 49.3333 127.092 48.48C126.626 47.6133 126.392 46.6067 126.392 45.46ZM138.424 45.46C138.424 44.3133 138.657 43.3133 139.124 42.46C139.59 41.5933 140.237 40.9267 141.064 40.46C141.89 39.98 142.837 39.74 143.904 39.74C145.277 39.74 146.41 40.0867 147.304 40.78C148.21 41.46 148.817 42.42 149.124 43.66H146.104C145.944 43.18 145.67 42.8067 145.284 42.54C144.91 42.26 144.444 42.12 143.884 42.12C143.084 42.12 142.45 42.4133 141.984 43C141.517 43.5733 141.284 44.3933 141.284 45.46C141.284 46.5133 141.517 47.3333 141.984 47.92C142.45 48.4933 143.084 48.78 143.884 48.78C145.017 48.78 145.757 48.2733 146.104 47.26H149.124C148.817 48.46 148.21 49.4133 147.304 50.12C146.397 50.8267 145.264 51.18 143.904 51.18C142.837 51.18 141.89 50.9467 141.064 50.48C140.237 50 139.59 49.3333 139.124 48.48C138.657 47.6133 138.424 46.6067 138.424 45.46ZM161.475 45.22C161.475 45.62 161.448 45.98 161.395 46.3H153.295C153.362 47.1 153.642 47.7267 154.135 48.18C154.628 48.6333 155.235 48.86 155.955 48.86C156.995 48.86 157.735 48.4133 158.175 47.52H161.195C160.875 48.5867 160.262 49.4667 159.355 50.16C158.448 50.84 157.335 51.18 156.015 51.18C154.948 51.18 153.988 50.9467 153.135 50.48C152.295 50 151.635 49.3267 151.155 48.46C150.688 47.5933 150.455 46.5933 150.455 45.46C150.455 44.3133 150.688 43.3067 151.155 42.44C151.622 41.5733 152.275 40.9067 153.115 40.44C153.955 39.9733 154.922 39.74 156.015 39.74C157.068 39.74 158.008 39.9667 158.835 40.42C159.675 40.8733 160.322 41.52 160.775 42.36C161.242 43.1867 161.475 44.14 161.475 45.22ZM158.575 44.42C158.562 43.7 158.302 43.1267 157.795 42.7C157.288 42.26 156.668 42.04 155.935 42.04C155.242 42.04 154.655 42.2533 154.175 42.68C153.708 43.0933 153.422 43.6733 153.315 44.42H158.575ZM167.759 51.18C166.852 51.18 166.039 51.02 165.319 50.7C164.599 50.3667 164.025 49.92 163.599 49.36C163.185 48.8 162.959 48.18 162.919 47.5H165.739C165.792 47.9267 165.999 48.28 166.359 48.56C166.732 48.84 167.192 48.98 167.739 48.98C168.272 48.98 168.685 48.8733 168.979 48.66C169.285 48.4467 169.439 48.1733 169.439 47.84C169.439 47.48 169.252 47.2133 168.879 47.04C168.519 46.8533 167.939 46.6533 167.139 46.44C166.312 46.24 165.632 46.0333 165.099 45.82C164.579 45.6067 164.125 45.28 163.739 44.84C163.365 44.4 163.179 43.8067 163.179 43.06C163.179 42.4467 163.352 41.8867 163.699 41.38C164.059 40.8733 164.565 40.4733 165.219 40.18C165.885 39.8867 166.665 39.74 167.559 39.74C168.879 39.74 169.932 40.0733 170.719 40.74C171.505 41.3933 171.939 42.28 172.019 43.4H169.339C169.299 42.96 169.112 42.6133 168.779 42.36C168.459 42.0933 168.025 41.96 167.479 41.96C166.972 41.96 166.579 42.0533 166.299 42.24C166.032 42.4267 165.899 42.6867 165.899 43.02C165.899 43.3933 166.085 43.68 166.459 43.88C166.832 44.0667 167.412 44.26 168.199 44.46C168.999 44.66 169.659 44.8667 170.179 45.08C170.699 45.2933 171.145 45.6267 171.519 46.08C171.905 46.52 172.105 47.1067 172.119 47.84C172.119 48.48 171.939 49.0533 171.579 49.56C171.232 50.0667 170.725 50.4667 170.059 50.76C169.405 51.04 168.639 51.18 167.759 51.18ZM178.657 51.18C177.75 51.18 176.937 51.02 176.217 50.7C175.497 50.3667 174.924 49.92 174.497 49.36C174.084 48.8 173.857 48.18 173.817 47.5H176.637C176.69 47.9267 176.897 48.28 177.257 48.56C177.63 48.84 178.09 48.98 178.637 48.98C179.17 48.98 179.584 48.8733 179.877 48.66C180.184 48.4467 180.337 48.1733 180.337 47.84C180.337 47.48 180.15 47.2133 179.777 47.04C179.417 46.8533 178.837 46.6533 178.037 46.44C177.21 46.24 176.53 46.0333 175.997 45.82C175.477 45.6067 175.024 45.28 174.637 44.84C174.264 44.4 174.077 43.8067 174.077 43.06C174.077 42.4467 174.25 41.8867 174.597 41.38C174.957 40.8733 175.464 40.4733 176.117 40.18C176.784 39.8867 177.564 39.74 178.457 39.74C179.777 39.74 180.83 40.0733 181.617 40.74C182.404 41.3933 182.837 42.28 182.917 43.4H180.237C180.197 42.96 180.01 42.6133 179.677 42.36C179.357 42.0933 178.924 41.96 178.377 41.96C177.87 41.96 177.477 42.0533 177.197 42.24C176.93 42.4267 176.797 42.6867 176.797 43.02C176.797 43.3933 176.984 43.68 177.357 43.88C177.73 44.0667 178.31 44.26 179.097 44.46C179.897 44.66 180.557 44.8667 181.077 45.08C181.597 45.2933 182.044 45.6267 182.417 46.08C182.804 46.52 183.004 47.1067 183.017 47.84C183.017 48.48 182.837 49.0533 182.477 49.56C182.13 50.0667 181.624 50.4667 180.957 50.76C180.304 51.04 179.537 51.18 178.657 51.18ZM190.236 51.18C189.169 51.18 188.209 50.9467 187.356 50.48C186.502 50 185.829 49.3267 185.336 48.46C184.856 47.5933 184.616 46.5933 184.616 45.46C184.616 44.3267 184.862 43.3267 185.356 42.46C185.862 41.5933 186.549 40.9267 187.416 40.46C188.282 39.98 189.249 39.74 190.316 39.74C191.382 39.74 192.349 39.98 193.216 40.46C194.082 40.9267 194.762 41.5933 195.256 42.46C195.762 43.3267 196.016 44.3267 196.016 45.46C196.016 46.5933 195.756 47.5933 195.236 48.46C194.729 49.3267 194.036 50 193.156 50.48C192.289 50.9467 191.316 51.18 190.236 51.18ZM190.236 48.74C190.742 48.74 191.216 48.62 191.656 48.38C192.109 48.1267 192.469 47.7533 192.736 47.26C193.002 46.7667 193.136 46.1667 193.136 45.46C193.136 44.4067 192.856 43.6 192.296 43.04C191.749 42.4667 191.076 42.18 190.276 42.18C189.476 42.18 188.802 42.4667 188.256 43.04C187.722 43.6 187.456 44.4067 187.456 45.46C187.456 46.5133 187.716 47.3267 188.236 47.9C188.769 48.46 189.436 48.74 190.236 48.74ZM200.869 41.64C201.229 41.0533 201.696 40.5933 202.269 40.26C202.856 39.9267 203.523 39.76 204.269 39.76V42.7H203.529C202.649 42.7 201.983 42.9067 201.529 43.32C201.089 43.7333 200.869 44.4533 200.869 45.48V51H198.069V39.92H200.869V41.64ZM207.575 38.6C207.082 38.6 206.669 38.4467 206.335 38.14C206.015 37.82 205.855 37.4267 205.855 36.96C205.855 36.4933 206.015 36.1067 206.335 35.8C206.669 35.48 207.082 35.32 207.575 35.32C208.069 35.32 208.475 35.48 208.795 35.8C209.129 36.1067 209.295 36.4933 209.295 36.96C209.295 37.4267 209.129 37.82 208.795 38.14C208.475 38.4467 208.069 38.6 207.575 38.6ZM208.955 39.92V51H206.155V39.92H208.955ZM222.022 45.22C222.022 45.62 221.995 45.98 221.942 46.3H213.842C213.908 47.1 214.188 47.7267 214.682 48.18C215.175 48.6333 215.782 48.86 216.502 48.86C217.542 48.86 218.282 48.4133 218.722 47.52H221.742C221.422 48.5867 220.808 49.4667 219.902 50.16C218.995 50.84 217.882 51.18 216.562 51.18C215.495 51.18 214.535 50.9467 213.682 50.48C212.842 50 212.182 49.3267 211.702 48.46C211.235 47.5933 211.002 46.5933 211.002 45.46C211.002 44.3133 211.235 43.3067 211.702 42.44C212.168 41.5733 212.822 40.9067 213.662 40.44C214.502 39.9733 215.468 39.74 216.562 39.74C217.615 39.74 218.555 39.9667 219.382 40.42C220.222 40.8733 220.868 41.52 221.322 42.36C221.788 43.1867 222.022 44.14 222.022 45.22ZM219.122 44.42C219.108 43.7 218.848 43.1267 218.342 42.7C217.835 42.26 217.215 42.04 216.482 42.04C215.788 42.04 215.202 42.2533 214.722 42.68C214.255 43.0933 213.968 43.6733 213.862 44.42H219.122ZM228.306 51.18C227.399 51.18 226.586 51.02 225.866 50.7C225.146 50.3667 224.572 49.92 224.146 49.36C223.732 48.8 223.506 48.18 223.466 47.5H226.286C226.339 47.9267 226.546 48.28 226.906 48.56C227.279 48.84 227.739 48.98 228.286 48.98C228.819 48.98 229.232 48.8733 229.526 48.66C229.832 48.4467 229.986 48.1733 229.986 47.84C229.986 47.48 229.799 47.2133 229.426 47.04C229.066 46.8533 228.486 46.6533 227.686 46.44C226.859 46.24 226.179 46.0333 225.646 45.82C225.126 45.6067 224.672 45.28 224.286 44.84C223.912 44.4 223.726 43.8067 223.726 43.06C223.726 42.4467 223.899 41.8867 224.246 41.38C224.606 40.8733 225.112 40.4733 225.766 40.18C226.432 39.8867 227.212 39.74 228.106 39.74C229.426 39.74 230.479 40.0733 231.266 40.74C232.052 41.3933 232.486 42.28 232.566 43.4H229.886C229.846 42.96 229.659 42.6133 229.326 42.36C229.006 42.0933 228.572 41.96 228.026 41.96C227.519 41.96 227.126 42.0533 226.846 42.24C226.579 42.4267 226.446 42.6867 226.446 43.02C226.446 43.3933 226.632 43.68 227.006 43.88C227.379 44.0667 227.959 44.26 228.746 44.46C229.546 44.66 230.206 44.8667 230.726 45.08C231.246 45.2933 231.692 45.6267 232.066 46.08C232.452 46.52 232.652 47.1067 232.666 47.84C232.666 48.48 232.486 49.0533 232.126 49.56C231.779 50.0667 231.272 50.4667 230.606 50.76C229.952 51.04 229.186 51.18 228.306 51.18Z" fill="black"/>
<path d="M178.622 20.92H174.086V25.576H170.918V20.92H166.382V17.992H170.918V13.336H174.086V17.992H178.622V20.92Z" fill="black"/>
</svg>
