<svg width="105" height="105" viewBox="0 0 105 105" fill="none" xmlns="http://www.w3.org/2000/svg">
<g filter="url(#filter0_d_389_2677)">
<path d="M19 95.5C16.9958 95.5 15.0974 95.0642 13.3911 94.2837L12.7671 95.6477C9.49232 94.1497 6.85028 91.5077 5.35226 88.2329L6.71632 87.6089C5.93578 85.9026 5.5 84.0042 5.5 82V75.9091H4V65.7576H5.5V53.5758H4V43.4242H5.5V31.2424H4V21.0909H5.5V15C5.5 12.9958 5.93578 11.0974 6.71632 9.3911L5.35226 8.76713C6.85028 5.49232 9.49232 2.85028 12.7671 1.35226L13.3911 2.71632C15.0974 1.93578 16.9958 1.5 19 1.5H25.0909V0H35.2424V1.5H47.4242V0H57.5758V1.5H69.7576V0H79.9091V1.5H86C88.0042 1.5 89.9026 1.93578 91.6089 2.71632L92.2329 1.35226C95.5077 2.85028 98.1497 5.49232 99.6477 8.76713L98.2837 9.3911C99.0642 11.0974 99.5 12.9958 99.5 15V21.0909H101V31.2424H99.5V43.4242H101V53.5758H99.5V65.7576H101V75.9091H99.5V82C99.5 84.0042 99.0642 85.9026 98.2837 87.6089L99.6477 88.2329C98.1497 91.5077 95.5077 94.1497 92.2329 95.6477L91.6089 94.2837C89.9026 95.0642 88.0042 95.5 86 95.5H79.9091V97H69.7576V95.5H57.5758V97H47.4242V95.5H35.2424V97H25.0909V95.5H19Z" stroke="#FEF9E6" stroke-width="3" stroke-dasharray="12 10" shape-rendering="crispEdges"/>
</g>
<path d="M73 45.2727V50.7273C73 51.4848 72.7348 52.1288 72.2045 52.6591C71.6742 53.1894 71.0303 53.4545 70.2727 53.4545H58.4545V65.2727C58.4545 66.0303 58.1894 66.6742 57.6591 67.2045C57.1288 67.7348 56.4848 68 55.7273 68H50.2727C49.5152 68 48.8712 67.7348 48.3409 67.2045C47.8106 66.6742 47.5455 66.0303 47.5455 65.2727V53.4545H35.7273C34.9697 53.4545 34.3258 53.1894 33.7955 52.6591C33.2652 52.1288 33 51.4848 33 50.7273V45.2727C33 44.5152 33.2652 43.8712 33.7955 43.3409C34.3258 42.8106 34.9697 42.5455 35.7273 42.5455H47.5455V30.7273C47.5455 29.9697 47.8106 29.3258 48.3409 28.7955C48.8712 28.2652 49.5152 28 50.2727 28H55.7273C56.4848 28 57.1288 28.2652 57.6591 28.7955C58.1894 29.3258 58.4545 29.9697 58.4545 30.7273V42.5455H70.2727C71.0303 42.5455 71.6742 42.8106 72.2045 43.3409C72.7348 43.8712 73 44.5152 73 45.2727Z" fill="#FEF9E6"/>
<defs>
<filter id="filter0_d_389_2677" x="0" y="0" width="105" height="105" filterUnits="userSpaceOnUse" color-interpolation-filters="sRGB">
<feFlood flood-opacity="0" result="BackgroundImageFix"/>
<feColorMatrix in="SourceAlpha" type="matrix" values="0 0 0 0 0 0 0 0 0 0 0 0 0 0 0 0 0 0 127 0" result="hardAlpha"/>
<feOffset dy="4"/>
<feGaussianBlur stdDeviation="2"/>
<feComposite in2="hardAlpha" operator="out"/>
<feColorMatrix type="matrix" values="0 0 0 0 0 0 0 0 0 0 0 0 0 0 0 0 0 0 0.5 0"/>
<feBlend mode="normal" in2="BackgroundImageFix" result="effect1_dropShadow_389_2677"/>
<feBlend mode="normal" in="SourceGraphic" in2="effect1_dropShadow_389_2677" result="shape"/>
</filter>
</defs>
</svg>
