<svg width="343" height="70" viewBox="0 0 343 70" fill="none" xmlns="http://www.w3.org/2000/svg">
<rect x="0.5" y="0.5" width="342" height="69" rx="5.5" fill="#FEF9E6" stroke="black"/>
<path d="M158.021 51L154.941 45.56H153.621V51H150.821V37.04H156.061C157.141 37.04 158.061 37.2333 158.821 37.62C159.581 37.9933 160.148 38.5067 160.521 39.16C160.908 39.8 161.101 40.52 161.101 41.32C161.101 42.24 160.835 43.0733 160.301 43.82C159.768 44.5533 158.975 45.06 157.921 45.34L161.261 51H158.021ZM153.621 43.46H155.961C156.721 43.46 157.288 43.28 157.661 42.92C158.035 42.5467 158.221 42.0333 158.221 41.38C158.221 40.74 158.035 40.2467 157.661 39.9C157.288 39.54 156.721 39.36 155.961 39.36H153.621V43.46ZM172.194 48.34H166.634L165.714 51H162.774L167.794 37.02H171.054L176.074 51H173.114L172.194 48.34ZM171.434 46.1L169.414 40.26L167.394 46.1H171.434ZM193.17 37.04V51H190.37V41.92L186.63 51H184.51L180.75 41.92V51H177.95V37.04H181.13L185.57 47.42L190.01 37.04H193.17Z" fill="black"/>
<path d="M178.622 20.92H174.086V25.576H170.918V20.92H166.382V17.992H170.918V13.336H174.086V17.992H178.622V20.92Z" fill="black"/>
</svg>
