<svg width="343" height="70" viewBox="0 0 343 70" fill="none" xmlns="http://www.w3.org/2000/svg">
<rect x="0.5" y="0.5" width="342" height="69" rx="5.5" fill="#FEF9E6" stroke="black"/>
<path d="M115.611 41.36C115.611 42.1067 115.431 42.8067 115.071 43.46C114.724 44.1133 114.171 44.64 113.411 45.04C112.664 45.44 111.717 45.64 110.571 45.64H108.231V51H105.431V37.04H110.571C111.651 37.04 112.571 37.2267 113.331 37.6C114.091 37.9733 114.657 38.4867 115.031 39.14C115.417 39.7933 115.611 40.5333 115.611 41.36ZM110.451 43.38C111.224 43.38 111.797 43.2067 112.171 42.86C112.544 42.5 112.731 42 112.731 41.36C112.731 40 111.971 39.32 110.451 39.32H108.231V43.38H110.451ZM122.519 51.18C121.452 51.18 120.492 50.9467 119.639 50.48C118.785 50 118.112 49.3267 117.619 48.46C117.139 47.5933 116.899 46.5933 116.899 45.46C116.899 44.3267 117.145 43.3267 117.639 42.46C118.145 41.5933 118.832 40.9267 119.699 40.46C120.565 39.98 121.532 39.74 122.599 39.74C123.665 39.74 124.632 39.98 125.499 40.46C126.365 40.9267 127.045 41.5933 127.539 42.46C128.045 43.3267 128.299 44.3267 128.299 45.46C128.299 46.5933 128.039 47.5933 127.519 48.46C127.012 49.3267 126.319 50 125.439 50.48C124.572 50.9467 123.599 51.18 122.519 51.18ZM122.519 48.74C123.025 48.74 123.499 48.62 123.939 48.38C124.392 48.1267 124.752 47.7533 125.019 47.26C125.285 46.7667 125.419 46.1667 125.419 45.46C125.419 44.4067 125.139 43.6 124.579 43.04C124.032 42.4667 123.359 42.18 122.559 42.18C121.759 42.18 121.085 42.4667 120.539 43.04C120.005 43.6 119.739 44.4067 119.739 45.46C119.739 46.5133 119.999 47.3267 120.519 47.9C121.052 48.46 121.719 48.74 122.519 48.74ZM145.713 39.92L142.473 51H139.453L137.433 43.26L135.413 51H132.373L129.113 39.92H131.953L133.913 48.36L136.033 39.92H138.993L141.073 48.34L143.033 39.92H145.713ZM157.528 45.22C157.528 45.62 157.501 45.98 157.448 46.3H149.348C149.414 47.1 149.694 47.7267 150.188 48.18C150.681 48.6333 151.288 48.86 152.008 48.86C153.048 48.86 153.788 48.4133 154.228 47.52H157.248C156.928 48.5867 156.314 49.4667 155.408 50.16C154.501 50.84 153.388 51.18 152.068 51.18C151.001 51.18 150.041 50.9467 149.188 50.48C148.348 50 147.688 49.3267 147.208 48.46C146.741 47.5933 146.508 46.5933 146.508 45.46C146.508 44.3133 146.741 43.3067 147.208 42.44C147.674 41.5733 148.328 40.9067 149.168 40.44C150.008 39.9733 150.974 39.74 152.068 39.74C153.121 39.74 154.061 39.9667 154.888 40.42C155.728 40.8733 156.374 41.52 156.828 42.36C157.294 43.1867 157.528 44.14 157.528 45.22ZM154.628 44.42C154.614 43.7 154.354 43.1267 153.848 42.7C153.341 42.26 152.721 42.04 151.988 42.04C151.294 42.04 150.708 42.2533 150.228 42.68C149.761 43.0933 149.474 43.6733 149.368 44.42H154.628ZM162.371 41.64C162.731 41.0533 163.198 40.5933 163.771 40.26C164.358 39.9267 165.025 39.76 165.771 39.76V42.7H165.031C164.151 42.7 163.485 42.9067 163.031 43.32C162.591 43.7333 162.371 44.4533 162.371 45.48V51H159.571V39.92H162.371V41.64ZM176.663 51.18C175.756 51.18 174.943 51.02 174.223 50.7C173.503 50.3667 172.93 49.92 172.503 49.36C172.09 48.8 171.863 48.18 171.823 47.5H174.643C174.696 47.9267 174.903 48.28 175.263 48.56C175.636 48.84 176.096 48.98 176.643 48.98C177.176 48.98 177.59 48.8733 177.883 48.66C178.19 48.4467 178.343 48.1733 178.343 47.84C178.343 47.48 178.156 47.2133 177.783 47.04C177.423 46.8533 176.843 46.6533 176.043 46.44C175.216 46.24 174.536 46.0333 174.003 45.82C173.483 45.6067 173.03 45.28 172.643 44.84C172.27 44.4 172.083 43.8067 172.083 43.06C172.083 42.4467 172.256 41.8867 172.603 41.38C172.963 40.8733 173.47 40.4733 174.123 40.18C174.79 39.8867 175.57 39.74 176.463 39.74C177.783 39.74 178.836 40.0733 179.623 40.74C180.41 41.3933 180.843 42.28 180.923 43.4H178.243C178.203 42.96 178.016 42.6133 177.683 42.36C177.363 42.0933 176.93 41.96 176.383 41.96C175.876 41.96 175.483 42.0533 175.203 42.24C174.936 42.4267 174.803 42.6867 174.803 43.02C174.803 43.3933 174.99 43.68 175.363 43.88C175.736 44.0667 176.316 44.26 177.103 44.46C177.903 44.66 178.563 44.8667 179.083 45.08C179.603 45.2933 180.05 45.6267 180.423 46.08C180.81 46.52 181.01 47.1067 181.023 47.84C181.023 48.48 180.843 49.0533 180.483 49.56C180.136 50.0667 179.63 50.4667 178.963 50.76C178.31 51.04 177.543 51.18 176.663 51.18ZM193.781 39.92V51H190.961V49.6C190.601 50.08 190.128 50.46 189.541 50.74C188.968 51.0067 188.341 51.14 187.661 51.14C186.795 51.14 186.028 50.96 185.361 50.6C184.695 50.2267 184.168 49.6867 183.781 48.98C183.408 48.26 183.221 47.4067 183.221 46.42V39.92H186.021V46.02C186.021 46.9 186.241 47.58 186.681 48.06C187.121 48.5267 187.721 48.76 188.481 48.76C189.255 48.76 189.861 48.5267 190.301 48.06C190.741 47.58 190.961 46.9 190.961 46.02V39.92H193.781ZM199.344 41.52C199.704 41.0133 200.197 40.5933 200.824 40.26C201.464 39.9133 202.191 39.74 203.004 39.74C203.951 39.74 204.804 39.9733 205.564 40.44C206.337 40.9067 206.944 41.5733 207.384 42.44C207.837 43.2933 208.064 44.2867 208.064 45.42C208.064 46.5533 207.837 47.56 207.384 48.44C206.944 49.3067 206.337 49.98 205.564 50.46C204.804 50.94 203.951 51.18 203.004 51.18C202.191 51.18 201.471 51.0133 200.844 50.68C200.231 50.3467 199.731 49.9267 199.344 49.42V56.28H196.544V39.92H199.344V41.52ZM205.204 45.42C205.204 44.7533 205.064 44.18 204.784 43.7C204.517 43.2067 204.157 42.8333 203.704 42.58C203.264 42.3267 202.784 42.2 202.264 42.2C201.757 42.2 201.277 42.3333 200.824 42.6C200.384 42.8533 200.024 43.2267 199.744 43.72C199.477 44.2133 199.344 44.7933 199.344 45.46C199.344 46.1267 199.477 46.7067 199.744 47.2C200.024 47.6933 200.384 48.0733 200.824 48.34C201.277 48.5933 201.757 48.72 202.264 48.72C202.784 48.72 203.264 48.5867 203.704 48.32C204.157 48.0533 204.517 47.6733 204.784 47.18C205.064 46.6867 205.204 46.1 205.204 45.42ZM212.899 41.52C213.259 41.0133 213.752 40.5933 214.379 40.26C215.019 39.9133 215.745 39.74 216.559 39.74C217.505 39.74 218.359 39.9733 219.119 40.44C219.892 40.9067 220.499 41.5733 220.939 42.44C221.392 43.2933 221.619 44.2867 221.619 45.42C221.619 46.5533 221.392 47.56 220.939 48.44C220.499 49.3067 219.892 49.98 219.119 50.46C218.359 50.94 217.505 51.18 216.559 51.18C215.745 51.18 215.025 51.0133 214.399 50.68C213.785 50.3467 213.285 49.9267 212.899 49.42V56.28H210.099V39.92H212.899V41.52ZM218.759 45.42C218.759 44.7533 218.619 44.18 218.339 43.7C218.072 43.2067 217.712 42.8333 217.259 42.58C216.819 42.3267 216.339 42.2 215.819 42.2C215.312 42.2 214.832 42.3333 214.379 42.6C213.939 42.8533 213.579 43.2267 213.299 43.72C213.032 44.2133 212.899 44.7933 212.899 45.46C212.899 46.1267 213.032 46.7067 213.299 47.2C213.579 47.6933 213.939 48.0733 214.379 48.34C214.832 48.5933 215.312 48.72 215.819 48.72C216.339 48.72 216.819 48.5867 217.259 48.32C217.712 48.0533 218.072 47.6733 218.339 47.18C218.619 46.6867 218.759 46.1 218.759 45.42ZM226.453 36.2V51H223.653V36.2H226.453ZM239.82 39.92L232.96 56.24H229.98L232.38 50.72L227.94 39.92H231.08L233.94 47.66L236.84 39.92H239.82Z" fill="black"/>
<path d="M178.622 20.92H174.086V25.576H170.918V20.92H166.382V17.992H170.918V13.336H174.086V17.992H178.622V20.92Z" fill="black"/>
</svg>
