<svg width="98" height="33" viewBox="0 0 98 33" fill="none" xmlns="http://www.w3.org/2000/svg">
<g filter="url(#filter0_dddd_656_252)">
<rect x="4" width="90" height="25" rx="6" fill="#FEF9E6"/>
<path d="M23.4134 14.67H20.6334L20.1734 16H18.7034L21.2134 9.01H22.8434L25.3534 16H23.8734L23.4134 14.67ZM23.0334 13.55L22.0234 10.63L21.0134 13.55H23.0334ZM25.9316 13.21C25.9316 12.65 26.0416 12.1533 26.2616 11.72C26.4882 11.2867 26.7949 10.9533 27.1816 10.72C27.5682 10.4867 27.9982 10.37 28.4716 10.37C28.8316 10.37 29.1749 10.45 29.5016 10.61C29.8282 10.7633 30.0882 10.97 30.2816 11.23V8.6H31.7016V16H30.2816V15.18C30.1082 15.4533 29.8649 15.6733 29.5516 15.84C29.2382 16.0067 28.8749 16.09 28.4616 16.09C27.9949 16.09 27.5682 15.97 27.1816 15.73C26.7949 15.49 26.4882 15.1533 26.2616 14.72C26.0416 14.28 25.9316 13.7767 25.9316 13.21ZM30.2916 13.23C30.2916 12.89 30.2249 12.6 30.0916 12.36C29.9582 12.1133 29.7782 11.9267 29.5516 11.8C29.3249 11.6667 29.0816 11.6 28.8216 11.6C28.5616 11.6 28.3216 11.6633 28.1016 11.79C27.8816 11.9167 27.7016 12.1033 27.5616 12.35C27.4282 12.59 27.3616 12.8767 27.3616 13.21C27.3616 13.5433 27.4282 13.8367 27.5616 14.09C27.7016 14.3367 27.8816 14.5267 28.1016 14.66C28.3282 14.7933 28.5682 14.86 28.8216 14.86C29.0816 14.86 29.3249 14.7967 29.5516 14.67C29.7782 14.5367 29.9582 14.35 30.0916 14.11C30.2249 13.8633 30.2916 13.57 30.2916 13.23ZM32.7089 13.21C32.7089 12.65 32.8189 12.1533 33.0389 11.72C33.2656 11.2867 33.5722 10.9533 33.9589 10.72C34.3456 10.4867 34.7756 10.37 35.2489 10.37C35.6089 10.37 35.9522 10.45 36.2789 10.61C36.6056 10.7633 36.8656 10.97 37.0589 11.23V8.6H38.4789V16H37.0589V15.18C36.8856 15.4533 36.6422 15.6733 36.3289 15.84C36.0156 16.0067 35.6522 16.09 35.2389 16.09C34.7722 16.09 34.3456 15.97 33.9589 15.73C33.5722 15.49 33.2656 15.1533 33.0389 14.72C32.8189 14.28 32.7089 13.7767 32.7089 13.21ZM37.0689 13.23C37.0689 12.89 37.0022 12.6 36.8689 12.36C36.7356 12.1133 36.5556 11.9267 36.3289 11.8C36.1022 11.6667 35.8589 11.6 35.5989 11.6C35.3389 11.6 35.0989 11.6633 34.8789 11.79C34.6589 11.9167 34.4789 12.1033 34.3389 12.35C34.2056 12.59 34.1389 12.8767 34.1389 13.21C34.1389 13.5433 34.2056 13.8367 34.3389 14.09C34.4789 14.3367 34.6589 14.5267 34.8789 14.66C35.1056 14.7933 35.3456 14.86 35.5989 14.86C35.8589 14.86 36.1022 14.7967 36.3289 14.67C36.5556 14.5367 36.7356 14.35 36.8689 14.11C37.0022 13.8633 37.0689 13.57 37.0689 13.23ZM43.8591 11.61V14.29C43.8591 14.4767 43.9024 14.6133 43.9891 14.7C44.0824 14.78 44.2357 14.82 44.4491 14.82H45.0991V16H44.2191C43.0391 16 42.4491 15.4267 42.4491 14.28V11.61H41.7891V10.46H42.4491V9.09H43.8591V10.46H45.0991V11.61H43.8591ZM48.566 16.09C48.0327 16.09 47.5527 15.9733 47.126 15.74C46.6993 15.5 46.3627 15.1633 46.116 14.73C45.876 14.2967 45.756 13.7967 45.756 13.23C45.756 12.6633 45.8793 12.1633 46.126 11.73C46.3793 11.2967 46.7227 10.9633 47.156 10.73C47.5893 10.49 48.0727 10.37 48.606 10.37C49.1393 10.37 49.6227 10.49 50.056 10.73C50.4893 10.9633 50.8293 11.2967 51.076 11.73C51.3293 12.1633 51.456 12.6633 51.456 13.23C51.456 13.7967 51.326 14.2967 51.066 14.73C50.8127 15.1633 50.466 15.5 50.026 15.74C49.5927 15.9733 49.106 16.09 48.566 16.09ZM48.566 14.87C48.8193 14.87 49.056 14.81 49.276 14.69C49.5027 14.5633 49.6827 14.3767 49.816 14.13C49.9493 13.8833 50.016 13.5833 50.016 13.23C50.016 12.7033 49.876 12.3 49.596 12.02C49.3227 11.7333 48.986 11.59 48.586 11.59C48.186 11.59 47.8493 11.7333 47.576 12.02C47.3093 12.3 47.176 12.7033 47.176 13.23C47.176 13.7567 47.306 14.1633 47.566 14.45C47.8327 14.73 48.166 14.87 48.566 14.87ZM58.8258 12.42C59.2191 12.4933 59.5424 12.69 59.7958 13.01C60.0491 13.33 60.1758 13.6967 60.1758 14.11C60.1758 14.4833 60.0824 14.8133 59.8958 15.1C59.7158 15.38 59.4524 15.6 59.1058 15.76C58.7591 15.92 58.3491 16 57.8758 16H54.8658V9.02H57.7458C58.2191 9.02 58.6258 9.09667 58.9658 9.25C59.3124 9.40333 59.5724 9.61667 59.7458 9.89C59.9258 10.1633 60.0158 10.4733 60.0158 10.82C60.0158 11.2267 59.9058 11.5667 59.6858 11.84C59.4724 12.1133 59.1858 12.3067 58.8258 12.42ZM56.2658 11.9H57.5458C57.8791 11.9 58.1358 11.8267 58.3158 11.68C58.4958 11.5267 58.5858 11.31 58.5858 11.03C58.5858 10.75 58.4958 10.5333 58.3158 10.38C58.1358 10.2267 57.8791 10.15 57.5458 10.15H56.2658V11.9ZM57.6758 14.86C58.0158 14.86 58.2791 14.78 58.4658 14.62C58.6591 14.46 58.7558 14.2333 58.7558 13.94C58.7558 13.64 58.6558 13.4067 58.4558 13.24C58.2558 13.0667 57.9858 12.98 57.6458 12.98H56.2658V14.86H57.6758ZM66.5216 10.46V16H65.1116V15.3C64.9316 15.54 64.6949 15.73 64.4016 15.87C64.1149 16.0033 63.8016 16.07 63.4616 16.07C63.0282 16.07 62.6449 15.98 62.3116 15.8C61.9782 15.6133 61.7149 15.3433 61.5216 14.99C61.3349 14.63 61.2416 14.2033 61.2416 13.71V10.46H62.6416V13.51C62.6416 13.95 62.7516 14.29 62.9716 14.53C63.1916 14.7633 63.4916 14.88 63.8716 14.88C64.2582 14.88 64.5616 14.7633 64.7816 14.53C65.0016 14.29 65.1116 13.95 65.1116 13.51V10.46H66.5216ZM68.6129 9.8C68.3662 9.8 68.1596 9.72333 67.9929 9.57C67.8329 9.41 67.7529 9.21333 67.7529 8.98C67.7529 8.74667 67.8329 8.55333 67.9929 8.4C68.1596 8.24 68.3662 8.16 68.6129 8.16C68.8596 8.16 69.0629 8.24 69.2229 8.4C69.3896 8.55333 69.4729 8.74667 69.4729 8.98C69.4729 9.21333 69.3896 9.41 69.2229 9.57C69.0629 9.72333 68.8596 9.8 68.6129 9.8ZM69.3029 10.46V16H67.9029V10.46H69.3029ZM72.0861 8.6V16H70.6861V8.6H72.0861ZM73.1093 13.21C73.1093 12.65 73.2193 12.1533 73.4393 11.72C73.666 11.2867 73.9726 10.9533 74.3593 10.72C74.746 10.4867 75.176 10.37 75.6493 10.37C76.0093 10.37 76.3526 10.45 76.6793 10.61C77.006 10.7633 77.266 10.97 77.4593 11.23V8.6H78.8793V16H77.4593V15.18C77.286 15.4533 77.0426 15.6733 76.7293 15.84C76.416 16.0067 76.0526 16.09 75.6393 16.09C75.1726 16.09 74.746 15.97 74.3593 15.73C73.9726 15.49 73.666 15.1533 73.4393 14.72C73.2193 14.28 73.1093 13.7767 73.1093 13.21ZM77.4693 13.23C77.4693 12.89 77.4026 12.6 77.2693 12.36C77.136 12.1133 76.956 11.9267 76.7293 11.8C76.5026 11.6667 76.2593 11.6 75.9993 11.6C75.7393 11.6 75.4993 11.6633 75.2793 11.79C75.0593 11.9167 74.8793 12.1033 74.7393 12.35C74.606 12.59 74.5393 12.8767 74.5393 13.21C74.5393 13.5433 74.606 13.8367 74.7393 14.09C74.8793 14.3367 75.0593 14.5267 75.2793 14.66C75.506 14.7933 75.746 14.86 75.9993 14.86C76.2593 14.86 76.5026 14.7967 76.7293 14.67C76.956 14.5367 77.136 14.35 77.2693 14.11C77.4026 13.8633 77.4693 13.57 77.4693 13.23Z" fill="#55D759"/>
</g>
<defs>
<filter id="filter0_dddd_656_252" x="0" y="0" width="98" height="33" filterUnits="userSpaceOnUse" color-interpolation-filters="sRGB">
<feFlood flood-opacity="0" result="BackgroundImageFix"/>
<feColorMatrix in="SourceAlpha" type="matrix" values="0 0 0 0 0 0 0 0 0 0 0 0 0 0 0 0 0 0 127 0" result="hardAlpha"/>
<feOffset dy="4"/>
<feGaussianBlur stdDeviation="2"/>
<feComposite in2="hardAlpha" operator="out"/>
<feColorMatrix type="matrix" values="0 0 0 0 0 0 0 0 0 0 0 0 0 0 0 0 0 0 0.25 0"/>
<feBlend mode="normal" in2="BackgroundImageFix" result="effect1_dropShadow_656_252"/>
<feColorMatrix in="SourceAlpha" type="matrix" values="0 0 0 0 0 0 0 0 0 0 0 0 0 0 0 0 0 0 127 0" result="hardAlpha"/>
<feOffset dy="4"/>
<feGaussianBlur stdDeviation="2"/>
<feComposite in2="hardAlpha" operator="out"/>
<feColorMatrix type="matrix" values="0 0 0 0 0 0 0 0 0 0 0 0 0 0 0 0 0 0 0.25 0"/>
<feBlend mode="normal" in2="effect1_dropShadow_656_252" result="effect2_dropShadow_656_252"/>
<feColorMatrix in="SourceAlpha" type="matrix" values="0 0 0 0 0 0 0 0 0 0 0 0 0 0 0 0 0 0 127 0" result="hardAlpha"/>
<feOffset dy="4"/>
<feGaussianBlur stdDeviation="2"/>
<feComposite in2="hardAlpha" operator="out"/>
<feColorMatrix type="matrix" values="0 0 0 0 0 0 0 0 0 0 0 0 0 0 0 0 0 0 0.25 0"/>
<feBlend mode="normal" in2="effect2_dropShadow_656_252" result="effect3_dropShadow_656_252"/>
<feColorMatrix in="SourceAlpha" type="matrix" values="0 0 0 0 0 0 0 0 0 0 0 0 0 0 0 0 0 0 127 0" result="hardAlpha"/>
<feOffset dy="4"/>
<feGaussianBlur stdDeviation="2"/>
<feComposite in2="hardAlpha" operator="out"/>
<feColorMatrix type="matrix" values="0 0 0 0 0 0 0 0 0 0 0 0 0 0 0 0 0 0 0.25 0"/>
<feBlend mode="normal" in2="effect3_dropShadow_656_252" result="effect4_dropShadow_656_252"/>
<feBlend mode="normal" in="SourceGraphic" in2="effect4_dropShadow_656_252" result="shape"/>
</filter>
</defs>
</svg>
