<svg width="343" height="70" viewBox="0 0 343 70" fill="none" xmlns="http://www.w3.org/2000/svg">
<rect x="0.5" y="0.5" width="342" height="69" rx="5.5" fill="#FEF9E6" stroke="black"/>
<path d="M116.42 41.24C116.1 40.6533 115.66 40.2067 115.1 39.9C114.54 39.5933 113.887 39.44 113.14 39.44C112.314 39.44 111.58 39.6267 110.94 40C110.3 40.3733 109.8 40.9067 109.44 41.6C109.08 42.2933 108.9 43.0933 108.9 44C108.9 44.9333 109.08 45.7467 109.44 46.44C109.814 47.1333 110.327 47.6667 110.98 48.04C111.634 48.4133 112.394 48.6 113.26 48.6C114.327 48.6 115.2 48.32 115.88 47.76C116.56 47.1867 117.007 46.3933 117.22 45.38H112.42V43.24H119.98V45.68C119.794 46.6533 119.394 47.5533 118.78 48.38C118.167 49.2067 117.374 49.8733 116.4 50.38C115.44 50.8733 114.36 51.12 113.16 51.12C111.814 51.12 110.594 50.82 109.5 50.22C108.42 49.6067 107.567 48.76 106.94 47.68C106.327 46.6 106.02 45.3733 106.02 44C106.02 42.6267 106.327 41.4 106.94 40.32C107.567 39.2267 108.42 38.38 109.5 37.78C110.594 37.1667 111.807 36.86 113.14 36.86C114.714 36.86 116.08 37.2467 117.24 38.02C118.4 38.78 119.2 39.8533 119.64 41.24H116.42ZM124.852 41.64C125.212 41.0533 125.679 40.5933 126.252 40.26C126.839 39.9267 127.505 39.76 128.252 39.76V42.7H127.512C126.632 42.7 125.965 42.9067 125.512 43.32C125.072 43.7333 124.852 44.4533 124.852 45.48V51H122.052V39.92H124.852V41.64ZM129.418 45.42C129.418 44.3 129.638 43.3067 130.078 42.44C130.531 41.5733 131.138 40.9067 131.898 40.44C132.671 39.9733 133.531 39.74 134.478 39.74C135.304 39.74 136.024 39.9067 136.638 40.24C137.264 40.5733 137.764 40.9933 138.138 41.5V39.92H140.958V51H138.138V49.38C137.778 49.9 137.278 50.3333 136.638 50.68C136.011 51.0133 135.284 51.18 134.458 51.18C133.524 51.18 132.671 50.94 131.898 50.46C131.138 49.98 130.531 49.3067 130.078 48.44C129.638 47.56 129.418 46.5533 129.418 45.42ZM138.138 45.46C138.138 44.78 138.004 44.2 137.738 43.72C137.471 43.2267 137.111 42.8533 136.658 42.6C136.204 42.3333 135.718 42.2 135.198 42.2C134.678 42.2 134.198 42.3267 133.758 42.58C133.318 42.8333 132.958 43.2067 132.678 43.7C132.411 44.18 132.278 44.7533 132.278 45.42C132.278 46.0867 132.411 46.6733 132.678 47.18C132.958 47.6733 133.318 48.0533 133.758 48.32C134.211 48.5867 134.691 48.72 135.198 48.72C135.718 48.72 136.204 48.5933 136.658 48.34C137.111 48.0733 137.471 47.7 137.738 47.22C138.004 46.7267 138.138 46.14 138.138 45.46ZM146.493 41.52C146.853 41.0133 147.346 40.5933 147.973 40.26C148.613 39.9133 149.339 39.74 150.153 39.74C151.099 39.74 151.953 39.9733 152.713 40.44C153.486 40.9067 154.093 41.5733 154.533 42.44C154.986 43.2933 155.213 44.2867 155.213 45.42C155.213 46.5533 154.986 47.56 154.533 48.44C154.093 49.3067 153.486 49.98 152.713 50.46C151.953 50.94 151.099 51.18 150.153 51.18C149.339 51.18 148.619 51.0133 147.993 50.68C147.379 50.3467 146.879 49.9267 146.493 49.42V56.28H143.693V39.92H146.493V41.52ZM152.353 45.42C152.353 44.7533 152.213 44.18 151.933 43.7C151.666 43.2067 151.306 42.8333 150.853 42.58C150.413 42.3267 149.933 42.2 149.413 42.2C148.906 42.2 148.426 42.3333 147.973 42.6C147.533 42.8533 147.173 43.2267 146.893 43.72C146.626 44.2133 146.493 44.7933 146.493 45.46C146.493 46.1267 146.626 46.7067 146.893 47.2C147.173 47.6933 147.533 48.0733 147.973 48.34C148.426 48.5933 148.906 48.72 149.413 48.72C149.933 48.72 150.413 48.5867 150.853 48.32C151.306 48.0533 151.666 47.6733 151.933 47.18C152.213 46.6867 152.353 46.1 152.353 45.42ZM163.487 39.76C164.327 39.76 165.074 39.9467 165.727 40.32C166.381 40.68 166.887 41.22 167.247 41.94C167.621 42.6467 167.807 43.5 167.807 44.5V51H165.007V44.88C165.007 44 164.787 43.3267 164.347 42.86C163.907 42.38 163.307 42.14 162.547 42.14C161.774 42.14 161.161 42.38 160.707 42.86C160.267 43.3267 160.047 44 160.047 44.88V51H157.247V36.2H160.047V41.3C160.407 40.82 160.887 40.4467 161.487 40.18C162.087 39.9 162.754 39.76 163.487 39.76ZM171.89 38.6C171.397 38.6 170.983 38.4467 170.65 38.14C170.33 37.82 170.17 37.4267 170.17 36.96C170.17 36.4933 170.33 36.1067 170.65 35.8C170.983 35.48 171.397 35.32 171.89 35.32C172.383 35.32 172.79 35.48 173.11 35.8C173.443 36.1067 173.61 36.4933 173.61 36.96C173.61 37.4267 173.443 37.82 173.11 38.14C172.79 38.4467 172.383 38.6 171.89 38.6ZM173.27 39.92V51H170.47V39.92H173.27ZM175.316 45.46C175.316 44.3133 175.55 43.3133 176.016 42.46C176.483 41.5933 177.13 40.9267 177.956 40.46C178.783 39.98 179.73 39.74 180.796 39.74C182.17 39.74 183.303 40.0867 184.196 40.78C185.103 41.46 185.71 42.42 186.016 43.66H182.996C182.836 43.18 182.563 42.8067 182.176 42.54C181.803 42.26 181.336 42.12 180.776 42.12C179.976 42.12 179.343 42.4133 178.876 43C178.41 43.5733 178.176 44.3933 178.176 45.46C178.176 46.5133 178.41 47.3333 178.876 47.92C179.343 48.4933 179.976 48.78 180.776 48.78C181.91 48.78 182.65 48.2733 182.996 47.26H186.016C185.71 48.46 185.103 49.4133 184.196 50.12C183.29 50.8267 182.156 51.18 180.796 51.18C179.73 51.18 178.783 50.9467 177.956 50.48C177.13 50 176.483 49.3333 176.016 48.48C175.55 47.6133 175.316 46.6067 175.316 45.46ZM192.113 45.46C192.113 44.3133 192.346 43.3133 192.813 42.46C193.28 41.5933 193.926 40.9267 194.753 40.46C195.58 39.98 196.526 39.74 197.593 39.74C198.966 39.74 200.1 40.0867 200.993 40.78C201.9 41.46 202.506 42.42 202.813 43.66H199.793C199.633 43.18 199.36 42.8067 198.973 42.54C198.6 42.26 198.133 42.12 197.573 42.12C196.773 42.12 196.14 42.4133 195.673 43C195.206 43.5733 194.973 44.3933 194.973 45.46C194.973 46.5133 195.206 47.3333 195.673 47.92C196.14 48.4933 196.773 48.78 197.573 48.78C198.706 48.78 199.446 48.2733 199.793 47.26H202.813C202.506 48.46 201.9 49.4133 200.993 50.12C200.086 50.8267 198.953 51.18 197.593 51.18C196.526 51.18 195.58 50.9467 194.753 50.48C193.926 50 193.28 49.3333 192.813 48.48C192.346 47.6133 192.113 46.6067 192.113 45.46ZM204.144 45.42C204.144 44.3 204.364 43.3067 204.804 42.44C205.258 41.5733 205.864 40.9067 206.624 40.44C207.398 39.9733 208.258 39.74 209.204 39.74C210.031 39.74 210.751 39.9067 211.364 40.24C211.991 40.5733 212.491 40.9933 212.864 41.5V39.92H215.684V51H212.864V49.38C212.504 49.9 212.004 50.3333 211.364 50.68C210.738 51.0133 210.011 51.18 209.184 51.18C208.251 51.18 207.398 50.94 206.624 50.46C205.864 49.98 205.258 49.3067 204.804 48.44C204.364 47.56 204.144 46.5533 204.144 45.42ZM212.864 45.46C212.864 44.78 212.731 44.2 212.464 43.72C212.198 43.2267 211.838 42.8533 211.384 42.6C210.931 42.3333 210.444 42.2 209.924 42.2C209.404 42.2 208.924 42.3267 208.484 42.58C208.044 42.8333 207.684 43.2067 207.404 43.7C207.138 44.18 207.004 44.7533 207.004 45.42C207.004 46.0867 207.138 46.6733 207.404 47.18C207.684 47.6733 208.044 48.0533 208.484 48.32C208.938 48.5867 209.418 48.72 209.924 48.72C210.444 48.72 210.931 48.5933 211.384 48.34C211.838 48.0733 212.198 47.7 212.464 47.22C212.731 46.7267 212.864 46.14 212.864 45.46ZM221.219 41.64C221.579 41.0533 222.046 40.5933 222.619 40.26C223.206 39.9267 223.872 39.76 224.619 39.76V42.7H223.879C222.999 42.7 222.332 42.9067 221.879 43.32C221.439 43.7333 221.219 44.4533 221.219 45.48V51H218.419V39.92H221.219V41.64ZM225.785 45.42C225.785 44.3 226.005 43.3067 226.445 42.44C226.898 41.5733 227.512 40.9067 228.285 40.44C229.058 39.9733 229.918 39.74 230.865 39.74C231.585 39.74 232.272 39.9 232.925 40.22C233.578 40.5267 234.098 40.94 234.485 41.46V36.2H237.325V51H234.485V49.36C234.138 49.9067 233.652 50.3467 233.025 50.68C232.398 51.0133 231.672 51.18 230.845 51.18C229.912 51.18 229.058 50.94 228.285 50.46C227.512 49.98 226.898 49.3067 226.445 48.44C226.005 47.56 225.785 46.5533 225.785 45.42ZM234.505 45.46C234.505 44.78 234.372 44.2 234.105 43.72C233.838 43.2267 233.478 42.8533 233.025 42.6C232.572 42.3333 232.085 42.2 231.565 42.2C231.045 42.2 230.565 42.3267 230.125 42.58C229.685 42.8333 229.325 43.2067 229.045 43.7C228.778 44.18 228.645 44.7533 228.645 45.42C228.645 46.0867 228.778 46.6733 229.045 47.18C229.325 47.6733 229.685 48.0533 230.125 48.32C230.578 48.5867 231.058 48.72 231.565 48.72C232.085 48.72 232.572 48.5933 233.025 48.34C233.478 48.0733 233.838 47.7 234.105 47.22C234.372 46.7267 234.505 46.14 234.505 45.46Z" fill="black"/>
<path d="M178.622 20.92H174.086V25.576H170.918V20.92H166.382V17.992H170.918V13.336H174.086V17.992H178.622V20.92Z" fill="black"/>
</svg>
