<svg width="343" height="70" viewBox="0 0 343 70" fill="none" xmlns="http://www.w3.org/2000/svg">
<rect x="0.5" y="0.5" width="342" height="69" rx="5.5" fill="#FEF9E6" stroke="black"/>
<path d="M138.583 51.14C137.609 51.14 136.729 50.9733 135.943 50.64C135.169 50.3067 134.556 49.8267 134.103 49.2C133.649 48.5733 133.416 47.8333 133.403 46.98H136.403C136.443 47.5533 136.643 48.0067 137.003 48.34C137.376 48.6733 137.883 48.84 138.523 48.84C139.176 48.84 139.689 48.6867 140.063 48.38C140.436 48.06 140.623 47.6467 140.623 47.14C140.623 46.7267 140.496 46.3867 140.243 46.12C139.989 45.8533 139.669 45.6467 139.283 45.5C138.909 45.34 138.389 45.1667 137.723 44.98C136.816 44.7133 136.076 44.4533 135.503 44.2C134.943 43.9333 134.456 43.54 134.043 43.02C133.643 42.4867 133.443 41.78 133.443 40.9C133.443 40.0733 133.649 39.3533 134.063 38.74C134.476 38.1267 135.056 37.66 135.803 37.34C136.549 37.0067 137.403 36.84 138.363 36.84C139.803 36.84 140.969 37.1933 141.863 37.9C142.769 38.5933 143.269 39.5667 143.363 40.82H140.283C140.256 40.34 140.049 39.9467 139.663 39.64C139.289 39.32 138.789 39.16 138.163 39.16C137.616 39.16 137.176 39.3 136.843 39.58C136.523 39.86 136.363 40.2667 136.363 40.8C136.363 41.1733 136.483 41.4867 136.723 41.74C136.976 41.98 137.283 42.18 137.643 42.34C138.016 42.4867 138.536 42.66 139.203 42.86C140.109 43.1267 140.849 43.3933 141.423 43.66C141.996 43.9267 142.489 44.3267 142.903 44.86C143.316 45.3933 143.523 46.0933 143.523 46.96C143.523 47.7067 143.329 48.4 142.943 49.04C142.556 49.68 141.989 50.1933 141.243 50.58C140.496 50.9533 139.609 51.14 138.583 51.14ZM149.21 42.22V47.58C149.21 47.9533 149.297 48.2267 149.47 48.4C149.657 48.56 149.964 48.64 150.39 48.64H151.69V51H149.93C147.57 51 146.39 49.8533 146.39 47.56V42.22H145.07V39.92H146.39V37.18H149.21V39.92H151.69V42.22H149.21ZM158.624 51.18C157.558 51.18 156.598 50.9467 155.744 50.48C154.891 50 154.218 49.3267 153.724 48.46C153.244 47.5933 153.004 46.5933 153.004 45.46C153.004 44.3267 153.251 43.3267 153.744 42.46C154.251 41.5933 154.938 40.9267 155.804 40.46C156.671 39.98 157.638 39.74 158.704 39.74C159.771 39.74 160.738 39.98 161.604 40.46C162.471 40.9267 163.151 41.5933 163.644 42.46C164.151 43.3267 164.404 44.3267 164.404 45.46C164.404 46.5933 164.144 47.5933 163.624 48.46C163.118 49.3267 162.424 50 161.544 50.48C160.678 50.9467 159.704 51.18 158.624 51.18ZM158.624 48.74C159.131 48.74 159.604 48.62 160.044 48.38C160.498 48.1267 160.858 47.7533 161.124 47.26C161.391 46.7667 161.524 46.1667 161.524 45.46C161.524 44.4067 161.244 43.6 160.684 43.04C160.138 42.4667 159.464 42.18 158.664 42.18C157.864 42.18 157.191 42.4667 156.644 43.04C156.111 43.6 155.844 44.4067 155.844 45.46C155.844 46.5133 156.104 47.3267 156.624 47.9C157.158 48.46 157.824 48.74 158.624 48.74ZM169.258 41.64C169.618 41.0533 170.085 40.5933 170.658 40.26C171.245 39.9267 171.911 39.76 172.658 39.76V42.7H171.918C171.038 42.7 170.371 42.9067 169.918 43.32C169.478 43.7333 169.258 44.4533 169.258 45.48V51H166.458V39.92H169.258V41.64ZM173.824 45.42C173.824 44.3 174.044 43.3067 174.484 42.44C174.937 41.5733 175.544 40.9067 176.304 40.44C177.077 39.9733 177.937 39.74 178.884 39.74C179.711 39.74 180.431 39.9067 181.044 40.24C181.671 40.5733 182.171 40.9933 182.544 41.5V39.92H185.364V51H182.544V49.38C182.184 49.9 181.684 50.3333 181.044 50.68C180.417 51.0133 179.691 51.18 178.864 51.18C177.931 51.18 177.077 50.94 176.304 50.46C175.544 49.98 174.937 49.3067 174.484 48.44C174.044 47.56 173.824 46.5533 173.824 45.42ZM182.544 45.46C182.544 44.78 182.411 44.2 182.144 43.72C181.877 43.2267 181.517 42.8533 181.064 42.6C180.611 42.3333 180.124 42.2 179.604 42.2C179.084 42.2 178.604 42.3267 178.164 42.58C177.724 42.8333 177.364 43.2067 177.084 43.7C176.817 44.18 176.684 44.7533 176.684 45.42C176.684 46.0867 176.817 46.6733 177.084 47.18C177.364 47.6733 177.724 48.0533 178.164 48.32C178.617 48.5867 179.097 48.72 179.604 48.72C180.124 48.72 180.611 48.5933 181.064 48.34C181.517 48.0733 181.877 47.7 182.144 47.22C182.411 46.7267 182.544 46.14 182.544 45.46ZM192.439 39.74C193.265 39.74 193.992 39.9067 194.619 40.24C195.245 40.56 195.739 40.98 196.099 41.5V39.92H198.919V51.08C198.919 52.1067 198.712 53.02 198.299 53.82C197.885 54.6333 197.265 55.2733 196.439 55.74C195.612 56.22 194.612 56.46 193.439 56.46C191.865 56.46 190.572 56.0933 189.559 55.36C188.559 54.6267 187.992 53.6267 187.859 52.36H190.639C190.785 52.8667 191.099 53.2667 191.579 53.56C192.072 53.8667 192.665 54.02 193.359 54.02C194.172 54.02 194.832 53.7733 195.339 53.28C195.845 52.8 196.099 52.0667 196.099 51.08V49.36C195.739 49.88 195.239 50.3133 194.599 50.66C193.972 51.0067 193.252 51.18 192.439 51.18C191.505 51.18 190.652 50.94 189.879 50.46C189.105 49.98 188.492 49.3067 188.039 48.44C187.599 47.56 187.379 46.5533 187.379 45.42C187.379 44.3 187.599 43.3067 188.039 42.44C188.492 41.5733 189.099 40.9067 189.859 40.44C190.632 39.9733 191.492 39.74 192.439 39.74ZM196.099 45.46C196.099 44.78 195.965 44.2 195.699 43.72C195.432 43.2267 195.072 42.8533 194.619 42.6C194.165 42.3333 193.679 42.2 193.159 42.2C192.639 42.2 192.159 42.3267 191.719 42.58C191.279 42.8333 190.919 43.2067 190.639 43.7C190.372 44.18 190.239 44.7533 190.239 45.42C190.239 46.0867 190.372 46.6733 190.639 47.18C190.919 47.6733 191.279 48.0533 191.719 48.32C192.172 48.5867 192.652 48.72 193.159 48.72C193.679 48.72 194.165 48.5933 194.619 48.34C195.072 48.0733 195.432 47.7 195.699 47.22C195.965 46.7267 196.099 46.14 196.099 45.46ZM211.953 45.22C211.953 45.62 211.927 45.98 211.873 46.3H203.773C203.84 47.1 204.12 47.7267 204.613 48.18C205.107 48.6333 205.713 48.86 206.433 48.86C207.473 48.86 208.213 48.4133 208.653 47.52H211.673C211.353 48.5867 210.74 49.4667 209.833 50.16C208.927 50.84 207.813 51.18 206.493 51.18C205.427 51.18 204.467 50.9467 203.613 50.48C202.773 50 202.113 49.3267 201.633 48.46C201.167 47.5933 200.933 46.5933 200.933 45.46C200.933 44.3133 201.167 43.3067 201.633 42.44C202.1 41.5733 202.753 40.9067 203.593 40.44C204.433 39.9733 205.4 39.74 206.493 39.74C207.547 39.74 208.487 39.9667 209.313 40.42C210.153 40.8733 210.8 41.52 211.253 42.36C211.72 43.1867 211.953 44.14 211.953 45.22ZM209.053 44.42C209.04 43.7 208.78 43.1267 208.273 42.7C207.767 42.26 207.147 42.04 206.413 42.04C205.72 42.04 205.133 42.2533 204.653 42.68C204.187 43.0933 203.9 43.6733 203.793 44.42H209.053Z" fill="black"/>
<path d="M178.622 20.92H174.086V25.576H170.918V20.92H166.382V17.992H170.918V13.336H174.086V17.992H178.622V20.92Z" fill="black"/>
</svg>
