<svg width="343" height="70" viewBox="0 0 343 70" fill="none" xmlns="http://www.w3.org/2000/svg">
<rect x="0.5" y="0.5" width="342" height="69" rx="5.5" fill="#FEF9E6" stroke="black"/>
<path d="M121.774 37.04V51H118.974V41.92L115.234 51H113.114L109.354 41.92V51H106.554V37.04H109.734L114.174 47.42L118.614 37.04H121.774ZM129.462 51.18C128.395 51.18 127.435 50.9467 126.582 50.48C125.729 50 125.055 49.3267 124.562 48.46C124.082 47.5933 123.842 46.5933 123.842 45.46C123.842 44.3267 124.089 43.3267 124.582 42.46C125.089 41.5933 125.775 40.9267 126.642 40.46C127.509 39.98 128.475 39.74 129.542 39.74C130.609 39.74 131.575 39.98 132.442 40.46C133.309 40.9267 133.989 41.5933 134.482 42.46C134.989 43.3267 135.242 44.3267 135.242 45.46C135.242 46.5933 134.982 47.5933 134.462 48.46C133.955 49.3267 133.262 50 132.382 50.48C131.515 50.9467 130.542 51.18 129.462 51.18ZM129.462 48.74C129.969 48.74 130.442 48.62 130.882 48.38C131.335 48.1267 131.695 47.7533 131.962 47.26C132.229 46.7667 132.362 46.1667 132.362 45.46C132.362 44.4067 132.082 43.6 131.522 43.04C130.975 42.4667 130.302 42.18 129.502 42.18C128.702 42.18 128.029 42.4667 127.482 43.04C126.949 43.6 126.682 44.4067 126.682 45.46C126.682 46.5133 126.942 47.3267 127.462 47.9C127.995 48.46 128.662 48.74 129.462 48.74ZM140.556 42.22V47.58C140.556 47.9533 140.643 48.2267 140.816 48.4C141.003 48.56 141.309 48.64 141.736 48.64H143.036V51H141.276C138.916 51 137.736 49.8533 137.736 47.56V42.22H136.416V39.92H137.736V37.18H140.556V39.92H143.036V42.22H140.556ZM151.29 39.76C152.13 39.76 152.877 39.9467 153.53 40.32C154.183 40.68 154.69 41.22 155.05 41.94C155.423 42.6467 155.61 43.5 155.61 44.5V51H152.81V44.88C152.81 44 152.59 43.3267 152.15 42.86C151.71 42.38 151.11 42.14 150.35 42.14C149.577 42.14 148.963 42.38 148.51 42.86C148.07 43.3267 147.85 44 147.85 44.88V51H145.05V36.2H147.85V41.3C148.21 40.82 148.69 40.4467 149.29 40.18C149.89 39.9 150.557 39.76 151.29 39.76ZM168.573 45.22C168.573 45.62 168.546 45.98 168.493 46.3H160.393C160.459 47.1 160.739 47.7267 161.233 48.18C161.726 48.6333 162.333 48.86 163.053 48.86C164.093 48.86 164.833 48.4133 165.273 47.52H168.293C167.973 48.5867 167.359 49.4667 166.453 50.16C165.546 50.84 164.433 51.18 163.113 51.18C162.046 51.18 161.086 50.9467 160.233 50.48C159.393 50 158.733 49.3267 158.253 48.46C157.786 47.5933 157.553 46.5933 157.553 45.46C157.553 44.3133 157.786 43.3067 158.253 42.44C158.719 41.5733 159.373 40.9067 160.213 40.44C161.053 39.9733 162.019 39.74 163.113 39.74C164.166 39.74 165.106 39.9667 165.933 40.42C166.773 40.8733 167.419 41.52 167.873 42.36C168.339 43.1867 168.573 44.14 168.573 45.22ZM165.673 44.42C165.659 43.7 165.399 43.1267 164.893 42.7C164.386 42.26 163.766 42.04 163.033 42.04C162.339 42.04 161.753 42.2533 161.273 42.68C160.806 43.0933 160.519 43.6733 160.413 44.42H165.673ZM173.416 41.64C173.776 41.0533 174.243 40.5933 174.816 40.26C175.403 39.9267 176.07 39.76 176.816 39.76V42.7H176.076C175.196 42.7 174.53 42.9067 174.076 43.32C173.636 43.7333 173.416 44.4533 173.416 45.48V51H170.616V39.92H173.416V41.64ZM181.502 41.54C181.862 41.0067 182.356 40.5733 182.982 40.24C183.622 39.9067 184.349 39.74 185.162 39.74C186.109 39.74 186.962 39.9733 187.722 40.44C188.496 40.9067 189.102 41.5733 189.542 42.44C189.996 43.2933 190.222 44.2867 190.222 45.42C190.222 46.5533 189.996 47.56 189.542 48.44C189.102 49.3067 188.496 49.98 187.722 50.46C186.962 50.94 186.109 51.18 185.162 51.18C184.336 51.18 183.609 51.02 182.982 50.7C182.369 50.3667 181.876 49.94 181.502 49.42V51H178.702V36.2H181.502V41.54ZM187.362 45.42C187.362 44.7533 187.222 44.18 186.942 43.7C186.676 43.2067 186.316 42.8333 185.862 42.58C185.422 42.3267 184.942 42.2 184.422 42.2C183.916 42.2 183.436 42.3333 182.982 42.6C182.542 42.8533 182.182 43.2267 181.902 43.72C181.636 44.2133 181.502 44.7933 181.502 45.46C181.502 46.1267 181.636 46.7067 181.902 47.2C182.182 47.6933 182.542 48.0733 182.982 48.34C183.436 48.5933 183.916 48.72 184.422 48.72C184.942 48.72 185.422 48.5867 185.862 48.32C186.316 48.0533 186.676 47.6733 186.942 47.18C187.222 46.6867 187.362 46.1 187.362 45.42ZM197.177 51.18C196.11 51.18 195.15 50.9467 194.297 50.48C193.444 50 192.77 49.3267 192.277 48.46C191.797 47.5933 191.557 46.5933 191.557 45.46C191.557 44.3267 191.804 43.3267 192.297 42.46C192.804 41.5933 193.49 40.9267 194.357 40.46C195.224 39.98 196.19 39.74 197.257 39.74C198.324 39.74 199.29 39.98 200.157 40.46C201.024 40.9267 201.704 41.5933 202.197 42.46C202.704 43.3267 202.957 44.3267 202.957 45.46C202.957 46.5933 202.697 47.5933 202.177 48.46C201.67 49.3267 200.977 50 200.097 50.48C199.23 50.9467 198.257 51.18 197.177 51.18ZM197.177 48.74C197.684 48.74 198.157 48.62 198.597 48.38C199.05 48.1267 199.41 47.7533 199.677 47.26C199.944 46.7667 200.077 46.1667 200.077 45.46C200.077 44.4067 199.797 43.6 199.237 43.04C198.69 42.4667 198.017 42.18 197.217 42.18C196.417 42.18 195.744 42.4667 195.197 43.04C194.664 43.6 194.397 44.4067 194.397 45.46C194.397 46.5133 194.657 47.3267 195.177 47.9C195.71 48.46 196.377 48.74 197.177 48.74ZM204.291 45.42C204.291 44.3 204.511 43.3067 204.951 42.44C205.404 41.5733 206.011 40.9067 206.771 40.44C207.544 39.9733 208.404 39.74 209.351 39.74C210.178 39.74 210.898 39.9067 211.511 40.24C212.138 40.5733 212.638 40.9933 213.011 41.5V39.92H215.831V51H213.011V49.38C212.651 49.9 212.151 50.3333 211.511 50.68C210.884 51.0133 210.158 51.18 209.331 51.18C208.398 51.18 207.544 50.94 206.771 50.46C206.011 49.98 205.404 49.3067 204.951 48.44C204.511 47.56 204.291 46.5533 204.291 45.42ZM213.011 45.46C213.011 44.78 212.878 44.2 212.611 43.72C212.344 43.2267 211.984 42.8533 211.531 42.6C211.078 42.3333 210.591 42.2 210.071 42.2C209.551 42.2 209.071 42.3267 208.631 42.58C208.191 42.8333 207.831 43.2067 207.551 43.7C207.284 44.18 207.151 44.7533 207.151 45.42C207.151 46.0867 207.284 46.6733 207.551 47.18C207.831 47.6733 208.191 48.0533 208.631 48.32C209.084 48.5867 209.564 48.72 210.071 48.72C210.591 48.72 211.078 48.5933 211.531 48.34C211.984 48.0733 212.344 47.7 212.611 47.22C212.878 46.7267 213.011 46.14 213.011 45.46ZM221.366 41.64C221.726 41.0533 222.192 40.5933 222.766 40.26C223.352 39.9267 224.019 39.76 224.766 39.76V42.7H224.026C223.146 42.7 222.479 42.9067 222.026 43.32C221.586 43.7333 221.366 44.4533 221.366 45.48V51H218.566V39.92H221.366V41.64ZM225.931 45.42C225.931 44.3 226.151 43.3067 226.591 42.44C227.045 41.5733 227.658 40.9067 228.431 40.44C229.205 39.9733 230.065 39.74 231.011 39.74C231.731 39.74 232.418 39.9 233.071 40.22C233.725 40.5267 234.245 40.94 234.631 41.46V36.2H237.471V51H234.631V49.36C234.285 49.9067 233.798 50.3467 233.171 50.68C232.545 51.0133 231.818 51.18 230.991 51.18C230.058 51.18 229.205 50.94 228.431 50.46C227.658 49.98 227.045 49.3067 226.591 48.44C226.151 47.56 225.931 46.5533 225.931 45.42ZM234.651 45.46C234.651 44.78 234.518 44.2 234.251 43.72C233.985 43.2267 233.625 42.8533 233.171 42.6C232.718 42.3333 232.231 42.2 231.711 42.2C231.191 42.2 230.711 42.3267 230.271 42.58C229.831 42.8333 229.471 43.2067 229.191 43.7C228.925 44.18 228.791 44.7533 228.791 45.42C228.791 46.0867 228.925 46.6733 229.191 47.18C229.471 47.6733 229.831 48.0533 230.271 48.32C230.725 48.5867 231.205 48.72 231.711 48.72C232.231 48.72 232.718 48.5933 233.171 48.34C233.625 48.0733 233.985 47.7 234.251 47.22C234.518 46.7267 234.651 46.14 234.651 45.46Z" fill="black"/>
<path d="M178.622 20.92H174.086V25.576H170.918V20.92H166.382V17.992H170.918V13.336H174.086V17.992H178.622V20.92Z" fill="black"/>
</svg>
