<svg width="343" height="70" viewBox="0 0 343 70" fill="none" xmlns="http://www.w3.org/2000/svg">
<rect x="0.5" y="0.5" width="342" height="69" rx="5.5" fill="#FEF9E6" stroke="black"/>
<path d="M147.126 44C147.126 42.6267 147.432 41.4 148.046 40.32C148.672 39.2267 149.519 38.38 150.586 37.78C151.666 37.1667 152.872 36.86 154.206 36.86C155.766 36.86 157.132 37.26 158.306 38.06C159.479 38.86 160.299 39.9667 160.766 41.38H157.546C157.226 40.7133 156.772 40.2133 156.186 39.88C155.612 39.5467 154.946 39.38 154.186 39.38C153.372 39.38 152.646 39.5733 152.006 39.96C151.379 40.3333 150.886 40.8667 150.526 41.56C150.179 42.2533 150.006 43.0667 150.006 44C150.006 44.92 150.179 45.7333 150.526 46.44C150.886 47.1333 151.379 47.6733 152.006 48.06C152.646 48.4333 153.372 48.62 154.186 48.62C154.946 48.62 155.612 48.4533 156.186 48.12C156.772 47.7733 157.226 47.2667 157.546 46.6H160.766C160.299 48.0267 159.479 49.14 158.306 49.94C157.146 50.7267 155.779 51.12 154.206 51.12C152.872 51.12 151.666 50.82 150.586 50.22C149.519 49.6067 148.672 48.76 148.046 47.68C147.432 46.6 147.126 45.3733 147.126 44ZM162.437 45.42C162.437 44.3 162.657 43.3067 163.097 42.44C163.551 41.5733 164.157 40.9067 164.917 40.44C165.691 39.9733 166.551 39.74 167.497 39.74C168.324 39.74 169.044 39.9067 169.657 40.24C170.284 40.5733 170.784 40.9933 171.157 41.5V39.92H173.977V51H171.157V49.38C170.797 49.9 170.297 50.3333 169.657 50.68C169.031 51.0133 168.304 51.18 167.477 51.18C166.544 51.18 165.691 50.94 164.917 50.46C164.157 49.98 163.551 49.3067 163.097 48.44C162.657 47.56 162.437 46.5533 162.437 45.42ZM171.157 45.46C171.157 44.78 171.024 44.2 170.757 43.72C170.491 43.2267 170.131 42.8533 169.677 42.6C169.224 42.3333 168.737 42.2 168.217 42.2C167.697 42.2 167.217 42.3267 166.777 42.58C166.337 42.8333 165.977 43.2067 165.697 43.7C165.431 44.18 165.297 44.7533 165.297 45.42C165.297 46.0867 165.431 46.6733 165.697 47.18C165.977 47.6733 166.337 48.0533 166.777 48.32C167.231 48.5867 167.711 48.72 168.217 48.72C168.737 48.72 169.224 48.5933 169.677 48.34C170.131 48.0733 170.491 47.7 170.757 47.22C171.024 46.7267 171.157 46.14 171.157 45.46ZM180.952 51.18C180.045 51.18 179.232 51.02 178.512 50.7C177.792 50.3667 177.219 49.92 176.792 49.36C176.379 48.8 176.152 48.18 176.112 47.5H178.932C178.985 47.9267 179.192 48.28 179.552 48.56C179.925 48.84 180.385 48.98 180.932 48.98C181.465 48.98 181.879 48.8733 182.172 48.66C182.479 48.4467 182.632 48.1733 182.632 47.84C182.632 47.48 182.445 47.2133 182.072 47.04C181.712 46.8533 181.132 46.6533 180.332 46.44C179.505 46.24 178.825 46.0333 178.292 45.82C177.772 45.6067 177.319 45.28 176.932 44.84C176.559 44.4 176.372 43.8067 176.372 43.06C176.372 42.4467 176.545 41.8867 176.892 41.38C177.252 40.8733 177.759 40.4733 178.412 40.18C179.079 39.8867 179.859 39.74 180.752 39.74C182.072 39.74 183.125 40.0733 183.912 40.74C184.699 41.3933 185.132 42.28 185.212 43.4H182.532C182.492 42.96 182.305 42.6133 181.972 42.36C181.652 42.0933 181.219 41.96 180.672 41.96C180.165 41.96 179.772 42.0533 179.492 42.24C179.225 42.4267 179.092 42.6867 179.092 43.02C179.092 43.3933 179.279 43.68 179.652 43.88C180.025 44.0667 180.605 44.26 181.392 44.46C182.192 44.66 182.852 44.8667 183.372 45.08C183.892 45.2933 184.339 45.6267 184.712 46.08C185.099 46.52 185.299 47.1067 185.312 47.84C185.312 48.48 185.132 49.0533 184.772 49.56C184.425 50.0667 183.919 50.4667 183.252 50.76C182.599 51.04 181.832 51.18 180.952 51.18ZM197.91 45.22C197.91 45.62 197.884 45.98 197.83 46.3H189.73C189.797 47.1 190.077 47.7267 190.57 48.18C191.064 48.6333 191.67 48.86 192.39 48.86C193.43 48.86 194.17 48.4133 194.61 47.52H197.63C197.31 48.5867 196.697 49.4667 195.79 50.16C194.884 50.84 193.77 51.18 192.45 51.18C191.384 51.18 190.424 50.9467 189.57 50.48C188.73 50 188.07 49.3267 187.59 48.46C187.124 47.5933 186.89 46.5933 186.89 45.46C186.89 44.3133 187.124 43.3067 187.59 42.44C188.057 41.5733 188.71 40.9067 189.55 40.44C190.39 39.9733 191.357 39.74 192.45 39.74C193.504 39.74 194.444 39.9667 195.27 40.42C196.11 40.8733 196.757 41.52 197.21 42.36C197.677 43.1867 197.91 44.14 197.91 45.22ZM195.01 44.42C194.997 43.7 194.737 43.1267 194.23 42.7C193.724 42.26 193.104 42.04 192.37 42.04C191.677 42.04 191.09 42.2533 190.61 42.68C190.144 43.0933 189.857 43.6733 189.75 44.42H195.01Z" fill="black"/>
<path d="M178.622 20.92H174.086V25.576H170.918V20.92H166.382V17.992H170.918V13.336H174.086V17.992H178.622V20.92Z" fill="black"/>
</svg>
