<svg width="90" height="25" viewBox="0 0 90 25" fill="none" xmlns="http://www.w3.org/2000/svg">
<rect width="90" height="25" rx="6" fill="#55D759"/>
<path d="M13.4388 14.67H10.6588L10.1988 16H8.72875L11.2388 9.01H12.8688L15.3788 16H13.8988L13.4388 14.67ZM13.0588 13.55L12.0488 10.63L11.0387 13.55H13.0588ZM15.957 13.21C15.957 12.65 16.067 12.1533 16.287 11.72C16.5136 11.2867 16.8203 10.9533 17.207 10.72C17.5936 10.4867 18.0236 10.37 18.497 10.37C18.857 10.37 19.2003 10.45 19.527 10.61C19.8536 10.7633 20.1136 10.97 20.307 11.23V8.6H21.727V16H20.307V15.18C20.1336 15.4533 19.8903 15.6733 19.577 15.84C19.2636 16.0067 18.9003 16.09 18.487 16.09C18.0203 16.09 17.5936 15.97 17.207 15.73C16.8203 15.49 16.5136 15.1533 16.287 14.72C16.067 14.28 15.957 13.7767 15.957 13.21ZM20.317 13.23C20.317 12.89 20.2503 12.6 20.117 12.36C19.9836 12.1133 19.8036 11.9267 19.577 11.8C19.3503 11.6667 19.107 11.6 18.847 11.6C18.587 11.6 18.347 11.6633 18.127 11.79C17.907 11.9167 17.727 12.1033 17.587 12.35C17.4536 12.59 17.387 12.8767 17.387 13.21C17.387 13.5433 17.4536 13.8367 17.587 14.09C17.727 14.3367 17.907 14.5267 18.127 14.66C18.3536 14.7933 18.5936 14.86 18.847 14.86C19.107 14.86 19.3503 14.7967 19.577 14.67C19.8036 14.5367 19.9836 14.35 20.117 14.11C20.2503 13.8633 20.317 13.57 20.317 13.23ZM22.7343 13.21C22.7343 12.65 22.8443 12.1533 23.0643 11.72C23.291 11.2867 23.5976 10.9533 23.9843 10.72C24.371 10.4867 24.801 10.37 25.2743 10.37C25.6343 10.37 25.9776 10.45 26.3043 10.61C26.631 10.7633 26.891 10.97 27.0843 11.23V8.6H28.5043V16H27.0843V15.18C26.911 15.4533 26.6676 15.6733 26.3543 15.84C26.041 16.0067 25.6776 16.09 25.2643 16.09C24.7976 16.09 24.371 15.97 23.9843 15.73C23.5976 15.49 23.291 15.1533 23.0643 14.72C22.8443 14.28 22.7343 13.7767 22.7343 13.21ZM27.0943 13.23C27.0943 12.89 27.0276 12.6 26.8943 12.36C26.761 12.1133 26.581 11.9267 26.3543 11.8C26.1276 11.6667 25.8843 11.6 25.6243 11.6C25.3643 11.6 25.1243 11.6633 24.9043 11.79C24.6843 11.9167 24.5043 12.1033 24.3643 12.35C24.231 12.59 24.1643 12.8767 24.1643 13.21C24.1643 13.5433 24.231 13.8367 24.3643 14.09C24.5043 14.3367 24.6843 14.5267 24.9043 14.66C25.131 14.7933 25.371 14.86 25.6243 14.86C25.8843 14.86 26.1276 14.7967 26.3543 14.67C26.581 14.5367 26.761 14.35 26.8943 14.11C27.0276 13.8633 27.0943 13.57 27.0943 13.23ZM35.0216 13.11C35.0216 13.31 35.0083 13.49 34.9816 13.65H30.9316C30.965 14.05 31.105 14.3633 31.3516 14.59C31.5983 14.8167 31.9016 14.93 32.2616 14.93C32.7816 14.93 33.1516 14.7067 33.3716 14.26H34.8816C34.7216 14.7933 34.415 15.2333 33.9616 15.58C33.5083 15.92 32.9516 16.09 32.2916 16.09C31.7583 16.09 31.2783 15.9733 30.8516 15.74C30.4316 15.5 30.1016 15.1633 29.8616 14.73C29.6283 14.2967 29.5116 13.7967 29.5116 13.23C29.5116 12.6567 29.6283 12.1533 29.8616 11.72C30.095 11.2867 30.4216 10.9533 30.8416 10.72C31.2616 10.4867 31.745 10.37 32.2916 10.37C32.8183 10.37 33.2883 10.4833 33.7016 10.71C34.1216 10.9367 34.445 11.26 34.6716 11.68C34.905 12.0933 35.0216 12.57 35.0216 13.11ZM33.5716 12.71C33.565 12.35 33.435 12.0633 33.1816 11.85C32.9283 11.63 32.6183 11.52 32.2516 11.52C31.905 11.52 31.6116 11.6267 31.3716 11.84C31.1383 12.0467 30.995 12.3367 30.9416 12.71H33.5716ZM35.6835 13.21C35.6835 12.65 35.7935 12.1533 36.0135 11.72C36.2402 11.2867 36.5468 10.9533 36.9335 10.72C37.3202 10.4867 37.7502 10.37 38.2235 10.37C38.5835 10.37 38.9268 10.45 39.2535 10.61C39.5802 10.7633 39.8402 10.97 40.0335 11.23V8.6H41.4535V16H40.0335V15.18C39.8602 15.4533 39.6168 15.6733 39.3035 15.84C38.9902 16.0067 38.6268 16.09 38.2135 16.09C37.7468 16.09 37.3202 15.97 36.9335 15.73C36.5468 15.49 36.2402 15.1533 36.0135 14.72C35.7935 14.28 35.6835 13.7767 35.6835 13.21ZM40.0435 13.23C40.0435 12.89 39.9768 12.6 39.8435 12.36C39.7102 12.1133 39.5302 11.9267 39.3035 11.8C39.0768 11.6667 38.8335 11.6 38.5735 11.6C38.3135 11.6 38.0735 11.6633 37.8535 11.79C37.6335 11.9167 37.4535 12.1033 37.3135 12.35C37.1802 12.59 37.1135 12.8767 37.1135 13.21C37.1135 13.5433 37.1802 13.8367 37.3135 14.09C37.4535 14.3367 37.6335 14.5267 37.8535 14.66C38.0802 14.7933 38.3202 14.86 38.5735 14.86C38.8335 14.86 39.0768 14.7967 39.3035 14.67C39.5302 14.5367 39.7102 14.35 39.8435 14.11C39.9768 13.8633 40.0435 13.57 40.0435 13.23ZM46.8337 11.61V14.29C46.8337 14.4767 46.877 14.6133 46.9637 14.7C47.057 14.78 47.2103 14.82 47.4237 14.82H48.0737V16H47.1937C46.0137 16 45.4237 15.4267 45.4237 14.28V11.61H44.7637V10.46H45.4237V9.09H46.8337V10.46H48.0737V11.61H46.8337ZM51.5406 16.09C51.0073 16.09 50.5273 15.9733 50.1006 15.74C49.674 15.5 49.3373 15.1633 49.0906 14.73C48.8506 14.2967 48.7306 13.7967 48.7306 13.23C48.7306 12.6633 48.854 12.1633 49.1006 11.73C49.354 11.2967 49.6973 10.9633 50.1306 10.73C50.564 10.49 51.0473 10.37 51.5806 10.37C52.114 10.37 52.5973 10.49 53.0306 10.73C53.464 10.9633 53.804 11.2967 54.0506 11.73C54.304 12.1633 54.4306 12.6633 54.4306 13.23C54.4306 13.7967 54.3006 14.2967 54.0406 14.73C53.7873 15.1633 53.4406 15.5 53.0006 15.74C52.5673 15.9733 52.0806 16.09 51.5406 16.09ZM51.5406 14.87C51.794 14.87 52.0306 14.81 52.2506 14.69C52.4773 14.5633 52.6573 14.3767 52.7906 14.13C52.924 13.8833 52.9906 13.5833 52.9906 13.23C52.9906 12.7033 52.8506 12.3 52.5706 12.02C52.2973 11.7333 51.9606 11.59 51.5606 11.59C51.1606 11.59 50.824 11.7333 50.5506 12.02C50.284 12.3 50.1506 12.7033 50.1506 13.23C50.1506 13.7567 50.2806 14.1633 50.5406 14.45C50.8073 14.73 51.1406 14.87 51.5406 14.87ZM61.8004 12.42C62.1937 12.4933 62.5171 12.69 62.7704 13.01C63.0237 13.33 63.1504 13.6967 63.1504 14.11C63.1504 14.4833 63.0571 14.8133 62.8704 15.1C62.6904 15.38 62.4271 15.6 62.0804 15.76C61.7337 15.92 61.3237 16 60.8504 16H57.8404V9.02H60.7204C61.1937 9.02 61.6004 9.09667 61.9404 9.25C62.2871 9.40333 62.5471 9.61667 62.7204 9.89C62.9004 10.1633 62.9904 10.4733 62.9904 10.82C62.9904 11.2267 62.8804 11.5667 62.6604 11.84C62.4471 12.1133 62.1604 12.3067 61.8004 12.42ZM59.2404 11.9H60.5204C60.8537 11.9 61.1104 11.8267 61.2904 11.68C61.4704 11.5267 61.5604 11.31 61.5604 11.03C61.5604 10.75 61.4704 10.5333 61.2904 10.38C61.1104 10.2267 60.8537 10.15 60.5204 10.15H59.2404V11.9ZM60.6504 14.86C60.9904 14.86 61.2537 14.78 61.4404 14.62C61.6337 14.46 61.7304 14.2333 61.7304 13.94C61.7304 13.64 61.6304 13.4067 61.4304 13.24C61.2304 13.0667 60.9604 12.98 60.6204 12.98H59.2404V14.86H60.6504ZM69.4962 10.46V16H68.0862V15.3C67.9062 15.54 67.6695 15.73 67.3762 15.87C67.0895 16.0033 66.7762 16.07 66.4362 16.07C66.0028 16.07 65.6195 15.98 65.2862 15.8C64.9528 15.6133 64.6895 15.3433 64.4962 14.99C64.3095 14.63 64.2162 14.2033 64.2162 13.71V10.46H65.6162V13.51C65.6162 13.95 65.7262 14.29 65.9462 14.53C66.1662 14.7633 66.4662 14.88 66.8462 14.88C67.2328 14.88 67.5362 14.7633 67.7562 14.53C67.9762 14.29 68.0862 13.95 68.0862 13.51V10.46H69.4962ZM71.5875 9.8C71.3408 9.8 71.1342 9.72333 70.9675 9.57C70.8075 9.41 70.7275 9.21333 70.7275 8.98C70.7275 8.74667 70.8075 8.55333 70.9675 8.4C71.1342 8.24 71.3408 8.16 71.5875 8.16C71.8342 8.16 72.0375 8.24 72.1975 8.4C72.3642 8.55333 72.4475 8.74667 72.4475 8.98C72.4475 9.21333 72.3642 9.41 72.1975 9.57C72.0375 9.72333 71.8342 9.8 71.5875 9.8ZM72.2775 10.46V16H70.8775V10.46H72.2775ZM75.0607 8.6V16H73.6607V8.6H75.0607ZM76.0839 13.21C76.0839 12.65 76.1939 12.1533 76.4139 11.72C76.6406 11.2867 76.9472 10.9533 77.3339 10.72C77.7206 10.4867 78.1506 10.37 78.6239 10.37C78.9839 10.37 79.3272 10.45 79.6539 10.61C79.9806 10.7633 80.2406 10.97 80.4339 11.23V8.6H81.8539V16H80.4339V15.18C80.2606 15.4533 80.0172 15.6733 79.7039 15.84C79.3906 16.0067 79.0272 16.09 78.6139 16.09C78.1472 16.09 77.7206 15.97 77.3339 15.73C76.9472 15.49 76.6406 15.1533 76.4139 14.72C76.1939 14.28 76.0839 13.7767 76.0839 13.21ZM80.4439 13.23C80.4439 12.89 80.3772 12.6 80.2439 12.36C80.1106 12.1133 79.9306 11.9267 79.7039 11.8C79.4772 11.6667 79.2339 11.6 78.9739 11.6C78.7139 11.6 78.4739 11.6633 78.2539 11.79C78.0339 11.9167 77.8539 12.1033 77.7139 12.35C77.5806 12.59 77.5139 12.8767 77.5139 13.21C77.5139 13.5433 77.5806 13.8367 77.7139 14.09C77.8539 14.3367 78.0339 14.5267 78.2539 14.66C78.4806 14.7933 78.7206 14.86 78.9739 14.86C79.2339 14.86 79.4772 14.7967 79.7039 14.67C79.9306 14.5367 80.1106 14.35 80.2439 14.11C80.3772 13.8633 80.4439 13.57 80.4439 13.23Z" fill="#FEF9E6"/>
</svg>
