<svg width="145" height="145" viewBox="0 0 145 145" fill="none" xmlns="http://www.w3.org/2000/svg">
<g filter="url(#filter0_d_384_434)">
<path d="M4 15C4 6.71573 10.7157 0 19 0H126C134.284 0 141 6.71573 141 15V122C141 130.284 134.284 137 126 137H19C10.7157 137 4 130.284 4 122V15Z" fill="white"/>
</g>
<path d="M49.6632 91.7C49.6632 90.464 49.9392 89.36 50.4912 88.388C51.0552 87.404 51.8172 86.642 52.7772 86.102C53.7492 85.55 54.8352 85.274 56.0352 85.274C57.4392 85.274 58.6692 85.634 59.7252 86.354C60.7812 87.074 61.5192 88.07 61.9392 89.342H59.0412C58.7532 88.742 58.3452 88.292 57.8172 87.992C57.3012 87.692 56.7012 87.542 56.0172 87.542C55.2852 87.542 54.6312 87.716 54.0552 88.064C53.4912 88.4 53.0472 88.88 52.7232 89.504C52.4112 90.128 52.2552 90.86 52.2552 91.7C52.2552 92.528 52.4112 93.26 52.7232 93.896C53.0472 94.52 53.4912 95.006 54.0552 95.354C54.6312 95.69 55.2852 95.858 56.0172 95.858C56.7012 95.858 57.3012 95.708 57.8172 95.408C58.3452 95.096 58.7532 94.64 59.0412 94.04H61.9392C61.5192 95.324 60.7812 96.326 59.7252 97.046C58.6812 97.754 57.4512 98.108 56.0352 98.108C54.8352 98.108 53.7492 97.838 52.7772 97.298C51.8172 96.746 51.0552 95.984 50.4912 95.012C49.9392 94.04 49.6632 92.936 49.6632 91.7ZM63.4436 92.978C63.4436 91.97 63.6416 91.076 64.0376 90.296C64.4456 89.516 64.9916 88.916 65.6756 88.496C66.3716 88.076 67.1456 87.866 67.9976 87.866C68.7416 87.866 69.3896 88.016 69.9416 88.316C70.5056 88.616 70.9556 88.994 71.2916 89.45V88.028H73.8296V98H71.2916V96.542C70.9676 97.01 70.5176 97.4 69.9416 97.712C69.3776 98.012 68.7236 98.162 67.9796 98.162C67.1396 98.162 66.3716 97.946 65.6756 97.514C64.9916 97.082 64.4456 96.476 64.0376 95.696C63.6416 94.904 63.4436 93.998 63.4436 92.978ZM71.2916 93.014C71.2916 92.402 71.1716 91.88 70.9316 91.448C70.6916 91.004 70.3676 90.668 69.9596 90.44C69.5516 90.2 69.1136 90.08 68.6456 90.08C68.1776 90.08 67.7456 90.194 67.3496 90.422C66.9536 90.65 66.6296 90.986 66.3776 91.43C66.1376 91.862 66.0176 92.378 66.0176 92.978C66.0176 93.578 66.1376 94.106 66.3776 94.562C66.6296 95.006 66.9536 95.348 67.3496 95.588C67.7576 95.828 68.1896 95.948 68.6456 95.948C69.1136 95.948 69.5516 95.834 69.9596 95.606C70.3676 95.366 70.6916 95.03 70.9316 94.598C71.1716 94.154 71.2916 93.626 71.2916 93.014ZM80.1068 98.162C79.2908 98.162 78.5588 98.018 77.9108 97.73C77.2628 97.43 76.7468 97.028 76.3628 96.524C75.9908 96.02 75.7868 95.462 75.7508 94.85H78.2888C78.3368 95.234 78.5228 95.552 78.8468 95.804C79.1828 96.056 79.5968 96.182 80.0888 96.182C80.5688 96.182 80.9408 96.086 81.2048 95.894C81.4808 95.702 81.6188 95.456 81.6188 95.156C81.6188 94.832 81.4508 94.592 81.1148 94.436C80.7908 94.268 80.2688 94.088 79.5488 93.896C78.8048 93.716 78.1928 93.53 77.7128 93.338C77.2448 93.146 76.8368 92.852 76.4888 92.456C76.1528 92.06 75.9848 91.526 75.9848 90.854C75.9848 90.302 76.1408 89.798 76.4528 89.342C76.7768 88.886 77.2328 88.526 77.8208 88.262C78.4208 87.998 79.1228 87.866 79.9268 87.866C81.1148 87.866 82.0628 88.166 82.7708 88.766C83.4788 89.354 83.8688 90.152 83.9408 91.16H81.5288C81.4928 90.764 81.3248 90.452 81.0248 90.224C80.7368 89.984 80.3468 89.864 79.8548 89.864C79.3988 89.864 79.0448 89.948 78.7928 90.116C78.5528 90.284 78.4328 90.518 78.4328 90.818C78.4328 91.154 78.6008 91.412 78.9368 91.592C79.2728 91.76 79.7948 91.934 80.5028 92.114C81.2228 92.294 81.8168 92.48 82.2848 92.672C82.7528 92.864 83.1548 93.164 83.4908 93.572C83.8388 93.968 84.0188 94.496 84.0308 95.156C84.0308 95.732 83.8688 96.248 83.5448 96.704C83.2328 97.16 82.7768 97.52 82.1768 97.784C81.5888 98.036 80.8988 98.162 80.1068 98.162ZM95.3694 92.798C95.3694 93.158 95.3454 93.482 95.2974 93.77H88.0074C88.0674 94.49 88.3194 95.054 88.7634 95.462C89.2074 95.87 89.7534 96.074 90.4014 96.074C91.3374 96.074 92.0034 95.672 92.3994 94.868H95.1174C94.8294 95.828 94.2774 96.62 93.4614 97.244C92.6454 97.856 91.6434 98.162 90.4554 98.162C89.4954 98.162 88.6314 97.952 87.8634 97.532C87.1074 97.1 86.5134 96.494 86.0814 95.714C85.6614 94.934 85.4514 94.034 85.4514 93.014C85.4514 91.982 85.6614 91.076 86.0814 90.296C86.5014 89.516 87.0894 88.916 87.8454 88.496C88.6014 88.076 89.4714 87.866 90.4554 87.866C91.4034 87.866 92.2494 88.07 92.9934 88.478C93.7494 88.886 94.3314 89.468 94.7394 90.224C95.1594 90.968 95.3694 91.826 95.3694 92.798ZM92.7594 92.078C92.7474 91.43 92.5134 90.914 92.0574 90.53C91.6014 90.134 91.0434 89.936 90.3834 89.936C89.7594 89.936 89.2314 90.128 88.7994 90.512C88.3794 90.884 88.1214 91.406 88.0254 92.078H92.7594Z" fill="black"/>
<path d="M87.4867 26H58.5184C58.2333 26 58 26.2333 58 26.5184V72.9828C58 73.2679 58.2333 73.5012 58.5184 73.5012H59.1146L59.5448 75.554C59.5967 75.7925 59.8092 75.9636 60.0529 75.9636H63.4225C63.6661 75.9636 63.8787 75.7925 63.9305 75.554L64.3608 73.5012H82.0953L82.5256 75.554C82.5774 75.7925 82.79 75.9636 83.0336 75.9636H86.4032C86.6469 75.9636 86.8594 75.7925 86.9113 75.554L87.3415 73.5012H87.4815C87.7666 73.5012 87.9999 73.2679 87.9999 72.9828V26.5184C88.0051 26.2281 87.7718 26 87.4867 26ZM59.0368 27.0368H86.9683V72.4644H59.0368V27.0368ZM63.0026 74.9216H60.4728L60.1721 73.496H63.3033L63.0026 74.9216ZM85.9885 74.9216H83.4587L83.158 73.496H86.2892L85.9885 74.9216Z" fill="black"/>
<path d="M61.5407 64.2943H84.4592C84.7444 64.2943 84.9776 64.0611 84.9776 63.7759V28.592C84.9776 28.3069 84.7444 28.0736 84.4592 28.0736H61.5407C61.2556 28.0736 61.0223 28.3069 61.0223 28.592V63.7759C61.0223 64.0611 61.2556 64.2943 61.5407 64.2943ZM62.0591 29.1104H83.9408V63.2575H62.0591V29.1104Z" fill="black"/>
<path d="M79.3063 39.1415C79.3063 39.1104 79.3011 39.0845 79.2908 39.0534C79.2734 38.9862 79.2435 38.9229 79.2026 38.8667C79.1923 38.8512 79.1871 38.8356 79.1715 38.8201C78.0259 37.6018 76.6314 37.5033 75.5738 37.7418C75.973 37.2182 76.9839 36.2177 78.5961 36.6998H78.6168C78.6583 36.7102 78.6998 36.7206 78.7413 36.7206C78.7516 36.7206 78.7672 36.7154 78.7775 36.7154C78.7931 36.7154 78.8087 36.7102 78.8242 36.7102C78.8449 36.705 78.8605 36.7102 78.8812 36.705C78.8968 36.6998 78.9123 36.6895 78.9279 36.6791C78.9642 36.6635 78.9953 36.648 79.0264 36.6272C79.0523 36.6117 79.073 36.591 79.0938 36.5702C79.1197 36.5443 79.1456 36.5184 79.1663 36.4873C79.1819 36.4614 79.1974 36.4354 79.2078 36.4043C79.2182 36.3836 79.2286 36.368 79.2389 36.3525C79.2441 36.3369 79.2389 36.3214 79.2441 36.3058C79.2493 36.2747 79.2493 36.2488 79.2545 36.2177C79.2545 36.1762 79.2545 36.1399 79.2441 36.0985C79.2441 36.0881 79.2441 36.0726 79.2389 36.0622C78.9486 35.0409 78.3939 34.1078 77.6371 33.3509L77.6267 33.3406C77.606 33.3198 77.5904 33.2991 77.5749 33.2836C77.5645 33.2732 77.5489 33.268 77.5386 33.2628C77.5075 33.2369 77.4712 33.2162 77.4349 33.1954C77.409 33.1851 77.383 33.1747 77.3519 33.1643C77.3156 33.154 77.2845 33.1488 77.2483 33.1436C77.212 33.1384 77.1809 33.1436 77.1498 33.1488C77.129 33.1488 77.1135 33.1436 77.0927 33.1488C75.465 33.5324 74.6822 34.6884 74.3608 35.72C74.1119 35.1083 73.7542 33.7294 74.9725 32.5837C74.9828 32.5733 74.988 32.5578 74.9984 32.5474C75.0243 32.5215 75.0399 32.4956 75.0606 32.4645C75.0762 32.4334 75.0969 32.4023 75.1073 32.3712C75.1124 32.3556 75.1228 32.3452 75.128 32.3349C75.1332 32.3141 75.128 32.2986 75.1332 32.283C75.1384 32.2467 75.1384 32.2105 75.1384 32.1742C75.1384 32.1431 75.1332 32.112 75.1228 32.0809C75.1124 32.0446 75.1021 32.0135 75.0865 31.9824C75.071 31.9513 75.0554 31.9253 75.0347 31.8994C75.0243 31.8839 75.0191 31.8631 75.0036 31.8476C74.9932 31.8372 74.9777 31.832 74.9673 31.8217C74.9414 31.8009 74.9154 31.7854 74.8895 31.7646C74.8575 31.7439 74.8226 31.7282 74.7859 31.718C74.7755 31.7128 74.7651 31.7024 74.7496 31.7024C73.692 31.4329 72.5515 31.4536 71.5096 31.7543C71.494 31.7595 71.4836 31.7698 71.4681 31.775C71.4318 31.7906 71.3955 31.8061 71.3592 31.832C71.3385 31.8476 71.3177 31.8631 71.297 31.8839C71.2711 31.9098 71.2452 31.9357 71.2244 31.972C71.2089 31.9979 71.1933 32.0238 71.183 32.0549C71.1726 32.0757 71.1622 32.086 71.157 32.1068C70.6749 33.7035 71.2866 34.958 72.0124 35.7563C71.354 35.6682 69.9906 35.3001 69.607 33.6672C69.6018 33.6516 69.5966 33.6413 69.5915 33.6309C69.5811 33.5998 69.5655 33.5687 69.55 33.5376C69.5344 33.5065 69.5137 33.4754 69.4878 33.4494C69.4774 33.4391 69.4774 33.4287 69.467 33.4183C69.4567 33.408 69.4359 33.4028 69.4256 33.3924C69.396 33.3669 69.3628 33.346 69.3271 33.3302L69.2493 33.2991C69.213 33.2887 69.1767 33.2836 69.1353 33.2784H69.0523C69.0316 33.2784 69.0109 33.2732 68.9849 33.2784C68.9642 33.2836 68.9538 33.2939 68.9383 33.2991C68.9124 33.3095 68.8916 33.3198 68.8657 33.3302C68.8242 33.3509 68.7879 33.3769 68.7568 33.4028C68.7465 33.408 68.7413 33.4132 68.7309 33.4183C67.9656 34.2066 67.4219 35.183 67.155 36.2488C67.1498 36.2644 67.155 36.2799 67.155 36.2955C67.1498 36.3318 67.1446 36.3732 67.1498 36.4095C67.1498 36.4406 67.155 36.4665 67.1653 36.4976C67.1757 36.5287 67.1861 36.565 67.2016 36.5961C67.2172 36.6272 67.2327 36.6532 67.2535 36.6843C67.2638 36.6998 67.269 36.7154 67.2794 36.7309C68.114 37.6226 69.0886 37.9129 69.9647 37.9129C70.2913 37.9129 70.5972 37.8662 70.8875 37.7988C70.4935 38.3172 69.4826 39.3385 67.8548 38.8512C67.8445 38.846 67.8341 38.8512 67.8185 38.846C67.7822 38.8356 67.746 38.8356 67.7045 38.8356C67.6682 38.8356 67.6371 38.8356 67.606 38.846C67.5904 38.8512 67.5801 38.846 67.5645 38.8512C67.549 38.8564 67.5334 38.8667 67.5179 38.8771C67.4816 38.8927 67.4505 38.9082 67.4194 38.9289C67.3934 38.9445 67.3727 38.9652 67.352 38.986C67.326 39.0119 67.3053 39.0378 67.2846 39.0689C67.269 39.0948 67.2535 39.1208 67.2431 39.1519C67.2327 39.1726 67.2224 39.1882 67.212 39.2089C67.2068 39.2244 67.212 39.24 67.2068 39.2555C67.2016 39.2866 67.2016 39.3126 67.1964 39.3437C67.1964 39.3851 67.1964 39.4214 67.2068 39.4629C67.2068 39.4733 67.2068 39.4836 67.212 39.4992C67.5075 40.5464 68.0829 41.5106 68.8761 42.2778C68.8813 42.283 68.8864 42.283 68.8916 42.2882C68.9279 42.3245 68.9746 42.3504 69.0212 42.3711L69.0523 42.3867C69.1093 42.4074 69.1716 42.423 69.239 42.423C69.2804 42.423 69.3167 42.4178 69.3582 42.4074C70.986 42.0238 71.7688 40.8678 72.0902 39.8362C72.339 40.4479 72.6967 41.8268 71.4784 42.9673C71.4681 42.9777 71.4629 42.988 71.4525 42.9984C71.4266 43.0243 71.4111 43.0554 71.3903 43.0865C71.3696 43.1176 71.354 43.1487 71.3437 43.1798C71.3385 43.1954 71.3281 43.2006 71.3281 43.2161C71.3229 43.2317 71.3281 43.2524 71.3281 43.268C71.3229 43.3043 71.3177 43.3406 71.3229 43.3768C71.3229 43.4079 71.3281 43.439 71.3385 43.465C71.3488 43.5013 71.3592 43.5324 71.3748 43.5635C71.3903 43.5946 71.4059 43.6205 71.4266 43.6464C71.437 43.662 71.4422 43.6827 71.4577 43.6931C71.4681 43.7034 71.4836 43.7086 71.494 43.719C71.5199 43.7449 71.551 43.7605 71.5821 43.7812C71.6132 43.7967 71.6443 43.8175 71.6754 43.8278C71.6858 43.833 71.6962 43.8434 71.7117 43.8434C72.7777 44.1093 73.8948 44.0914 74.9517 43.7916H74.9569C75.0191 43.7708 75.0762 43.7397 75.128 43.7034C75.1384 43.6982 75.1435 43.6879 75.1487 43.6827C75.185 43.6464 75.2213 43.6101 75.2472 43.5635C75.2576 43.5479 75.2628 43.5324 75.2731 43.5116C75.2835 43.4909 75.2991 43.4701 75.3043 43.4442C75.7864 41.8476 75.1747 40.5878 74.4437 39.7947C75.1021 39.8828 76.4707 40.2664 76.8543 41.889C76.8595 41.9046 76.8646 41.9149 76.8698 41.9305C76.8802 41.9564 76.8906 41.9823 76.9061 42.0083C76.9217 42.0394 76.9424 42.0705 76.9631 42.0964C76.9787 42.1171 76.9942 42.1379 77.015 42.1534C77.0461 42.1793 77.0772 42.2001 77.1135 42.2208C77.1342 42.2312 77.1498 42.2415 77.1705 42.2519C77.2275 42.2778 77.2949 42.2882 77.3571 42.2882C77.3986 42.2882 77.4349 42.283 77.4764 42.2726C77.4971 42.2675 77.5126 42.2519 77.5334 42.2467C77.5593 42.2364 77.58 42.226 77.606 42.2156C77.6446 42.1957 77.6797 42.1694 77.7096 42.1379C77.72 42.1275 77.7304 42.1223 77.7407 42.1119C78.4976 41.324 79.0419 40.3494 79.3011 39.297C79.3063 39.2815 79.3011 39.2659 79.3011 39.2504C79.3063 39.2193 79.3063 39.183 79.3063 39.1415ZM73.2306 38.9601C72.5826 38.9601 72.0539 38.4313 72.0539 37.7833C72.0539 37.1353 72.5826 36.6065 73.2306 36.6065C73.8786 36.6065 74.4074 37.1353 74.4074 37.7833C74.4074 38.4313 73.8786 38.9601 73.2306 38.9601ZM77.0564 34.253C77.4151 34.639 77.7124 35.0778 77.9377 35.5542C76.7921 35.5023 75.8693 36 75.242 36.5806C75.325 35.9637 75.6619 34.7247 77.0564 34.253ZM73.6505 32.5889C73.0337 33.5583 73.0077 34.6003 73.1944 35.4349C72.7019 35.0565 71.7947 34.1441 72.085 32.6978C72.5982 32.5889 73.127 32.5474 73.6505 32.5889ZM68.2592 36.2333C68.4147 35.7304 68.6428 35.2587 68.9435 34.8232C69.4722 35.8393 70.3639 36.3836 71.1778 36.6376C70.6023 36.8761 69.353 37.1975 68.2592 36.2333ZM69.4048 41.3136C69.0471 40.9248 68.7465 40.4842 68.5236 40.0124C68.5754 40.0124 68.6376 40.0228 68.6894 40.0228C69.7574 40.0228 70.6179 39.5407 71.2192 38.9912C71.1311 39.6081 70.7838 40.847 69.4048 41.3136ZM72.8107 42.9777C73.4276 42.0083 73.4536 40.9663 73.2669 40.1316C73.7594 40.5101 74.6666 41.4225 74.3763 42.8636C73.8631 42.9777 73.3343 43.0191 72.8107 42.9777ZM75.2835 38.9289C75.8589 38.6957 77.1083 38.3691 78.2021 39.3333C78.0466 39.8362 77.8185 40.3079 77.5178 40.7434C76.9891 39.7273 76.0974 39.183 75.2835 38.9289ZM79.3063 56.0051C79.3063 55.974 79.3011 55.9481 79.2908 55.917C79.2804 55.8807 79.27 55.8496 79.2545 55.8185C79.2389 55.7874 79.2234 55.7615 79.2026 55.7355C79.1923 55.72 79.1871 55.7044 79.1715 55.6889C78.0259 54.4706 76.6314 54.3721 75.579 54.6106C75.9834 54.087 76.9994 53.0917 78.5961 53.5738C78.6065 53.579 78.6168 53.5738 78.6272 53.579C78.6687 53.5894 78.705 53.5997 78.7464 53.5997C78.7568 53.5997 78.7672 53.5945 78.7827 53.5945C78.8035 53.5945 78.819 53.5894 78.8398 53.5842C78.8553 53.579 78.8709 53.5842 78.8916 53.579C78.9071 53.5738 78.9175 53.5634 78.9331 53.5583C78.9694 53.5427 79.0056 53.5271 79.0419 53.5012C79.0627 53.4857 79.0834 53.4701 79.1041 53.4494C79.1301 53.4235 79.156 53.3975 79.1767 53.3613C79.1923 53.3353 79.2078 53.3094 79.2182 53.2835C79.2286 53.2628 79.2441 53.2472 79.2493 53.2265C79.2545 53.2109 79.2493 53.1954 79.2545 53.1798C79.2597 53.1487 79.2597 53.1228 79.2648 53.0917C79.2648 53.0502 79.2648 53.0087 79.2545 52.9725C79.2545 52.9621 79.2545 52.9517 79.2493 52.9362C78.959 51.9149 78.4043 50.9818 77.6474 50.2249L77.6371 50.2146C77.6163 50.1938 77.606 50.1731 77.5852 50.1575C77.5749 50.1472 77.5593 50.142 77.5489 50.1368C77.5167 50.1084 77.4799 50.0856 77.4401 50.0694C77.4141 50.059 77.3934 50.0487 77.3675 50.0435C77.3312 50.0331 77.2949 50.0279 77.2586 50.0227C77.2275 50.0227 77.1964 50.0228 77.1653 50.0279C77.1446 50.0279 77.129 50.0228 77.1083 50.0279C75.4805 50.4116 74.6977 51.5676 74.3763 52.5992C74.1275 51.9875 73.7698 50.6085 74.988 49.4629C74.9984 49.4525 75.0036 49.437 75.0139 49.4266C75.0347 49.4007 75.0554 49.3747 75.071 49.3436C75.0917 49.3125 75.1073 49.2814 75.1176 49.2451C75.1228 49.2296 75.1332 49.2244 75.1332 49.2089C75.1384 49.1933 75.1332 49.1726 75.1332 49.157C75.1384 49.1207 75.1384 49.0844 75.1384 49.0482C75.1384 49.017 75.1332 48.9859 75.1228 48.96C75.1124 48.9237 75.1021 48.8926 75.0865 48.8615C75.071 48.8304 75.0554 48.8045 75.0347 48.7786C75.0243 48.763 75.0191 48.7423 75.0036 48.7319C74.9932 48.7216 74.9777 48.7164 74.9673 48.706C74.9414 48.6853 74.9154 48.6645 74.8895 48.649C74.8588 48.6293 74.8257 48.6136 74.791 48.6023C74.7807 48.5971 74.7703 48.5868 74.7547 48.5868C73.6887 48.3212 72.5717 48.3391 71.5147 48.6386C71.4992 48.6438 71.4888 48.6542 71.4733 48.6594C71.437 48.6749 71.4007 48.6905 71.3644 48.7164C71.3437 48.7319 71.3229 48.7475 71.3022 48.7682C71.2763 48.7941 71.2503 48.8201 71.2296 48.8512C71.2141 48.8771 71.1985 48.903 71.1881 48.9341C71.1778 48.9548 71.1674 48.9652 71.1622 48.9859C70.6801 50.5826 71.2918 51.8423 72.0228 52.6355C71.3696 52.5474 70.001 52.1793 69.6122 50.5412C69.607 50.5256 69.6018 50.5152 69.5966 50.5049C69.5863 50.4738 69.5707 50.4427 69.5552 50.4116C69.5396 50.3804 69.5189 50.3493 69.493 50.3234C69.4826 50.3131 69.4826 50.3027 69.4722 50.2923C69.4619 50.2819 69.4411 50.2768 69.4308 50.2664C69.4012 50.2409 69.368 50.2199 69.3323 50.2042L69.2545 50.1731C69.2182 50.1627 69.1819 50.1575 69.1456 50.1523H69.0627C69.042 50.1523 69.0212 50.1472 68.9953 50.1523C68.9746 50.1575 68.9642 50.1679 68.9486 50.1731C68.9227 50.1835 68.902 50.1938 68.8761 50.2042C68.8346 50.2249 68.7983 50.2508 68.7672 50.2768C68.7568 50.2819 68.7517 50.2871 68.7413 50.2923C67.9759 51.0806 67.4323 52.057 67.1653 53.1228C67.1602 53.1383 67.1653 53.1539 67.1653 53.1694C67.1602 53.2057 67.155 53.2472 67.1602 53.2835C67.1602 53.3146 67.1653 53.3405 67.1757 53.3716C67.1861 53.4027 67.1964 53.439 67.212 53.4701C67.2276 53.5012 67.2431 53.5271 67.2638 53.5583C67.2742 53.5738 67.2794 53.5894 67.2898 53.6049C68.1244 54.4966 69.099 54.7869 69.9751 54.7869C70.3017 54.7869 70.6075 54.7402 70.8927 54.6728C70.4935 55.1912 69.4722 56.2073 67.8652 55.72C67.8548 55.7148 67.8393 55.72 67.8289 55.7148C67.7926 55.7044 67.7563 55.7044 67.72 55.7044C67.6837 55.7044 67.6526 55.7044 67.6164 55.7148C67.6008 55.72 67.5904 55.7148 67.5749 55.72C67.5541 55.72 67.5438 55.7355 67.5282 55.7407C67.4919 55.7563 67.4608 55.7718 67.4297 55.7926C67.4038 55.8081 67.3831 55.8288 67.3623 55.8496C67.3364 55.8755 67.3105 55.9014 67.2898 55.9325C67.2742 55.9585 67.2587 55.9844 67.2483 56.0155C67.2379 56.0362 67.2224 56.0518 67.2172 56.0725C67.212 56.0881 67.2172 56.1036 67.212 56.1192C67.2068 56.1503 67.2068 56.1762 67.2016 56.2073C67.2016 56.2488 67.2016 56.285 67.212 56.3265C67.212 56.3369 67.212 56.3524 67.2172 56.3628C67.5161 57.42 68.0904 58.3789 68.8813 59.1414C68.8864 59.1466 68.8916 59.1466 68.8968 59.1518C68.9383 59.1881 68.9797 59.214 69.0264 59.2347C69.0368 59.2399 69.042 59.2451 69.0523 59.2503C69.1093 59.271 69.1767 59.2866 69.239 59.2866C69.2804 59.2866 69.3167 59.2814 69.3582 59.271C70.986 58.8874 71.7688 57.7314 72.0902 56.6998C72.339 57.3115 72.6967 58.6904 71.4784 59.8361C71.4681 59.8465 71.4629 59.862 71.4525 59.8724C71.4266 59.8983 71.4111 59.9242 71.3903 59.9553C71.3696 59.9864 71.354 60.0175 71.3437 60.0486C71.3385 60.0642 71.3281 60.0694 71.3281 60.0849C71.3229 60.1005 71.3281 60.1212 71.3281 60.1368C71.3229 60.1731 71.3177 60.2093 71.3229 60.2456C71.3229 60.2767 71.3281 60.3078 71.3385 60.3338C71.3488 60.3701 71.3592 60.4012 71.3748 60.4323C71.3903 60.4634 71.4059 60.4893 71.4266 60.5152C71.437 60.5308 71.4422 60.5515 71.4577 60.5619C71.4681 60.5722 71.4836 60.5774 71.494 60.5878C71.5199 60.6137 71.551 60.6293 71.5821 60.65C71.6132 60.6655 71.6443 60.6863 71.6754 60.6966C71.6858 60.7018 71.6962 60.7122 71.7117 60.7122C72.7777 60.9781 73.8948 60.9602 74.9517 60.6604H74.9569C75.0191 60.6396 75.0762 60.6085 75.128 60.5722C75.1384 60.567 75.1435 60.5567 75.1487 60.5515C75.185 60.5152 75.2213 60.4789 75.2472 60.4323C75.2576 60.4167 75.2628 60.396 75.2731 60.3804C75.2835 60.3597 75.2991 60.3389 75.3043 60.3182C75.7864 58.7215 75.1747 57.4618 74.4437 56.6687C75.1021 56.7568 76.4655 57.1249 76.8491 58.763C76.8543 58.7786 76.8595 58.7889 76.8646 58.8045L76.8957 58.8822C76.9113 58.9133 76.932 58.9444 76.958 58.9704C76.9985 59.0243 77.052 59.0671 77.1135 59.0948C77.129 59.1052 77.1446 59.1155 77.1601 59.1207C77.2223 59.1466 77.2845 59.1622 77.3519 59.1622C77.3934 59.1622 77.4297 59.157 77.4712 59.1466C77.4919 59.1414 77.5075 59.1259 77.5282 59.1207C77.5541 59.1103 77.5749 59.1 77.6008 59.0896C77.641 59.0697 77.6778 59.0435 77.7096 59.0118C77.72 59.0015 77.7304 58.9963 77.7407 58.9911C78.5028 58.2031 79.0419 57.2285 79.3011 56.1762C79.3063 56.1606 79.3011 56.1451 79.3011 56.1295C79.3063 56.0829 79.3063 56.0414 79.3063 56.0051ZM73.2306 55.8237C72.5826 55.8237 72.0539 55.2949 72.0539 54.6469C72.0539 53.9989 72.5826 53.4701 73.2306 53.4701C73.8786 53.4701 74.4074 53.9989 74.4074 54.6469C74.4074 55.2949 73.8786 55.8237 73.2306 55.8237ZM77.0564 51.1166C77.4141 51.5054 77.7148 51.9408 77.9377 52.4126C76.7921 52.3607 75.8745 52.8584 75.2472 53.439C75.3302 52.8221 75.6775 51.5831 77.0564 51.1166ZM73.6505 49.4525C73.0337 50.4219 73.0077 51.4639 73.1944 52.2985C72.7019 51.9201 71.7947 51.0077 72.085 49.5666C72.5982 49.4473 73.127 49.411 73.6505 49.4525ZM68.2592 53.0969C68.4147 52.594 68.6428 52.1223 68.9435 51.6868C69.4722 52.7081 70.3639 53.2524 71.183 53.5064C70.6127 53.7397 69.3634 54.0715 68.2592 53.0969ZM69.4048 58.1772C69.0471 57.7884 68.7465 57.3478 68.5236 56.876C68.5806 56.876 68.6376 56.8864 68.6894 56.8864C69.7625 56.8864 70.6231 56.4043 71.2192 55.8496C71.1363 56.4613 70.7993 57.7055 69.4048 58.1772ZM72.8107 59.8361C73.4276 58.8667 73.4536 57.8247 73.2669 56.9901C73.7594 57.3685 74.6666 58.2809 74.3763 59.722C73.8631 59.8413 73.3343 59.8776 72.8107 59.8361ZM75.2783 55.7874C75.8486 55.5489 77.0979 55.2171 78.2021 56.1969C78.0466 56.6998 77.8185 57.1715 77.5178 57.607C76.9891 56.5857 76.0922 56.0414 75.2783 55.7874ZM73.2306 65.072C71.5147 65.072 70.1202 66.4665 70.1202 68.1824C70.1202 69.8983 71.5147 71.2928 73.2306 71.2928C74.9466 71.2928 76.3411 69.8983 76.3411 68.1824C76.3411 66.4665 74.9466 65.072 73.2306 65.072ZM73.2306 70.256C72.085 70.256 71.157 69.328 71.157 68.1824C71.157 67.0367 72.085 66.1088 73.2306 66.1088C74.3763 66.1088 75.3043 67.0367 75.3043 68.1824C75.3043 69.328 74.3763 70.256 73.2306 70.256Z" fill="black"/>
<path d="M79.0108 47.5448C75.3716 46.1607 71.5096 46.171 67.4919 47.5863C67.1822 47.6935 66.9002 47.8682 66.6662 48.0977C66.4322 48.3272 66.2521 48.6058 66.1389 48.9134C64.734 52.7807 64.734 56.5391 66.1493 60.4064C66.2603 60.7095 66.4361 60.9848 66.6644 61.2131C66.8927 61.4414 67.168 61.6172 67.4712 61.7283C69.3841 62.4281 71.3229 62.7858 73.2306 62.7858C75.1384 62.7858 77.0772 62.4333 78.9901 61.7283C79.2932 61.6172 79.5686 61.4414 79.7969 61.2131C80.0251 60.9848 80.201 60.7095 80.312 60.4064C81.7324 56.5235 81.7273 52.7444 80.3016 48.8564C80.1925 48.5583 80.0209 48.287 79.7983 48.0608C79.5756 47.8346 79.3071 47.6586 79.0108 47.5448ZM79.3374 60.0435C79.2182 60.3701 78.959 60.6293 78.6324 60.7485C75.0347 62.0652 71.4266 62.0652 67.8289 60.7485C67.5023 60.6293 67.2431 60.3701 67.1239 60.0435C65.7968 56.4147 65.7968 52.8895 67.1135 49.2659C67.2327 48.9341 67.4971 48.6801 67.8341 48.5609C69.7522 47.8869 71.6392 47.5448 73.4484 47.5448C75.2109 47.5448 76.958 47.8714 78.6376 48.509C78.9538 48.6283 79.2026 48.8823 79.3219 49.2089C80.6697 52.8584 80.6697 56.3991 79.3374 60.0435ZM79.0108 30.6864C75.3716 29.3022 71.5096 29.3126 67.4919 30.7278C67.1822 30.8351 66.9002 31.0098 66.6662 31.2393C66.4322 31.4688 66.2521 31.7474 66.1389 32.055C64.734 35.9222 64.734 39.6806 66.1493 43.5479C66.2595 43.8515 66.4351 44.1273 66.6635 44.3557C66.8919 44.5841 67.1676 44.7596 67.4712 44.8698C69.3841 45.5697 71.3229 45.9274 73.2306 45.9274C75.1384 45.9274 77.0772 45.5697 78.9901 44.8698C79.2937 44.7596 79.5694 44.5841 79.7978 44.3557C80.0262 44.1273 80.2018 43.8515 80.312 43.5479C81.7324 39.6651 81.7273 35.8859 80.3016 32.0031C80.1943 31.7035 80.0233 31.4306 79.8005 31.2033C79.5777 30.976 79.3083 30.7997 79.0108 30.6864ZM79.3374 43.185C79.279 43.3472 79.1855 43.4944 79.0636 43.6163C78.9418 43.7382 78.7945 43.8316 78.6324 43.8901C75.0295 45.2068 71.4266 45.2068 67.8289 43.8901C67.6668 43.8316 67.5195 43.7382 67.3976 43.6163C67.2758 43.4944 67.1823 43.3472 67.1239 43.185C65.7968 39.5562 65.7968 36.0311 67.1135 32.4075C67.2327 32.0757 67.4971 31.8217 67.8341 31.7024C69.7522 31.0285 71.6392 30.6864 73.4484 30.6864C75.2109 30.6864 76.958 31.013 78.6376 31.6558C78.9538 31.775 79.2026 32.029 79.3219 32.3556C80.6697 36 80.6697 39.5407 79.3374 43.185Z" fill="black"/>
<defs>
<filter id="filter0_d_384_434" x="0" y="0" width="145" height="145" filterUnits="userSpaceOnUse" color-interpolation-filters="sRGB">
<feFlood flood-opacity="0" result="BackgroundImageFix"/>
<feColorMatrix in="SourceAlpha" type="matrix" values="0 0 0 0 0 0 0 0 0 0 0 0 0 0 0 0 0 0 127 0" result="hardAlpha"/>
<feOffset dy="4"/>
<feGaussianBlur stdDeviation="2"/>
<feComposite in2="hardAlpha" operator="out"/>
<feColorMatrix type="matrix" values="0 0 0 0 0 0 0 0 0 0 0 0 0 0 0 0 0 0 0.5 0"/>
<feBlend mode="normal" in2="BackgroundImageFix" result="effect1_dropShadow_384_434"/>
<feBlend mode="normal" in="SourceGraphic" in2="effect1_dropShadow_384_434" result="shape"/>
</filter>
</defs>
</svg>
