<svg width="96" height="96" viewBox="0 0 96 96" fill="none" xmlns="http://www.w3.org/2000/svg">
<g clip-path="url(#clip0_115_678)">
<g filter="url(#filter0_d_115_678)">
<path d="M4 15C4 6.71572 10.7157 0 19 0H76.54C84.8243 0 91.54 6.71573 91.54 15V72.54C91.54 80.8243 84.8243 87.54 76.54 87.54H19C10.7157 87.54 4 80.8243 4 72.54V15Z" fill="white"/>
</g>
<path d="M18.4563 57.15C18.4563 56.3947 18.625 55.72 18.9623 55.126C19.307 54.5247 19.7726 54.059 20.3593 53.729C20.9533 53.3917 21.617 53.223 22.3503 53.223C23.2083 53.223 23.96 53.443 24.6053 53.883C25.2506 54.323 25.7016 54.9317 25.9583 55.709H24.1873C24.0113 55.3423 23.762 55.0673 23.4393 54.884C23.124 54.7007 22.7573 54.609 22.3393 54.609C21.892 54.609 21.4923 54.7153 21.1403 54.928C20.7956 55.1333 20.5243 55.4267 20.3263 55.808C20.1356 56.1893 20.0403 56.6367 20.0403 57.15C20.0403 57.656 20.1356 58.1033 20.3263 58.492C20.5243 58.8733 20.7956 59.1703 21.1403 59.383C21.4923 59.5883 21.892 59.691 22.3393 59.691C22.7573 59.691 23.124 59.5993 23.4393 59.416C23.762 59.2253 24.0113 58.9467 24.1873 58.58H25.9583C25.7016 59.3647 25.2506 59.977 24.6053 60.417C23.9673 60.8497 23.2156 61.066 22.3503 61.066C21.617 61.066 20.9533 60.901 20.3593 60.571C19.7726 60.2337 19.307 59.768 18.9623 59.174C18.625 58.58 18.4563 57.9053 18.4563 57.15ZM26.8776 57.931C26.8776 57.315 26.9986 56.7687 27.2406 56.292C27.49 55.8153 27.8236 55.4487 28.2416 55.192C28.667 54.9353 29.14 54.807 29.6606 54.807C30.1153 54.807 30.5113 54.8987 30.8486 55.082C31.1933 55.2653 31.4683 55.4963 31.6736 55.775V54.906H33.2246V61H31.6736V60.109C31.4756 60.395 31.2006 60.6333 30.8486 60.824C30.504 61.0073 30.1043 61.099 29.6496 61.099C29.1363 61.099 28.667 60.967 28.2416 60.703C27.8236 60.439 27.49 60.0687 27.2406 59.592C26.9986 59.108 26.8776 58.5543 26.8776 57.931ZM31.6736 57.953C31.6736 57.579 31.6003 57.26 31.4536 56.996C31.307 56.7247 31.109 56.5193 30.8596 56.38C30.6103 56.2333 30.3426 56.16 30.0566 56.16C29.7706 56.16 29.5066 56.2297 29.2646 56.369C29.0226 56.5083 28.8246 56.7137 28.6706 56.985C28.524 57.249 28.4506 57.5643 28.4506 57.931C28.4506 58.2977 28.524 58.6203 28.6706 58.899C28.8246 59.1703 29.0226 59.3793 29.2646 59.526C29.514 59.6727 29.778 59.746 30.0566 59.746C30.3426 59.746 30.6103 59.6763 30.8596 59.537C31.109 59.3903 31.307 59.185 31.4536 58.921C31.6003 58.6497 31.6736 58.327 31.6736 57.953ZM37.0607 61.099C36.5621 61.099 36.1147 61.011 35.7187 60.835C35.3227 60.6517 35.0074 60.406 34.7727 60.098C34.5454 59.79 34.4207 59.449 34.3987 59.075H35.9497C35.9791 59.3097 36.0927 59.504 36.2907 59.658C36.4961 59.812 36.7491 59.889 37.0497 59.889C37.3431 59.889 37.5704 59.8303 37.7317 59.713C37.9004 59.5957 37.9847 59.4453 37.9847 59.262C37.9847 59.064 37.8821 58.9173 37.6767 58.822C37.4787 58.7193 37.1597 58.6093 36.7197 58.492C36.2651 58.382 35.8911 58.2683 35.5977 58.151C35.3117 58.0337 35.0624 57.854 34.8497 57.612C34.6444 57.37 34.5417 57.0437 34.5417 56.633C34.5417 56.2957 34.6371 55.9877 34.8277 55.709C35.0257 55.4303 35.3044 55.2103 35.6637 55.049C36.0304 54.8877 36.4594 54.807 36.9507 54.807C37.6767 54.807 38.2561 54.9903 38.6887 55.357C39.1214 55.7163 39.3597 56.204 39.4037 56.82H37.9297C37.9077 56.578 37.8051 56.3873 37.6217 56.248C37.4457 56.1013 37.2074 56.028 36.9067 56.028C36.6281 56.028 36.4117 56.0793 36.2577 56.182C36.1111 56.2847 36.0377 56.4277 36.0377 56.611C36.0377 56.8163 36.1404 56.974 36.3457 57.084C36.5511 57.1867 36.8701 57.293 37.3027 57.403C37.7427 57.513 38.1057 57.6267 38.3917 57.744C38.6777 57.8613 38.9234 58.0447 39.1287 58.294C39.3414 58.536 39.4514 58.8587 39.4587 59.262C39.4587 59.614 39.3597 59.9293 39.1617 60.208C38.9711 60.4867 38.6924 60.7067 38.3257 60.868C37.9664 61.022 37.5447 61.099 37.0607 61.099ZM46.3879 57.821C46.3879 58.041 46.3732 58.239 46.3439 58.415H41.8889C41.9255 58.855 42.0795 59.1997 42.3509 59.449C42.6222 59.6983 42.9559 59.823 43.3519 59.823C43.9239 59.823 44.3309 59.5773 44.5729 59.086H46.2339C46.0579 59.6727 45.7205 60.1567 45.2219 60.538C44.7232 60.912 44.1109 61.099 43.3849 61.099C42.7982 61.099 42.2702 60.9707 41.8009 60.714C41.3389 60.45 40.9759 60.0797 40.7119 59.603C40.4552 59.1263 40.3269 58.5763 40.3269 57.953C40.3269 57.3223 40.4552 56.7687 40.7119 56.292C40.9685 55.8153 41.3279 55.4487 41.7899 55.192C42.2519 54.9353 42.7835 54.807 43.3849 54.807C43.9642 54.807 44.4812 54.9317 44.9359 55.181C45.3979 55.4303 45.7535 55.786 46.0029 56.248C46.2595 56.7027 46.3879 57.227 46.3879 57.821ZM44.7929 57.381C44.7855 56.985 44.6425 56.6697 44.3639 56.435C44.0852 56.193 43.7442 56.072 43.3409 56.072C42.9595 56.072 42.6369 56.1893 42.3729 56.424C42.1162 56.6513 41.9585 56.9703 41.8999 57.381H44.7929ZM54.874 53.322V54.565H51.673V56.534H54.126V57.755H51.673V61H50.133V53.322H54.874ZM55.57 57.931C55.57 57.315 55.691 56.7687 55.933 56.292C56.1824 55.8153 56.516 55.4487 56.934 55.192C57.3594 54.9353 57.8324 54.807 58.353 54.807C58.8077 54.807 59.2037 54.8987 59.541 55.082C59.8857 55.2653 60.1607 55.4963 60.366 55.775V54.906H61.917V61H60.366V60.109C60.168 60.395 59.893 60.6333 59.541 60.824C59.1964 61.0073 58.7967 61.099 58.342 61.099C57.8287 61.099 57.3594 60.967 56.934 60.703C56.516 60.439 56.1824 60.0687 55.933 59.592C55.691 59.108 55.57 58.5543 55.57 57.931ZM60.366 57.953C60.366 57.579 60.2927 57.26 60.146 56.996C59.9994 56.7247 59.8014 56.5193 59.552 56.38C59.3027 56.2333 59.035 56.16 58.749 56.16C58.463 56.16 58.199 56.2297 57.957 56.369C57.715 56.5083 57.517 56.7137 57.363 56.985C57.2164 57.249 57.143 57.5643 57.143 57.931C57.143 58.2977 57.2164 58.6203 57.363 58.899C57.517 59.1703 57.715 59.3793 57.957 59.526C58.2064 59.6727 58.4704 59.746 58.749 59.746C59.035 59.746 59.3027 59.6763 59.552 59.537C59.8014 59.3903 59.9994 59.185 60.146 58.921C60.2927 58.6497 60.366 58.327 60.366 57.953ZM66.7981 54.818C67.5241 54.818 68.1108 55.049 68.5581 55.511C69.0054 55.9657 69.2291 56.6037 69.2291 57.425V61H67.6891V57.634C67.6891 57.15 67.5681 56.7797 67.3261 56.523C67.0841 56.259 66.7541 56.127 66.3361 56.127C65.9108 56.127 65.5734 56.259 65.3241 56.523C65.0821 56.7797 64.9611 57.15 64.9611 57.634V61H63.4211V54.906H64.9611V55.665C65.1664 55.401 65.4268 55.1957 65.7421 55.049C66.0648 54.895 66.4168 54.818 66.7981 54.818ZM73.0256 61.099C72.5269 61.099 72.0796 61.011 71.6836 60.835C71.2876 60.6517 70.9722 60.406 70.7376 60.098C70.5102 59.79 70.3856 59.449 70.3636 59.075H71.9146C71.9439 59.3097 72.0576 59.504 72.2556 59.658C72.4609 59.812 72.7139 59.889 73.0146 59.889C73.3079 59.889 73.5352 59.8303 73.6966 59.713C73.8652 59.5957 73.9496 59.4453 73.9496 59.262C73.9496 59.064 73.8469 58.9173 73.6416 58.822C73.4436 58.7193 73.1246 58.6093 72.6846 58.492C72.2299 58.382 71.8559 58.2683 71.5626 58.151C71.2766 58.0337 71.0272 57.854 70.8146 57.612C70.6092 57.37 70.5066 57.0437 70.5066 56.633C70.5066 56.2957 70.6019 55.9877 70.7926 55.709C70.9906 55.4303 71.2692 55.2103 71.6286 55.049C71.9952 54.8877 72.4242 54.807 72.9156 54.807C73.6416 54.807 74.2209 54.9903 74.6536 55.357C75.0862 55.7163 75.3246 56.204 75.3686 56.82H73.8946C73.8726 56.578 73.7699 56.3873 73.5866 56.248C73.4106 56.1013 73.1722 56.028 72.8716 56.028C72.5929 56.028 72.3766 56.0793 72.2226 56.182C72.0759 56.2847 72.0026 56.4277 72.0026 56.611C72.0026 56.8163 72.1052 56.974 72.3106 57.084C72.5159 57.1867 72.8349 57.293 73.2676 57.403C73.7076 57.513 74.0706 57.6267 74.3566 57.744C74.6426 57.8613 74.8882 58.0447 75.0936 58.294C75.3062 58.536 75.4162 58.8587 75.4236 59.262C75.4236 59.614 75.3246 59.9293 75.1266 60.208C74.9359 60.4867 74.6572 60.7067 74.2906 60.868C73.9312 61.022 73.5096 61.099 73.0256 61.099Z" fill="black"/>
<path d="M47.418 18.2695C40.1406 18.2695 34.2344 24.1758 34.2344 31.4531C34.2344 38.7305 40.1406 44.6367 47.418 44.6367C54.6953 44.6367 60.6016 38.7305 60.6016 31.4531C60.6016 24.1758 54.6953 18.2695 47.418 18.2695ZM47.418 43.4062C40.8086 43.4062 35.4648 38.0625 35.4648 31.4531C35.4648 24.8438 40.8086 19.5 47.418 19.5C54.0273 19.5 59.3711 24.8438 59.3711 31.4531C59.3711 38.0625 54.0273 43.4062 47.418 43.4062Z" fill="black"/>
<path d="M48.0508 27.9024V22.8047C48.0508 21.3984 46.6094 20.4141 45.3086 20.9063C41.1602 22.5586 40.3867 28.0781 43.9024 30.8203H38.7695C37.3633 30.8203 36.3789 32.2617 36.8711 33.5625C38.5234 37.7109 44.043 38.4844 46.7852 34.9688V40.0664C46.7852 41.5078 48.2266 42.457 49.5274 41.9649C53.6758 40.3125 54.4492 34.793 50.9336 32.0508H56.0313C57.4375 32.0508 58.4219 30.6094 57.9297 29.3086C56.2774 25.1602 50.7578 24.4219 48.0508 27.9024ZM47.418 33.4219C46.3633 33.4219 45.4492 32.543 45.4492 31.4531C45.4492 30.3984 46.3281 29.4844 47.418 29.4844C48.4727 29.4844 49.3867 30.3633 49.3867 31.4531C49.3867 32.5078 48.5078 33.4219 47.418 33.4219ZM45.7305 22.0664C46.2227 21.8555 46.7852 22.2422 46.7852 22.8047V28.3242C45.9063 28.5 45.0977 29.0274 44.6055 29.8711C41.8633 27.7266 42.4609 23.3672 45.7305 22.0664ZM38.0313 33.1406C37.8203 32.6484 38.207 32.0859 38.7695 32.0859H44.2891C44.4649 32.9649 44.9922 33.7734 45.8359 34.2656C43.6914 37.0078 39.332 36.4102 38.0313 33.1406ZM49.1055 40.8398C48.6133 41.0508 48.0508 40.6641 48.0508 40.1016V34.582C48.9297 34.4063 49.7383 33.8438 50.2305 33.0352C52.9727 35.1797 52.375 39.5391 49.1055 40.8398ZM56.8047 29.7656C57.0156 30.2578 56.6289 30.8203 56.0664 30.8203H50.5469C50.3711 29.9766 49.8086 29.1328 49 28.6406C51.1445 25.8984 55.5039 26.5313 56.8047 29.7656Z" fill="black"/>
<path d="M58.8086 15H36.0273C33.25 15 31 17.25 31 20.0273V42.8086C31 45.5859 33.25 47.8359 36.0273 47.8359H58.8086C61.5859 47.8359 63.8359 45.5859 63.8359 42.8086V20.0625C63.8359 17.2852 61.5859 15.0352 58.8086 15ZM62.6406 42.8437C62.6406 44.9531 60.918 46.6406 58.8437 46.6406H36.0273C33.918 46.6406 32.2305 44.918 32.2305 42.8437V20.0625C32.2305 17.9531 33.9531 16.2656 36.0273 16.2656H58.8086C60.918 16.2656 62.6055 17.9883 62.6055 20.0625V42.8437H62.6406Z" fill="black"/>
<path d="M34.9727 20.0273C35.4581 20.0273 35.8516 19.6338 35.8516 19.1484C35.8516 18.663 35.4581 18.2695 34.9727 18.2695C34.4872 18.2695 34.0938 18.663 34.0938 19.1484C34.0938 19.6338 34.4872 20.0273 34.9727 20.0273Z" fill="black"/>
<path d="M59.6172 20.0273C60.1026 20.0273 60.4961 19.6338 60.4961 19.1484C60.4961 18.663 60.1026 18.2695 59.6172 18.2695C59.1318 18.2695 58.7383 18.663 58.7383 19.1484C58.7383 19.6338 59.1318 20.0273 59.6172 20.0273Z" fill="black"/>
<path d="M34.9727 45.0234C35.4581 45.0234 35.8516 44.6299 35.8516 44.1445C35.8516 43.6591 35.4581 43.2656 34.9727 43.2656C34.4872 43.2656 34.0938 43.6591 34.0938 44.1445C34.0938 44.6299 34.4872 45.0234 34.9727 45.0234Z" fill="black"/>
<path d="M59.6172 45.0234C60.1026 45.0234 60.4961 44.6299 60.4961 44.1445C60.4961 43.6591 60.1026 43.2656 59.6172 43.2656C59.1318 43.2656 58.7383 43.6591 58.7383 44.1445C58.7383 44.6299 59.1318 45.0234 59.6172 45.0234Z" fill="black"/>
</g>
<defs>
<filter id="filter0_d_115_678" x="0" y="0" width="95.54" height="95.54" filterUnits="userSpaceOnUse" color-interpolation-filters="sRGB">
<feFlood flood-opacity="0" result="BackgroundImageFix"/>
<feColorMatrix in="SourceAlpha" type="matrix" values="0 0 0 0 0 0 0 0 0 0 0 0 0 0 0 0 0 0 127 0" result="hardAlpha"/>
<feOffset dy="4"/>
<feGaussianBlur stdDeviation="2"/>
<feComposite in2="hardAlpha" operator="out"/>
<feColorMatrix type="matrix" values="0 0 0 0 0 0 0 0 0 0 0 0 0 0 0 0 0 0 0.5 0"/>
<feBlend mode="normal" in2="BackgroundImageFix" result="effect1_dropShadow_115_678"/>
<feBlend mode="normal" in="SourceGraphic" in2="effect1_dropShadow_115_678" result="shape"/>
</filter>
<clipPath id="clip0_115_678">
<rect width="96" height="96" fill="white"/>
</clipPath>
</defs>
</svg>
