<svg width="96" height="96" viewBox="0 0 96 96" fill="none" xmlns="http://www.w3.org/2000/svg">
<g clip-path="url(#clip0_115_689)">
<g filter="url(#filter0_d_115_689)">
<path d="M4 15C4 6.71572 10.7157 0 19 0H76.54C84.8243 0 91.54 6.71573 91.54 15V72.54C91.54 80.8243 84.8243 87.54 76.54 87.54H19C10.7157 87.54 4 80.8243 4 72.54V15Z" fill="white"/>
</g>
<path d="M33.0442 57.15C33.0442 56.3947 33.2128 55.72 33.5502 55.126C33.8948 54.5247 34.3605 54.059 34.9472 53.729C35.5412 53.3917 36.2048 53.223 36.9382 53.223C37.7962 53.223 38.5478 53.443 39.1932 53.883C39.8385 54.323 40.2895 54.9317 40.5462 55.709H38.7752C38.5992 55.3423 38.3498 55.0673 38.0272 54.884C37.7118 54.7007 37.3452 54.609 36.9272 54.609C36.4798 54.609 36.0802 54.7153 35.7282 54.928C35.3835 55.1333 35.1122 55.4267 34.9142 55.808C34.7235 56.1893 34.6282 56.6367 34.6282 57.15C34.6282 57.656 34.7235 58.1033 34.9142 58.492C35.1122 58.8733 35.3835 59.1703 35.7282 59.383C36.0802 59.5883 36.4798 59.691 36.9272 59.691C37.3452 59.691 37.7118 59.5993 38.0272 59.416C38.3498 59.2253 38.5992 58.9467 38.7752 58.58H40.5462C40.2895 59.3647 39.8385 59.977 39.1932 60.417C38.5552 60.8497 37.8035 61.066 36.9382 61.066C36.2048 61.066 35.5412 60.901 34.9472 60.571C34.3605 60.2337 33.8948 59.768 33.5502 59.174C33.2128 58.58 33.0442 57.9053 33.0442 57.15ZM41.4655 57.931C41.4655 57.315 41.5865 56.7687 41.8285 56.292C42.0779 55.8153 42.4115 55.4487 42.8295 55.192C43.2549 54.9353 43.7279 54.807 44.2485 54.807C44.7032 54.807 45.0992 54.8987 45.4365 55.082C45.7812 55.2653 46.0562 55.4963 46.2615 55.775V54.906H47.8125V61H46.2615V60.109C46.0635 60.395 45.7885 60.6333 45.4365 60.824C45.0919 61.0073 44.6922 61.099 44.2375 61.099C43.7242 61.099 43.2549 60.967 42.8295 60.703C42.4115 60.439 42.0779 60.0687 41.8285 59.592C41.5865 59.108 41.4655 58.5543 41.4655 57.931ZM46.2615 57.953C46.2615 57.579 46.1882 57.26 46.0415 56.996C45.8949 56.7247 45.6969 56.5193 45.4475 56.38C45.1982 56.2333 44.9305 56.16 44.6445 56.16C44.3585 56.16 44.0945 56.2297 43.8525 56.369C43.6105 56.5083 43.4125 56.7137 43.2585 56.985C43.1119 57.249 43.0385 57.5643 43.0385 57.931C43.0385 58.2977 43.1119 58.6203 43.2585 58.899C43.4125 59.1703 43.6105 59.3793 43.8525 59.526C44.1019 59.6727 44.3659 59.746 44.6445 59.746C44.9305 59.746 45.1982 59.6763 45.4475 59.537C45.6969 59.3903 45.8949 59.185 46.0415 58.921C46.1882 58.6497 46.2615 58.327 46.2615 57.953ZM51.6486 61.099C51.15 61.099 50.7026 61.011 50.3066 60.835C49.9106 60.6517 49.5953 60.406 49.3606 60.098C49.1333 59.79 49.0086 59.449 48.9866 59.075H50.5376C50.567 59.3097 50.6806 59.504 50.8786 59.658C51.084 59.812 51.337 59.889 51.6376 59.889C51.931 59.889 52.1583 59.8303 52.3196 59.713C52.4883 59.5957 52.5726 59.4453 52.5726 59.262C52.5726 59.064 52.47 58.9173 52.2646 58.822C52.0666 58.7193 51.7476 58.6093 51.3076 58.492C50.853 58.382 50.479 58.2683 50.1856 58.151C49.8996 58.0337 49.6503 57.854 49.4376 57.612C49.2323 57.37 49.1296 57.0437 49.1296 56.633C49.1296 56.2957 49.225 55.9877 49.4156 55.709C49.6136 55.4303 49.8923 55.2103 50.2516 55.049C50.6183 54.8877 51.0473 54.807 51.5386 54.807C52.2646 54.807 52.844 54.9903 53.2766 55.357C53.7093 55.7163 53.9476 56.204 53.9916 56.82H52.5176C52.4956 56.578 52.393 56.3873 52.2096 56.248C52.0336 56.1013 51.7953 56.028 51.4946 56.028C51.216 56.028 50.9996 56.0793 50.8456 56.182C50.699 56.2847 50.6256 56.4277 50.6256 56.611C50.6256 56.8163 50.7283 56.974 50.9336 57.084C51.139 57.1867 51.458 57.293 51.8906 57.403C52.3306 57.513 52.6936 57.6267 52.9796 57.744C53.2656 57.8613 53.5113 58.0447 53.7166 58.294C53.9293 58.536 54.0393 58.8587 54.0466 59.262C54.0466 59.614 53.9476 59.9293 53.7496 60.208C53.559 60.4867 53.2803 60.7067 52.9136 60.868C52.5543 61.022 52.1326 61.099 51.6486 61.099ZM60.9758 57.821C60.9758 58.041 60.9611 58.239 60.9318 58.415H56.4768C56.5134 58.855 56.6674 59.1997 56.9388 59.449C57.2101 59.6983 57.5438 59.823 57.9398 59.823C58.5118 59.823 58.9188 59.5773 59.1608 59.086H60.8218C60.6458 59.6727 60.3084 60.1567 59.8098 60.538C59.3111 60.912 58.6988 61.099 57.9728 61.099C57.3861 61.099 56.8581 60.9707 56.3888 60.714C55.9268 60.45 55.5638 60.0797 55.2998 59.603C55.0431 59.1263 54.9148 58.5763 54.9148 57.953C54.9148 57.3223 55.0431 56.7687 55.2998 56.292C55.5564 55.8153 55.9158 55.4487 56.3778 55.192C56.8398 54.9353 57.3714 54.807 57.9728 54.807C58.5521 54.807 59.0691 54.9317 59.5238 55.181C59.9858 55.4303 60.3414 55.786 60.5908 56.248C60.8474 56.7027 60.9758 57.227 60.9758 57.821ZM59.3808 57.381C59.3734 56.985 59.2304 56.6697 58.9518 56.435C58.6731 56.193 58.3321 56.072 57.9288 56.072C57.5474 56.072 57.2248 56.1893 56.9608 56.424C56.7041 56.6513 56.5464 56.9703 56.4878 57.381H59.3808ZM18.8708 76.537H15.8128L15.3068 78H13.6898L16.4508 70.311H18.2438L21.0048 78H19.3768L18.8708 76.537ZM18.4528 75.305L17.3418 72.093L16.2308 75.305H18.4528ZM21.6408 74.953C21.6408 74.3223 21.7692 73.7723 22.0258 73.303C22.2825 72.8263 22.6382 72.4597 23.0928 72.203C23.5475 71.939 24.0682 71.807 24.6548 71.807C25.4102 71.807 26.0335 71.9977 26.5248 72.379C27.0235 72.753 27.3572 73.281 27.5258 73.963H25.8648C25.7768 73.699 25.6265 73.4937 25.4138 73.347C25.2085 73.193 24.9518 73.116 24.6438 73.116C24.2038 73.116 23.8555 73.2773 23.5988 73.6C23.3422 73.9153 23.2138 74.3663 23.2138 74.953C23.2138 75.5323 23.3422 75.9833 23.5988 76.306C23.8555 76.6213 24.2038 76.779 24.6438 76.779C25.2672 76.779 25.6742 76.5003 25.8648 75.943H27.5258C27.3572 76.603 27.0235 77.1273 26.5248 77.516C26.0262 77.9047 25.4028 78.099 24.6548 78.099C24.0682 78.099 23.5475 77.9707 23.0928 77.714C22.6382 77.45 22.2825 77.0833 22.0258 76.614C21.7692 76.1373 21.6408 75.5837 21.6408 74.953ZM28.258 74.953C28.258 74.3223 28.3864 73.7723 28.643 73.303C28.8997 72.8263 29.2554 72.4597 29.71 72.203C30.1647 71.939 30.6854 71.807 31.272 71.807C32.0274 71.807 32.6507 71.9977 33.142 72.379C33.6407 72.753 33.9744 73.281 34.143 73.963H32.482C32.394 73.699 32.2437 73.4937 32.031 73.347C31.8257 73.193 31.569 73.116 31.261 73.116C30.821 73.116 30.4727 73.2773 30.216 73.6C29.9594 73.9153 29.831 74.3663 29.831 74.953C29.831 75.5323 29.9594 75.9833 30.216 76.306C30.4727 76.6213 30.821 76.779 31.261 76.779C31.8844 76.779 32.2914 76.5003 32.482 75.943H34.143C33.9744 76.603 33.6407 77.1273 33.142 77.516C32.6434 77.9047 32.02 78.099 31.272 78.099C30.6854 78.099 30.1647 77.9707 29.71 77.714C29.2554 77.45 28.8997 77.0833 28.643 76.614C28.3864 76.1373 28.258 75.5837 28.258 74.953ZM40.9362 74.821C40.9362 75.041 40.9215 75.239 40.8922 75.415H36.4372C36.4739 75.855 36.6279 76.1997 36.8992 76.449C37.1705 76.6983 37.5042 76.823 37.9002 76.823C38.4722 76.823 38.8792 76.5773 39.1212 76.086H40.7822C40.6062 76.6727 40.2689 77.1567 39.7702 77.538C39.2715 77.912 38.6592 78.099 37.9332 78.099C37.3465 78.099 36.8185 77.9707 36.3492 77.714C35.8872 77.45 35.5242 77.0797 35.2602 76.603C35.0035 76.1263 34.8752 75.5763 34.8752 74.953C34.8752 74.3223 35.0035 73.7687 35.2602 73.292C35.5169 72.8153 35.8762 72.4487 36.3382 72.192C36.8002 71.9353 37.3319 71.807 37.9332 71.807C38.5125 71.807 39.0295 71.9317 39.4842 72.181C39.9462 72.4303 40.3019 72.786 40.5512 73.248C40.8079 73.7027 40.9362 74.227 40.9362 74.821ZM39.3412 74.381C39.3339 73.985 39.1909 73.6697 38.9122 73.435C38.6335 73.193 38.2925 73.072 37.8892 73.072C37.5079 73.072 37.1852 73.1893 36.9212 73.424C36.6645 73.6513 36.5069 73.9703 36.4482 74.381H39.3412ZM44.3923 78.099C43.8936 78.099 43.4463 78.011 43.0503 77.835C42.6543 77.6517 42.3389 77.406 42.1043 77.098C41.8769 76.79 41.7523 76.449 41.7303 76.075H43.2813C43.3106 76.3097 43.4243 76.504 43.6223 76.658C43.8276 76.812 44.0806 76.889 44.3813 76.889C44.6746 76.889 44.9019 76.8303 45.0633 76.713C45.2319 76.5957 45.3163 76.4453 45.3163 76.262C45.3163 76.064 45.2136 75.9173 45.0083 75.822C44.8103 75.7193 44.4913 75.6093 44.0513 75.492C43.5966 75.382 43.2226 75.2683 42.9293 75.151C42.6433 75.0337 42.3939 74.854 42.1813 74.612C41.9759 74.37 41.8733 74.0437 41.8733 73.633C41.8733 73.2957 41.9686 72.9877 42.1593 72.709C42.3573 72.4303 42.6359 72.2103 42.9953 72.049C43.3619 71.8877 43.7909 71.807 44.2823 71.807C45.0083 71.807 45.5876 71.9903 46.0203 72.357C46.4529 72.7163 46.6913 73.204 46.7353 73.82H45.2613C45.2393 73.578 45.1366 73.3873 44.9533 73.248C44.7773 73.1013 44.5389 73.028 44.2383 73.028C43.9596 73.028 43.7433 73.0793 43.5893 73.182C43.4426 73.2847 43.3693 73.4277 43.3693 73.611C43.3693 73.8163 43.4719 73.974 43.6773 74.084C43.8826 74.1867 44.2016 74.293 44.6343 74.403C45.0743 74.513 45.4373 74.6267 45.7233 74.744C46.0093 74.8613 46.2549 75.0447 46.4603 75.294C46.6729 75.536 46.7829 75.8587 46.7903 76.262C46.7903 76.614 46.6913 76.9293 46.4933 77.208C46.3026 77.4867 46.0239 77.7067 45.6573 77.868C45.2979 78.022 44.8763 78.099 44.3923 78.099ZM50.3864 78.099C49.8877 78.099 49.4404 78.011 49.0444 77.835C48.6484 77.6517 48.3331 77.406 48.0984 77.098C47.8711 76.79 47.7464 76.449 47.7244 76.075H49.2754C49.3047 76.3097 49.4184 76.504 49.6164 76.658C49.8217 76.812 50.0747 76.889 50.3754 76.889C50.6687 76.889 50.8961 76.8303 51.0574 76.713C51.2261 76.5957 51.3104 76.4453 51.3104 76.262C51.3104 76.064 51.2077 75.9173 51.0024 75.822C50.8044 75.7193 50.4854 75.6093 50.0454 75.492C49.5907 75.382 49.2167 75.2683 48.9234 75.151C48.6374 75.0337 48.3881 74.854 48.1754 74.612C47.9701 74.37 47.8674 74.0437 47.8674 73.633C47.8674 73.2957 47.9627 72.9877 48.1534 72.709C48.3514 72.4303 48.6301 72.2103 48.9894 72.049C49.3561 71.8877 49.7851 71.807 50.2764 71.807C51.0024 71.807 51.5817 71.9903 52.0144 72.357C52.4471 72.7163 52.6854 73.204 52.7294 73.82H51.2554C51.2334 73.578 51.1307 73.3873 50.9474 73.248C50.7714 73.1013 50.5331 73.028 50.2324 73.028C49.9537 73.028 49.7374 73.0793 49.5834 73.182C49.4367 73.2847 49.3634 73.4277 49.3634 73.611C49.3634 73.8163 49.4661 73.974 49.6714 74.084C49.8767 74.1867 50.1957 74.293 50.6284 74.403C51.0684 74.513 51.4314 74.6267 51.7174 74.744C52.0034 74.8613 52.2491 75.0447 52.4544 75.294C52.6671 75.536 52.7771 75.8587 52.7844 76.262C52.7844 76.614 52.6854 76.9293 52.4874 77.208C52.2967 77.4867 52.0181 77.7067 51.6514 77.868C51.2921 78.022 50.8704 78.099 50.3864 78.099ZM56.7546 78.099C56.1679 78.099 55.6399 77.9707 55.1706 77.714C54.7012 77.45 54.3309 77.0797 54.0596 76.603C53.7956 76.1263 53.6636 75.5763 53.6636 74.953C53.6636 74.3297 53.7992 73.7797 54.0706 73.303C54.3492 72.8263 54.7269 72.4597 55.2036 72.203C55.6802 71.939 56.2119 71.807 56.7986 71.807C57.3852 71.807 57.9169 71.939 58.3936 72.203C58.8702 72.4597 59.2442 72.8263 59.5156 73.303C59.7942 73.7797 59.9336 74.3297 59.9336 74.953C59.9336 75.5763 59.7906 76.1263 59.5046 76.603C59.2259 77.0797 58.8446 77.45 58.3606 77.714C57.8839 77.9707 57.3486 78.099 56.7546 78.099ZM56.7546 76.757C57.0332 76.757 57.2936 76.691 57.5356 76.559C57.7849 76.4197 57.9829 76.2143 58.1296 75.943C58.2762 75.6717 58.3496 75.3417 58.3496 74.953C58.3496 74.3737 58.1956 73.93 57.8876 73.622C57.5869 73.3067 57.2166 73.149 56.7766 73.149C56.3366 73.149 55.9662 73.3067 55.6656 73.622C55.3722 73.93 55.2256 74.3737 55.2256 74.953C55.2256 75.5323 55.3686 75.9797 55.6546 76.295C55.9479 76.603 56.3146 76.757 56.7546 76.757ZM62.6032 72.852C62.8012 72.5293 63.0579 72.2763 63.3732 72.093C63.6959 71.9097 64.0625 71.818 64.4732 71.818V73.435H64.0662C63.5822 73.435 63.2155 73.5487 62.9662 73.776C62.7242 74.0033 62.6032 74.3993 62.6032 74.964V78H61.0632V71.906H62.6032V72.852ZM66.2915 71.18C66.0201 71.18 65.7928 71.0957 65.6095 70.927C65.4335 70.751 65.3455 70.5347 65.3455 70.278C65.3455 70.0213 65.4335 69.8087 65.6095 69.64C65.7928 69.464 66.0201 69.376 66.2915 69.376C66.5628 69.376 66.7865 69.464 66.9625 69.64C67.1458 69.8087 67.2375 70.0213 67.2375 70.278C67.2375 70.5347 67.1458 70.751 66.9625 70.927C66.7865 71.0957 66.5628 71.18 66.2915 71.18ZM67.0505 71.906V78H65.5105V71.906H67.0505ZM74.237 74.821C74.237 75.041 74.2223 75.239 74.193 75.415H69.738C69.7747 75.855 69.9287 76.1997 70.2 76.449C70.4713 76.6983 70.805 76.823 71.201 76.823C71.773 76.823 72.18 76.5773 72.422 76.086H74.083C73.907 76.6727 73.5697 77.1567 73.071 77.538C72.5723 77.912 71.96 78.099 71.234 78.099C70.6473 78.099 70.1193 77.9707 69.65 77.714C69.188 77.45 68.825 77.0797 68.561 76.603C68.3043 76.1263 68.176 75.5763 68.176 74.953C68.176 74.3223 68.3043 73.7687 68.561 73.292C68.8177 72.8153 69.177 72.4487 69.639 72.192C70.101 71.9353 70.6327 71.807 71.234 71.807C71.8133 71.807 72.3303 71.9317 72.785 72.181C73.247 72.4303 73.6027 72.786 73.852 73.248C74.1087 73.7027 74.237 74.227 74.237 74.821ZM72.642 74.381C72.6347 73.985 72.4917 73.6697 72.213 73.435C71.9343 73.193 71.5933 73.072 71.19 73.072C70.8087 73.072 70.486 73.1893 70.222 73.424C69.9653 73.6513 69.8077 73.9703 69.749 74.381H72.642ZM77.6931 78.099C77.1944 78.099 76.7471 78.011 76.3511 77.835C75.9551 77.6517 75.6397 77.406 75.4051 77.098C75.1777 76.79 75.0531 76.449 75.0311 76.075H76.5821C76.6114 76.3097 76.7251 76.504 76.9231 76.658C77.1284 76.812 77.3814 76.889 77.6821 76.889C77.9754 76.889 78.2027 76.8303 78.3641 76.713C78.5327 76.5957 78.6171 76.4453 78.6171 76.262C78.6171 76.064 78.5144 75.9173 78.3091 75.822C78.1111 75.7193 77.7921 75.6093 77.3521 75.492C76.8974 75.382 76.5234 75.2683 76.2301 75.151C75.9441 75.0337 75.6947 74.854 75.4821 74.612C75.2767 74.37 75.1741 74.0437 75.1741 73.633C75.1741 73.2957 75.2694 72.9877 75.4601 72.709C75.6581 72.4303 75.9367 72.2103 76.2961 72.049C76.6627 71.8877 77.0917 71.807 77.5831 71.807C78.3091 71.807 78.8884 71.9903 79.3211 72.357C79.7537 72.7163 79.9921 73.204 80.0361 73.82H78.5621C78.5401 73.578 78.4374 73.3873 78.2541 73.248C78.0781 73.1013 77.8397 73.028 77.5391 73.028C77.2604 73.028 77.0441 73.0793 76.8901 73.182C76.7434 73.2847 76.6701 73.4277 76.6701 73.611C76.6701 73.8163 76.7727 73.974 76.9781 74.084C77.1834 74.1867 77.5024 74.293 77.9351 74.403C78.3751 74.513 78.7381 74.6267 79.0241 74.744C79.3101 74.8613 79.5557 75.0447 79.7611 75.294C79.9737 75.536 80.0837 75.8587 80.0911 76.262C80.0911 76.614 79.9921 76.9293 79.7941 77.208C79.6034 77.4867 79.3247 77.7067 78.9581 77.868C78.5987 78.022 78.1771 78.099 77.6931 78.099Z" fill="black"/>
<path d="M64.4167 16.5H63.8333V13.5833C63.8333 13.4286 63.7719 13.2803 63.6625 13.1709C63.5531 13.0615 63.4047 13 63.25 13H51.5833C51.4286 13 51.2802 13.0615 51.1709 13.1709C51.0615 13.2803 51 13.4286 51 13.5833V16.5H50.4167C50.262 16.5 50.1136 16.5615 50.0042 16.6709C49.8948 16.7803 49.8333 16.9286 49.8333 17.0833V25.25C49.8333 25.4047 49.8948 25.5531 50.0042 25.6625C50.1136 25.7719 50.262 25.8333 50.4167 25.8333H51V27.5833C51 27.738 51.0615 27.8864 51.1709 27.9958C51.2802 28.1052 51.4286 28.1667 51.5833 28.1667H52.1667V32.8333C52.1667 34.071 51.675 35.258 50.7998 36.1332C49.9247 37.0083 48.7377 37.5 47.5 37.5C46.2623 37.5 45.0753 37.0083 44.2002 36.1332C43.325 35.258 42.8333 34.071 42.8333 32.8333V28.1667H43.4167C43.5714 28.1667 43.7197 28.1052 43.8291 27.9958C43.9385 27.8864 44 27.738 44 27.5833V25.8333H44.5833C44.738 25.8333 44.8864 25.7719 44.9958 25.6625C45.1052 25.5531 45.1667 25.4047 45.1667 25.25V17.0833C45.1667 16.9286 45.1052 16.7803 44.9958 16.6709C44.8864 16.5615 44.738 16.5 44.5833 16.5H44V13.5833C44 13.4286 43.9385 13.2803 43.8291 13.1709C43.7197 13.0615 43.5714 13 43.4167 13H31.75C31.5953 13 31.4469 13.0615 31.3375 13.1709C31.2281 13.2803 31.1667 13.4286 31.1667 13.5833V16.5H30.5833C30.4286 16.5 30.2803 16.5615 30.1709 16.6709C30.0615 16.7803 30 16.9286 30 17.0833V25.25C30 25.4047 30.0615 25.5531 30.1709 25.6625C30.2803 25.7719 30.4286 25.8333 30.5833 25.8333H31.1667V27.5833C31.1667 27.738 31.2281 27.8864 31.3375 27.9958C31.4469 28.1052 31.5953 28.1667 31.75 28.1667H32.3333V29.9167H33.5V28.1667H34.6667V32.8333C34.6667 36.2369 36.0187 39.5012 38.4255 41.9079C40.8322 44.3146 44.0964 45.6667 47.5 45.6667C50.9036 45.6667 54.1678 44.3146 56.5745 41.9079C58.9813 39.5012 60.3333 36.2369 60.3333 32.8333V28.1667H61.5V32.8333C61.5774 36.5464 60.1765 40.1381 57.6057 42.8183C55.0349 45.4985 51.5047 47.0476 47.7917 47.125C44.0786 47.2024 40.487 45.8015 37.8067 43.2307C35.1265 40.6599 33.5774 37.1297 33.5 33.4167H32.3333C32.4107 37.4391 34.0828 41.2661 36.9818 44.0557C39.8808 46.8453 43.7692 48.369 47.7917 48.2917C51.8141 48.2143 55.6411 46.5422 58.4307 43.6432C61.2203 40.7442 62.744 36.8558 62.6667 32.8333V28.1667H63.25C63.4047 28.1667 63.5531 28.1052 63.6625 27.9958C63.7719 27.8864 63.8333 27.738 63.8333 27.5833V25.8333H64.4167C64.5714 25.8333 64.7197 25.7719 64.8291 25.6625C64.9385 25.5531 65 25.4047 65 25.25V17.0833C65 16.9286 64.9385 16.7803 64.8291 16.6709C64.7197 16.5615 64.5714 16.5 64.4167 16.5ZM62.6667 16.5H61.5V14.1667H62.6667V16.5ZM54.5 16.5V14.1667H55.0833V16.5H54.5ZM56.25 14.1667H56.8333V16.5H56.25V14.1667ZM58 14.1667H58.5833V16.5H58V14.1667ZM59.75 14.1667H60.3333V16.5H59.75V14.1667ZM52.1667 14.1667H53.3333V16.5H52.1667V14.1667ZM47.5 38.6667C48.266 38.6667 49.0246 38.5158 49.7323 38.2226C50.4401 37.9295 51.0831 37.4998 51.6248 36.9581C52.1665 36.4164 52.5961 35.7734 52.8893 35.0657C53.1824 34.3579 53.3333 33.5994 53.3333 32.8333V28.1667H54.5V32.8333C54.5 34.6898 53.7625 36.4703 52.4497 37.7831C51.137 39.0958 49.3565 39.8333 47.5 39.8333C45.6435 39.8333 43.863 39.0958 42.5503 37.7831C41.2375 36.4703 40.5 34.6898 40.5 32.8333V28.1667H41.6667V32.8333C41.6667 33.5994 41.8175 34.3579 42.1107 35.0657C42.4039 35.7734 42.8335 36.4164 43.3752 36.9581C44.4692 38.0521 45.9529 38.6667 47.5 38.6667ZM38.1667 28.1667H39.3333V32.8333C39.3333 34.9993 40.1937 37.0765 41.7253 38.608C43.2568 40.1396 45.3341 41 47.5 41C49.6659 41 51.7432 40.1396 53.2747 38.608C54.8063 37.0765 55.6667 34.9993 55.6667 32.8333V28.1667H56.8333V32.8333C56.8333 35.3087 55.85 37.6827 54.0997 39.433C52.3493 41.1833 49.9754 42.1667 47.5 42.1667C45.0246 42.1667 42.6507 41.1833 40.9003 39.433C39.15 37.6827 38.1667 35.3087 38.1667 32.8333V28.1667ZM42.8333 16.5H41.6667V14.1667H42.8333V16.5ZM34.6667 16.5V14.1667H35.25V16.5H34.6667ZM36.4167 14.1667H37V16.5H36.4167V14.1667ZM38.1667 14.1667H38.75V16.5H38.1667V14.1667ZM39.9167 14.1667H40.5V16.5H39.9167V14.1667ZM32.3333 14.1667H33.5V16.5H32.3333V14.1667ZM31.1667 17.6667H44V24.6667H31.1667V17.6667ZM42.8333 25.8333V27H32.3333V25.8333H42.8333ZM59.1667 32.8333C59.1667 35.9275 57.9375 38.895 55.7496 41.0829C53.5617 43.2708 50.5942 44.5 47.5 44.5C44.4058 44.5 41.4383 43.2708 39.2504 41.0829C37.0625 38.895 35.8333 35.9275 35.8333 32.8333V28.1667H37V32.8333C37 35.6181 38.1062 38.2888 40.0754 40.258C42.0445 42.2271 44.7152 43.3333 47.5 43.3333C50.2848 43.3333 52.9555 42.2271 54.9246 40.258C56.8938 38.2888 58 35.6181 58 32.8333V28.1667H59.1667V32.8333ZM62.6667 27H52.1667V25.8333H62.6667V27ZM63.8333 24.6667H51V17.6667H63.8333V24.6667Z" fill="black"/>
<path d="M32.3333 31.0833H33.5V32.25H32.3333V31.0833ZM32.3333 20H42.8333V21.1667H32.3333V20ZM33.5 22.3333H41.6666V23.5H33.5V22.3333ZM52.1666 20H62.6666V21.1667H52.1666V20ZM53.3333 22.3333H61.5V23.5H53.3333V22.3333Z" fill="black"/>
</g>
<defs>
<filter id="filter0_d_115_689" x="0" y="0" width="95.54" height="95.54" filterUnits="userSpaceOnUse" color-interpolation-filters="sRGB">
<feFlood flood-opacity="0" result="BackgroundImageFix"/>
<feColorMatrix in="SourceAlpha" type="matrix" values="0 0 0 0 0 0 0 0 0 0 0 0 0 0 0 0 0 0 127 0" result="hardAlpha"/>
<feOffset dy="4"/>
<feGaussianBlur stdDeviation="2"/>
<feComposite in2="hardAlpha" operator="out"/>
<feColorMatrix type="matrix" values="0 0 0 0 0 0 0 0 0 0 0 0 0 0 0 0 0 0 0.5 0"/>
<feBlend mode="normal" in2="BackgroundImageFix" result="effect1_dropShadow_115_689"/>
<feBlend mode="normal" in="SourceGraphic" in2="effect1_dropShadow_115_689" result="shape"/>
</filter>
<clipPath id="clip0_115_689">
<rect width="96" height="96" fill="white"/>
</clipPath>
</defs>
</svg>
