<svg width="21" height="19" viewBox="0 0 21 19" fill="none" xmlns="http://www.w3.org/2000/svg">
<path d="M11.3328 18.72L10.08 18L12.96 12.96H17.28C17.6619 12.96 18.0282 12.8083 18.2982 12.5382C18.5683 12.2682 18.72 11.9019 18.72 11.52V2.88C18.72 2.49809 18.5683 2.13182 18.2982 1.86177C18.0282 1.59171 17.6619 1.44 17.28 1.44H2.88C2.49809 1.44 2.13182 1.59171 1.86177 1.86177C1.59171 2.13182 1.44 2.49809 1.44 2.88V11.52C1.44 11.9019 1.59171 12.2682 1.86177 12.5382C2.13182 12.8083 2.49809 12.96 2.88 12.96H9.36V14.4H2.88C2.11618 14.4 1.38364 14.0966 0.843532 13.5565C0.303428 13.0164 0 12.2838 0 11.52V2.88C0 2.11618 0.303428 1.38364 0.843532 0.843532C1.38364 0.303428 2.11618 0 2.88 0H17.28C18.0438 0 18.7764 0.303428 19.3165 0.843532C19.8566 1.38364 20.16 2.11618 20.16 2.88V11.52C20.16 12.2838 19.8566 13.0164 19.3165 13.5565C18.7764 14.0966 18.0438 14.4 17.28 14.4H13.7952L11.3328 18.72Z" fill="white"/>
<path d="M10.8 3.59961H9.36V6.47961H6.48V7.91961H9.36V10.7996H10.8V7.91961H13.68V6.47961H10.8V3.59961Z" fill="white"/>
</svg>
