<svg width="16" height="16" viewBox="0 0 16 16" fill="none" xmlns="http://www.w3.org/2000/svg">
<path d="M10.9156 10.0911L10.4692 9.66767L10.9156 10.0919V10.0911ZM13.7431 14.7738L13.2959 14.3496L13.7423 14.7738H13.7431ZM12.6551 15.3564L12.7158 15.9677L12.6551 15.3556V15.3564ZM1.23005 3.837C1.22569 3.75629 1.20547 3.67723 1.17055 3.60434C1.13563 3.53144 1.0867 3.46614 1.02655 3.41216C0.966392 3.35817 0.896194 3.31657 0.81996 3.28972C0.743726 3.26286 0.66295 3.25129 0.582242 3.25565C0.501535 3.26001 0.422478 3.28023 0.349584 3.31515C0.27669 3.35007 0.211388 3.399 0.157405 3.45915C0.103422 3.51931 0.0618161 3.58951 0.0349625 3.66574C0.00810904 3.74197 -0.00346619 3.82275 0.000897821 3.90346L1.23005 3.837ZM2.02268 0.691909C1.91492 0.811001 1.85798 0.967503 1.86403 1.128C1.87008 1.2885 1.93864 1.44027 2.05506 1.55091C2.17149 1.66155 2.32655 1.72229 2.48715 1.72016C2.64774 1.71803 2.80114 1.6532 2.91459 1.53952L2.02268 0.691909ZM6.90154 14.4111C6.96997 14.4552 7.04647 14.4853 7.12661 14.4997C7.20675 14.514 7.28893 14.5123 7.3684 14.4946C7.44787 14.477 7.52305 14.4437 7.58958 14.3968C7.65611 14.3499 7.71267 14.2902 7.75598 14.2213C7.79929 14.1523 7.8285 14.0755 7.84191 13.9952C7.85531 13.9149 7.85265 13.8328 7.83408 13.7535C7.81551 13.6742 7.7814 13.5994 7.73372 13.5335C7.68604 13.4675 7.62575 13.4116 7.55632 13.3691L6.90154 14.4111ZM10.5521 14.613C10.3922 14.5796 10.2257 14.6111 10.089 14.7005C9.95238 14.7899 9.85685 14.9299 9.82345 15.0897C9.79004 15.2496 9.8215 15.4161 9.9109 15.5528C10.0003 15.6894 10.1403 15.7849 10.3002 15.8184L10.5521 14.613ZM10.9886 10.9091L11.3619 10.5153L10.4692 9.66767L10.0959 10.0615L10.9886 10.9091ZM12.5919 10.3495L14.1591 11.2521L14.7729 10.1854L13.2057 9.28284L12.5919 10.3495ZM14.4619 13.1229L13.2959 14.3496L14.1887 15.198L15.3538 13.9705L14.4619 13.1229ZM5.01022 11.2497C1.82986 7.90107 1.29651 5.07599 1.23005 3.837L0.000897821 3.90346C0.0829507 5.42144 0.726245 8.52632 4.11831 12.0973L5.01022 11.2497ZM6.13927 5.8038L6.37394 5.556L5.48203 4.7084L5.24654 4.9562L6.13927 5.8038ZM6.55938 2.47082L5.5247 1.00781L4.51955 1.71839L5.55341 3.18139L6.55938 2.47082ZM5.69208 5.37959C5.54441 5.23727 5.39534 5.09641 5.2449 4.95702L5.24325 4.95866L5.24079 4.96112C5.22623 4.97619 5.21253 4.99208 5.19977 5.00871C5.11933 5.11517 5.05569 5.23333 5.01104 5.35908C4.93063 5.58472 4.88797 5.88339 4.94212 6.25591C5.04879 6.98783 5.5288 7.97164 6.78175 9.29187L7.67448 8.44344C6.50277 7.21019 6.21394 6.4512 6.15979 6.07704C6.13353 5.89652 6.15978 5.80216 6.17045 5.7718L6.17702 5.75621C6.1703 5.76701 6.16261 5.77718 6.15404 5.78657C6.14923 5.79214 6.14431 5.79843 6.13927 5.8038L5.69208 5.37959ZM6.78175 9.29105C8.03141 10.6072 8.97502 11.1241 9.69462 11.2414C10.0647 11.3013 10.3642 11.2529 10.5906 11.1635C10.7161 11.1142 10.8328 11.045 10.9361 10.9584L10.9656 10.9305L10.9771 10.919C10.979 10.9174 10.981 10.9157 10.9829 10.9141L10.9853 10.9116L10.9861 10.91C10.9861 10.91 10.9878 10.9091 10.5414 10.4849C10.095 10.0615 10.0959 10.0607 10.0959 10.0599L10.0975 10.0591L10.0991 10.0566L10.1041 10.0525C10.1165 10.0405 10.1293 10.029 10.1426 10.018C10.15 10.0131 10.1492 10.0148 10.1385 10.0189C10.1221 10.0254 10.0483 10.0517 9.89237 10.0262C9.56252 9.97209 8.8503 9.68162 7.67448 8.44344L6.78175 9.29105ZM5.5247 1.00781C4.69268 -0.168825 3.02865 -0.368214 2.02268 0.691909L2.91459 1.53952C3.34373 1.08822 4.09944 1.12351 4.51955 1.71839L5.5247 1.00781ZM13.2959 14.3496C13.067 14.5908 12.8282 14.7205 12.5952 14.7435L12.7158 15.9677C13.3287 15.9078 13.8252 15.5812 14.1887 15.198L13.2959 14.3504V14.3496ZM6.37394 5.556C7.16821 4.71988 7.22401 3.41196 6.55938 2.47082L5.55424 3.18139C5.9005 3.67125 5.84716 4.32439 5.48203 4.7084L6.37394 5.556ZM14.1591 11.2521C14.8328 11.6402 14.9649 12.5937 14.4619 13.1229L15.3538 13.9705C16.4246 12.8431 16.112 10.9567 14.7729 10.1854L14.1591 11.2521ZM11.3619 10.5153C11.6778 10.1821 12.171 10.1075 12.5919 10.3495L13.2057 9.28284C12.3039 8.76427 11.1872 8.91279 10.4692 9.66767L11.3619 10.5153ZM7.55632 13.3691C6.74975 12.862 5.89065 12.176 5.01022 11.2497L4.11831 12.0973C5.0652 13.0942 6.00306 13.8466 6.90154 14.4111L7.55632 13.3691ZM12.5944 14.7435C11.9109 14.8035 11.2223 14.7595 10.5521 14.613L10.3002 15.8184C11.0932 15.9901 11.9077 16.0405 12.7158 15.9677L12.5952 14.7435H12.5944Z" fill="#FEF9E6"/>
</svg>
