<svg width="258" height="50" viewBox="0 0 258 50" fill="none" xmlns="http://www.w3.org/2000/svg">
<rect width="258" height="50" rx="6" fill="black"/>
<path d="M71.9766 25.25C71.9766 23.5333 72.3599 22 73.1266 20.65C73.9099 19.2833 74.9682 18.225 76.3016 17.475C77.6516 16.7083 79.1599 16.325 80.8266 16.325C82.7766 16.325 84.4849 16.825 85.9516 17.825C87.4182 18.825 88.4432 20.2083 89.0266 21.975H85.0016C84.6016 21.1417 84.0349 20.5167 83.3016 20.1C82.5849 19.6833 81.7516 19.475 80.8016 19.475C79.7849 19.475 78.8766 19.7167 78.0766 20.2C77.2932 20.6667 76.6766 21.3333 76.2266 22.2C75.7932 23.0667 75.5766 24.0833 75.5766 25.25C75.5766 26.4 75.7932 27.4167 76.2266 28.3C76.6766 29.1667 77.2932 29.8417 78.0766 30.325C78.8766 30.7917 79.7849 31.025 80.8016 31.025C81.7516 31.025 82.5849 30.8167 83.3016 30.4C84.0349 29.9667 84.6016 29.3333 85.0016 28.5H89.0266C88.4432 30.2833 87.4182 31.675 85.9516 32.675C84.5016 33.6583 82.7932 34.15 80.8266 34.15C79.1599 34.15 77.6516 33.775 76.3016 33.025C74.9682 32.2583 73.9099 31.2 73.1266 29.85C72.3599 28.5 71.9766 26.9667 71.9766 25.25ZM98.166 34.225C96.8327 34.225 95.6327 33.9333 94.566 33.35C93.4993 32.75 92.6577 31.9083 92.041 30.825C91.441 29.7417 91.141 28.4917 91.141 27.075C91.141 25.6583 91.4493 24.4083 92.066 23.325C92.6993 22.2417 93.5577 21.4083 94.641 20.825C95.7243 20.225 96.9327 19.925 98.266 19.925C99.5993 19.925 100.808 20.225 101.891 20.825C102.974 21.4083 103.824 22.2417 104.441 23.325C105.074 24.4083 105.391 25.6583 105.391 27.075C105.391 28.4917 105.066 29.7417 104.416 30.825C103.783 31.9083 102.916 32.75 101.816 33.35C100.733 33.9333 99.516 34.225 98.166 34.225ZM98.166 31.175C98.7993 31.175 99.391 31.025 99.941 30.725C100.508 30.4083 100.958 29.9417 101.291 29.325C101.624 28.7083 101.791 27.9583 101.791 27.075C101.791 25.7583 101.441 24.75 100.741 24.05C100.058 23.3333 99.216 22.975 98.216 22.975C97.216 22.975 96.3743 23.3333 95.691 24.05C95.0243 24.75 94.691 25.7583 94.691 27.075C94.691 28.3917 95.016 29.4083 95.666 30.125C96.3327 30.825 97.166 31.175 98.166 31.175ZM115.633 19.95C117.283 19.95 118.617 20.475 119.633 21.525C120.65 22.5583 121.158 24.0083 121.158 25.875V34H117.658V26.35C117.658 25.25 117.383 24.4083 116.833 23.825C116.283 23.225 115.533 22.925 114.583 22.925C113.617 22.925 112.85 23.225 112.283 23.825C111.733 24.4083 111.458 25.25 111.458 26.35V34H107.958V20.15H111.458V21.875C111.925 21.275 112.517 20.8083 113.233 20.475C113.967 20.125 114.767 19.95 115.633 19.95ZM128.562 23.025V29.725C128.562 30.1917 128.67 30.5333 128.887 30.75C129.12 30.95 129.503 31.05 130.037 31.05H131.662V34H129.462C126.512 34 125.037 32.5667 125.037 29.7V23.025H123.387V20.15H125.037V16.725H128.562V20.15H131.662V23.025H128.562ZM135.954 18.5C135.337 18.5 134.821 18.3083 134.404 17.925C134.004 17.525 133.804 17.0333 133.804 16.45C133.804 15.8667 134.004 15.3833 134.404 15C134.821 14.6 135.337 14.4 135.954 14.4C136.571 14.4 137.079 14.6 137.479 15C137.896 15.3833 138.104 15.8667 138.104 16.45C138.104 17.0333 137.896 17.525 137.479 17.925C137.079 18.3083 136.571 18.5 135.954 18.5ZM137.679 20.15V34H134.179V20.15H137.679ZM148.812 19.95C150.462 19.95 151.795 20.475 152.812 21.525C153.829 22.5583 154.337 24.0083 154.337 25.875V34H150.837V26.35C150.837 25.25 150.562 24.4083 150.012 23.825C149.462 23.225 148.712 22.925 147.762 22.925C146.795 22.925 146.029 23.225 145.462 23.825C144.912 24.4083 144.637 25.25 144.637 26.35V34H141.137V20.15H144.637V21.875C145.104 21.275 145.695 20.8083 146.412 20.475C147.145 20.125 147.945 19.95 148.812 19.95ZM170.74 20.15V34H167.215V32.25C166.765 32.85 166.174 33.325 165.44 33.675C164.724 34.0083 163.94 34.175 163.09 34.175C162.007 34.175 161.049 33.95 160.215 33.5C159.382 33.0333 158.724 32.3583 158.24 31.475C157.774 30.575 157.54 29.5083 157.54 28.275V20.15H161.04V27.775C161.04 28.875 161.315 29.725 161.865 30.325C162.415 30.9083 163.165 31.2 164.115 31.2C165.082 31.2 165.84 30.9083 166.39 30.325C166.94 29.725 167.215 28.875 167.215 27.775V20.15H170.74ZM187.069 26.775C187.069 27.275 187.035 27.725 186.969 28.125H176.844C176.927 29.125 177.277 29.9083 177.894 30.475C178.51 31.0417 179.269 31.325 180.169 31.325C181.469 31.325 182.394 30.7667 182.944 29.65H186.719C186.319 30.9833 185.552 32.0833 184.419 32.95C183.285 33.8 181.894 34.225 180.244 34.225C178.91 34.225 177.71 33.9333 176.644 33.35C175.594 32.75 174.769 31.9083 174.169 30.825C173.585 29.7417 173.294 28.4917 173.294 27.075C173.294 25.6417 173.585 24.3833 174.169 23.3C174.752 22.2167 175.569 21.3833 176.619 20.8C177.669 20.2167 178.877 19.925 180.244 19.925C181.56 19.925 182.735 20.2083 183.769 20.775C184.819 21.3417 185.627 22.15 186.194 23.2C186.777 24.2333 187.069 25.425 187.069 26.775ZM183.444 25.775C183.427 24.875 183.102 24.1583 182.469 23.625C181.835 23.075 181.06 22.8 180.144 22.8C179.277 22.8 178.544 23.0667 177.944 23.6C177.36 24.1167 177.002 24.8417 176.869 25.775H183.444Z" fill="white"/>
</svg>
