<svg width="97" height="96" viewBox="0 0 97 96" fill="none" xmlns="http://www.w3.org/2000/svg">
<g clip-path="url(#clip0_114_616)">
<g filter="url(#filter0_d_114_616)">
<path d="M4.83704 15C4.83704 6.71571 11.5528 0 19.837 0H77.377C85.6613 0 92.377 6.71573 92.377 15V72.5399C92.377 80.8242 85.6612 87.5399 77.377 87.5399H19.837C11.5527 87.5399 4.83704 80.8242 4.83704 72.5399V15Z" fill="white"/>
</g>
<path d="M28.0441 54.7663V56.6913H30.6291V57.9123H28.0441V59.9473H30.9591V61.2013H26.5041V53.5123H30.9591V54.7663H28.0441ZM35.7246 61.2013L34.4706 59.3093L33.3596 61.2013H31.7096L33.7006 58.1433L31.6876 55.1073H33.4256L34.6686 56.9883L35.7906 55.1073H37.4406L35.4386 58.1433L37.4626 61.2013H35.7246ZM40.092 56.3723V59.3203C40.092 59.5256 40.1397 59.676 40.235 59.7713C40.3377 59.8593 40.5063 59.9033 40.741 59.9033H41.456V61.2013H40.488C39.19 61.2013 38.541 60.5706 38.541 59.3093V56.3723H37.815V55.1073H38.541V53.6003H40.092V55.1073H41.456V56.3723H40.092ZM48.2286 58.0223C48.2286 58.2423 48.214 58.4403 48.1846 58.6163H43.7296C43.7663 59.0563 43.9203 59.401 44.1916 59.6503C44.463 59.8996 44.7966 60.0243 45.1926 60.0243C45.7646 60.0243 46.1716 59.7786 46.4136 59.2873H48.0746C47.8986 59.874 47.5613 60.358 47.0626 60.7393C46.564 61.1133 45.9516 61.3003 45.2256 61.3003C44.639 61.3003 44.111 61.172 43.6416 60.9153C43.1796 60.6513 42.8166 60.281 42.5526 59.8043C42.296 59.3276 42.1676 58.7776 42.1676 58.1543C42.1676 57.5236 42.296 56.97 42.5526 56.4933C42.8093 56.0166 43.1686 55.65 43.6306 55.3933C44.0926 55.1366 44.6243 55.0083 45.2256 55.0083C45.805 55.0083 46.322 55.133 46.7766 55.3823C47.2386 55.6316 47.5943 55.9873 47.8436 56.4493C48.1003 56.904 48.2286 57.4283 48.2286 58.0223ZM46.6336 57.5823C46.6263 57.1863 46.4833 56.871 46.2046 56.6363C45.926 56.3943 45.585 56.2733 45.1816 56.2733C44.8003 56.2733 44.4776 56.3906 44.2136 56.6253C43.957 56.8526 43.7993 57.1716 43.7406 57.5823H46.6336ZM50.8927 56.0533C51.0907 55.7306 51.3474 55.4776 51.6627 55.2943C51.9854 55.111 52.352 55.0193 52.7627 55.0193V56.6363H52.3557C51.8717 56.6363 51.505 56.75 51.2557 56.9773C51.0137 57.2046 50.8927 57.6006 50.8927 58.1653V61.2013H49.3527V55.1073H50.8927V56.0533ZM57.177 55.0193C57.903 55.0193 58.4896 55.2503 58.937 55.7123C59.3843 56.167 59.608 56.805 59.608 57.6263V61.2013H58.068V57.8353C58.068 57.3513 57.947 56.981 57.705 56.7243C57.463 56.4603 57.133 56.3283 56.715 56.3283C56.2896 56.3283 55.9523 56.4603 55.703 56.7243C55.461 56.981 55.34 57.3513 55.34 57.8353V61.2013H53.8V55.1073H55.34V55.8663C55.5453 55.6023 55.8056 55.397 56.121 55.2503C56.4436 55.0963 56.7956 55.0193 57.177 55.0193ZM60.6764 58.1323C60.6764 57.5163 60.7974 56.97 61.0394 56.4933C61.2888 56.0166 61.6224 55.65 62.0404 55.3933C62.4658 55.1366 62.9388 55.0083 63.4594 55.0083C63.9141 55.0083 64.3101 55.1 64.6474 55.2833C64.9921 55.4666 65.2671 55.6976 65.4724 55.9763V55.1073H67.0234V61.2013H65.4724V60.3103C65.2744 60.5963 64.9994 60.8346 64.6474 61.0253C64.3028 61.2086 63.9031 61.3003 63.4484 61.3003C62.9351 61.3003 62.4658 61.1683 62.0404 60.9043C61.6224 60.6403 61.2888 60.27 61.0394 59.7933C60.7974 59.3093 60.6764 58.7556 60.6764 58.1323ZM65.4724 58.1543C65.4724 57.7803 65.3991 57.4613 65.2524 57.1973C65.1058 56.926 64.9078 56.7206 64.6584 56.5813C64.4091 56.4346 64.1414 56.3613 63.8554 56.3613C63.5694 56.3613 63.3054 56.431 63.0634 56.5703C62.8214 56.7096 62.6234 56.915 62.4694 57.1863C62.3228 57.4503 62.2494 57.7656 62.2494 58.1323C62.2494 58.499 62.3228 58.8216 62.4694 59.1003C62.6234 59.3716 62.8214 59.5806 63.0634 59.7273C63.3128 59.874 63.5768 59.9473 63.8554 59.9473C64.1414 59.9473 64.4091 59.8776 64.6584 59.7383C64.9078 59.5916 65.1058 59.3863 65.2524 59.1223C65.3991 58.851 65.4724 58.5283 65.4724 58.1543ZM70.0675 53.0613V61.2013H68.5275V53.0613H70.0675ZM29.6331 78.2783C29.0978 78.2783 28.6138 78.1866 28.1811 78.0033C27.7558 77.82 27.4184 77.556 27.1691 77.2113C26.9198 76.8666 26.7914 76.4596 26.7841 75.9903H28.4341C28.4561 76.3056 28.5661 76.555 28.7641 76.7383C28.9694 76.9216 29.2481 77.0133 29.6001 77.0133C29.9594 77.0133 30.2418 76.929 30.4471 76.7603C30.6524 76.5843 30.7551 76.357 30.7551 76.0783C30.7551 75.851 30.6854 75.664 30.5461 75.5173C30.4068 75.3706 30.2308 75.257 30.0181 75.1763C29.8128 75.0883 29.5268 74.993 29.1601 74.8903C28.6614 74.7436 28.2544 74.6006 27.9391 74.4613C27.6311 74.3146 27.3634 74.0983 27.1361 73.8123C26.9161 73.519 26.8061 73.1303 26.8061 72.6463C26.8061 72.1916 26.9198 71.7956 27.1471 71.4583C27.3744 71.121 27.6934 70.8643 28.1041 70.6883C28.5148 70.505 28.9841 70.4133 29.5121 70.4133C30.3041 70.4133 30.9458 70.6076 31.4371 70.9963C31.9358 71.3776 32.2108 71.913 32.2621 72.6023H30.5681C30.5534 72.3383 30.4398 72.122 30.2271 71.9533C30.0218 71.7773 29.7468 71.6893 29.4021 71.6893C29.1014 71.6893 28.8594 71.7663 28.6761 71.9203C28.5001 72.0743 28.4121 72.298 28.4121 72.5913C28.4121 72.7966 28.4781 72.969 28.6101 73.1083C28.7494 73.2403 28.9181 73.3503 29.1161 73.4383C29.3214 73.519 29.6074 73.6143 29.9741 73.7243C30.4728 73.871 30.8798 74.0176 31.1951 74.1643C31.5104 74.311 31.7818 74.531 32.0091 74.8243C32.2364 75.1176 32.3501 75.5026 32.3501 75.9793C32.3501 76.39 32.2438 76.7713 32.0311 77.1233C31.8184 77.4753 31.5068 77.7576 31.0961 77.9703C30.6854 78.1756 30.1978 78.2783 29.6331 78.2783ZM35.4782 73.3723V76.3203C35.4782 76.5256 35.5259 76.676 35.6212 76.7713C35.7239 76.8593 35.8926 76.9033 36.1272 76.9033H36.8422V78.2013H35.8742C34.5762 78.2013 33.9272 77.5706 33.9272 76.3093V73.3723H33.2012V72.1073H33.9272V70.6003H35.4782V72.1073H36.8422V73.3723H35.4782ZM40.6559 78.3003C40.0692 78.3003 39.5412 78.172 39.0719 77.9153C38.6025 77.6513 38.2322 77.281 37.9609 76.8043C37.6969 76.3276 37.5649 75.7776 37.5649 75.1543C37.5649 74.531 37.7005 73.981 37.9719 73.5043C38.2505 73.0276 38.6282 72.661 39.1049 72.4043C39.5815 72.1403 40.1132 72.0083 40.6999 72.0083C41.2865 72.0083 41.8182 72.1403 42.2949 72.4043C42.7715 72.661 43.1455 73.0276 43.4169 73.5043C43.6955 73.981 43.8349 74.531 43.8349 75.1543C43.8349 75.7776 43.6919 76.3276 43.4059 76.8043C43.1272 77.281 42.7459 77.6513 42.2619 77.9153C41.7852 78.172 41.2499 78.3003 40.6559 78.3003ZM40.6559 76.9583C40.9345 76.9583 41.1949 76.8923 41.4369 76.7603C41.6862 76.621 41.8842 76.4156 42.0309 76.1443C42.1775 75.873 42.2509 75.543 42.2509 75.1543C42.2509 74.575 42.0969 74.1313 41.7889 73.8233C41.4882 73.508 41.1179 73.3503 40.6779 73.3503C40.2379 73.3503 39.8675 73.508 39.5669 73.8233C39.2735 74.1313 39.1269 74.575 39.1269 75.1543C39.1269 75.7336 39.2699 76.181 39.5559 76.4963C39.8492 76.8043 40.2159 76.9583 40.6559 76.9583ZM46.5045 73.0533C46.7025 72.7306 46.9592 72.4776 47.2745 72.2943C47.5972 72.111 47.9639 72.0193 48.3745 72.0193V73.6363H47.9675C47.4835 73.6363 47.1169 73.75 46.8675 73.9773C46.6255 74.2046 46.5045 74.6006 46.5045 75.1653V78.2013H44.9645V72.1073H46.5045V73.0533ZM49.0158 75.1323C49.0158 74.5163 49.1368 73.97 49.3788 73.4933C49.6281 73.0166 49.9618 72.65 50.3798 72.3933C50.8051 72.1366 51.2781 72.0083 51.7988 72.0083C52.2535 72.0083 52.6495 72.1 52.9868 72.2833C53.3315 72.4666 53.6065 72.6976 53.8118 72.9763V72.1073H55.3628V78.2013H53.8118V77.3103C53.6138 77.5963 53.3388 77.8346 52.9868 78.0253C52.6421 78.2086 52.2425 78.3003 51.7878 78.3003C51.2745 78.3003 50.8051 78.1683 50.3798 77.9043C49.9618 77.6403 49.6281 77.27 49.3788 76.7933C49.1368 76.3093 49.0158 75.7556 49.0158 75.1323ZM53.8118 75.1543C53.8118 74.7803 53.7385 74.4613 53.5918 74.1973C53.4451 73.926 53.2471 73.7206 52.9978 73.5813C52.7485 73.4346 52.4808 73.3613 52.1948 73.3613C51.9088 73.3613 51.6448 73.431 51.4028 73.5703C51.1608 73.7096 50.9628 73.915 50.8088 74.1863C50.6621 74.4503 50.5888 74.7656 50.5888 75.1323C50.5888 75.499 50.6621 75.8216 50.8088 76.1003C50.9628 76.3716 51.1608 76.5806 51.4028 76.7273C51.6521 76.874 51.9161 76.9473 52.1948 76.9473C52.4808 76.9473 52.7485 76.8776 52.9978 76.7383C53.2471 76.5916 53.4451 76.3863 53.5918 76.1223C53.7385 75.851 53.8118 75.5283 53.8118 75.1543ZM59.2539 72.0083C59.7085 72.0083 60.1082 72.1 60.4529 72.2833C60.7975 72.4593 61.0689 72.6903 61.2669 72.9763V72.1073H62.8179V78.2453C62.8179 78.81 62.7042 79.3123 62.4769 79.7523C62.2495 80.1996 61.9085 80.5516 61.4539 80.8083C60.9992 81.0723 60.4492 81.2043 59.8039 81.2043C58.9385 81.2043 58.2272 81.0026 57.6699 80.5993C57.1199 80.196 56.8082 79.646 56.7349 78.9493H58.2639C58.3445 79.228 58.5169 79.448 58.7809 79.6093C59.0522 79.778 59.3785 79.8623 59.7599 79.8623C60.2072 79.8623 60.5702 79.7266 60.8489 79.4553C61.1275 79.1913 61.2669 78.788 61.2669 78.2453V77.2993C61.0689 77.5853 60.7939 77.8236 60.4419 78.0143C60.0972 78.205 59.7012 78.3003 59.2539 78.3003C58.7405 78.3003 58.2712 78.1683 57.8459 77.9043C57.4205 77.6403 57.0832 77.27 56.8339 76.7933C56.5919 76.3093 56.4709 75.7556 56.4709 75.1323C56.4709 74.5163 56.5919 73.97 56.8339 73.4933C57.0832 73.0166 57.4169 72.65 57.8349 72.3933C58.2602 72.1366 58.7332 72.0083 59.2539 72.0083ZM61.2669 75.1543C61.2669 74.7803 61.1935 74.4613 61.0469 74.1973C60.9002 73.926 60.7022 73.7206 60.4529 73.5813C60.2035 73.4346 59.9359 73.3613 59.6499 73.3613C59.3639 73.3613 59.0999 73.431 58.8579 73.5703C58.6159 73.7096 58.4179 73.915 58.2639 74.1863C58.1172 74.4503 58.0439 74.7656 58.0439 75.1323C58.0439 75.499 58.1172 75.8216 58.2639 76.1003C58.4179 76.3716 58.6159 76.5806 58.8579 76.7273C59.1072 76.874 59.3712 76.9473 59.6499 76.9473C59.9359 76.9473 60.2035 76.8776 60.4529 76.7383C60.7022 76.5916 60.9002 76.3863 61.0469 76.1223C61.1935 75.851 61.2669 75.5283 61.2669 75.1543ZM69.987 75.0223C69.987 75.2423 69.9723 75.4403 69.943 75.6163H65.488C65.5246 76.0563 65.6786 76.401 65.95 76.6503C66.2213 76.8996 66.555 77.0243 66.951 77.0243C67.523 77.0243 67.93 76.7786 68.172 76.2873H69.833C69.657 76.874 69.3196 77.358 68.821 77.7393C68.3223 78.1133 67.71 78.3003 66.984 78.3003C66.3973 78.3003 65.8693 78.172 65.4 77.9153C64.938 77.6513 64.575 77.281 64.311 76.8043C64.0543 76.3276 63.926 75.7776 63.926 75.1543C63.926 74.5236 64.0543 73.97 64.311 73.4933C64.5676 73.0166 64.927 72.65 65.389 72.3933C65.851 72.1366 66.3826 72.0083 66.984 72.0083C67.5633 72.0083 68.0803 72.133 68.535 72.3823C68.997 72.6316 69.3526 72.9873 69.602 73.4493C69.8586 73.904 69.987 74.4283 69.987 75.0223ZM68.392 74.5823C68.3846 74.1863 68.2416 73.871 67.963 73.6363C67.6843 73.3943 67.3433 73.2733 66.94 73.2733C66.5586 73.2733 66.236 73.3906 65.972 73.6253C65.7153 73.8526 65.5576 74.1716 65.499 74.5823H68.392Z" fill="black"/>
<mask id="mask0_114_616" style="mask-type:luminance" maskUnits="userSpaceOnUse" x="33" y="17" width="30" height="30">
<path d="M61.8451 46.1453V18.3913H34.0911V46.1453H61.8451Z" fill="white" stroke="white"/>
</mask>
<g mask="url(#mask0_114_616)">
<path d="M42.6044 41.0892H40.3645C40.2797 41.0892 40.1984 41.0555 40.1384 40.9955C40.0785 40.9356 40.0448 40.8542 40.0448 40.7695V37.2807C40.0448 37.2489 40.0706 37.2232 40.1024 37.2232H42.8665C42.8984 37.2232 42.9241 37.2489 42.9241 37.2807V40.7695C42.9241 40.8542 42.8904 40.9356 42.8305 40.9955C42.7705 41.0555 42.6892 41.0892 42.6044 41.0892Z" stroke="black" stroke-miterlimit="10" stroke-linecap="round" stroke-linejoin="round"/>
<path d="M58.1648 30.0347H55.9249C55.8401 30.0347 55.7588 30.001 55.6989 29.941C55.6389 29.8811 55.6052 29.7997 55.6052 29.7149V26.2252C55.6052 26.1939 55.6306 26.1686 55.6618 26.1686H58.428C58.4592 26.1686 58.4846 26.1939 58.4846 26.2252V29.7149C58.4846 29.7997 58.4509 29.8811 58.3909 29.941C58.331 30.001 58.2496 30.0347 58.1648 30.0347Z" stroke="black" stroke-miterlimit="10" stroke-linecap="round" stroke-linejoin="round"/>
<path d="M41.4844 38.6334V39.679" stroke="black" stroke-miterlimit="10" stroke-linecap="round" stroke-linejoin="round"/>
<path d="M57.0449 27.5789V28.6245" stroke="black" stroke-miterlimit="10" stroke-linecap="round" stroke-linejoin="round"/>
<path d="M48.7001 39.3069H50.1916C51.1564 39.3069 51.9386 38.5247 51.9386 37.5599C51.9386 36.5951 51.1564 35.8129 50.1916 35.8129H39.1986C38.2338 35.8129 37.4517 36.5951 37.4517 37.5599C37.4517 38.5247 38.2338 39.3069 39.1986 39.3069H40.0448" stroke="black" stroke-miterlimit="10" stroke-linecap="round" stroke-linejoin="round"/>
<path d="M42.9241 39.3069H46.7345" stroke="black" stroke-miterlimit="10" stroke-linecap="round" stroke-linejoin="round"/>
<path d="M48.0451 25.7064H46.5794C46.5709 25.7064 46.5625 25.7048 46.5547 25.7015C46.5468 25.6983 46.5397 25.6935 46.5337 25.6875C46.5277 25.6815 46.5229 25.6744 46.5197 25.6665C46.5164 25.6587 46.5148 25.6503 46.5148 25.6418V24.1761C46.5148 24.1404 46.5437 24.1115 46.5794 24.1115H48.0451C48.0623 24.1115 48.0787 24.1183 48.0908 24.1304C48.1029 24.1425 48.1097 24.1589 48.1097 24.1761V25.6418C48.1097 25.6503 48.1081 25.6587 48.1048 25.6665C48.1016 25.6744 48.0968 25.6815 48.0908 25.6875C48.0848 25.6935 48.0777 25.6983 48.0699 25.7015C48.062 25.7047 48.0536 25.7064 48.0451 25.7064Z" stroke="black" stroke-miterlimit="10" stroke-linecap="round" stroke-linejoin="round"/>
<path d="M41.2805 25.5331C41.2805 25.9736 41.6375 26.3306 42.078 26.3306C42.5184 26.3306 42.8755 25.9736 42.8755 25.5331C42.8755 25.0927 42.5184 24.7356 42.078 24.7356C41.6375 24.7356 41.2805 25.0927 41.2805 25.5331Z" stroke="black" stroke-miterlimit="10" stroke-linecap="round" stroke-linejoin="round"/>
<path d="M43.8976 32.1462C43.8976 32.5867 44.2547 32.9437 44.6951 32.9437C45.1356 32.9437 45.4926 32.5867 45.4926 32.1462C45.4926 31.7058 45.1356 31.3487 44.6951 31.3487C44.2547 31.3487 43.8976 31.7058 43.8976 32.1462Z" stroke="black" stroke-miterlimit="10" stroke-linecap="round" stroke-linejoin="round"/>
<path d="M44.6951 31.3487V22.9255" stroke="black" stroke-miterlimit="10" stroke-linecap="round" stroke-linejoin="round"/>
<path d="M44.644 21.2114L43.7055 22.8369C43.7003 22.8458 43.6976 22.856 43.6976 22.8664C43.6976 22.8768 43.7003 22.887 43.7055 22.8959C43.7107 22.9049 43.7181 22.9124 43.7271 22.9176C43.7361 22.9227 43.7463 22.9255 43.7566 22.9255H45.6336C45.6791 22.9255 45.7075 22.8763 45.6848 22.8369L44.7463 21.2114C44.7411 21.2024 44.7337 21.1949 44.7247 21.1897C44.7157 21.1845 44.7055 21.1818 44.6951 21.1818C44.6848 21.1818 44.6746 21.1845 44.6656 21.1897C44.6566 21.1949 44.6492 21.2024 44.644 21.2114Z" stroke="black" stroke-miterlimit="10" stroke-linecap="round" stroke-linejoin="round"/>
<path d="M42.078 26.3306V27.7765C42.078 27.8384 42.0943 27.8991 42.1252 27.9527C42.1561 28.0062 42.2006 28.0507 42.2542 28.0816L44.6952 29.4909" stroke="black" stroke-miterlimit="10" stroke-linecap="round" stroke-linejoin="round"/>
<path d="M47.3122 25.7064V27.1522C47.3122 27.2141 47.296 27.2749 47.265 27.3284C47.2341 27.382 47.1896 27.4265 47.1361 27.4574L44.6951 28.8667" stroke="black" stroke-miterlimit="10" stroke-linecap="round" stroke-linejoin="round"/>
<path d="M37.4517 25.6626V37.5599" stroke="black" stroke-miterlimit="10" stroke-linecap="round" stroke-linejoin="round"/>
<path d="M51.9386 37.5599V20.0595C51.9386 19.0947 51.1565 18.3125 50.1917 18.3125H39.1987C38.2339 18.3125 37.4517 19.0947 37.4517 20.0595V23.697" stroke="black" stroke-miterlimit="10" stroke-linecap="round" stroke-linejoin="round"/>
<path d="M39.0762 34.4205V20.0595" stroke="black" stroke-miterlimit="10" stroke-linecap="round" stroke-linejoin="round"/>
<path d="M50.314 20.0595V34.4205" stroke="black" stroke-miterlimit="10" stroke-linecap="round" stroke-linejoin="round"/>
<path d="M42.42 41.0892V42.2405C42.42 42.2754 42.4132 42.31 42.3998 42.3423C42.3864 42.3746 42.3668 42.404 42.3421 42.4287C42.3174 42.4535 42.288 42.4731 42.2557 42.4864C42.2234 42.4998 42.1889 42.5067 42.1539 42.5067H40.8152C40.7802 42.5067 40.7455 42.4998 40.7132 42.4864C40.6809 42.4731 40.6517 42.4535 40.6269 42.4287C40.6022 42.404 40.5825 42.3746 40.5691 42.3423C40.5558 42.31 40.549 42.2754 40.549 42.2405V41.0892" stroke="black" stroke-miterlimit="10" stroke-linecap="round" stroke-linejoin="round"/>
<path d="M57.9805 30.0347V31.186C57.9805 31.2209 57.9736 31.2555 57.9602 31.2878C57.9468 31.3201 57.9272 31.3495 57.9025 31.3742C57.8778 31.3989 57.8484 31.4186 57.8161 31.4319C57.7838 31.4453 57.7492 31.4522 57.7143 31.4522H56.3755C56.3405 31.4522 56.3059 31.4453 56.2736 31.432C56.2413 31.4186 56.2119 31.399 56.1872 31.3742C56.1625 31.3495 56.1429 31.3202 56.1295 31.2879C56.1161 31.2555 56.1092 31.2209 56.1093 31.186V30.0347" stroke="black" stroke-miterlimit="10" stroke-linecap="round" stroke-linejoin="round"/>
<path d="M57.7501 31.4522V44.0948C57.7501 45.2689 56.7948 46.2241 55.6206 46.2241H42.9087C41.7346 46.2241 40.7794 45.2689 40.7794 44.0948V42.5068" stroke="black" stroke-miterlimit="10" stroke-linecap="round" stroke-linejoin="round"/>
<path d="M56.3397 33.5917V31.4522" stroke="black" stroke-miterlimit="10" stroke-linecap="round" stroke-linejoin="round"/>
<path d="M42.1896 42.5068V44.0948C42.1896 44.4913 42.5122 44.814 42.9087 44.814H55.6206C56.0172 44.814 56.3397 44.4913 56.3397 44.0948V35.5574" stroke="black" stroke-miterlimit="10" stroke-linecap="round" stroke-linejoin="round"/>
<path d="M55.7974 26.1686V24.429C55.7974 24.3961 55.8242 24.3693 55.8571 24.3693H58.2325C58.2655 24.3693 58.2922 24.3961 58.2922 24.429V26.1686" stroke="black" stroke-miterlimit="10" stroke-linecap="round" stroke-linejoin="round"/>
</g>
</g>
<defs>
<filter id="filter0_d_114_616" x="0.837036" y="0" width="95.54" height="95.5399" filterUnits="userSpaceOnUse" color-interpolation-filters="sRGB">
<feFlood flood-opacity="0" result="BackgroundImageFix"/>
<feColorMatrix in="SourceAlpha" type="matrix" values="0 0 0 0 0 0 0 0 0 0 0 0 0 0 0 0 0 0 127 0" result="hardAlpha"/>
<feOffset dy="4"/>
<feGaussianBlur stdDeviation="2"/>
<feComposite in2="hardAlpha" operator="out"/>
<feColorMatrix type="matrix" values="0 0 0 0 0 0 0 0 0 0 0 0 0 0 0 0 0 0 0.5 0"/>
<feBlend mode="normal" in2="BackgroundImageFix" result="effect1_dropShadow_114_616"/>
<feBlend mode="normal" in="SourceGraphic" in2="effect1_dropShadow_114_616" result="shape"/>
</filter>
<clipPath id="clip0_114_616">
<rect width="97" height="96" fill="white"/>
</clipPath>
</defs>
</svg>
