<svg width="96" height="96" viewBox="0 0 96 96" fill="none" xmlns="http://www.w3.org/2000/svg">
<g clip-path="url(#clip0_115_673)">
<g filter="url(#filter0_d_115_673)">
<path d="M4 15C4 6.71572 10.7157 0 19 0H76.54C84.8243 0 91.54 6.71573 91.54 15V72.54C91.54 80.8243 84.8243 87.54 76.54 87.54H19C10.7157 87.54 4 80.8243 4 72.54V15Z" fill="white"/>
</g>
<path d="M13.501 53.322V54.565H10.3V56.534H12.753V57.755H10.3V61H8.76001V53.322H13.501ZM14.197 57.931C14.197 57.315 14.318 56.7687 14.56 56.292C14.8093 55.8153 15.143 55.4487 15.561 55.192C15.9863 54.9353 16.4593 54.807 16.98 54.807C17.4347 54.807 17.8307 54.8987 18.168 55.082C18.5127 55.2653 18.7877 55.4963 18.993 55.775V54.906H20.544V61H18.993V60.109C18.795 60.395 18.52 60.6333 18.168 60.824C17.8233 61.0073 17.4237 61.099 16.969 61.099C16.4557 61.099 15.9863 60.967 15.561 60.703C15.143 60.439 14.8093 60.0687 14.56 59.592C14.318 59.108 14.197 58.5543 14.197 57.931ZM18.993 57.953C18.993 57.579 18.9197 57.26 18.773 56.996C18.6263 56.7247 18.4283 56.5193 18.179 56.38C17.9297 56.2333 17.662 56.16 17.376 56.16C17.09 56.16 16.826 56.2297 16.584 56.369C16.342 56.5083 16.144 56.7137 15.99 56.985C15.8433 57.249 15.77 57.5643 15.77 57.931C15.77 58.2977 15.8433 58.6203 15.99 58.899C16.144 59.1703 16.342 59.3793 16.584 59.526C16.8333 59.6727 17.0973 59.746 17.376 59.746C17.662 59.746 17.9297 59.6763 18.179 59.537C18.4283 59.3903 18.6263 59.185 18.773 58.921C18.9197 58.6497 18.993 58.327 18.993 57.953ZM25.4251 54.818C26.1511 54.818 26.7377 55.049 27.1851 55.511C27.6324 55.9657 27.8561 56.6037 27.8561 57.425V61H26.3161V57.634C26.3161 57.15 26.1951 56.7797 25.9531 56.523C25.7111 56.259 25.3811 56.127 24.9631 56.127C24.5377 56.127 24.2004 56.259 23.9511 56.523C23.7091 56.7797 23.5881 57.15 23.5881 57.634V61H22.0481V54.906H23.5881V55.665C23.7934 55.401 24.0537 55.1957 24.3691 55.049C24.6917 54.895 25.0437 54.818 25.4251 54.818ZM31.5676 57.15C31.5676 56.3947 31.7363 55.72 32.0736 55.126C32.4183 54.5247 32.884 54.059 33.4706 53.729C34.0646 53.3917 34.7283 53.223 35.4616 53.223C36.3196 53.223 37.0713 53.443 37.7166 53.883C38.362 54.323 38.813 54.9317 39.0696 55.709H37.2986C37.1226 55.3423 36.8733 55.0673 36.5506 54.884C36.2353 54.7007 35.8686 54.609 35.4506 54.609C35.0033 54.609 34.6036 54.7153 34.2516 54.928C33.907 55.1333 33.6356 55.4267 33.4376 55.808C33.247 56.1893 33.1516 56.6367 33.1516 57.15C33.1516 57.656 33.247 58.1033 33.4376 58.492C33.6356 58.8733 33.907 59.1703 34.2516 59.383C34.6036 59.5883 35.0033 59.691 35.4506 59.691C35.8686 59.691 36.2353 59.5993 36.5506 59.416C36.8733 59.2253 37.1226 58.9467 37.2986 58.58H39.0696C38.813 59.3647 38.362 59.977 37.7166 60.417C37.0786 60.8497 36.327 61.066 35.4616 61.066C34.7283 61.066 34.0646 60.901 33.4706 60.571C32.884 60.2337 32.4183 59.768 32.0736 59.174C31.7363 58.58 31.5676 57.9053 31.5676 57.15ZM43.091 61.099C42.5043 61.099 41.9763 60.9707 41.507 60.714C41.0376 60.45 40.6673 60.0797 40.396 59.603C40.132 59.1263 40 58.5763 40 57.953C40 57.3297 40.1356 56.7797 40.407 56.303C40.6856 55.8263 41.0633 55.4597 41.54 55.203C42.0166 54.939 42.5483 54.807 43.135 54.807C43.7216 54.807 44.2533 54.939 44.73 55.203C45.2066 55.4597 45.5806 55.8263 45.852 56.303C46.1306 56.7797 46.27 57.3297 46.27 57.953C46.27 58.5763 46.127 59.1263 45.841 59.603C45.5623 60.0797 45.181 60.45 44.697 60.714C44.2203 60.9707 43.685 61.099 43.091 61.099ZM43.091 59.757C43.3696 59.757 43.63 59.691 43.872 59.559C44.1213 59.4197 44.3193 59.2143 44.466 58.943C44.6126 58.6717 44.686 58.3417 44.686 57.953C44.686 57.3737 44.532 56.93 44.224 56.622C43.9233 56.3067 43.553 56.149 43.113 56.149C42.673 56.149 42.3026 56.3067 42.002 56.622C41.7086 56.93 41.562 57.3737 41.562 57.953C41.562 58.5323 41.705 58.9797 41.991 59.295C42.2843 59.603 42.651 59.757 43.091 59.757ZM50.7766 54.818C51.5026 54.818 52.0893 55.049 52.5366 55.511C52.984 55.9657 53.2076 56.6037 53.2076 57.425V61H51.6676V57.634C51.6676 57.15 51.5466 56.7797 51.3046 56.523C51.0626 56.259 50.7326 56.127 50.3146 56.127C49.8893 56.127 49.552 56.259 49.3026 56.523C49.0606 56.7797 48.9396 57.15 48.9396 57.634V61H47.3996V54.906H48.9396V55.665C49.145 55.401 49.4053 55.1957 49.7206 55.049C50.0433 54.895 50.3953 54.818 50.7766 54.818ZM56.4651 56.171V59.119C56.4651 59.3243 56.5128 59.4747 56.6081 59.57C56.7108 59.658 56.8794 59.702 57.1141 59.702H57.8291V61H56.8611C55.5631 61 54.9141 60.3693 54.9141 59.108V56.171H54.1881V54.906H54.9141V53.399H56.4651V54.906H57.8291V56.171H56.4651ZM60.4767 55.852C60.6747 55.5293 60.9314 55.2763 61.2467 55.093C61.5694 54.9097 61.9361 54.818 62.3467 54.818V56.435H61.9397C61.4557 56.435 61.0891 56.5487 60.8397 56.776C60.5977 57.0033 60.4767 57.3993 60.4767 57.964V61H58.9367V54.906H60.4767V55.852ZM66.09 61.099C65.5033 61.099 64.9753 60.9707 64.506 60.714C64.0367 60.45 63.6663 60.0797 63.395 59.603C63.131 59.1263 62.999 58.5763 62.999 57.953C62.999 57.3297 63.1347 56.7797 63.406 56.303C63.6847 55.8263 64.0623 55.4597 64.539 55.203C65.0157 54.939 65.5473 54.807 66.134 54.807C66.7207 54.807 67.2523 54.939 67.729 55.203C68.2057 55.4597 68.5797 55.8263 68.851 56.303C69.1297 56.7797 69.269 57.3297 69.269 57.953C69.269 58.5763 69.126 59.1263 68.84 59.603C68.5613 60.0797 68.18 60.45 67.696 60.714C67.2193 60.9707 66.684 61.099 66.09 61.099ZM66.09 59.757C66.3687 59.757 66.629 59.691 66.871 59.559C67.1203 59.4197 67.3183 59.2143 67.465 58.943C67.6117 58.6717 67.685 58.3417 67.685 57.953C67.685 57.3737 67.531 56.93 67.223 56.622C66.9223 56.3067 66.552 56.149 66.112 56.149C65.672 56.149 65.3017 56.3067 65.001 56.622C64.7077 56.93 64.561 57.3737 64.561 57.953C64.561 58.5323 64.704 58.9797 64.99 59.295C65.2833 59.603 65.65 59.757 66.09 59.757ZM71.9386 52.86V61H70.3986V52.86H71.9386ZM75.0002 52.86V61H73.4602V52.86H75.0002ZM82.1867 57.821C82.1867 58.041 82.172 58.239 82.1427 58.415H77.6877C77.7244 58.855 77.8784 59.1997 78.1497 59.449C78.421 59.6983 78.7547 59.823 79.1507 59.823C79.7227 59.823 80.1297 59.5773 80.3717 59.086H82.0327C81.8567 59.6727 81.5194 60.1567 81.0207 60.538C80.522 60.912 79.9097 61.099 79.1837 61.099C78.597 61.099 78.069 60.9707 77.5997 60.714C77.1377 60.45 76.7747 60.0797 76.5107 59.603C76.254 59.1263 76.1257 58.5763 76.1257 57.953C76.1257 57.3223 76.254 56.7687 76.5107 56.292C76.7674 55.8153 77.1267 55.4487 77.5887 55.192C78.0507 54.9353 78.5824 54.807 79.1837 54.807C79.763 54.807 80.28 54.9317 80.7347 55.181C81.1967 55.4303 81.5524 55.786 81.8017 56.248C82.0584 56.7027 82.1867 57.227 82.1867 57.821ZM80.5917 57.381C80.5844 56.985 80.4414 56.6697 80.1627 56.435C79.884 56.193 79.543 56.072 79.1397 56.072C78.7584 56.072 78.4357 56.1893 78.1717 56.424C77.915 56.6513 77.7574 56.9703 77.6987 57.381H80.5917ZM84.8508 55.852C85.0488 55.5293 85.3054 55.2763 85.6208 55.093C85.9434 54.9097 86.3101 54.818 86.7208 54.818V56.435H86.3138C85.8298 56.435 85.4631 56.5487 85.2138 56.776C84.9718 57.0033 84.8508 57.3993 84.8508 57.964V61H83.3108V54.906H84.8508V55.852Z" fill="black"/>
<path d="M58.4804 26.0882V24.0294C58.4804 23.7564 58.5888 23.4946 58.7819 23.3015C58.975 23.1085 59.2368 23 59.5098 23C59.7828 23 60.0447 23.1085 60.2377 23.3015C60.4308 23.4946 60.5392 23.7564 60.5392 24.0294V26.0882H61.2255C62.2266 26.0882 63.1866 26.4859 63.8945 27.1938C64.6023 27.9016 65 28.8617 65 29.8627V31.9216C65 32.1946 64.8915 32.4564 64.6985 32.6495C64.5054 32.8425 64.2436 32.951 63.9706 32.951C63.6976 32.951 63.4357 32.8425 63.2427 32.6495C63.0496 32.4564 62.9412 32.1946 62.9412 31.9216V29.8627C62.9412 29.4077 62.7604 28.9713 62.4387 28.6496C62.1169 28.3278 61.6805 28.1471 61.2255 28.1471H33.7745C33.3195 28.1471 32.8831 28.3278 32.5613 28.6496C32.2396 28.9713 32.0588 29.4077 32.0588 29.8627V40.1569C32.0588 40.6119 32.2396 41.0483 32.5613 41.37C32.8831 41.6918 33.3195 41.8725 33.7745 41.8725H61.2255C61.6805 41.8725 62.1169 41.6918 62.4387 41.37C62.7604 41.0483 62.9412 40.6119 62.9412 40.1569V38.4412C62.9412 38.1682 63.0496 37.9063 63.2427 37.7133C63.4357 37.5202 63.6976 37.4118 63.9706 37.4118C64.2436 37.4118 64.5054 37.5202 64.6985 37.7133C64.8915 37.9063 65 38.1682 65 38.4412V40.1569C65 41.1579 64.6023 42.118 63.8945 42.8258C63.1866 43.5337 62.2266 43.9314 61.2255 43.9314H60.5392V45.9902C60.5392 46.2632 60.4308 46.525 60.2377 46.7181C60.0447 46.9112 59.7828 47.0196 59.5098 47.0196C59.2368 47.0196 58.975 46.9112 58.7819 46.7181C58.5888 46.525 58.4804 46.2632 58.4804 45.9902V43.9314H55.7353V45.9902C55.7353 46.2632 55.6268 46.525 55.4338 46.7181C55.2407 46.9112 54.9789 47.0196 54.7059 47.0196C54.4329 47.0196 54.171 46.9112 53.978 46.7181C53.7849 46.525 53.6765 46.2632 53.6765 45.9902V43.9314H50.9314V45.9902C50.9314 46.2632 50.8229 46.525 50.6299 46.7181C50.4368 46.9112 50.175 47.0196 49.902 47.0196C49.6289 47.0196 49.3671 46.9112 49.1741 46.7181C48.981 46.525 48.8725 46.2632 48.8725 45.9902V43.9314H46.1275V45.9902C46.1275 46.2632 46.019 46.525 45.8259 46.7181C45.6329 46.9112 45.3711 47.0196 45.098 47.0196C44.825 47.0196 44.5632 46.9112 44.3701 46.7181C44.1771 46.525 44.0686 46.2632 44.0686 45.9902V43.9314H41.3235V45.9902C41.3235 46.2632 41.2151 46.525 41.022 46.7181C40.829 46.9112 40.5671 47.0196 40.2941 47.0196C40.0211 47.0196 39.7593 46.9112 39.5662 46.7181C39.3732 46.525 39.2647 46.2632 39.2647 45.9902V43.9314H36.5196V45.9902C36.5196 46.2632 36.4112 46.525 36.2181 46.7181C36.025 46.9112 35.7632 47.0196 35.4902 47.0196C35.2172 47.0196 34.9553 46.9112 34.7623 46.7181C34.5692 46.525 34.4608 46.2632 34.4608 45.9902V43.9314H33.7745C32.7734 43.9314 31.8134 43.5337 31.1055 42.8258C30.3977 42.118 30 41.1579 30 40.1569V29.8627C30 28.8617 30.3977 27.9016 31.1055 27.1938C31.8134 26.4859 32.7734 26.0882 33.7745 26.0882H34.4608V24.0294C34.4608 23.7564 34.5692 23.4946 34.7623 23.3015C34.9553 23.1085 35.2172 23 35.4902 23C35.7632 23 36.025 23.1085 36.2181 23.3015C36.4112 23.4946 36.5196 23.7564 36.5196 24.0294V26.0882H39.2647V24.0294C39.2647 23.7564 39.3732 23.4946 39.5662 23.3015C39.7593 23.1085 40.0211 23 40.2941 23C40.5671 23 40.829 23.1085 41.022 23.3015C41.2151 23.4946 41.3235 23.7564 41.3235 24.0294V26.0882H44.0686V24.0294C44.0686 23.7564 44.1771 23.4946 44.3701 23.3015C44.5632 23.1085 44.825 23 45.098 23C45.3711 23 45.6329 23.1085 45.8259 23.3015C46.019 23.4946 46.1275 23.7564 46.1275 24.0294V26.0882H48.8725V24.0294C48.8725 23.7564 48.981 23.4946 49.1741 23.3015C49.3671 23.1085 49.6289 23 49.902 23C50.175 23 50.4368 23.1085 50.6299 23.3015C50.8229 23.4946 50.9314 23.7564 50.9314 24.0294V26.0882H53.6765V24.0294C53.6765 23.7564 53.7849 23.4946 53.978 23.3015C54.171 23.1085 54.4329 23 54.7059 23C54.9789 23 55.2407 23.1085 55.4338 23.3015C55.6268 23.4946 55.7353 23.7564 55.7353 24.0294V26.0882H58.4804ZM51.2807 30.2059C52.0356 30.2059 52.6471 30.8174 52.6471 31.5723V38.4474C52.6472 38.6268 52.6119 38.8045 52.5432 38.9703C52.4746 39.1362 52.374 39.2868 52.2471 39.4137C52.1202 39.5406 51.9695 39.6413 51.8037 39.7099C51.6379 39.7785 51.4601 39.8138 51.2807 39.8137H43.7193C43.5399 39.8138 43.3621 39.7785 43.1963 39.7099C43.0305 39.6413 42.8798 39.5406 42.7529 39.4137C42.626 39.2868 42.5254 39.1362 42.4568 38.9703C42.3881 38.8045 42.3529 38.6268 42.3529 38.4474V31.5723C42.3529 30.8174 42.9644 30.2059 43.7193 30.2059H51.2807ZM65 35.0098V34.6667C65 34.3937 64.8915 34.1318 64.6985 33.9388C64.5054 33.7457 64.2436 33.6373 63.9706 33.6373C63.6976 33.6373 63.4357 33.7457 63.2427 33.9388C63.0496 34.1318 62.9412 34.3937 62.9412 34.6667V35.0098C62.9412 35.2828 63.0496 35.5447 63.2427 35.7377C63.4357 35.9308 63.6976 36.0392 63.9706 36.0392C64.2436 36.0392 64.5054 35.9308 64.6985 35.7377C64.8915 35.5447 65 35.2828 65 35.0098Z" fill="black"/>
</g>
<defs>
<filter id="filter0_d_115_673" x="0" y="0" width="95.54" height="95.54" filterUnits="userSpaceOnUse" color-interpolation-filters="sRGB">
<feFlood flood-opacity="0" result="BackgroundImageFix"/>
<feColorMatrix in="SourceAlpha" type="matrix" values="0 0 0 0 0 0 0 0 0 0 0 0 0 0 0 0 0 0 127 0" result="hardAlpha"/>
<feOffset dy="4"/>
<feGaussianBlur stdDeviation="2"/>
<feComposite in2="hardAlpha" operator="out"/>
<feColorMatrix type="matrix" values="0 0 0 0 0 0 0 0 0 0 0 0 0 0 0 0 0 0 0.5 0"/>
<feBlend mode="normal" in2="BackgroundImageFix" result="effect1_dropShadow_115_673"/>
<feBlend mode="normal" in="SourceGraphic" in2="effect1_dropShadow_115_673" result="shape"/>
</filter>
<clipPath id="clip0_115_673">
<rect width="96" height="96" fill="white"/>
</clipPath>
</defs>
</svg>
