<svg width="145" height="145" viewBox="0 0 145 145" fill="none" xmlns="http://www.w3.org/2000/svg">
<g filter="url(#filter0_d_384_430)">
<path d="M4 15C4 6.71573 10.7157 0 19 0H126C134.284 0 141 6.71573 141 15V122C141 130.284 134.284 137 126 137H19C10.7157 137 4 130.284 4 122V15Z" fill="white"/>
</g>
<path d="M44.2302 89.216C43.9422 88.688 43.5462 88.286 43.0422 88.01C42.5382 87.734 41.9502 87.596 41.2782 87.596C40.5342 87.596 39.8742 87.764 39.2982 88.1C38.7222 88.436 38.2722 88.916 37.9482 89.54C37.6242 90.164 37.4622 90.884 37.4622 91.7C37.4622 92.54 37.6242 93.272 37.9482 93.896C38.2842 94.52 38.7462 95 39.3342 95.336C39.9222 95.672 40.6062 95.84 41.3862 95.84C42.3462 95.84 43.1322 95.588 43.7442 95.084C44.3562 94.568 44.7582 93.854 44.9502 92.942H40.6302V91.016H47.4342V93.212C47.2662 94.088 46.9062 94.898 46.3542 95.642C45.8022 96.386 45.0882 96.986 44.2122 97.442C43.3482 97.886 42.3762 98.108 41.2962 98.108C40.0842 98.108 38.9862 97.838 38.0022 97.298C37.0302 96.746 36.2622 95.984 35.6982 95.012C35.1462 94.04 34.8702 92.936 34.8702 91.7C34.8702 90.464 35.1462 89.36 35.6982 88.388C36.2622 87.404 37.0302 86.642 38.0022 86.102C38.9862 85.55 40.0782 85.274 41.2782 85.274C42.6942 85.274 43.9242 85.622 44.9682 86.318C46.0122 87.002 46.7322 87.968 47.1282 89.216H44.2302ZM51.8186 89.576C52.1426 89.048 52.5626 88.634 53.0786 88.334C53.6066 88.034 54.2066 87.884 54.8786 87.884V90.53H54.2126C53.4206 90.53 52.8206 90.716 52.4126 91.088C52.0166 91.46 51.8186 92.108 51.8186 93.032V98H49.2986V88.028H51.8186V89.576ZM55.928 92.978C55.928 91.97 56.126 91.076 56.522 90.296C56.93 89.516 57.476 88.916 58.16 88.496C58.856 88.076 59.63 87.866 60.482 87.866C61.226 87.866 61.874 88.016 62.426 88.316C62.99 88.616 63.44 88.994 63.776 89.45V88.028H66.314V98H63.776V96.542C63.452 97.01 63.002 97.4 62.426 97.712C61.862 98.012 61.208 98.162 60.464 98.162C59.624 98.162 58.856 97.946 58.16 97.514C57.476 97.082 56.93 96.476 56.522 95.696C56.126 94.904 55.928 93.998 55.928 92.978ZM63.776 93.014C63.776 92.402 63.656 91.88 63.416 91.448C63.176 91.004 62.852 90.668 62.444 90.44C62.036 90.2 61.598 90.08 61.13 90.08C60.662 90.08 60.23 90.194 59.834 90.422C59.438 90.65 59.114 90.986 58.862 91.43C58.622 91.862 58.502 92.378 58.502 92.978C58.502 93.578 58.622 94.106 58.862 94.562C59.114 95.006 59.438 95.348 59.834 95.588C60.242 95.828 60.674 95.948 61.13 95.948C61.598 95.948 62.036 95.834 62.444 95.606C62.852 95.366 63.176 95.03 63.416 94.598C63.656 94.154 63.776 93.626 63.776 93.014ZM71.2952 89.468C71.6192 89.012 72.0632 88.634 72.6272 88.334C73.2032 88.022 73.8572 87.866 74.5892 87.866C75.4412 87.866 76.2092 88.076 76.8932 88.496C77.5892 88.916 78.1352 89.516 78.5312 90.296C78.9392 91.064 79.1432 91.958 79.1432 92.978C79.1432 93.998 78.9392 94.904 78.5312 95.696C78.1352 96.476 77.5892 97.082 76.8932 97.514C76.2092 97.946 75.4412 98.162 74.5892 98.162C73.8572 98.162 73.2092 98.012 72.6452 97.712C72.0932 97.412 71.6432 97.034 71.2952 96.578V102.752H68.7752V88.028H71.2952V89.468ZM76.5692 92.978C76.5692 92.378 76.4432 91.862 76.1912 91.43C75.9512 90.986 75.6272 90.65 75.2192 90.422C74.8232 90.194 74.3912 90.08 73.9232 90.08C73.4672 90.08 73.0352 90.2 72.6272 90.44C72.2312 90.668 71.9072 91.004 71.6552 91.448C71.4152 91.892 71.2952 92.414 71.2952 93.014C71.2952 93.614 71.4152 94.136 71.6552 94.58C71.9072 95.024 72.2312 95.366 72.6272 95.606C73.0352 95.834 73.4672 95.948 73.9232 95.948C74.3912 95.948 74.8232 95.828 75.2192 95.588C75.6272 95.348 75.9512 95.006 76.1912 94.562C76.4432 94.118 76.5692 93.59 76.5692 92.978ZM86.5904 87.884C87.3464 87.884 88.0184 88.052 88.6064 88.388C89.1944 88.712 89.6504 89.198 89.9744 89.846C90.3104 90.482 90.4784 91.25 90.4784 92.15V98H87.9584V92.492C87.9584 91.7 87.7604 91.094 87.3644 90.674C86.9684 90.242 86.4284 90.026 85.7444 90.026C85.0484 90.026 84.4964 90.242 84.0884 90.674C83.6924 91.094 83.4944 91.7 83.4944 92.492V98H80.9744V84.68H83.4944V89.27C83.8184 88.838 84.2504 88.502 84.7904 88.262C85.3304 88.01 85.9304 87.884 86.5904 87.884ZM94.1528 86.84C93.7088 86.84 93.3368 86.702 93.0368 86.426C92.7488 86.138 92.6048 85.784 92.6048 85.364C92.6048 84.944 92.7488 84.596 93.0368 84.32C93.3368 84.032 93.7088 83.888 94.1528 83.888C94.5968 83.888 94.9628 84.032 95.2508 84.32C95.5508 84.596 95.7008 84.944 95.7008 85.364C95.7008 85.784 95.5508 86.138 95.2508 86.426C94.9628 86.702 94.5968 86.84 94.1528 86.84ZM95.3948 88.028V98H92.8748V88.028H95.3948ZM97.2366 93.014C97.2366 91.982 97.4466 91.082 97.8666 90.314C98.2866 89.534 98.8686 88.934 99.6126 88.514C100.357 88.082 101.209 87.866 102.169 87.866C103.405 87.866 104.425 88.178 105.229 88.802C106.045 89.414 106.591 90.278 106.867 91.394H104.149C104.005 90.962 103.759 90.626 103.411 90.386C103.075 90.134 102.655 90.008 102.151 90.008C101.431 90.008 100.861 90.272 100.441 90.8C100.021 91.316 99.8106 92.054 99.8106 93.014C99.8106 93.962 100.021 94.7 100.441 95.228C100.861 95.744 101.431 96.002 102.151 96.002C103.171 96.002 103.837 95.546 104.149 94.634H106.867C106.591 95.714 106.045 96.572 105.229 97.208C104.413 97.844 103.393 98.162 102.169 98.162C101.209 98.162 100.357 97.952 99.6126 97.532C98.8686 97.1 98.2866 96.5 97.8666 95.732C97.4466 94.952 97.2366 94.046 97.2366 93.014ZM50.8839 118.7C50.8839 117.464 51.1599 116.36 51.7119 115.388C52.2759 114.404 53.0379 113.642 53.9979 113.102C54.9699 112.55 56.0559 112.274 57.2559 112.274C58.6599 112.274 59.8899 112.634 60.9459 113.354C62.0019 114.074 62.7399 115.07 63.1599 116.342H60.2619C59.9739 115.742 59.5659 115.292 59.0379 114.992C58.5219 114.692 57.9219 114.542 57.2379 114.542C56.5059 114.542 55.8519 114.716 55.2759 115.064C54.7119 115.4 54.2679 115.88 53.9439 116.504C53.6319 117.128 53.4759 117.86 53.4759 118.7C53.4759 119.528 53.6319 120.26 53.9439 120.896C54.2679 121.52 54.7119 122.006 55.2759 122.354C55.8519 122.69 56.5059 122.858 57.2379 122.858C57.9219 122.858 58.5219 122.708 59.0379 122.408C59.5659 122.096 59.9739 121.64 60.2619 121.04H63.1599C62.7399 122.324 62.0019 123.326 60.9459 124.046C59.9019 124.754 58.6719 125.108 57.2559 125.108C56.0559 125.108 54.9699 124.838 53.9979 124.298C53.0379 123.746 52.2759 122.984 51.7119 122.012C51.1599 121.04 50.8839 119.936 50.8839 118.7ZM64.6643 119.978C64.6643 118.97 64.8623 118.076 65.2583 117.296C65.6663 116.516 66.2123 115.916 66.8963 115.496C67.5923 115.076 68.3663 114.866 69.2183 114.866C69.9623 114.866 70.6103 115.016 71.1623 115.316C71.7263 115.616 72.1763 115.994 72.5123 116.45V115.028H75.0503V125H72.5123V123.542C72.1883 124.01 71.7383 124.4 71.1623 124.712C70.5983 125.012 69.9443 125.162 69.2003 125.162C68.3603 125.162 67.5923 124.946 66.8963 124.514C66.2123 124.082 65.6663 123.476 65.2583 122.696C64.8623 121.904 64.6643 120.998 64.6643 119.978ZM72.5123 120.014C72.5123 119.402 72.3923 118.88 72.1523 118.448C71.9123 118.004 71.5883 117.668 71.1803 117.44C70.7723 117.2 70.3343 117.08 69.8663 117.08C69.3983 117.08 68.9663 117.194 68.5703 117.422C68.1743 117.65 67.8503 117.986 67.5983 118.43C67.3583 118.862 67.2383 119.378 67.2383 119.978C67.2383 120.578 67.3583 121.106 67.5983 121.562C67.8503 122.006 68.1743 122.348 68.5703 122.588C68.9783 122.828 69.4103 122.948 69.8663 122.948C70.3343 122.948 70.7723 122.834 71.1803 122.606C71.5883 122.366 71.9123 122.03 72.1523 121.598C72.3923 121.154 72.5123 120.626 72.5123 120.014ZM80.0315 116.576C80.3555 116.048 80.7755 115.634 81.2915 115.334C81.8195 115.034 82.4195 114.884 83.0915 114.884V117.53H82.4255C81.6335 117.53 81.0335 117.716 80.6255 118.088C80.2295 118.46 80.0315 119.108 80.0315 120.032V125H77.5115V115.028H80.0315V116.576ZM84.1409 119.978C84.1409 118.97 84.3389 118.076 84.7349 117.296C85.1429 116.516 85.6949 115.916 86.3909 115.496C87.0869 115.076 87.8609 114.866 88.7129 114.866C89.3609 114.866 89.9789 115.01 90.5669 115.298C91.1549 115.574 91.6229 115.946 91.9709 116.414V111.68H94.5269V125H91.9709V123.524C91.6589 124.016 91.2209 124.412 90.6569 124.712C90.0929 125.012 89.4389 125.162 88.6949 125.162C87.8549 125.162 87.0869 124.946 86.3909 124.514C85.6949 124.082 85.1429 123.476 84.7349 122.696C84.3389 121.904 84.1409 120.998 84.1409 119.978ZM91.9889 120.014C91.9889 119.402 91.8689 118.88 91.6289 118.448C91.3889 118.004 91.0649 117.668 90.6569 117.44C90.2489 117.2 89.8109 117.08 89.3429 117.08C88.8749 117.08 88.4429 117.194 88.0469 117.422C87.6509 117.65 87.3269 117.986 87.0749 118.43C86.8349 118.862 86.7149 119.378 86.7149 119.978C86.7149 120.578 86.8349 121.106 87.0749 121.562C87.3269 122.006 87.6509 122.348 88.0469 122.588C88.4549 122.828 88.8869 122.948 89.3429 122.948C89.8109 122.948 90.2489 122.834 90.6569 122.606C91.0649 122.366 91.3889 122.03 91.6289 121.598C91.8689 121.154 91.9889 120.626 91.9889 120.014Z" fill="black"/>
<path d="M47.288 52.5848L43.7506 56.1221C43.5927 56.2707 43.3832 56.3519 43.1664 56.3485C42.9497 56.3452 42.7427 56.2576 42.5895 56.1044C42.4362 55.9511 42.3486 55.7441 42.3453 55.5274C42.342 55.3106 42.4232 55.1011 42.5717 54.9432L46.109 51.4059C46.2669 51.2573 46.4765 51.1761 46.6932 51.1795C46.91 51.1828 47.1169 51.2704 47.2702 51.4236C47.4235 51.5769 47.511 51.7839 47.5144 52.0006C47.5177 52.2174 47.4365 52.4269 47.288 52.5848Z" fill="black"/>
<path d="M70.8704 76.1672C70.714 76.3236 70.5019 76.4115 70.2807 76.4115C70.0595 76.4115 69.8473 76.3236 69.6909 76.1672L46.109 52.5853C45.9526 52.4289 45.8647 52.2168 45.8647 51.9956C45.8647 51.7744 45.9526 51.5623 46.109 51.4059C46.2654 51.2495 46.4776 51.1616 46.6988 51.1616C46.92 51.1616 47.1321 51.2495 47.2885 51.4059L70.871 74.9883C71.0269 75.1449 71.1145 75.3569 71.1144 75.5779C71.1143 75.7989 71.0265 76.0108 70.8704 76.1672Z" fill="black"/>
<path d="M58.4897 63.7866L56.1313 66.145C55.9749 66.3014 55.7628 66.3892 55.5416 66.3892C55.3204 66.3892 55.1082 66.3014 54.9518 66.145L50.2356 61.4287C49.91 61.1032 49.91 60.5748 50.2356 60.2492L52.594 57.8908C52.9195 57.5653 53.4479 57.5653 53.7734 57.8908L58.4897 62.6071C58.6457 62.7637 58.7333 62.9757 58.7333 63.1968C58.7333 63.4179 58.6457 63.6299 58.4897 63.7866ZM55.5421 64.3763L56.721 63.1974L53.1837 59.66L52.0048 60.839L55.5421 64.3763ZM67.9228 73.2196L65.5644 75.5781C65.408 75.7345 65.1958 75.8223 64.9747 75.8223C64.7535 75.8223 64.5413 75.7345 64.3849 75.5781L59.6686 70.8618C59.3431 70.5362 59.3431 70.0079 59.6686 69.6823L62.0271 67.3239C62.3526 66.9984 62.881 66.9983 63.2065 67.3239L67.9228 72.0402C68.0788 72.1968 68.1664 72.4088 68.1664 72.6299C68.1664 72.851 68.0788 73.063 67.9228 73.2196ZM64.9746 73.8088L66.1536 72.6299L62.6162 69.0926L61.4373 70.2715L64.9746 73.8088ZM87.9674 59.0703L74.9969 72.0407C74.8405 72.1971 74.6284 72.285 74.4072 72.285C74.186 72.285 73.9739 72.1971 73.8174 72.0407L69.6904 67.9136C69.3648 67.5881 69.3648 67.0597 69.6904 66.7342L82.6608 53.7637C82.9863 53.4382 83.5147 53.4382 83.8403 53.7637L87.9674 57.8908C88.2929 58.2164 88.2929 58.7447 87.9674 59.0703ZM74.4077 70.272L86.1987 58.4811L83.2511 55.5335L71.4601 67.3244L74.4077 70.272Z" fill="black"/>
<path d="M77.9451 69.0926C77.7887 69.249 77.5765 69.3368 77.3553 69.3368C77.1341 69.3368 76.922 69.249 76.7656 69.0926L74.9969 67.3239C74.8405 67.1675 74.7527 66.9553 74.7527 66.7341C74.7527 66.5129 74.8405 66.3008 74.9969 66.1444C75.1533 65.988 75.3655 65.9001 75.5867 65.9001C75.8079 65.9001 76.02 65.988 76.1764 66.1444L77.9451 67.9131C78.1011 68.0697 78.1887 68.2817 78.1887 68.5028C78.1887 68.7239 78.1011 68.9359 77.9451 69.0926ZM85.0198 62.0179C84.8634 62.1743 84.6512 62.2622 84.43 62.2622C84.2088 62.2622 83.9967 62.1743 83.8403 62.0179L82.0716 60.2492C81.9152 60.0928 81.8273 59.8807 81.8273 59.6595C81.8273 59.4383 81.9152 59.2261 82.0716 59.0697C82.228 58.9133 82.4402 58.8254 82.6614 58.8254C82.8825 58.8254 83.0947 58.9133 83.2511 59.0697L85.0198 60.8384C85.1758 60.995 85.2634 61.2071 85.2634 61.4281C85.2634 61.6492 85.1758 61.8613 85.0198 62.0179ZM93.8631 53.1745C93.7067 53.3309 93.4946 53.4188 93.2734 53.4188C93.0522 53.4188 92.84 53.3309 92.6836 53.1745L90.915 51.4059C90.7585 51.2495 90.6707 51.0373 90.6707 50.8161C90.6707 50.5949 90.7585 50.3828 90.915 50.2264C91.0714 50.07 91.2835 49.9821 91.5047 49.9821C91.7259 49.9821 91.938 50.07 92.0944 50.2264L93.8631 51.995C94.0191 52.1517 94.1067 52.3637 94.1067 52.5848C94.1067 52.8059 94.0191 53.0179 93.8631 53.1745ZM82.6614 64.3763C82.5049 64.5327 82.2928 64.6206 82.0716 64.6206C81.8504 64.6206 81.6383 64.5327 81.4819 64.3763L79.7132 62.6076C79.5568 62.4512 79.4689 62.2391 79.4689 62.0179C79.4689 61.7967 79.5568 61.5845 79.7132 61.4281C79.8696 61.2717 80.0817 61.1839 80.3029 61.1839C80.5241 61.1839 80.7363 61.2717 80.8927 61.4281L82.6614 63.1968C82.9869 63.5224 82.9869 64.0507 82.6614 64.3763ZM80.3029 66.7347C80.1465 66.8911 79.9344 66.979 79.7132 66.979C79.492 66.979 79.2799 66.8911 79.1235 66.7347L77.3548 64.966C77.1984 64.8096 77.1105 64.5975 77.1105 64.3763C77.1105 64.1551 77.1984 63.943 77.3548 63.7865C77.5112 63.6301 77.7233 63.5423 77.9445 63.5423C78.1657 63.5423 78.3779 63.6301 78.5343 63.7865L80.3029 65.5552C80.6285 65.8808 80.6285 66.4092 80.3029 66.7347Z" fill="black"/>
<path d="M96.221 50.8167L91.5047 55.5329C91.3483 55.6894 91.1362 55.7772 90.915 55.7772C90.6938 55.7772 90.4816 55.6894 90.3252 55.5329L86.1981 51.4059C85.8726 51.0803 85.8726 50.5519 86.1981 50.2264L90.9144 45.5101C91.2399 45.1846 91.7683 45.1846 92.0939 45.5101L96.221 49.6372C96.5465 49.9627 96.5465 50.4911 96.221 50.8167ZM90.9155 53.7643L94.4528 50.2269L91.5052 47.2793L87.9679 50.8167L90.9155 53.7643ZM51.415 56.7119L49.0566 59.0703C48.9002 59.2267 48.6881 59.3146 48.4669 59.3146C48.2457 59.3146 48.0336 59.2267 47.8771 59.0703C47.7207 58.9139 47.6329 58.7017 47.6329 58.4805C47.6329 58.2593 47.7207 58.0472 47.8771 57.8908L50.2356 55.5324C50.392 55.376 50.6041 55.2881 50.8253 55.2881C51.0465 55.2881 51.2586 55.376 51.415 55.5324C51.5714 55.6888 51.6593 55.9009 51.6593 56.1221C51.6593 56.3433 51.5714 56.5555 51.415 56.7119ZM60.8481 66.145L58.4897 68.5034C58.3333 68.6598 58.1212 68.7477 57.9 68.7477C57.6788 68.7477 57.4666 68.6598 57.3102 68.5034C57.1538 68.347 57.066 68.1348 57.066 67.9136C57.066 67.6924 57.1538 67.4803 57.3102 67.3239L59.6686 64.9655C59.8251 64.8091 60.0372 64.7212 60.2584 64.7212C60.4796 64.7212 60.6917 64.8091 60.8481 64.9655C61.0045 65.1219 61.0924 65.334 61.0924 65.5552C61.0924 65.7764 61.0045 65.9886 60.8481 66.145ZM72.6391 61.4287C69.0636 65.0042 63.2447 65.0042 59.6692 61.4287C56.0937 57.8532 56.0932 52.0337 59.6686 48.4583C63.2441 44.8828 69.063 44.8828 72.6385 48.4583C76.214 52.0337 76.2145 57.8532 72.6391 61.4287ZM60.8476 49.6372C57.9215 52.5632 57.9221 57.3237 60.8476 60.2492C63.7731 63.1747 68.5335 63.1753 71.4596 60.2492C74.3856 57.3232 74.3851 52.5627 71.4596 49.6372C68.5341 46.7117 63.7736 46.7112 60.8476 49.6372Z" fill="black"/>
<path d="M68.512 57.3016C67.2115 58.6021 65.0957 58.6021 63.7952 57.3016C62.4946 56.0011 62.4946 53.8853 63.7952 52.5848C65.0957 51.2843 67.2115 51.2843 68.512 52.5848C69.8125 53.8853 69.8125 56.0011 68.512 57.3016ZM64.9746 53.7643C64.6624 54.0772 64.487 54.5011 64.487 54.9432C64.487 55.3853 64.6624 55.8093 64.9747 56.1221C65.6252 56.7727 66.6825 56.7721 67.3325 56.1221C67.983 55.4716 67.9825 54.4143 67.3325 53.7643C66.6825 53.1143 65.6252 53.1137 64.9746 53.7643Z" fill="black"/>
<path d="M93.986 44.2235L66.2764 71.933C66.12 72.0894 65.9079 72.1773 65.6867 72.1773C65.4655 72.1773 65.2534 72.0894 65.097 71.933L48.5897 55.4258C48.2642 55.1002 48.2642 54.5718 48.5897 54.2463L76.2993 26.5368C77.238 25.6001 78.5099 25.0741 79.8361 25.0741C81.1622 25.0741 82.4341 25.6001 83.3728 26.5368L93.9865 37.1505C94.9231 38.0891 95.4491 39.361 95.449 40.6871C95.4489 42.0131 94.9227 43.2849 93.986 44.2235ZM65.6867 70.1649L92.807 43.0445C93.4314 42.4187 93.7821 41.5707 93.7821 40.6867C93.7821 39.8026 93.4314 38.9547 92.807 38.3288L82.1939 27.7157C81.5681 27.0913 80.7201 26.7407 79.8361 26.7407C78.952 26.7407 78.104 27.0913 77.4782 27.7157L50.3579 54.836L65.6867 70.1649Z" fill="black"/>
<path d="M64.9746 53.7643C64.8182 53.9207 64.6061 54.0086 64.3849 54.0086C64.1637 54.0086 63.9516 53.9207 63.7952 53.7643C62.525 52.4942 59.8162 53.0264 58.4892 54.3535C58.3327 54.5099 58.1206 54.5977 57.8994 54.5977C57.6782 54.5977 57.4661 54.5099 57.3097 54.3535C57.1533 54.1971 57.0654 53.9849 57.0654 53.7637C57.0654 53.5425 57.1533 53.3304 57.3097 53.174C59.2182 51.2655 62.9821 50.5923 64.9741 52.5842C65.3002 52.9103 65.3002 53.4387 64.9746 53.7643ZM74.9969 56.7119C73.0884 58.6204 69.3245 59.2936 67.3325 57.3016C67.1761 57.1452 67.0882 56.9331 67.0882 56.7119C67.0882 56.4907 67.1761 56.2785 67.3325 56.1221C67.4889 55.9657 67.701 55.8779 67.9222 55.8779C68.1434 55.8779 68.3556 55.9657 68.512 56.1221C69.7821 57.3923 72.4909 56.86 73.818 55.533C73.9759 55.3844 74.1854 55.3032 74.4022 55.3065C74.6189 55.3099 74.8259 55.3974 74.9791 55.5507C75.1324 55.704 75.22 55.911 75.2233 56.1277C75.2266 56.3445 75.1454 56.554 74.9969 56.7119ZM65.5644 63.7866C65.408 63.943 65.1958 64.0308 64.9746 64.0308C64.7535 64.0308 64.5413 63.943 64.3849 63.7866C62.4764 61.8781 61.8032 58.1141 63.7952 56.1221C63.9516 55.9657 64.1637 55.8779 64.3849 55.8779C64.6061 55.8779 64.8182 55.9657 64.9746 56.1221C65.1311 56.2785 65.2189 56.4907 65.2189 56.7119C65.2189 56.9331 65.1311 57.1452 64.9746 57.3016C63.7045 58.5717 64.2373 61.2811 65.5638 62.6076C65.8894 62.9332 65.8894 63.4616 65.5644 63.7866ZM68.512 53.7643C68.3556 53.9207 68.1434 54.0086 67.9222 54.0086C67.701 54.0086 67.4889 53.9207 67.3325 53.7643C67.1761 53.6079 67.0882 53.3957 67.0882 53.1745C67.0882 52.9533 67.1761 52.7412 67.3325 52.5848C68.6026 51.3147 68.0698 48.6053 66.7433 47.2788C66.5869 47.1224 66.499 46.9102 66.499 46.6891C66.499 46.4679 66.5869 46.2557 66.7433 46.0993C66.8997 45.9429 67.1119 45.855 67.3331 45.855C67.5543 45.855 67.7664 45.9429 67.9228 46.0993C69.8308 48.0084 70.5039 51.7723 68.512 53.7643Z" fill="black"/>
<path d="M60.0738 60.5355C59.9574 60.6527 59.8088 60.7327 59.6468 60.7652C59.4849 60.7977 59.3169 60.7813 59.1643 60.7181C59.0117 60.6548 58.8814 60.5476 58.7899 60.4101C58.6984 60.2726 58.6499 60.111 58.6506 59.9458C58.6506 58.6336 59.1729 57.1828 60.0484 56.0663C61.0344 54.8028 62.3172 54.1092 63.6531 54.1097C63.869 54.1174 64.0735 54.2086 64.2235 54.3641C64.3735 54.5196 64.4573 54.7272 64.4573 54.9432C64.4573 55.1592 64.3735 55.3668 64.2235 55.5223C64.0735 55.6778 63.869 55.769 63.6531 55.7767C62.8528 55.7767 62.0182 56.2564 61.361 57.0938C60.7077 57.9273 60.3186 58.9929 60.3186 59.9447C60.3175 60.1757 60.2241 60.3852 60.0738 60.5355ZM71.7619 54.3844C70.8588 55.2875 69.7771 55.7778 68.6551 55.7767C68.4393 55.769 68.2348 55.6778 68.0848 55.5223C67.9348 55.3668 67.851 55.1592 67.851 54.9432C67.851 54.7272 67.9348 54.5196 68.0848 54.3641C68.2348 54.2086 68.4393 54.1174 68.6551 54.1097C69.4555 54.1097 70.2917 53.6305 70.9472 52.7926C71.6005 51.9591 71.9896 50.8935 71.9896 49.9417C71.9896 49.8323 72.0112 49.7239 72.0531 49.6228C72.095 49.5217 72.1564 49.4298 72.2338 49.3524C72.3112 49.275 72.403 49.2136 72.5042 49.1717C72.6053 49.1298 72.7137 49.1082 72.8231 49.1082C72.9326 49.1082 73.041 49.1298 73.1421 49.1717C73.2432 49.2136 73.3351 49.275 73.4125 49.3524C73.4899 49.4298 73.5513 49.5217 73.5932 49.6228C73.6351 49.7239 73.6566 49.8323 73.6566 49.9417C73.6566 51.2539 73.1343 52.7047 72.2588 53.8212C72.1013 54.024 71.9344 54.212 71.7619 54.3844ZM71.7459 62.2025C71.595 62.3534 71.3861 62.4462 71.1562 62.4462C68.4567 62.4462 65.3201 60.2603 65.3201 57.4437C65.3201 57.3342 65.3417 57.2258 65.3835 57.1247C65.4254 57.0236 65.4868 56.9317 65.5642 56.8543C65.6416 56.7769 65.7335 56.7155 65.8346 56.6736C65.9357 56.6317 66.0441 56.6102 66.1536 56.6102C66.263 56.6102 66.3714 56.6317 66.4725 56.6736C66.5737 56.7155 66.6655 56.7769 66.7429 56.8543C66.8203 56.9317 66.8817 57.0236 66.9236 57.1247C66.9655 57.2258 66.9871 57.3342 66.9871 57.4437C66.9871 59.24 69.2791 60.7793 71.1556 60.7787C71.2651 60.7786 71.3735 60.8 71.4747 60.8419C71.5759 60.8837 71.6678 60.9451 71.7453 61.0225C71.8227 61.0999 71.8841 61.1919 71.9259 61.2931C71.9678 61.3943 71.9892 61.5027 71.9891 61.6122C71.9902 61.8432 71.8968 62.0516 71.7459 62.2025ZM66.7433 53.0325C66.6269 53.1497 66.4783 53.2297 66.3164 53.2622C66.1544 53.2947 65.9865 53.2783 65.8339 53.215C65.6813 53.1518 65.5509 53.0446 65.4594 52.9071C65.368 52.7696 65.3194 52.6079 65.3201 52.4427C65.3201 50.6464 63.028 49.1071 61.1516 49.1077C61.0421 49.1077 60.9337 49.0861 60.8326 49.0443C60.7315 49.0024 60.6396 48.941 60.5622 48.8636C60.4848 48.7862 60.4234 48.6943 60.3815 48.5932C60.3396 48.492 60.3181 48.3837 60.3181 48.2742C60.3181 48.1648 60.3396 48.0564 60.3815 47.9552C60.4234 47.8541 60.4848 47.7622 60.5622 47.6848C60.6396 47.6075 60.7315 47.5461 60.8326 47.5042C60.9337 47.4623 61.0421 47.4407 61.1516 47.4407C63.851 47.4407 66.9876 49.6267 66.9876 52.4433C66.9876 52.5527 66.9661 52.6611 66.9241 52.7622C66.8822 52.8633 66.8208 52.9552 66.7433 53.0325ZM86.7884 47.2793C83.213 50.8548 77.394 50.8548 73.8186 47.2793C70.2431 43.7039 70.2425 37.8844 73.818 34.3089C77.3935 30.7334 83.2124 30.7334 86.7879 34.3089C90.3634 37.8844 90.3639 43.7039 86.7884 47.2793ZM74.9969 35.4878C72.0709 38.4139 72.0714 43.1744 74.9969 46.0999C77.9224 49.0253 82.6829 49.0259 85.6089 46.0999C88.535 43.1738 88.5344 38.4133 85.6089 35.4878C82.6835 32.5623 77.923 32.5618 74.9969 35.4878Z" fill="black"/>
<path d="M82.6614 43.1523C81.3608 44.4528 79.2451 44.4528 77.9445 43.1523C76.644 41.8517 76.644 39.736 77.9445 38.4354C79.2451 37.1349 81.3608 37.1349 82.6613 38.4354C83.9619 39.736 83.9619 41.8517 82.6614 43.1523ZM79.124 39.6149C78.8117 39.9278 78.6363 40.3518 78.6363 40.7939C78.6363 41.2359 78.8117 41.6599 79.124 41.9728C79.7746 42.6233 80.8319 42.6228 81.4819 41.9728C82.1319 41.3228 82.1319 40.2649 81.4819 39.6149C80.8319 38.9649 79.7745 38.9644 79.124 39.6149Z" fill="black"/>
<path d="M79.124 39.6149C78.9676 39.7713 78.7555 39.8592 78.5343 39.8592C78.3131 39.8592 78.1009 39.7713 77.9445 39.6149C76.6744 38.3448 73.9656 38.877 72.6385 40.2041C72.4821 40.3605 72.27 40.4484 72.0488 40.4484C71.8276 40.4484 71.6154 40.3605 71.459 40.2041C71.3026 40.0477 71.2148 39.8356 71.2148 39.6144C71.2148 39.3932 71.3026 39.181 71.459 39.0246C73.3675 37.1161 77.1315 36.4429 79.1235 38.4349C79.4496 38.761 79.4496 39.2894 79.124 39.6149ZM89.1463 42.5625C87.2378 44.471 83.4738 45.1442 81.4819 43.1523C81.3255 42.9958 81.2376 42.7837 81.2376 42.5625C81.2376 42.3413 81.3255 42.1292 81.4819 41.9728C81.6383 41.8164 81.8504 41.7285 82.0716 41.7285C82.2928 41.7285 82.5049 41.8164 82.6613 41.9728C83.9315 43.2429 86.6403 42.7106 87.9674 41.3836C88.1253 41.2351 88.3348 41.1539 88.5515 41.1572C88.7683 41.1605 88.9752 41.2481 89.1285 41.4014C89.2818 41.5546 89.3694 41.7616 89.3727 41.9783C89.376 42.1951 89.2948 42.4046 89.1463 42.5625ZM79.7137 49.6372C79.5573 49.7936 79.3452 49.8815 79.124 49.8815C78.9028 49.8815 78.6907 49.7936 78.5343 49.6372C76.6258 47.7287 75.9526 43.9647 77.9445 41.9728C78.1009 41.8164 78.3131 41.7285 78.5343 41.7285C78.7555 41.7285 78.9676 41.8164 79.124 41.9728C79.2804 42.1292 79.3683 42.3413 79.3683 42.5625C79.3683 42.7837 79.2804 42.9958 79.124 43.1523C77.8539 44.4224 78.3867 47.1318 79.7132 48.4583C80.0387 48.7838 80.0387 49.3122 79.7137 49.6372ZM82.6613 39.6149C82.5049 39.7713 82.2928 39.8592 82.0716 39.8592C81.8504 39.8592 81.6383 39.7713 81.4819 39.6149C81.3255 39.4585 81.2376 39.2464 81.2376 39.0252C81.2376 38.804 81.3255 38.5918 81.4819 38.4354C82.752 37.1653 82.2192 34.4559 80.8927 33.1294C80.7363 32.973 80.6484 32.7609 80.6484 32.5397C80.6484 32.3185 80.7363 32.1064 80.8927 31.9499C81.0491 31.7935 81.2612 31.7057 81.4824 31.7057C81.7036 31.7057 81.9158 31.7935 82.0722 31.9499C83.9801 33.859 84.6533 37.6229 82.6613 39.6149Z" fill="black"/>
<path d="M74.2231 46.3862C74.1068 46.5034 73.9581 46.5833 73.7962 46.6159C73.6342 46.6484 73.4663 46.632 73.3137 46.5687C73.1611 46.5055 73.0308 46.3983 72.9393 46.2608C72.8478 46.1232 72.7993 45.9616 72.7999 45.7964C72.7999 44.4843 73.3222 43.0334 74.1977 41.917C75.1837 40.6535 76.4666 39.9598 77.8025 39.9604C78.0184 39.9681 78.2228 40.0593 78.3728 40.2148C78.5228 40.3702 78.6067 40.5778 78.6067 40.7939C78.6067 41.0099 78.5228 41.2175 78.3728 41.3729C78.2228 41.5284 78.0184 41.6196 77.8025 41.6273C77.0022 41.6273 76.167 42.1076 75.5104 42.9444C74.8571 43.7779 74.468 44.8436 74.468 45.7953C74.4669 46.0264 74.3735 46.2358 74.2231 46.3862ZM85.9113 40.2351C85.0081 41.1382 83.9265 41.6284 82.8045 41.6273C82.5886 41.6196 82.3841 41.5284 82.2341 41.3729C82.0841 41.2175 82.0003 41.0099 82.0003 40.7939C82.0003 40.5778 82.0841 40.3702 82.2341 40.2148C82.3841 40.0593 82.5886 39.9681 82.8045 39.9604C83.6048 39.9604 84.4405 39.4817 85.0966 38.6433C85.7499 37.8098 86.139 36.7441 86.139 35.7924C86.139 35.5713 86.2268 35.3593 86.3831 35.203C86.5394 35.0467 86.7514 34.9589 86.9725 34.9589C87.1935 34.9589 87.4055 35.0467 87.5618 35.203C87.7181 35.3593 87.806 35.5713 87.806 35.7924C87.806 37.1045 87.2837 38.5554 86.4082 39.6719C86.2506 39.8747 86.0837 40.0626 85.9113 40.2351ZM85.8952 48.0531C85.7444 48.204 85.5354 48.2969 85.3055 48.2969C82.6061 48.2969 79.4694 46.1109 79.4694 43.2943C79.4694 43.1849 79.491 43.0765 79.5329 42.9753C79.5748 42.8742 79.6362 42.7823 79.7136 42.7049C79.791 42.6275 79.8828 42.5662 79.984 42.5243C80.0851 42.4824 80.1935 42.4608 80.3029 42.4608C80.4124 42.4608 80.5208 42.4824 80.6219 42.5243C80.723 42.5662 80.8149 42.6275 80.8923 42.7049C80.9697 42.7823 81.0311 42.8742 81.073 42.9753C81.1149 43.0765 81.1364 43.1849 81.1364 43.2943C81.1364 45.0906 83.4285 46.6299 85.305 46.6294C85.4144 46.6292 85.5229 46.6507 85.6241 46.6925C85.7253 46.7344 85.8172 46.7958 85.8946 46.8732C85.972 46.9506 86.0334 47.0425 86.0753 47.1437C86.1171 47.2449 86.1386 47.3533 86.1384 47.4628C86.1395 47.6939 86.0461 47.9022 85.8952 48.0531ZM80.8927 38.8831C80.7763 39.0004 80.6277 39.0803 80.4657 39.1128C80.3038 39.1453 80.1358 39.1289 79.9832 39.0657C79.8306 39.0025 79.7003 38.8953 79.6088 38.7577C79.5173 38.6202 79.4688 38.4586 79.4694 38.2934C79.4694 36.4971 77.1774 34.9578 75.3009 34.9583C75.1915 34.9583 75.0831 34.9368 74.982 34.8949C74.8808 34.853 74.7889 34.7916 74.7116 34.7142C74.6342 34.6368 74.5728 34.5449 74.5309 34.4438C74.489 34.3427 74.4674 34.2343 74.4674 34.1249C74.4674 34.0154 74.489 33.907 74.5309 33.8059C74.5728 33.7048 74.6342 33.6129 74.7116 33.5355C74.7889 33.4581 74.8808 33.3967 74.982 33.3548C75.0831 33.3129 75.1915 33.2914 75.3009 33.2914C78.0003 33.2914 81.137 35.4773 81.137 38.2939C81.137 38.4034 81.1154 38.5118 81.0735 38.6129C81.0316 38.714 80.9701 38.8058 80.8927 38.8831Z" fill="black"/>
<defs>
<filter id="filter0_d_384_430" x="0" y="0" width="145" height="145" filterUnits="userSpaceOnUse" color-interpolation-filters="sRGB">
<feFlood flood-opacity="0" result="BackgroundImageFix"/>
<feColorMatrix in="SourceAlpha" type="matrix" values="0 0 0 0 0 0 0 0 0 0 0 0 0 0 0 0 0 0 127 0" result="hardAlpha"/>
<feOffset dy="4"/>
<feGaussianBlur stdDeviation="2"/>
<feComposite in2="hardAlpha" operator="out"/>
<feColorMatrix type="matrix" values="0 0 0 0 0 0 0 0 0 0 0 0 0 0 0 0 0 0 0.5 0"/>
<feBlend mode="normal" in2="BackgroundImageFix" result="effect1_dropShadow_384_430"/>
<feBlend mode="normal" in="SourceGraphic" in2="effect1_dropShadow_384_430" result="shape"/>
</filter>
</defs>
</svg>
