<svg width="96" height="96" viewBox="0 0 96 96" fill="none" xmlns="http://www.w3.org/2000/svg">
<g clip-path="url(#clip0_114_592)">
<g filter="url(#filter0_d_114_592)">
<path d="M4.41852 15C4.41852 6.71571 11.1342 0 19.4185 0H76.9585C85.2427 0 91.9585 6.71573 91.9585 15V72.5399C91.9585 80.8242 85.2427 87.5399 76.9584 87.5399H19.4185C11.1342 87.5399 4.41852 80.8242 4.41852 72.5399V15Z" fill="white"/>
</g>
<path d="M19.6256 53.5233V61.2013H18.0856V57.9343H14.7966V61.2013H13.2566V53.5233H14.7966V56.6803H18.0856V53.5233H19.6256ZM26.8063 58.0223C26.8063 58.2423 26.7917 58.4403 26.7623 58.6163H22.3073C22.344 59.0563 22.498 59.401 22.7693 59.6503C23.0407 59.8996 23.3743 60.0243 23.7703 60.0243C24.3423 60.0243 24.7493 59.7786 24.9913 59.2873H26.6523C26.4763 59.874 26.139 60.358 25.6403 60.7393C25.1417 61.1133 24.5293 61.3003 23.8033 61.3003C23.2167 61.3003 22.6887 61.172 22.2193 60.9153C21.7573 60.6513 21.3943 60.281 21.1303 59.8043C20.8737 59.3276 20.7453 58.7776 20.7453 58.1543C20.7453 57.5236 20.8737 56.97 21.1303 56.4933C21.387 56.0166 21.7463 55.65 22.2083 55.3933C22.6703 55.1366 23.202 55.0083 23.8033 55.0083C24.3827 55.0083 24.8997 55.133 25.3543 55.3823C25.8163 55.6316 26.172 55.9873 26.4213 56.4493C26.678 56.904 26.8063 57.4283 26.8063 58.0223ZM25.2113 57.5823C25.204 57.1863 25.061 56.871 24.7823 56.6363C24.5037 56.3943 24.1627 56.2733 23.7593 56.2733C23.378 56.2733 23.0553 56.3906 22.7913 56.6253C22.5347 56.8526 22.377 57.1716 22.3183 57.5823H25.2113ZM27.5344 58.1323C27.5344 57.5163 27.6554 56.97 27.8974 56.4933C28.1467 56.0166 28.4804 55.65 28.8984 55.3933C29.3237 55.1366 29.7967 55.0083 30.3174 55.0083C30.7721 55.0083 31.1681 55.1 31.5054 55.2833C31.8501 55.4666 32.1251 55.6976 32.3304 55.9763V55.1073H33.8814V61.2013H32.3304V60.3103C32.1324 60.5963 31.8574 60.8346 31.5054 61.0253C31.1607 61.2086 30.7611 61.3003 30.3064 61.3003C29.7931 61.3003 29.3237 61.1683 28.8984 60.9043C28.4804 60.6403 28.1467 60.27 27.8974 59.7933C27.6554 59.3093 27.5344 58.7556 27.5344 58.1323ZM32.3304 58.1543C32.3304 57.7803 32.2571 57.4613 32.1104 57.1973C31.9637 56.926 31.7657 56.7206 31.5164 56.5813C31.2671 56.4346 30.9994 56.3613 30.7134 56.3613C30.4274 56.3613 30.1634 56.431 29.9214 56.5703C29.6794 56.7096 29.4814 56.915 29.3274 57.1863C29.1807 57.4503 29.1074 57.7656 29.1074 58.1323C29.1074 58.499 29.1807 58.8216 29.3274 59.1003C29.4814 59.3716 29.6794 59.5806 29.9214 59.7273C30.1707 59.874 30.4347 59.9473 30.7134 59.9473C30.9994 59.9473 31.2671 59.8776 31.5164 59.7383C31.7657 59.5916 31.9637 59.3863 32.1104 59.1223C32.2571 58.851 32.3304 58.5283 32.3304 58.1543ZM34.9895 58.1323C34.9895 57.5163 35.1105 56.97 35.3525 56.4933C35.6018 56.0166 35.9391 55.65 36.3645 55.3933C36.7898 55.1366 37.2628 55.0083 37.7835 55.0083C38.1795 55.0083 38.5571 55.0963 38.9165 55.2723C39.2758 55.441 39.5618 55.6683 39.7745 55.9543V53.0613H41.3365V61.2013H39.7745V60.2993C39.5838 60.6 39.3161 60.842 38.9715 61.0253C38.6268 61.2086 38.2271 61.3003 37.7725 61.3003C37.2591 61.3003 36.7898 61.1683 36.3645 60.9043C35.9391 60.6403 35.6018 60.27 35.3525 59.7933C35.1105 59.3093 34.9895 58.7556 34.9895 58.1323ZM39.7855 58.1543C39.7855 57.7803 39.7121 57.4613 39.5655 57.1973C39.4188 56.926 39.2208 56.7206 38.9715 56.5813C38.7221 56.4346 38.4545 56.3613 38.1685 56.3613C37.8825 56.3613 37.6185 56.431 37.3765 56.5703C37.1345 56.7096 36.9365 56.915 36.7825 57.1863C36.6358 57.4503 36.5625 57.7656 36.5625 58.1323C36.5625 58.499 36.6358 58.8216 36.7825 59.1003C36.9365 59.3716 37.1345 59.5806 37.3765 59.7273C37.6258 59.874 37.8898 59.9473 38.1685 59.9473C38.4545 59.9473 38.7221 59.8776 38.9715 59.7383C39.2208 59.5916 39.4188 59.3863 39.5655 59.1223C39.7121 58.851 39.7855 58.5283 39.7855 58.1543ZM44.3805 55.9873C44.5785 55.7086 44.8499 55.4776 45.1945 55.2943C45.5465 55.1036 45.9462 55.0083 46.3935 55.0083C46.9142 55.0083 47.3835 55.1366 47.8015 55.3933C48.2269 55.65 48.5605 56.0166 48.8025 56.4933C49.0519 56.9626 49.1765 57.509 49.1765 58.1323C49.1765 58.7556 49.0519 59.3093 48.8025 59.7933C48.5605 60.27 48.2269 60.6403 47.8015 60.9043C47.3835 61.1683 46.9142 61.3003 46.3935 61.3003C45.9462 61.3003 45.5502 61.2086 45.2055 61.0253C44.8682 60.842 44.5932 60.611 44.3805 60.3323V64.1053H42.8405V55.1073H44.3805V55.9873ZM47.6035 58.1323C47.6035 57.7656 47.5265 57.4503 47.3725 57.1863C47.2259 56.915 47.0279 56.7096 46.7785 56.5703C46.5365 56.431 46.2725 56.3613 45.9865 56.3613C45.7079 56.3613 45.4439 56.4346 45.1945 56.5813C44.9525 56.7206 44.7545 56.926 44.6005 57.1973C44.4539 57.4686 44.3805 57.7876 44.3805 58.1543C44.3805 58.521 44.4539 58.84 44.6005 59.1113C44.7545 59.3826 44.9525 59.5916 45.1945 59.7383C45.4439 59.8776 45.7079 59.9473 45.9865 59.9473C46.2725 59.9473 46.5365 59.874 46.7785 59.7273C47.0279 59.5806 47.2259 59.3716 47.3725 59.1003C47.5265 58.829 47.6035 58.5063 47.6035 58.1323ZM53.7276 55.0193C54.1896 55.0193 54.6003 55.122 54.9596 55.3273C55.319 55.5253 55.5976 55.8223 55.7956 56.2183C56.001 56.607 56.1036 57.0763 56.1036 57.6263V61.2013H54.5636V57.8353C54.5636 57.3513 54.4426 56.981 54.2006 56.7243C53.9586 56.4603 53.6286 56.3283 53.2106 56.3283C52.7853 56.3283 52.448 56.4603 52.1986 56.7243C51.9566 56.981 51.8356 57.3513 51.8356 57.8353V61.2013H50.2956V53.0613H51.8356V55.8663C52.0336 55.6023 52.2976 55.397 52.6276 55.2503C52.9576 55.0963 53.3243 55.0193 53.7276 55.0193ZM60.2741 61.3003C59.6874 61.3003 59.1594 61.172 58.6901 60.9153C58.2208 60.6513 57.8504 60.281 57.5791 59.8043C57.3151 59.3276 57.1831 58.7776 57.1831 58.1543C57.1831 57.531 57.3188 56.981 57.5901 56.5043C57.8688 56.0276 58.2464 55.661 58.7231 55.4043C59.1998 55.1403 59.7314 55.0083 60.3181 55.0083C60.9048 55.0083 61.4364 55.1403 61.9131 55.4043C62.3898 55.661 62.7638 56.0276 63.0351 56.5043C63.3138 56.981 63.4531 57.531 63.4531 58.1543C63.4531 58.7776 63.3101 59.3276 63.0241 59.8043C62.7454 60.281 62.3641 60.6513 61.8801 60.9153C61.4034 61.172 60.8681 61.3003 60.2741 61.3003ZM60.2741 59.9583C60.5528 59.9583 60.8131 59.8923 61.0551 59.7603C61.3044 59.621 61.5024 59.4156 61.6491 59.1443C61.7958 58.873 61.8691 58.543 61.8691 58.1543C61.8691 57.575 61.7151 57.1313 61.4071 56.8233C61.1064 56.508 60.7361 56.3503 60.2961 56.3503C59.8561 56.3503 59.4858 56.508 59.1851 56.8233C58.8918 57.1313 58.7451 57.575 58.7451 58.1543C58.7451 58.7336 58.8881 59.181 59.1741 59.4963C59.4674 59.8043 59.8341 59.9583 60.2741 59.9583ZM67.9597 55.0193C68.6857 55.0193 69.2724 55.2503 69.7197 55.7123C70.1671 56.167 70.3907 56.805 70.3907 57.6263V61.2013H68.8507V57.8353C68.8507 57.3513 68.7297 56.981 68.4877 56.7243C68.2457 56.4603 67.9157 56.3283 67.4977 56.3283C67.0724 56.3283 66.7351 56.4603 66.4857 56.7243C66.2437 56.981 66.1227 57.3513 66.1227 57.8353V61.2013H64.5827V55.1073H66.1227V55.8663C66.3281 55.6023 66.5884 55.397 66.9037 55.2503C67.2264 55.0963 67.5784 55.0193 67.9597 55.0193ZM77.5202 58.0223C77.5202 58.2423 77.5055 58.4403 77.4762 58.6163H73.0212C73.0579 59.0563 73.2119 59.401 73.4832 59.6503C73.7545 59.8996 74.0882 60.0243 74.4842 60.0243C75.0562 60.0243 75.4632 59.7786 75.7052 59.2873H77.3662C77.1902 59.874 76.8529 60.358 76.3542 60.7393C75.8555 61.1133 75.2432 61.3003 74.5172 61.3003C73.9305 61.3003 73.4025 61.172 72.9332 60.9153C72.4712 60.6513 72.1082 60.281 71.8442 59.8043C71.5875 59.3276 71.4592 58.7776 71.4592 58.1543C71.4592 57.5236 71.5875 56.97 71.8442 56.4933C72.1009 56.0166 72.4602 55.65 72.9222 55.3933C73.3842 55.1366 73.9159 55.0083 74.5172 55.0083C75.0965 55.0083 75.6135 55.133 76.0682 55.3823C76.5302 55.6316 76.8859 55.9873 77.1352 56.4493C77.3919 56.904 77.5202 57.4283 77.5202 58.0223ZM75.9252 57.5823C75.9179 57.1863 75.7749 56.871 75.4962 56.6363C75.2175 56.3943 74.8765 56.2733 74.4732 56.2733C74.0919 56.2733 73.7692 56.3906 73.5052 56.6253C73.2485 56.8526 73.0909 57.1716 73.0322 57.5823H75.9252ZM80.9763 61.3003C80.4776 61.3003 80.0303 61.2123 79.6343 61.0363C79.2383 60.853 78.9229 60.6073 78.6883 60.2993C78.4609 59.9913 78.3363 59.6503 78.3143 59.2763H79.8653C79.8946 59.511 80.0083 59.7053 80.2063 59.8593C80.4116 60.0133 80.6646 60.0903 80.9653 60.0903C81.2586 60.0903 81.4859 60.0316 81.6473 59.9143C81.8159 59.797 81.9003 59.6466 81.9003 59.4633C81.9003 59.2653 81.7976 59.1186 81.5923 59.0233C81.3943 58.9206 81.0753 58.8106 80.6353 58.6933C80.1806 58.5833 79.8066 58.4696 79.5133 58.3523C79.2273 58.235 78.9779 58.0553 78.7653 57.8133C78.5599 57.5713 78.4573 57.245 78.4573 56.8343C78.4573 56.497 78.5526 56.189 78.7433 55.9103C78.9413 55.6316 79.2199 55.4116 79.5793 55.2503C79.9459 55.089 80.3749 55.0083 80.8663 55.0083C81.5923 55.0083 82.1716 55.1916 82.6043 55.5583C83.0369 55.9176 83.2753 56.4053 83.3193 57.0213H81.8453C81.8233 56.7793 81.7206 56.5886 81.5373 56.4493C81.3613 56.3026 81.1229 56.2293 80.8223 56.2293C80.5436 56.2293 80.3273 56.2806 80.1733 56.3833C80.0266 56.486 79.9533 56.629 79.9533 56.8123C79.9533 57.0176 80.0559 57.1753 80.2613 57.2853C80.4666 57.388 80.7856 57.4943 81.2183 57.6043C81.6583 57.7143 82.0213 57.828 82.3073 57.9453C82.5933 58.0626 82.8389 58.246 83.0443 58.4953C83.2569 58.7373 83.3669 59.06 83.3743 59.4633C83.3743 59.8153 83.2753 60.1306 83.0773 60.4093C82.8866 60.688 82.6079 60.908 82.2413 61.0693C81.8819 61.2233 81.4603 61.3003 80.9763 61.3003Z" fill="black"/>
<path d="M47.4725 17.8914C45.5529 17.8914 43.6953 18.2836 41.9511 19.0572C40.267 19.8041 38.7713 20.8679 37.5055 22.2189C37.4292 22.3002 37.3885 22.4085 37.3921 22.5199C37.3957 22.6314 37.4434 22.7368 37.5248 22.813C37.6942 22.9719 37.9601 22.963 38.1189 22.7937C40.5375 20.2125 43.9468 18.732 47.4725 18.732C54.5416 18.732 60.2928 24.4832 60.2928 31.5523C60.2928 34.6512 59.1742 39.2863 57.443 43.361C57.3981 43.4669 57.323 43.5573 57.227 43.6208C57.1311 43.6843 57.0185 43.7181 56.9035 43.718C56.7979 43.718 56.6944 43.6892 56.6039 43.6349L58.5079 38.147C58.6667 37.6893 58.6226 37.1861 58.394 36.7651C58.8696 34.784 59.1213 32.9824 59.1213 31.5523C59.1213 30.5263 58.9862 29.5058 58.7199 28.519C58.7181 28.5125 58.7161 28.5059 58.7141 28.4994C58.025 26.3666 56.5476 24.4477 54.5539 23.0962C52.5045 21.7071 50.0558 20.9728 47.4725 20.9728C44.8891 20.9728 42.4404 21.7071 40.3911 23.0963C38.3974 24.4478 36.9199 26.3667 36.2309 28.4995C36.2288 28.506 36.2269 28.5126 36.2251 28.5192C35.9584 29.5082 35.8235 30.528 35.8237 31.5524C35.8237 32.9841 36.0755 34.7835 36.5511 36.7649C36.3224 37.1858 36.2782 37.6892 36.437 38.147L38.341 43.6349C38.3182 43.6486 38.2945 43.6606 38.2701 43.6711C37.9729 43.7975 37.6282 43.6583 37.5019 43.361C35.7708 39.2863 34.6522 34.6512 34.6522 31.5523C34.6522 28.8911 35.4636 26.3372 36.9987 24.1668C37.0306 24.1217 37.0533 24.0708 37.0655 24.017C37.0777 23.9632 37.0792 23.9075 37.0699 23.8531C37.0606 23.7987 37.0406 23.7466 37.0112 23.6999C36.9817 23.6532 36.9434 23.6128 36.8983 23.5809C36.8533 23.5491 36.8024 23.5264 36.7485 23.5141C36.6947 23.5019 36.639 23.5004 36.5846 23.5098C36.5302 23.5191 36.4781 23.539 36.4314 23.5685C36.3847 23.5979 36.3443 23.6363 36.3124 23.6814C34.6763 25.9945 33.8115 28.7163 33.8115 31.5523C33.8115 34.7552 34.9564 39.5194 36.7283 43.6898C36.9587 44.2322 37.4878 44.5583 38.043 44.5583C38.2288 44.5583 38.4174 44.5218 38.5988 44.4448C38.6055 44.4419 38.612 44.4385 38.6187 44.4356L38.7861 44.918C38.8756 45.1751 39.025 45.4073 39.2219 45.5955C39.4187 45.7836 39.6575 45.9223 39.9184 46.0001L41.8175 46.5641C41.9978 46.6178 42.1849 46.6452 42.373 46.6453C42.5884 46.6453 42.8035 46.6092 43.0112 46.5371L44.7251 45.9387C45.3372 45.7264 45.7086 45.3342 45.9913 44.7512C46.2739 44.1683 46.3126 43.5102 46.1003 42.8982L43.4304 35.2029C42.9921 33.9395 41.6073 33.2681 40.3441 33.7064L38.7514 34.2589C38.3658 34.3919 38.0319 34.6433 37.7975 34.9771L37.1989 35.8258C36.8485 34.204 36.6642 32.7402 36.6642 31.5523C36.6642 30.6037 36.7886 29.6604 37.0339 28.7482C38.3586 24.6646 42.6494 21.8135 47.4725 21.8135C52.2955 21.8135 56.5863 24.6646 57.911 28.7482C58.1566 29.6627 58.2809 30.6055 58.2807 31.5523C58.2807 32.7387 58.0965 34.2039 57.7461 35.8259L57.1475 34.9772C56.913 34.6434 56.5792 34.392 56.1935 34.259L54.6009 33.7064C53.3373 33.2682 51.9529 33.9396 51.5145 35.2029L48.8447 42.8982C48.6324 43.5103 48.6711 44.1683 48.9537 44.7513C49.2363 45.3342 49.729 45.7722 50.3411 45.9846L51.9336 46.5371C52.1388 46.6086 52.3546 46.6452 52.5719 46.6454C52.76 46.6452 52.9471 46.6179 53.1274 46.5641L55.0265 46.0002C55.2874 45.9224 55.5262 45.7837 55.723 45.5955C55.9199 45.4074 56.0693 45.1752 56.1588 44.918L56.3262 44.4356C56.3329 44.4386 56.3394 44.442 56.3461 44.4448C56.5223 44.5201 56.7119 44.5588 56.9035 44.5587C57.1836 44.559 57.4575 44.4767 57.6911 44.3222C57.9247 44.1676 58.1076 43.9476 58.2168 43.6898C59.9886 39.5195 61.1335 34.7552 61.1335 31.5524C61.1334 24.0196 55.0052 17.8914 47.4725 17.8914ZM38.4846 35.4616C38.6179 35.2717 38.8077 35.1288 39.0271 35.0532L40.6196 34.5007C40.7862 34.4427 40.9613 34.4131 41.1377 34.413C41.7941 34.413 42.4092 34.8243 42.6362 35.4784L45.3061 43.1737C45.4448 43.5736 45.4195 44.0036 45.2349 44.3845C45.0502 44.7654 44.7283 45.0516 44.3284 45.1903L43.1329 45.6051L39.9296 36.3721C39.8921 36.2681 39.815 36.1831 39.7152 36.1355C39.6155 36.0879 39.5009 36.0815 39.3965 36.1177C39.292 36.154 39.206 36.2299 39.1572 36.3291C39.1083 36.4283 39.1005 36.5427 39.1354 36.6476L42.3117 45.8028C42.2253 45.7979 42.1399 45.783 42.057 45.7583L40.1579 45.1943C40.0248 45.1546 39.9031 45.0839 39.8027 44.988C39.7023 44.892 39.6262 44.7736 39.5805 44.6425L37.2313 37.8716C37.186 37.7403 37.1724 37.6002 37.1918 37.4626C37.2112 37.3251 37.263 37.1942 37.3429 37.0806L38.4846 35.4616ZM55.3646 44.6425C55.3189 44.7736 55.2428 44.892 55.1424 44.9879C55.042 45.0839 54.9203 45.1546 54.7872 45.1943L52.8882 45.7582C52.8053 45.7829 52.7198 45.7978 52.6334 45.8027L53.3273 43.8027C53.3622 43.6978 53.3544 43.5834 53.3055 43.4842C53.2566 43.385 53.1707 43.3091 53.0662 43.2729C52.9617 43.2366 52.8472 43.243 52.7474 43.2906C52.6476 43.3382 52.5706 43.4232 52.5331 43.5272L51.8122 45.6051L50.6167 45.1903C50.2167 45.0516 49.8948 44.7654 49.7102 44.3845C49.5255 44.0036 49.5003 43.5736 49.639 43.1737L52.3088 35.4784C52.5358 34.8242 53.1509 34.413 53.8074 34.413C53.9793 34.413 54.1541 34.4412 54.3254 34.5007L55.5208 34.9155L53.1275 41.8137C53.1094 41.8659 53.1018 41.9211 53.105 41.9762C53.1083 42.0313 53.1223 42.0852 53.1464 42.1349C53.1705 42.1845 53.2041 42.229 53.2454 42.2656C53.2866 42.3023 53.3347 42.3305 53.3869 42.3486C53.4922 42.3851 53.6077 42.3783 53.708 42.3297C53.8083 42.281 53.8852 42.1945 53.9217 42.0892L56.288 35.2689C56.3528 35.3262 56.4107 35.3909 56.4605 35.4616L57.6023 37.0805C57.6821 37.1941 57.7339 37.3251 57.7533 37.4626C57.7727 37.6001 57.7591 37.7403 57.7138 37.8715L55.3646 44.6425Z" fill="black"/>
</g>
<defs>
<filter id="filter0_d_114_592" x="0.418518" y="0" width="95.54" height="95.5399" filterUnits="userSpaceOnUse" color-interpolation-filters="sRGB">
<feFlood flood-opacity="0" result="BackgroundImageFix"/>
<feColorMatrix in="SourceAlpha" type="matrix" values="0 0 0 0 0 0 0 0 0 0 0 0 0 0 0 0 0 0 127 0" result="hardAlpha"/>
<feOffset dy="4"/>
<feGaussianBlur stdDeviation="2"/>
<feComposite in2="hardAlpha" operator="out"/>
<feColorMatrix type="matrix" values="0 0 0 0 0 0 0 0 0 0 0 0 0 0 0 0 0 0 0.5 0"/>
<feBlend mode="normal" in2="BackgroundImageFix" result="effect1_dropShadow_114_592"/>
<feBlend mode="normal" in="SourceGraphic" in2="effect1_dropShadow_114_592" result="shape"/>
</filter>
<clipPath id="clip0_114_592">
<rect width="96" height="96" fill="white"/>
</clipPath>
</defs>
</svg>
