<svg width="96" height="96" viewBox="0 0 96 96" fill="none" xmlns="http://www.w3.org/2000/svg">
<g filter="url(#filter0_d_708_1502)">
<path d="M4 15C4 6.71571 10.7157 0 19 0H76.5399C84.8242 0 91.5399 6.71573 91.5399 15V72.5399C91.5399 80.8242 84.8242 87.5399 76.5399 87.5399H19C10.7157 87.5399 4 80.8242 4 72.5399V15Z" fill="white"/>
</g>
<path d="M40.4835 27.53V38H38.3835V33.545H33.8985V38H31.7985V27.53H33.8985V31.835H38.3835V27.53H40.4835ZM43.6154 28.7C43.2454 28.7 42.9354 28.585 42.6854 28.355C42.4454 28.115 42.3254 27.82 42.3254 27.47C42.3254 27.12 42.4454 26.83 42.6854 26.6C42.9354 26.36 43.2454 26.24 43.6154 26.24C43.9854 26.24 44.2904 26.36 44.5304 26.6C44.7804 26.83 44.9054 27.12 44.9054 27.47C44.9054 27.82 44.7804 28.115 44.5304 28.355C44.2904 28.585 43.9854 28.7 43.6154 28.7ZM44.6504 29.69V38H42.5504V29.69H44.6504ZM49.9802 29.555C50.6002 29.555 51.1452 29.68 51.6152 29.93C52.0852 30.17 52.4552 30.485 52.7252 30.875V29.69H54.8402V38.06C54.8402 38.83 54.6852 39.515 54.3752 40.115C54.0652 40.725 53.6002 41.205 52.9802 41.555C52.3602 41.915 51.6102 42.095 50.7302 42.095C49.5502 42.095 48.5802 41.82 47.8202 41.27C47.0702 40.72 46.6452 39.97 46.5452 39.02H48.6302C48.7402 39.4 48.9752 39.7 49.3352 39.92C49.7052 40.15 50.1502 40.265 50.6702 40.265C51.2802 40.265 51.7752 40.08 52.1552 39.71C52.5352 39.35 52.7252 38.8 52.7252 38.06V36.77C52.4552 37.16 52.0802 37.485 51.6002 37.745C51.1302 38.005 50.5902 38.135 49.9802 38.135C49.2802 38.135 48.6402 37.955 48.0602 37.595C47.4802 37.235 47.0202 36.73 46.6802 36.08C46.3502 35.42 46.1852 34.665 46.1852 33.815C46.1852 32.975 46.3502 32.23 46.6802 31.58C47.0202 30.93 47.4752 30.43 48.0452 30.08C48.6252 29.73 49.2702 29.555 49.9802 29.555ZM52.7252 33.845C52.7252 33.335 52.6252 32.9 52.4252 32.54C52.2252 32.17 51.9552 31.89 51.6152 31.7C51.2752 31.5 50.9102 31.4 50.5202 31.4C50.1302 31.4 49.7702 31.495 49.4402 31.685C49.1102 31.875 48.8402 32.155 48.6302 32.525C48.4302 32.885 48.3302 33.315 48.3302 33.815C48.3302 34.315 48.4302 34.755 48.6302 35.135C48.8402 35.505 49.1102 35.79 49.4402 35.99C49.7802 36.19 50.1402 36.29 50.5202 36.29C50.9102 36.29 51.2752 36.195 51.6152 36.005C51.9552 35.805 52.2252 35.525 52.4252 35.165C52.6252 34.795 52.7252 34.355 52.7252 33.845ZM61.5713 29.57C62.2013 29.57 62.7613 29.71 63.2513 29.99C63.7413 30.26 64.1213 30.665 64.3913 31.205C64.6713 31.735 64.8113 32.375 64.8113 33.125V38H62.7113V33.41C62.7113 32.75 62.5463 32.245 62.2163 31.895C61.8863 31.535 61.4363 31.355 60.8663 31.355C60.2863 31.355 59.8263 31.535 59.4863 31.895C59.1563 32.245 58.9913 32.75 58.9913 33.41V38H56.8913V26.9H58.9913V30.725C59.2613 30.365 59.6213 30.085 60.0713 29.885C60.5213 29.675 61.0213 29.57 61.5713 29.57ZM37.3702 52.225V54.85H40.8952V56.515H37.3702V59.29H41.3452V61H35.2702V50.515H41.3452V52.225H37.3702ZM47.8586 52.57C48.8486 52.57 49.6486 52.885 50.2586 53.515C50.8686 54.135 51.1736 55.005 51.1736 56.125V61H49.0736V56.41C49.0736 55.75 48.9086 55.245 48.5786 54.895C48.2486 54.535 47.7986 54.355 47.2286 54.355C46.6486 54.355 46.1886 54.535 45.8486 54.895C45.5186 55.245 45.3536 55.75 45.3536 56.41V61H43.2536V52.69H45.3536V53.725C45.6336 53.365 45.9886 53.085 46.4186 52.885C46.8586 52.675 47.3386 52.57 47.8586 52.57ZM52.6306 56.815C52.6306 55.975 52.7956 55.23 53.1256 54.58C53.4656 53.93 53.9256 53.43 54.5056 53.08C55.0856 52.73 55.7306 52.555 56.4406 52.555C56.9806 52.555 57.4956 52.675 57.9856 52.915C58.4756 53.145 58.8656 53.455 59.1556 53.845V49.9H61.2856V61H59.1556V59.77C58.8956 60.18 58.5306 60.51 58.0606 60.76C57.5906 61.01 57.0456 61.135 56.4256 61.135C55.7256 61.135 55.0856 60.955 54.5056 60.595C53.9256 60.235 53.4656 59.73 53.1256 59.08C52.7956 58.42 52.6306 57.665 52.6306 56.815ZM59.1706 56.845C59.1706 56.335 59.0706 55.9 58.8706 55.54C58.6706 55.17 58.4006 54.89 58.0606 54.7C57.7206 54.5 57.3556 54.4 56.9656 54.4C56.5756 54.4 56.2156 54.495 55.8856 54.685C55.5556 54.875 55.2856 55.155 55.0756 55.525C54.8756 55.885 54.7756 56.315 54.7756 56.815C54.7756 57.315 54.8756 57.755 55.0756 58.135C55.2856 58.505 55.5556 58.79 55.8856 58.99C56.2256 59.19 56.5856 59.29 56.9656 59.29C57.3556 59.29 57.7206 59.195 58.0606 59.005C58.4006 58.805 58.6706 58.525 58.8706 58.165C59.0706 57.795 59.1706 57.355 59.1706 56.845Z" fill="black"/>
<defs>
<filter id="filter0_d_708_1502" x="0" y="0" width="95.5399" height="95.5399" filterUnits="userSpaceOnUse" color-interpolation-filters="sRGB">
<feFlood flood-opacity="0" result="BackgroundImageFix"/>
<feColorMatrix in="SourceAlpha" type="matrix" values="0 0 0 0 0 0 0 0 0 0 0 0 0 0 0 0 0 0 127 0" result="hardAlpha"/>
<feOffset dy="4"/>
<feGaussianBlur stdDeviation="2"/>
<feComposite in2="hardAlpha" operator="out"/>
<feColorMatrix type="matrix" values="0 0 0 0 0 0 0 0 0 0 0 0 0 0 0 0 0 0 0.5 0"/>
<feBlend mode="normal" in2="BackgroundImageFix" result="effect1_dropShadow_708_1502"/>
<feBlend mode="normal" in="SourceGraphic" in2="effect1_dropShadow_708_1502" result="shape"/>
</filter>
</defs>
</svg>
