<svg width="96" height="96" viewBox="0 0 96 96" fill="none" xmlns="http://www.w3.org/2000/svg">
<g clip-path="url(#clip0_114_605)">
<g filter="url(#filter0_d_114_605)">
<path d="M4 15C4 6.71571 10.7157 0 19 0H76.5399C84.8242 0 91.5399 6.71573 91.5399 15V72.5399C91.5399 80.8242 84.8242 87.5399 76.5399 87.5399H19C10.7157 87.5399 4 80.8242 4 72.5399V15Z" fill="white"/>
</g>
<path d="M25.2583 61.2013L22.4643 57.7803V61.2013H20.9243V53.5233H22.4643V56.9663L25.2583 53.5233H27.1173L23.9493 57.3293L27.2053 61.2013H25.2583ZM33.8833 58.0223C33.8833 58.2423 33.8686 58.4403 33.8393 58.6163H29.3843C29.4209 59.0563 29.5749 59.401 29.8463 59.6503C30.1176 59.8996 30.4513 60.0243 30.8473 60.0243C31.4193 60.0243 31.8263 59.7786 32.0683 59.2873H33.7293C33.5533 59.874 33.2159 60.358 32.7173 60.7393C32.2186 61.1133 31.6063 61.3003 30.8803 61.3003C30.2936 61.3003 29.7656 61.172 29.2963 60.9153C28.8343 60.6513 28.4713 60.281 28.2073 59.8043C27.9506 59.3276 27.8223 58.7776 27.8223 58.1543C27.8223 57.5236 27.9506 56.97 28.2073 56.4933C28.4639 56.0166 28.8233 55.65 29.2853 55.3933C29.7473 55.1366 30.2789 55.0083 30.8803 55.0083C31.4596 55.0083 31.9766 55.133 32.4313 55.3823C32.8933 55.6316 33.2489 55.9873 33.4983 56.4493C33.7549 56.904 33.8833 57.4283 33.8833 58.0223ZM32.2883 57.5823C32.2809 57.1863 32.1379 56.871 31.8593 56.6363C31.5806 56.3943 31.2396 56.2733 30.8363 56.2733C30.4549 56.2733 30.1323 56.3906 29.8683 56.6253C29.6116 56.8526 29.4539 57.1716 29.3953 57.5823H32.2883ZM40.8373 55.1073L37.0643 64.0833H35.4253L36.7453 61.0473L34.3033 55.1073H36.0303L37.6033 59.3643L39.1983 55.1073H40.8373ZM43.2075 55.9983C43.4055 55.705 43.6768 55.4666 44.0215 55.2833C44.3735 55.1 44.7731 55.0083 45.2205 55.0083C45.7411 55.0083 46.2105 55.1366 46.6285 55.3933C47.0538 55.65 47.3875 56.0166 47.6295 56.4933C47.8788 56.9626 48.0035 57.509 48.0035 58.1323C48.0035 58.7556 47.8788 59.3093 47.6295 59.7933C47.3875 60.27 47.0538 60.6403 46.6285 60.9043C46.2105 61.1683 45.7411 61.3003 45.2205 61.3003C44.7658 61.3003 44.3661 61.2123 44.0215 61.0363C43.6841 60.853 43.4128 60.6183 43.2075 60.3323V61.2013H41.6675V53.0613H43.2075V55.9983ZM46.4305 58.1323C46.4305 57.7656 46.3535 57.4503 46.1995 57.1863C46.0528 56.915 45.8548 56.7096 45.6055 56.5703C45.3635 56.431 45.0995 56.3613 44.8135 56.3613C44.5348 56.3613 44.2708 56.4346 44.0215 56.5813C43.7795 56.7206 43.5815 56.926 43.4275 57.1973C43.2808 57.4686 43.2075 57.7876 43.2075 58.1543C43.2075 58.521 43.2808 58.84 43.4275 59.1113C43.5815 59.3826 43.7795 59.5916 44.0215 59.7383C44.2708 59.8776 44.5348 59.9473 44.8135 59.9473C45.0995 59.9473 45.3635 59.874 45.6055 59.7273C45.8548 59.5806 46.0528 59.3716 46.1995 59.1003C46.3535 58.829 46.4305 58.5063 46.4305 58.1323ZM51.8286 61.3003C51.2419 61.3003 50.7139 61.172 50.2446 60.9153C49.7752 60.6513 49.4049 60.281 49.1336 59.8043C48.8696 59.3276 48.7376 58.7776 48.7376 58.1543C48.7376 57.531 48.8732 56.981 49.1446 56.5043C49.4232 56.0276 49.8009 55.661 50.2776 55.4043C50.7542 55.1403 51.2859 55.0083 51.8726 55.0083C52.4592 55.0083 52.9909 55.1403 53.4676 55.4043C53.9442 55.661 54.3182 56.0276 54.5896 56.5043C54.8682 56.981 55.0076 57.531 55.0076 58.1543C55.0076 58.7776 54.8646 59.3276 54.5786 59.8043C54.2999 60.281 53.9186 60.6513 53.4346 60.9153C52.9579 61.172 52.4226 61.3003 51.8286 61.3003ZM51.8286 59.9583C52.1072 59.9583 52.3676 59.8923 52.6096 59.7603C52.8589 59.621 53.0569 59.4156 53.2036 59.1443C53.3502 58.873 53.4236 58.543 53.4236 58.1543C53.4236 57.575 53.2696 57.1313 52.9616 56.8233C52.6609 56.508 52.2906 56.3503 51.8506 56.3503C51.4106 56.3503 51.0402 56.508 50.7396 56.8233C50.4462 57.1313 50.2996 57.575 50.2996 58.1543C50.2996 58.7336 50.4426 59.181 50.7286 59.4963C51.0219 59.8043 51.3886 59.9583 51.8286 59.9583ZM55.7412 58.1323C55.7412 57.5163 55.8622 56.97 56.1042 56.4933C56.3535 56.0166 56.6872 55.65 57.1052 55.3933C57.5305 55.1366 58.0035 55.0083 58.5242 55.0083C58.9789 55.0083 59.3749 55.1 59.7122 55.2833C60.0569 55.4666 60.3319 55.6976 60.5372 55.9763V55.1073H62.0882V61.2013H60.5372V60.3103C60.3392 60.5963 60.0642 60.8346 59.7122 61.0253C59.3675 61.2086 58.9679 61.3003 58.5132 61.3003C57.9999 61.3003 57.5305 61.1683 57.1052 60.9043C56.6872 60.6403 56.3535 60.27 56.1042 59.7933C55.8622 59.3093 55.7412 58.7556 55.7412 58.1323ZM60.5372 58.1543C60.5372 57.7803 60.4639 57.4613 60.3172 57.1973C60.1705 56.926 59.9725 56.7206 59.7232 56.5813C59.4739 56.4346 59.2062 56.3613 58.9202 56.3613C58.6342 56.3613 58.3702 56.431 58.1282 56.5703C57.8862 56.7096 57.6882 56.915 57.5342 57.1863C57.3875 57.4503 57.3142 57.7656 57.3142 58.1323C57.3142 58.499 57.3875 58.8216 57.5342 59.1003C57.6882 59.3716 57.8862 59.5806 58.1282 59.7273C58.3775 59.874 58.6415 59.9473 58.9202 59.9473C59.2062 59.9473 59.4739 59.8776 59.7232 59.7383C59.9725 59.5916 60.1705 59.3863 60.3172 59.1223C60.4639 58.851 60.5372 58.5283 60.5372 58.1543ZM65.1323 56.0533C65.3303 55.7306 65.5869 55.4776 65.9023 55.2943C66.2249 55.111 66.5916 55.0193 67.0023 55.0193V56.6363H66.5953C66.1113 56.6363 65.7446 56.75 65.4953 56.9773C65.2533 57.2046 65.1323 57.6006 65.1323 58.1653V61.2013H63.5923V55.1073H65.1323V56.0533ZM67.6435 58.1323C67.6435 57.5163 67.7645 56.97 68.0065 56.4933C68.2559 56.0166 68.5932 55.65 69.0185 55.3933C69.4439 55.1366 69.9169 55.0083 70.4375 55.0083C70.8335 55.0083 71.2112 55.0963 71.5705 55.2723C71.9299 55.441 72.2159 55.6683 72.4285 55.9543V53.0613H73.9905V61.2013H72.4285V60.2993C72.2379 60.6 71.9702 60.842 71.6255 61.0253C71.2809 61.2086 70.8812 61.3003 70.4265 61.3003C69.9132 61.3003 69.4439 61.1683 69.0185 60.9043C68.5932 60.6403 68.2559 60.27 68.0065 59.7933C67.7645 59.3093 67.6435 58.7556 67.6435 58.1323ZM72.4395 58.1543C72.4395 57.7803 72.3662 57.4613 72.2195 57.1973C72.0729 56.926 71.8749 56.7206 71.6255 56.5813C71.3762 56.4346 71.1085 56.3613 70.8225 56.3613C70.5365 56.3613 70.2725 56.431 70.0305 56.5703C69.7885 56.7096 69.5905 56.915 69.4365 57.1863C69.2899 57.4503 69.2165 57.7656 69.2165 58.1323C69.2165 58.499 69.2899 58.8216 69.4365 59.1003C69.5905 59.3716 69.7885 59.5806 70.0305 59.7273C70.2799 59.874 70.5439 59.9473 70.8225 59.9473C71.1085 59.9473 71.3762 59.8776 71.6255 59.7383C71.8749 59.5916 72.0729 59.3863 72.2195 59.1223C72.3662 58.851 72.4395 58.5283 72.4395 58.1543Z" fill="black"/>
<path d="M59.9451 31.827H55.5474C55.4921 31.827 55.4373 31.8379 55.3861 31.8591C55.335 31.8803 55.2885 31.9113 55.2494 31.9504C55.2103 31.9896 55.1792 32.036 55.1581 32.0872C55.1369 32.1383 55.126 32.1931 55.126 32.2484C55.126 32.3038 55.1369 32.3586 55.1581 32.4097C55.1792 32.4609 55.2103 32.5073 55.2494 32.5465C55.2885 32.5856 55.335 32.6166 55.3861 32.6378C55.4373 32.659 55.4921 32.6699 55.5474 32.6699H59.9451C60.3422 32.6699 60.6652 32.9929 60.6652 33.39V45.0266C60.6652 45.4236 60.3422 45.7466 59.9451 45.7466H34.3168C33.9198 45.7466 33.5968 45.4236 33.5968 45.0266V33.3898C33.5968 32.9928 33.9198 32.6698 34.3168 32.6698H53.3C53.3554 32.6698 53.4102 32.6589 53.4613 32.6377C53.5124 32.6165 53.5589 32.5855 53.598 32.5463C53.6371 32.5072 53.6682 32.4607 53.6894 32.4096C53.7105 32.3585 53.7214 32.3037 53.7214 32.2483C53.7214 32.193 53.7105 32.1382 53.6894 32.0871C53.6682 32.0359 53.6371 31.9895 53.598 31.9503C53.5589 31.9112 53.5124 31.8801 53.4613 31.859C53.4102 31.8378 53.3554 31.8269 53.3 31.8269H48.9898V30.8209C48.9898 30.3324 48.5923 29.935 48.1039 29.935H47.5008V29.2227C47.5008 28.5621 48.0383 28.0246 48.6989 28.0246H49.4492C50.5746 28.0246 51.4901 27.1091 51.4901 25.9837V24.8402C51.4901 23.7148 50.5746 22.7992 49.4492 22.7992H48.7506C48.0899 22.7992 47.5525 22.2618 47.5525 21.6012V18.3128C47.5525 18.2574 47.5416 18.2026 47.5204 18.1515C47.4992 18.1004 47.4682 18.0539 47.4291 18.0148C47.3899 17.9756 47.3435 17.9446 47.2923 17.9234C47.2412 17.9022 47.1864 17.8914 47.1311 17.8914C47.0757 17.8914 47.0209 17.9022 46.9698 17.9234C46.9186 17.9446 46.8722 17.9756 46.833 18.0148C46.7939 18.0539 46.7629 18.1004 46.7417 18.1515C46.7205 18.2026 46.7096 18.2574 46.7096 18.3128V21.6012C46.7096 22.7266 47.6252 23.6421 48.7505 23.6421H49.4492C50.1098 23.6421 50.6472 24.1796 50.6472 24.8402V25.9838C50.6472 26.6444 50.1098 27.1819 49.4492 27.1819H48.6989C47.5735 27.1819 46.658 28.0974 46.658 29.2228V29.935H46.1392C45.6507 29.935 45.2533 30.3325 45.2533 30.821V31.827H34.3168C33.4551 31.827 32.754 32.5281 32.754 33.3898V45.0265C32.754 45.8882 33.4551 46.5893 34.3168 46.5893H59.9452C60.8069 46.5893 61.508 45.8883 61.508 45.0265V33.3898C61.508 32.5281 60.8069 31.827 59.9451 31.827ZM46.1392 30.7779H48.1038C48.1152 30.7779 48.1262 30.7825 48.1343 30.7906C48.1423 30.7986 48.1469 30.8096 48.1469 30.821V31.827H46.0961V30.821C46.0962 30.8096 46.1007 30.7986 46.1087 30.7906C46.1168 30.7825 46.1278 30.7779 46.1392 30.7779Z" fill="black"/>
<path d="M37.1222 33.8118H35.2616C34.8856 33.8118 34.5798 34.1176 34.5798 34.4936V36.2058C34.5798 36.5818 34.8857 36.8877 35.2616 36.8877H37.1222C37.4982 36.8877 37.804 36.5818 37.804 36.2058V34.4936C37.804 34.1176 37.4982 33.8118 37.1222 33.8118ZM36.9612 36.0449H35.4226V34.6546H36.9612V36.0449ZM40.7686 33.8118H38.908C38.532 33.8118 38.2261 34.1177 38.2261 34.4937V36.2059C38.2261 36.5819 38.532 36.8877 38.908 36.8877H40.7686C41.1446 36.8877 41.4505 36.5819 41.4505 36.2059V34.4937C41.4504 34.1177 41.1445 33.8118 40.7686 33.8118ZM40.6076 36.0449H39.0689V34.6546H40.6076V36.0449ZM44.4149 33.8118H42.5543C42.1784 33.8118 41.8725 34.1177 41.8725 34.4937V36.2059C41.8725 36.5819 42.1784 36.8877 42.5543 36.8877H44.4149C44.7909 36.8877 45.0968 36.5819 45.0968 36.2059V34.4937C45.0968 34.1177 44.7909 33.8118 44.4149 33.8118ZM44.2539 36.0449H42.7153V34.6546H44.2539V36.0449ZM48.0613 33.8118H46.2007C45.8247 33.8118 45.5189 34.1177 45.5189 34.4937V36.2059C45.5189 36.5819 45.8247 36.8877 46.2007 36.8877H48.0613C48.4373 36.8877 48.7432 36.5819 48.7432 36.2059V34.4937C48.7431 34.1177 48.4372 33.8118 48.0613 33.8118ZM47.9003 36.0449H46.3617V34.6546H47.9003V36.0449ZM51.7077 33.8118H49.8471C49.4711 33.8118 49.1652 34.1177 49.1652 34.4937V36.2059C49.1652 36.5819 49.4711 36.8877 49.8471 36.8877H51.7077C52.0837 36.8877 52.3895 36.5819 52.3895 36.2059V34.4937C52.3895 34.1177 52.0837 33.8118 51.7077 33.8118ZM51.5467 36.0449H50.008V34.6546H51.5467V36.0449ZM55.354 33.8118H53.4934C53.1174 33.8118 52.8115 34.1177 52.8115 34.4937V36.2059C52.8115 36.5819 53.1174 36.8877 53.4934 36.8877H55.354C55.73 36.8877 56.0359 36.5819 56.0359 36.2059V34.4937C56.0359 34.1177 55.73 33.8118 55.354 33.8118ZM55.1931 36.0449H53.6544V34.6546H55.1931V36.0449ZM59.0004 33.8118H57.1398C56.7638 33.8118 56.458 34.1176 56.458 34.4936V36.2058C56.458 36.5818 56.7638 36.8877 57.1398 36.8877H59.0004C59.3764 36.8877 59.6822 36.5818 59.6822 36.2058V34.4936C59.6822 34.1176 59.3764 33.8118 59.0004 33.8118ZM58.8394 36.0449H57.3008V34.6546H58.8394V36.0449ZM38.716 37.8576H35.2616C34.8856 37.8576 34.5798 38.1634 34.5798 38.5394V40.2517C34.5798 40.6276 34.8856 40.9335 35.2616 40.9335H38.716C39.092 40.9334 39.3978 40.6276 39.3978 40.2517V38.5394C39.3978 38.1634 39.092 37.8576 38.716 37.8576ZM38.555 40.0906H35.4226V38.7004H38.555V40.0906ZM59.0004 37.8575H55.546C55.17 37.8576 54.8642 38.1634 54.8642 38.5394V40.2516C54.8642 40.6276 55.17 40.9334 55.546 40.9334H59.0004C59.3764 40.9334 59.6822 40.6276 59.6822 40.2516V38.5394C59.6822 38.1634 59.3764 37.8575 59.0004 37.8575ZM58.8394 40.0906H55.7071V38.7004H58.8394V40.0906ZM42.432 37.8575H40.5714C40.1954 37.8576 39.8895 38.1634 39.8895 38.5394V40.2516C39.8895 40.6276 40.1954 40.9334 40.5714 40.9334H42.432C42.808 40.9334 43.1139 40.6276 43.1139 40.2516V38.5394C43.1139 38.1634 42.808 37.8575 42.432 37.8575ZM42.271 40.0906H40.7323V38.7004H42.271V40.0906ZM46.1849 37.8575H44.3243C43.9482 37.8576 43.6424 38.1634 43.6424 38.5394V40.2516C43.6424 40.6276 43.9483 40.9334 44.3243 40.9334H46.1849C46.5609 40.9334 46.8668 40.6276 46.8668 40.2516V38.5394C46.8668 38.1634 46.5609 37.8575 46.1849 37.8575ZM46.0239 40.0906H44.4852V38.7004H46.0239V40.0906ZM49.9377 37.8575H48.0771C47.7011 37.8576 47.3953 38.1634 47.3953 38.5394V40.2516C47.3953 40.6276 47.7011 40.9334 48.0771 40.9334H49.9377C50.3137 40.9334 50.6196 40.6276 50.6196 40.2516V38.5394C50.6196 38.1634 50.3137 37.8575 49.9377 37.8575ZM49.7768 40.0906H48.2381V38.7004H49.7768V40.0906ZM53.6906 37.8575H51.83C51.454 37.8576 51.1482 38.1634 51.1482 38.5394V40.2516C51.1482 40.6276 51.454 40.9334 51.83 40.9334H53.6906C54.0666 40.9334 54.3725 40.6276 54.3725 40.2516V38.5394C54.3725 38.1634 54.0666 37.8575 53.6906 37.8575ZM53.5297 40.0906H51.991V38.7004H53.5297V40.0906ZM55.0252 41.9033H42.6254C42.57 41.9033 42.5152 41.9142 42.4641 41.9354C42.413 41.9566 42.3665 41.9876 42.3274 42.0267C42.2882 42.0659 42.2572 42.1123 42.236 42.1635C42.2149 42.2146 42.204 42.2694 42.204 42.3247C42.204 42.3801 42.2149 42.4349 42.236 42.486C42.2572 42.5372 42.2882 42.5836 42.3274 42.6228C42.3665 42.6619 42.413 42.6929 42.4641 42.7141C42.5152 42.7353 42.57 42.7462 42.6254 42.7462H54.8642V44.1364H39.3978V42.7462H40.3848C40.4401 42.7462 40.4949 42.7353 40.546 42.7141C40.5972 42.6929 40.6436 42.6619 40.6828 42.6228C40.7219 42.5836 40.753 42.5372 40.7741 42.486C40.7953 42.4349 40.8062 42.3801 40.8062 42.3247C40.8062 42.2694 40.7953 42.2146 40.7741 42.1635C40.753 42.1123 40.7219 42.0659 40.6828 42.0267C40.6436 41.9876 40.5972 41.9566 40.546 41.9354C40.4949 41.9142 40.4401 41.9033 40.3848 41.9033H39.2369C38.8609 41.9033 38.555 42.2092 38.555 42.5852V44.2974C38.555 44.6734 38.8608 44.9792 39.2368 44.9792H55.0252C55.4012 44.9792 55.7071 44.6734 55.7071 44.2974V42.5852C55.7071 42.2092 55.4012 41.9033 55.0252 41.9033ZM37.1222 41.9034H35.2616C34.8856 41.9034 34.5798 42.2092 34.5798 42.5852V44.2974C34.5798 44.6734 34.8856 44.9793 35.2616 44.9793H37.1222C37.4982 44.9793 37.804 44.6734 37.804 44.2974V42.5852C37.804 42.2092 37.4982 41.9034 37.1222 41.9034ZM36.9612 44.1364H35.4226V42.7462H36.9612V44.1364ZM59.0004 41.9034H57.1398C56.7638 41.9034 56.458 42.2092 56.458 42.5852V44.2974C56.458 44.6734 56.7638 44.9793 57.1398 44.9793H59.0004C59.3764 44.9793 59.6822 44.6734 59.6822 44.2974V42.5852C59.6822 42.2092 59.3763 41.9034 59.0004 41.9034ZM58.8394 44.1364H57.3008V42.7462H58.8394V44.1364Z" fill="black"/>
</g>
<defs>
<filter id="filter0_d_114_605" x="0" y="0" width="95.5399" height="95.5399" filterUnits="userSpaceOnUse" color-interpolation-filters="sRGB">
<feFlood flood-opacity="0" result="BackgroundImageFix"/>
<feColorMatrix in="SourceAlpha" type="matrix" values="0 0 0 0 0 0 0 0 0 0 0 0 0 0 0 0 0 0 127 0" result="hardAlpha"/>
<feOffset dy="4"/>
<feGaussianBlur stdDeviation="2"/>
<feComposite in2="hardAlpha" operator="out"/>
<feColorMatrix type="matrix" values="0 0 0 0 0 0 0 0 0 0 0 0 0 0 0 0 0 0 0.5 0"/>
<feBlend mode="normal" in2="BackgroundImageFix" result="effect1_dropShadow_114_605"/>
<feBlend mode="normal" in="SourceGraphic" in2="effect1_dropShadow_114_605" result="shape"/>
</filter>
<clipPath id="clip0_114_605">
<rect width="96" height="96" fill="white"/>
</clipPath>
</defs>
</svg>
