<svg width="18" height="30" viewBox="0 0 18 30" fill="none" xmlns="http://www.w3.org/2000/svg">
<path d="M17.3117 0.660346C17.7524 1.08329 18 1.65686 18 2.2549C18 2.85295 17.7524 3.42651 17.3117 3.84946L5.67462 15.0136L17.3117 26.1778C17.7399 26.6031 17.9769 27.1729 17.9715 27.7642C17.9662 28.3556 17.7189 28.9212 17.283 29.3394C16.8472 29.7576 16.2575 29.9948 15.6411 29.9999C15.0247 30.0051 14.4309 29.7777 13.9875 29.3669L0.688318 16.6082C0.247588 16.1852 0 15.6117 0 15.0136C0 14.4156 0.247588 13.842 0.688318 13.4191L13.9875 0.660346C14.4283 0.237527 15.0262 0 15.6496 0C16.273 0 16.8708 0.237527 17.3117 0.660346Z" fill="black"/>
</svg>
