<svg width="13" height="16" viewBox="0 0 13 16" fill="none" xmlns="http://www.w3.org/2000/svg">
<path d="M0 8C0 8.21217 0.0842856 8.41566 0.234315 8.56569C0.384344 8.71571 0.587827 8.8 0.8 8.8H6.872L5.032 10.632C4.95702 10.7064 4.8975 10.7949 4.85689 10.8923C4.81627 10.9898 4.79536 11.0944 4.79536 11.2C4.79536 11.3056 4.81627 11.4102 4.85689 11.5077C4.8975 11.6051 4.95702 11.6936 5.032 11.768C5.10637 11.843 5.19485 11.9025 5.29234 11.9431C5.38983 11.9837 5.49439 12.0046 5.6 12.0046C5.70561 12.0046 5.81017 11.9837 5.90766 11.9431C6.00515 11.9025 6.09363 11.843 6.168 11.768L9.368 8.568C9.44083 8.49192 9.49792 8.4022 9.536 8.304C9.61601 8.10923 9.61601 7.89077 9.536 7.696C9.49792 7.5978 9.44083 7.50808 9.368 7.432L6.168 4.232C6.09341 4.15741 6.00486 4.09824 5.9074 4.05787C5.80994 4.0175 5.70549 3.99673 5.6 3.99673C5.49451 3.99673 5.39006 4.0175 5.2926 4.05787C5.19514 4.09824 5.10659 4.15741 5.032 4.232C4.95741 4.30659 4.89824 4.39514 4.85787 4.4926C4.8175 4.59006 4.79673 4.69451 4.79673 4.8C4.79673 4.90549 4.8175 5.00994 4.85787 5.1074C4.89824 5.20486 4.95741 5.29341 5.032 5.368L6.872 7.2H0.8C0.587827 7.2 0.384344 7.28429 0.234315 7.43431C0.0842856 7.58434 0 7.78783 0 8ZM10.4 0H2.4C1.76348 0 1.15303 0.252856 0.702944 0.702944C0.252856 1.15303 0 1.76348 0 2.4V4.8C0 5.01217 0.0842856 5.21566 0.234315 5.36569C0.384344 5.51571 0.587827 5.6 0.8 5.6C1.01217 5.6 1.21566 5.51571 1.36569 5.36569C1.51571 5.21566 1.6 5.01217 1.6 4.8V2.4C1.6 2.18783 1.68429 1.98434 1.83431 1.83431C1.98434 1.68429 2.18783 1.6 2.4 1.6H10.4C10.6122 1.6 10.8157 1.68429 10.9657 1.83431C11.1157 1.98434 11.2 2.18783 11.2 2.4V13.6C11.2 13.8122 11.1157 14.0157 10.9657 14.1657C10.8157 14.3157 10.6122 14.4 10.4 14.4H2.4C2.18783 14.4 1.98434 14.3157 1.83431 14.1657C1.68429 14.0157 1.6 13.8122 1.6 13.6V11.2C1.6 10.9878 1.51571 10.7843 1.36569 10.6343C1.21566 10.4843 1.01217 10.4 0.8 10.4C0.587827 10.4 0.384344 10.4843 0.234315 10.6343C0.0842856 10.7843 0 10.9878 0 11.2V13.6C0 14.2365 0.252856 14.847 0.702944 15.2971C1.15303 15.7471 1.76348 16 2.4 16H10.4C11.0365 16 11.647 15.7471 12.0971 15.2971C12.5471 14.847 12.8 14.2365 12.8 13.6V2.4C12.8 1.76348 12.5471 1.15303 12.0971 0.702944C11.647 0.252856 11.0365 0 10.4 0Z" fill="#FEF9E6"/>
</svg>
