<svg width="96" height="96" viewBox="0 0 96 96" fill="none" xmlns="http://www.w3.org/2000/svg">
<g filter="url(#filter0_d_708_1495)">
<path d="M4 15C4 6.71571 10.7157 0 19 0H76.5399C84.8242 0 91.5399 6.71573 91.5399 15V72.5399C91.5399 80.8242 84.8242 87.5399 76.5399 87.5399H19C10.7157 87.5399 4 80.8242 4 72.5399V15Z" fill="white"/>
</g>
<path d="M36.8501 36.335H40.3001V38H34.7501V27.53H36.8501V36.335ZM45.3249 38.135C44.5249 38.135 43.8049 37.96 43.1649 37.61C42.5249 37.25 42.0199 36.745 41.6499 36.095C41.2899 35.445 41.1099 34.695 41.1099 33.845C41.1099 32.995 41.2949 32.245 41.6649 31.595C42.0449 30.945 42.5599 30.445 43.2099 30.095C43.8599 29.735 44.5849 29.555 45.3849 29.555C46.1849 29.555 46.9099 29.735 47.5599 30.095C48.2099 30.445 48.7199 30.945 49.0899 31.595C49.4699 32.245 49.6599 32.995 49.6599 33.845C49.6599 34.695 49.4649 35.445 49.0749 36.095C48.6949 36.745 48.1749 37.25 47.5149 37.61C46.8649 37.96 46.1349 38.135 45.3249 38.135ZM45.3249 36.305C45.7049 36.305 46.0599 36.215 46.3899 36.035C46.7299 35.845 46.9999 35.565 47.1999 35.195C47.3999 34.825 47.4999 34.375 47.4999 33.845C47.4999 33.055 47.2899 32.45 46.8699 32.03C46.4599 31.6 45.9549 31.385 45.3549 31.385C44.7549 31.385 44.2499 31.6 43.8399 32.03C43.4399 32.45 43.2399 33.055 43.2399 33.845C43.2399 34.635 43.4349 35.245 43.8249 35.675C44.2249 36.095 44.7249 36.305 45.3249 36.305ZM62.7203 29.69L60.2903 38H58.0253L56.5103 32.195L54.9953 38H52.7153L50.2703 29.69H52.4003L53.8703 36.02L55.4603 29.69H57.6803L59.2403 36.005L60.7103 29.69H62.7203ZM37.3702 52.225V54.85H40.8952V56.515H37.3702V59.29H41.3452V61H35.2702V50.515H41.3452V52.225H37.3702ZM47.8586 52.57C48.8486 52.57 49.6486 52.885 50.2586 53.515C50.8686 54.135 51.1736 55.005 51.1736 56.125V61H49.0736V56.41C49.0736 55.75 48.9086 55.245 48.5786 54.895C48.2486 54.535 47.7986 54.355 47.2286 54.355C46.6486 54.355 46.1886 54.535 45.8486 54.895C45.5186 55.245 45.3536 55.75 45.3536 56.41V61H43.2536V52.69H45.3536V53.725C45.6336 53.365 45.9886 53.085 46.4186 52.885C46.8586 52.675 47.3386 52.57 47.8586 52.57ZM52.6306 56.815C52.6306 55.975 52.7956 55.23 53.1256 54.58C53.4656 53.93 53.9256 53.43 54.5056 53.08C55.0856 52.73 55.7306 52.555 56.4406 52.555C56.9806 52.555 57.4956 52.675 57.9856 52.915C58.4756 53.145 58.8656 53.455 59.1556 53.845V49.9H61.2856V61H59.1556V59.77C58.8956 60.18 58.5306 60.51 58.0606 60.76C57.5906 61.01 57.0456 61.135 56.4256 61.135C55.7256 61.135 55.0856 60.955 54.5056 60.595C53.9256 60.235 53.4656 59.73 53.1256 59.08C52.7956 58.42 52.6306 57.665 52.6306 56.815ZM59.1706 56.845C59.1706 56.335 59.0706 55.9 58.8706 55.54C58.6706 55.17 58.4006 54.89 58.0606 54.7C57.7206 54.5 57.3556 54.4 56.9656 54.4C56.5756 54.4 56.2156 54.495 55.8856 54.685C55.5556 54.875 55.2856 55.155 55.0756 55.525C54.8756 55.885 54.7756 56.315 54.7756 56.815C54.7756 57.315 54.8756 57.755 55.0756 58.135C55.2856 58.505 55.5556 58.79 55.8856 58.99C56.2256 59.19 56.5856 59.29 56.9656 59.29C57.3556 59.29 57.7206 59.195 58.0606 59.005C58.4006 58.805 58.6706 58.525 58.8706 58.165C59.0706 57.795 59.1706 57.355 59.1706 56.845Z" fill="black"/>
<defs>
<filter id="filter0_d_708_1495" x="0" y="0" width="95.5399" height="95.5399" filterUnits="userSpaceOnUse" color-interpolation-filters="sRGB">
<feFlood flood-opacity="0" result="BackgroundImageFix"/>
<feColorMatrix in="SourceAlpha" type="matrix" values="0 0 0 0 0 0 0 0 0 0 0 0 0 0 0 0 0 0 127 0" result="hardAlpha"/>
<feOffset dy="4"/>
<feGaussianBlur stdDeviation="2"/>
<feComposite in2="hardAlpha" operator="out"/>
<feColorMatrix type="matrix" values="0 0 0 0 0 0 0 0 0 0 0 0 0 0 0 0 0 0 0.5 0"/>
<feBlend mode="normal" in2="BackgroundImageFix" result="effect1_dropShadow_708_1495"/>
<feBlend mode="normal" in="SourceGraphic" in2="effect1_dropShadow_708_1495" result="shape"/>
</filter>
</defs>
</svg>
