<svg width="96" height="96" viewBox="0 0 96 96" fill="none" xmlns="http://www.w3.org/2000/svg">
<g filter="url(#filter0_d_708_1499)">
<path d="M4 15C4 6.71571 10.7157 0 19 0H76.5399C84.8242 0 91.5399 6.71573 91.5399 15V72.5399C91.5399 80.8242 84.8242 87.5399 76.5399 87.5399H19C10.7157 87.5399 4 80.8242 4 72.5399V15Z" fill="white"/>
</g>
<path d="M29.3561 27.53V38H27.2561V31.19L24.4511 38H22.8611L20.0411 31.19V38H17.9411V27.53H20.3261L23.6561 35.315L26.9861 27.53H29.3561ZM39.1573 33.665C39.1573 33.965 39.1373 34.235 39.0973 34.475H33.0223C33.0723 35.075 33.2823 35.545 33.6523 35.885C34.0223 36.225 34.4773 36.395 35.0173 36.395C35.7973 36.395 36.3523 36.06 36.6823 35.39H38.9473C38.7073 36.19 38.2473 36.85 37.5673 37.37C36.8873 37.88 36.0523 38.135 35.0623 38.135C34.2623 38.135 33.5423 37.96 32.9023 37.61C32.2723 37.25 31.7773 36.745 31.4173 36.095C31.0673 35.445 30.8923 34.695 30.8923 33.845C30.8923 32.985 31.0673 32.23 31.4173 31.58C31.7673 30.93 32.2573 30.43 32.8873 30.08C33.5173 29.73 34.2423 29.555 35.0623 29.555C35.8523 29.555 36.5573 29.725 37.1773 30.065C37.8073 30.405 38.2923 30.89 38.6323 31.52C38.9823 32.14 39.1573 32.855 39.1573 33.665ZM36.9823 33.065C36.9723 32.525 36.7773 32.095 36.3973 31.775C36.0173 31.445 35.5523 31.28 35.0023 31.28C34.4823 31.28 34.0423 31.44 33.6823 31.76C33.3323 32.07 33.1173 32.505 33.0373 33.065H36.9823ZM40.1501 33.815C40.1501 32.975 40.3151 32.23 40.6451 31.58C40.9851 30.93 41.4451 30.43 42.0251 30.08C42.6051 29.73 43.2501 29.555 43.9601 29.555C44.5001 29.555 45.0151 29.675 45.5051 29.915C45.9951 30.145 46.3851 30.455 46.6751 30.845V26.9H48.8051V38H46.6751V36.77C46.4151 37.18 46.0501 37.51 45.5801 37.76C45.1101 38.01 44.5651 38.135 43.9451 38.135C43.2451 38.135 42.6051 37.955 42.0251 37.595C41.4451 37.235 40.9851 36.73 40.6451 36.08C40.3151 35.42 40.1501 34.665 40.1501 33.815ZM46.6901 33.845C46.6901 33.335 46.5901 32.9 46.3901 32.54C46.1901 32.17 45.9201 31.89 45.5801 31.7C45.2401 31.5 44.8751 31.4 44.4851 31.4C44.0951 31.4 43.7351 31.495 43.4051 31.685C43.0751 31.875 42.8051 32.155 42.5951 32.525C42.3951 32.885 42.2951 33.315 42.2951 33.815C42.2951 34.315 42.3951 34.755 42.5951 35.135C42.8051 35.505 43.0751 35.79 43.4051 35.99C43.7451 36.19 44.1051 36.29 44.4851 36.29C44.8751 36.29 45.2401 36.195 45.5801 36.005C45.9201 35.805 46.1901 35.525 46.3901 35.165C46.5901 34.795 46.6901 34.355 46.6901 33.845ZM51.9211 28.7C51.5511 28.7 51.2411 28.585 50.9911 28.355C50.7511 28.115 50.6311 27.82 50.6311 27.47C50.6311 27.12 50.7511 26.83 50.9911 26.6C51.2411 26.36 51.5511 26.24 51.9211 26.24C52.2911 26.24 52.5961 26.36 52.8361 26.6C53.0861 26.83 53.2111 27.12 53.2111 27.47C53.2111 27.82 53.0861 28.115 52.8361 28.355C52.5961 28.585 52.2911 28.7 51.9211 28.7ZM52.9561 29.69V38H50.8561V29.69H52.9561ZM62.8759 29.69V38H60.7609V36.95C60.4909 37.31 60.1359 37.595 59.6959 37.805C59.2659 38.005 58.7959 38.105 58.2859 38.105C57.6359 38.105 57.0609 37.97 56.5609 37.7C56.0609 37.42 55.6659 37.015 55.3759 36.485C55.0959 35.945 54.9559 35.305 54.9559 34.565V29.69H57.0559V34.265C57.0559 34.925 57.2209 35.435 57.5509 35.795C57.8809 36.145 58.3309 36.32 58.9009 36.32C59.4809 36.32 59.9359 36.145 60.2659 35.795C60.5959 35.435 60.7609 34.925 60.7609 34.265V29.69H62.8759ZM75.2679 29.57C76.2879 29.57 77.1079 29.885 77.7279 30.515C78.3579 31.135 78.6729 32.005 78.6729 33.125V38H76.5729V33.41C76.5729 32.76 76.4079 32.265 76.0779 31.925C75.7479 31.575 75.2979 31.4 74.7279 31.4C74.1579 31.4 73.7029 31.575 73.3629 31.925C73.0329 32.265 72.8679 32.76 72.8679 33.41V38H70.7679V33.41C70.7679 32.76 70.6029 32.265 70.2729 31.925C69.9429 31.575 69.4929 31.4 68.9229 31.4C68.3429 31.4 67.8829 31.575 67.5429 31.925C67.2129 32.265 67.0479 32.76 67.0479 33.41V38H64.9479V29.69H67.0479V30.695C67.3179 30.345 67.6629 30.07 68.0829 29.87C68.5129 29.67 68.9829 29.57 69.4929 29.57C70.1429 29.57 70.7229 29.71 71.2329 29.99C71.7429 30.26 72.1379 30.65 72.4179 31.16C72.6879 30.68 73.0779 30.295 73.5879 30.005C74.1079 29.715 74.6679 29.57 75.2679 29.57ZM37.3702 52.225V54.85H40.8952V56.515H37.3702V59.29H41.3452V61H35.2702V50.515H41.3452V52.225H37.3702ZM47.8586 52.57C48.8486 52.57 49.6486 52.885 50.2586 53.515C50.8686 54.135 51.1736 55.005 51.1736 56.125V61H49.0736V56.41C49.0736 55.75 48.9086 55.245 48.5786 54.895C48.2486 54.535 47.7986 54.355 47.2286 54.355C46.6486 54.355 46.1886 54.535 45.8486 54.895C45.5186 55.245 45.3536 55.75 45.3536 56.41V61H43.2536V52.69H45.3536V53.725C45.6336 53.365 45.9886 53.085 46.4186 52.885C46.8586 52.675 47.3386 52.57 47.8586 52.57ZM52.6306 56.815C52.6306 55.975 52.7956 55.23 53.1256 54.58C53.4656 53.93 53.9256 53.43 54.5056 53.08C55.0856 52.73 55.7306 52.555 56.4406 52.555C56.9806 52.555 57.4956 52.675 57.9856 52.915C58.4756 53.145 58.8656 53.455 59.1556 53.845V49.9H61.2856V61H59.1556V59.77C58.8956 60.18 58.5306 60.51 58.0606 60.76C57.5906 61.01 57.0456 61.135 56.4256 61.135C55.7256 61.135 55.0856 60.955 54.5056 60.595C53.9256 60.235 53.4656 59.73 53.1256 59.08C52.7956 58.42 52.6306 57.665 52.6306 56.815ZM59.1706 56.845C59.1706 56.335 59.0706 55.9 58.8706 55.54C58.6706 55.17 58.4006 54.89 58.0606 54.7C57.7206 54.5 57.3556 54.4 56.9656 54.4C56.5756 54.4 56.2156 54.495 55.8856 54.685C55.5556 54.875 55.2856 55.155 55.0756 55.525C54.8756 55.885 54.7756 56.315 54.7756 56.815C54.7756 57.315 54.8756 57.755 55.0756 58.135C55.2856 58.505 55.5556 58.79 55.8856 58.99C56.2256 59.19 56.5856 59.29 56.9656 59.29C57.3556 59.29 57.7206 59.195 58.0606 59.005C58.4006 58.805 58.6706 58.525 58.8706 58.165C59.0706 57.795 59.1706 57.355 59.1706 56.845Z" fill="black"/>
<defs>
<filter id="filter0_d_708_1499" x="0" y="0" width="95.5399" height="95.5399" filterUnits="userSpaceOnUse" color-interpolation-filters="sRGB">
<feFlood flood-opacity="0" result="BackgroundImageFix"/>
<feColorMatrix in="SourceAlpha" type="matrix" values="0 0 0 0 0 0 0 0 0 0 0 0 0 0 0 0 0 0 127 0" result="hardAlpha"/>
<feOffset dy="4"/>
<feGaussianBlur stdDeviation="2"/>
<feComposite in2="hardAlpha" operator="out"/>
<feColorMatrix type="matrix" values="0 0 0 0 0 0 0 0 0 0 0 0 0 0 0 0 0 0 0.5 0"/>
<feBlend mode="normal" in2="BackgroundImageFix" result="effect1_dropShadow_708_1499"/>
<feBlend mode="normal" in="SourceGraphic" in2="effect1_dropShadow_708_1499" result="shape"/>
</filter>
</defs>
</svg>
