<svg width="145" height="145" viewBox="0 0 145 145" fill="none" xmlns="http://www.w3.org/2000/svg">
<g filter="url(#filter0_d_384_435)">
<path d="M4 15C4 6.71573 10.7157 0 19 0H126C134.284 0 141 6.71573 141 15V122C141 130.284 134.284 137 126 137H19C10.7157 137 4 130.284 4 122V15Z" fill="white"/>
</g>
<path d="M52.2838 85.436V98H49.7638V89.828L46.3978 98H44.4898L41.1058 89.828V98H38.5858V85.436H41.4478L45.4438 94.778L49.4398 85.436H52.2838ZM59.2032 98.162C58.2432 98.162 57.3792 97.952 56.6112 97.532C55.8432 97.1 55.2372 96.494 54.7932 95.714C54.3612 94.934 54.1452 94.034 54.1452 93.014C54.1452 91.994 54.3672 91.094 54.8112 90.314C55.2672 89.534 55.8852 88.934 56.6652 88.514C57.4452 88.082 58.3152 87.866 59.2752 87.866C60.2352 87.866 61.1052 88.082 61.8852 88.514C62.6652 88.934 63.2772 89.534 63.7212 90.314C64.1772 91.094 64.4052 91.994 64.4052 93.014C64.4052 94.034 64.1712 94.934 63.7032 95.714C63.2472 96.494 62.6232 97.1 61.8312 97.532C61.0512 97.952 60.1752 98.162 59.2032 98.162ZM59.2032 95.966C59.6592 95.966 60.0852 95.858 60.4812 95.642C60.8892 95.414 61.2132 95.078 61.4532 94.634C61.6932 94.19 61.8132 93.65 61.8132 93.014C61.8132 92.066 61.5612 91.34 61.0572 90.836C60.5652 90.32 59.9592 90.062 59.2392 90.062C58.5192 90.062 57.9132 90.32 57.4212 90.836C56.9412 91.34 56.7012 92.066 56.7012 93.014C56.7012 93.962 56.9352 94.694 57.4032 95.21C57.8832 95.714 58.4832 95.966 59.2032 95.966ZM71.7797 87.884C72.9677 87.884 73.9277 88.262 74.6597 89.018C75.3917 89.762 75.7577 90.806 75.7577 92.15V98H73.2377V92.492C73.2377 91.7 73.0397 91.094 72.6437 90.674C72.2477 90.242 71.7077 90.026 71.0237 90.026C70.3277 90.026 69.7757 90.242 69.3677 90.674C68.9717 91.094 68.7737 91.7 68.7737 92.492V98H66.2537V88.028H68.7737V89.27C69.1097 88.838 69.5357 88.502 70.0517 88.262C70.5797 88.01 71.1557 87.884 71.7797 87.884ZM79.4321 86.84C78.9881 86.84 78.6161 86.702 78.3161 86.426C78.0281 86.138 77.8841 85.784 77.8841 85.364C77.8841 84.944 78.0281 84.596 78.3161 84.32C78.6161 84.032 78.9881 83.888 79.4321 83.888C79.8761 83.888 80.2421 84.032 80.5301 84.32C80.8301 84.596 80.9801 84.944 80.9801 85.364C80.9801 85.784 80.8301 86.138 80.5301 86.426C80.2421 86.702 79.8761 86.84 79.4321 86.84ZM80.6741 88.028V98H78.1541V88.028H80.6741ZM86.0979 90.098V94.922C86.0979 95.258 86.1759 95.504 86.3319 95.66C86.4999 95.804 86.7759 95.876 87.1599 95.876H88.3299V98H86.7459C84.6219 98 83.5599 96.968 83.5599 94.904V90.098H82.3719V88.028H83.5599V85.562H86.0979V88.028H88.3299V90.098H86.0979ZM94.5704 98.162C93.6104 98.162 92.7464 97.952 91.9784 97.532C91.2104 97.1 90.6044 96.494 90.1604 95.714C89.7284 94.934 89.5124 94.034 89.5124 93.014C89.5124 91.994 89.7344 91.094 90.1784 90.314C90.6344 89.534 91.2524 88.934 92.0324 88.514C92.8124 88.082 93.6824 87.866 94.6424 87.866C95.6024 87.866 96.4724 88.082 97.2524 88.514C98.0324 88.934 98.6444 89.534 99.0884 90.314C99.5444 91.094 99.7724 91.994 99.7724 93.014C99.7724 94.034 99.5384 94.934 99.0704 95.714C98.6144 96.494 97.9904 97.1 97.1984 97.532C96.4184 97.952 95.5424 98.162 94.5704 98.162ZM94.5704 95.966C95.0264 95.966 95.4524 95.858 95.8484 95.642C96.2564 95.414 96.5804 95.078 96.8204 94.634C97.0604 94.19 97.1804 93.65 97.1804 93.014C97.1804 92.066 96.9284 91.34 96.4244 90.836C95.9324 90.32 95.3264 90.062 94.6064 90.062C93.8864 90.062 93.2804 90.32 92.7884 90.836C92.3084 91.34 92.0684 92.066 92.0684 93.014C92.0684 93.962 92.3024 94.694 92.7704 95.21C93.2504 95.714 93.8504 95.966 94.5704 95.966ZM104.141 89.576C104.465 89.048 104.885 88.634 105.401 88.334C105.929 88.034 106.529 87.884 107.201 87.884V90.53H106.535C105.743 90.53 105.143 90.716 104.735 91.088C104.339 91.46 104.141 92.108 104.141 93.032V98H101.621V88.028H104.141V89.576Z" fill="black"/>
<path d="M91.1328 33H52.4609C51.8085 33.0007 51.1829 33.2602 50.7216 33.7216C50.2602 34.1829 50.0007 34.8085 50 35.4609V61.4766C50.0007 62.129 50.2602 62.7546 50.7216 63.2159C51.1829 63.6773 51.8085 63.9368 52.4609 63.9375H66.7203L66.2984 66.0469H63.3594C63.1729 66.0469 62.9941 66.121 62.8622 66.2528C62.7303 66.3847 62.6562 66.5635 62.6562 66.75V68.8594C62.6562 69.0459 62.7303 69.2247 62.8622 69.3566C62.9941 69.4884 63.1729 69.5625 63.3594 69.5625H80.2344C80.4209 69.5625 80.5997 69.4884 80.7316 69.3566C80.8634 69.2247 80.9375 69.0459 80.9375 68.8594V66.75C80.9375 66.5635 80.8634 66.3847 80.7316 66.2528C80.5997 66.121 80.4209 66.0469 80.2344 66.0469H77.2953L76.8734 63.9375H91.1328C91.7853 63.9368 92.4108 63.6773 92.8722 63.2159C93.3335 62.7546 93.593 62.129 93.5938 61.4766V35.4609C93.593 34.8085 93.3335 34.1829 92.8722 33.7216C92.4108 33.2602 91.7853 33.0007 91.1328 33ZM79.5312 67.4531V68.1562H64.0625V67.4531H79.5312ZM67.7328 66.0469L68.1547 63.9375H75.4391L75.8609 66.0469H67.7328ZM92.1875 61.4766C92.1873 61.7562 92.0761 62.0243 91.8783 62.2221C91.6806 62.4198 91.4125 62.531 91.1328 62.5312H52.4609C52.1813 62.531 51.9132 62.4198 51.7154 62.2221C51.5177 62.0243 51.4065 61.7562 51.4062 61.4766V59.7188H92.1875V61.4766ZM92.1875 58.3125H51.4062V35.4609C51.4065 35.1813 51.5177 34.9132 51.7154 34.7154C51.9132 34.5177 52.1813 34.4065 52.4609 34.4062H91.1328C91.4125 34.4065 91.6806 34.5177 91.8783 34.7154C92.0761 34.9132 92.1873 35.1813 92.1875 35.4609V58.3125Z" fill="black"/>
<path d="M72.5 60.4219H71.0938C70.9073 60.4219 70.7284 60.496 70.5966 60.6278C70.4647 60.7597 70.3906 60.9385 70.3906 61.125C70.3906 61.3115 70.4647 61.4903 70.5966 61.6222C70.7284 61.754 70.9073 61.8281 71.0938 61.8281H72.5C72.6865 61.8281 72.8653 61.754 72.9972 61.6222C73.129 61.4903 73.2031 61.3115 73.2031 61.125C73.2031 60.9385 73.129 60.7597 72.9972 60.6278C72.8653 60.496 72.6865 60.4219 72.5 60.4219Z" fill="black"/>
<defs>
<filter id="filter0_d_384_435" x="0" y="0" width="145" height="145" filterUnits="userSpaceOnUse" color-interpolation-filters="sRGB">
<feFlood flood-opacity="0" result="BackgroundImageFix"/>
<feColorMatrix in="SourceAlpha" type="matrix" values="0 0 0 0 0 0 0 0 0 0 0 0 0 0 0 0 0 0 127 0" result="hardAlpha"/>
<feOffset dy="4"/>
<feGaussianBlur stdDeviation="2"/>
<feComposite in2="hardAlpha" operator="out"/>
<feColorMatrix type="matrix" values="0 0 0 0 0 0 0 0 0 0 0 0 0 0 0 0 0 0 0.5 0"/>
<feBlend mode="normal" in2="BackgroundImageFix" result="effect1_dropShadow_384_435"/>
<feBlend mode="normal" in="SourceGraphic" in2="effect1_dropShadow_384_435" result="shape"/>
</filter>
</defs>
</svg>
