<svg width="145" height="145" viewBox="0 0 145 145" fill="none" xmlns="http://www.w3.org/2000/svg">
<g filter="url(#filter0_d_384_431)">
<path d="M4 15C4 6.71573 10.7157 0 19 0H126C134.284 0 141 6.71573 141 15V122C141 130.284 134.284 137 126 137H19C10.7157 137 4 130.284 4 122V15Z" fill="white"/>
</g>
<path d="M27.2964 85.436V98H24.7764V89.828L21.4104 98H19.5024L16.1184 89.828V98H13.5984V85.436H16.4604L20.4564 94.778L24.4524 85.436H27.2964ZM34.2159 98.162C33.2559 98.162 32.3919 97.952 31.6239 97.532C30.8559 97.1 30.2499 96.494 29.8059 95.714C29.3739 94.934 29.1579 94.034 29.1579 93.014C29.1579 91.994 29.3799 91.094 29.8239 90.314C30.2799 89.534 30.8979 88.934 31.6779 88.514C32.4579 88.082 33.3279 87.866 34.2879 87.866C35.2479 87.866 36.1179 88.082 36.8979 88.514C37.6779 88.934 38.2899 89.534 38.7339 90.314C39.1899 91.094 39.4179 91.994 39.4179 93.014C39.4179 94.034 39.1839 94.934 38.7159 95.714C38.2599 96.494 37.6359 97.1 36.8439 97.532C36.0639 97.952 35.1879 98.162 34.2159 98.162ZM34.2159 95.966C34.6719 95.966 35.0979 95.858 35.4939 95.642C35.9019 95.414 36.2259 95.078 36.4659 94.634C36.7059 94.19 36.8259 93.65 36.8259 93.014C36.8259 92.066 36.5739 91.34 36.0699 90.836C35.5779 90.32 34.9719 90.062 34.2519 90.062C33.5319 90.062 32.9259 90.32 32.4339 90.836C31.9539 91.34 31.7139 92.066 31.7139 93.014C31.7139 93.962 31.9479 94.694 32.4159 95.21C32.8959 95.714 33.4959 95.966 34.2159 95.966ZM44.2004 90.098V94.922C44.2004 95.258 44.2784 95.504 44.4344 95.66C44.6024 95.804 44.8784 95.876 45.2624 95.876H46.4324V98H44.8484C42.7244 98 41.6624 96.968 41.6624 94.904V90.098H40.4744V88.028H41.6624V85.562H44.2004V88.028H46.4324V90.098H44.2004ZM53.8609 87.884C54.6169 87.884 55.2889 88.052 55.8769 88.388C56.4649 88.712 56.9209 89.198 57.2449 89.846C57.5809 90.482 57.7489 91.25 57.7489 92.15V98H55.2289V92.492C55.2289 91.7 55.0309 91.094 54.6349 90.674C54.2389 90.242 53.6989 90.026 53.0149 90.026C52.3189 90.026 51.7669 90.242 51.3589 90.674C50.9629 91.094 50.7649 91.7 50.7649 92.492V98H48.2449V84.68H50.7649V89.27C51.0889 88.838 51.5209 88.502 52.0609 88.262C52.6009 88.01 53.2009 87.884 53.8609 87.884ZM69.4153 92.798C69.4153 93.158 69.3913 93.482 69.3433 93.77H62.0533C62.1133 94.49 62.3653 95.054 62.8093 95.462C63.2533 95.87 63.7993 96.074 64.4473 96.074C65.3833 96.074 66.0493 95.672 66.4453 94.868H69.1633C68.8753 95.828 68.3233 96.62 67.5073 97.244C66.6913 97.856 65.6893 98.162 64.5013 98.162C63.5413 98.162 62.6773 97.952 61.9093 97.532C61.1533 97.1 60.5593 96.494 60.1273 95.714C59.7073 94.934 59.4973 94.034 59.4973 93.014C59.4973 91.982 59.7073 91.076 60.1273 90.296C60.5473 89.516 61.1353 88.916 61.8913 88.496C62.6473 88.076 63.5173 87.866 64.5013 87.866C65.4493 87.866 66.2953 88.07 67.0393 88.478C67.7953 88.886 68.3773 89.468 68.7853 90.224C69.2053 90.968 69.4153 91.826 69.4153 92.798ZM66.8053 92.078C66.7933 91.43 66.5593 90.914 66.1033 90.53C65.6473 90.134 65.0893 89.936 64.4293 89.936C63.8053 89.936 63.2773 90.128 62.8453 90.512C62.4253 90.884 62.1673 91.406 62.0713 92.078H66.8053ZM73.7747 89.576C74.0987 89.048 74.5187 88.634 75.0347 88.334C75.5627 88.034 76.1627 87.884 76.8347 87.884V90.53H76.1687C75.3767 90.53 74.7767 90.716 74.3687 91.088C73.9727 91.46 73.7747 92.108 73.7747 93.032V98H71.2547V88.028H73.7747V89.576ZM81.052 89.486C81.376 89.006 81.82 88.616 82.384 88.316C82.96 88.016 83.614 87.866 84.346 87.866C85.198 87.866 85.966 88.076 86.65 88.496C87.346 88.916 87.892 89.516 88.288 90.296C88.696 91.064 88.9 91.958 88.9 92.978C88.9 93.998 88.696 94.904 88.288 95.696C87.892 96.476 87.346 97.082 86.65 97.514C85.966 97.946 85.198 98.162 84.346 98.162C83.602 98.162 82.948 98.018 82.384 97.73C81.832 97.43 81.388 97.046 81.052 96.578V98H78.532V84.68H81.052V89.486ZM86.326 92.978C86.326 92.378 86.2 91.862 85.948 91.43C85.708 90.986 85.384 90.65 84.976 90.422C84.58 90.194 84.148 90.08 83.68 90.08C83.224 90.08 82.792 90.2 82.384 90.44C81.988 90.668 81.664 91.004 81.412 91.448C81.172 91.892 81.052 92.414 81.052 93.014C81.052 93.614 81.172 94.136 81.412 94.58C81.664 95.024 81.988 95.366 82.384 95.606C82.792 95.834 83.224 95.948 83.68 95.948C84.148 95.948 84.58 95.828 84.976 95.588C85.384 95.348 85.708 95.006 85.948 94.562C86.2 94.118 86.326 93.59 86.326 92.978ZM95.1593 98.162C94.1993 98.162 93.3353 97.952 92.5673 97.532C91.7993 97.1 91.1933 96.494 90.7493 95.714C90.3173 94.934 90.1013 94.034 90.1013 93.014C90.1013 91.994 90.3233 91.094 90.7673 90.314C91.2233 89.534 91.8413 88.934 92.6213 88.514C93.4013 88.082 94.2713 87.866 95.2313 87.866C96.1913 87.866 97.0613 88.082 97.8413 88.514C98.6213 88.934 99.2333 89.534 99.6773 90.314C100.133 91.094 100.361 91.994 100.361 93.014C100.361 94.034 100.127 94.934 99.6593 95.714C99.2033 96.494 98.5793 97.1 97.7873 97.532C97.0073 97.952 96.1313 98.162 95.1593 98.162ZM95.1593 95.966C95.6153 95.966 96.0413 95.858 96.4373 95.642C96.8453 95.414 97.1693 95.078 97.4093 94.634C97.6493 94.19 97.7693 93.65 97.7693 93.014C97.7693 92.066 97.5173 91.34 97.0133 90.836C96.5213 90.32 95.9153 90.062 95.1953 90.062C94.4753 90.062 93.8693 90.32 93.3773 90.836C92.8973 91.34 92.6573 92.066 92.6573 93.014C92.6573 93.962 92.8913 94.694 93.3593 95.21C93.8393 95.714 94.4393 95.966 95.1593 95.966ZM101.562 92.978C101.562 91.97 101.76 91.076 102.156 90.296C102.564 89.516 103.11 88.916 103.794 88.496C104.49 88.076 105.264 87.866 106.116 87.866C106.86 87.866 107.508 88.016 108.06 88.316C108.624 88.616 109.074 88.994 109.41 89.45V88.028H111.948V98H109.41V96.542C109.086 97.01 108.636 97.4 108.06 97.712C107.496 98.012 106.842 98.162 106.098 98.162C105.258 98.162 104.49 97.946 103.794 97.514C103.11 97.082 102.564 96.476 102.156 95.696C101.76 94.904 101.562 93.998 101.562 92.978ZM109.41 93.014C109.41 92.402 109.29 91.88 109.05 91.448C108.81 91.004 108.486 90.668 108.078 90.44C107.67 90.2 107.232 90.08 106.764 90.08C106.296 90.08 105.864 90.194 105.468 90.422C105.072 90.65 104.748 90.986 104.496 91.43C104.256 91.862 104.136 92.378 104.136 92.978C104.136 93.578 104.256 94.106 104.496 94.562C104.748 95.006 105.072 95.348 105.468 95.588C105.876 95.828 106.308 95.948 106.764 95.948C107.232 95.948 107.67 95.834 108.078 95.606C108.486 95.366 108.81 95.03 109.05 94.598C109.29 94.154 109.41 93.626 109.41 93.014ZM116.929 89.576C117.253 89.048 117.673 88.634 118.189 88.334C118.717 88.034 119.317 87.884 119.989 87.884V90.53H119.323C118.531 90.53 117.931 90.716 117.523 91.088C117.127 91.46 116.929 92.108 116.929 93.032V98H114.409V88.028H116.929V89.576ZM121.038 92.978C121.038 91.97 121.236 91.076 121.632 90.296C122.04 89.516 122.592 88.916 123.288 88.496C123.984 88.076 124.758 87.866 125.61 87.866C126.258 87.866 126.876 88.01 127.464 88.298C128.052 88.574 128.52 88.946 128.868 89.414V84.68H131.424V98H128.868V96.524C128.556 97.016 128.118 97.412 127.554 97.712C126.99 98.012 126.336 98.162 125.592 98.162C124.752 98.162 123.984 97.946 123.288 97.514C122.592 97.082 122.04 96.476 121.632 95.696C121.236 94.904 121.038 93.998 121.038 92.978ZM128.886 93.014C128.886 92.402 128.766 91.88 128.526 91.448C128.286 91.004 127.962 90.668 127.554 90.44C127.146 90.2 126.708 90.08 126.24 90.08C125.772 90.08 125.34 90.194 124.944 90.422C124.548 90.65 124.224 90.986 123.972 91.43C123.732 91.862 123.612 92.378 123.612 92.978C123.612 93.578 123.732 94.106 123.972 94.562C124.224 95.006 124.548 95.348 124.944 95.588C125.352 95.828 125.784 95.948 126.24 95.948C126.708 95.948 127.146 95.834 127.554 95.606C127.962 95.366 128.286 95.03 128.526 94.598C128.766 94.154 128.886 93.626 128.886 93.014Z" fill="black"/>
<path d="M82.3438 35.625C82.7167 35.625 83.0744 35.7732 83.3381 36.0369C83.6018 36.3006 83.75 36.6583 83.75 37.0312V56.7188C83.75 57.0917 83.6018 57.4494 83.3381 57.7131C83.0744 57.9768 82.7167 58.125 82.3438 58.125C81.9708 58.125 81.6131 57.9768 81.3494 57.7131C81.0857 57.4494 80.9375 57.0917 80.9375 56.7188V37.0312C80.9375 36.6583 81.0857 36.3006 81.3494 36.0369C81.6131 35.7732 81.9708 35.625 82.3438 35.625ZM87.9688 35.625C88.3417 35.625 88.6994 35.7732 88.9631 36.0369C89.2268 36.3006 89.375 36.6583 89.375 37.0312V56.7188C89.375 57.0917 89.2268 57.4494 88.9631 57.7131C88.6994 57.9768 88.3417 58.125 87.9688 58.125C87.5958 58.125 87.2381 57.9768 86.9744 57.7131C86.7107 57.4494 86.5625 57.0917 86.5625 56.7188V37.0312C86.5625 36.6583 86.7107 36.3006 86.9744 36.0369C87.2381 35.7732 87.5958 35.625 87.9688 35.625ZM59.8438 58.125C59.4708 58.125 59.1131 58.2732 58.8494 58.5369C58.5857 58.8006 58.4375 59.1583 58.4375 59.5312C58.4375 59.9042 58.5857 60.2619 58.8494 60.5256C59.1131 60.7893 59.4708 60.9375 59.8438 60.9375H76.7188C77.0917 60.9375 77.4494 60.7893 77.7131 60.5256C77.9768 60.2619 78.125 59.9042 78.125 59.5312C78.125 59.1583 77.9768 58.8006 77.7131 58.5369C77.4494 58.2732 77.0917 58.125 76.7188 58.125H59.8438ZM59.8438 63.75C59.4708 63.75 59.1131 63.8982 58.8494 64.1619C58.5857 64.4256 58.4375 64.7833 58.4375 65.1562C58.4375 65.5292 58.5857 65.8869 58.8494 66.1506C59.1131 66.4143 59.4708 66.5625 59.8438 66.5625H76.7188C77.0917 66.5625 77.4494 66.4143 77.7131 66.1506C77.9768 65.8869 78.125 65.5292 78.125 65.1562C78.125 64.7833 77.9768 64.4256 77.7131 64.1619C77.4494 63.8982 77.0917 63.75 76.7188 63.75H59.8438ZM64.0625 38.4375C63.3166 38.4375 62.6012 38.7338 62.0738 39.2613C61.5463 39.7887 61.25 40.5041 61.25 41.25H59.8438C59.4708 41.25 59.1131 41.3982 58.8494 41.6619C58.5857 41.9256 58.4375 42.2833 58.4375 42.6562C58.4375 43.0292 58.5857 43.3869 58.8494 43.6506C59.1131 43.9143 59.4708 44.0625 59.8438 44.0625H61.25V46.875H59.8438C59.4708 46.875 59.1131 47.0232 58.8494 47.2869C58.5857 47.5506 58.4375 47.9083 58.4375 48.2812C58.4375 48.6542 58.5857 49.0119 58.8494 49.2756C59.1131 49.5393 59.4708 49.6875 59.8438 49.6875H61.25C61.25 50.4334 61.5463 51.1488 62.0738 51.6762C62.6012 52.2037 63.3166 52.5 64.0625 52.5V53.9062C64.0625 54.2792 64.2107 54.6369 64.4744 54.9006C64.7381 55.1643 65.0958 55.3125 65.4688 55.3125C65.8417 55.3125 66.1994 55.1643 66.4631 54.9006C66.7268 54.6369 66.875 54.2792 66.875 53.9062V52.5H69.6875V53.9062C69.6875 54.2792 69.8357 54.6369 70.0994 54.9006C70.3631 55.1643 70.7208 55.3125 71.0938 55.3125C71.4667 55.3125 71.8244 55.1643 72.0881 54.9006C72.3518 54.6369 72.5 54.2792 72.5 53.9062V52.5C73.2459 52.5 73.9613 52.2037 74.4887 51.6762C75.0162 51.1488 75.3125 50.4334 75.3125 49.6875H76.7188C77.0917 49.6875 77.4494 49.5393 77.7131 49.2756C77.9768 49.0119 78.125 48.6542 78.125 48.2812C78.125 47.9083 77.9768 47.5506 77.7131 47.2869C77.4494 47.0232 77.0917 46.875 76.7188 46.875H75.3125V44.0625H76.7188C77.0917 44.0625 77.4494 43.9143 77.7131 43.6506C77.9768 43.3869 78.125 43.0292 78.125 42.6562C78.125 42.2833 77.9768 41.9256 77.7131 41.6619C77.4494 41.3982 77.0917 41.25 76.7188 41.25H75.3125C75.3125 40.5041 75.0162 39.7887 74.4887 39.2613C73.9613 38.7338 73.2459 38.4375 72.5 38.4375V37.0312C72.5 36.6583 72.3518 36.3006 72.0881 36.0369C71.8244 35.7732 71.4667 35.625 71.0938 35.625C70.7208 35.625 70.3631 35.7732 70.0994 36.0369C69.8357 36.3006 69.6875 36.6583 69.6875 37.0312V38.4375H66.875V37.0312C66.875 36.6583 66.7268 36.3006 66.4631 36.0369C66.1994 35.7732 65.8417 35.625 65.4688 35.625C65.0958 35.625 64.7381 35.7732 64.4744 36.0369C64.2107 36.3006 64.0625 36.6583 64.0625 37.0312V38.4375ZM64.0625 41.25H72.5V49.6875H64.0625V41.25ZM82.3438 60.9375C81.9708 60.9375 81.6131 61.0857 81.3494 61.3494C81.0857 61.6131 80.9375 61.9708 80.9375 62.3438V65.1562C80.9375 65.5292 81.0857 65.8869 81.3494 66.1506C81.6131 66.4143 81.9708 66.5625 82.3438 66.5625H87.9688C88.3417 66.5625 88.6994 66.4143 88.9631 66.1506C89.2268 65.8869 89.375 65.5292 89.375 65.1562V62.3438C89.375 61.9708 89.2268 61.6131 88.9631 61.3494C88.6994 61.0857 88.3417 60.9375 87.9688 60.9375H82.3438Z" fill="black"/>
<path d="M52.8125 35.625C52.8125 34.1332 53.4051 32.7024 54.46 31.6475C55.5149 30.5926 56.9457 30 58.4375 30H89.375C90.8668 30 92.2976 30.5926 93.3525 31.6475C94.4074 32.7024 95 34.1332 95 35.625V66.5625C95 68.0543 94.4074 69.4851 93.3525 70.54C92.2976 71.5949 90.8668 72.1875 89.375 72.1875H58.4375C56.9457 72.1875 55.5149 71.5949 54.46 70.54C53.4051 69.4851 52.8125 68.0543 52.8125 66.5625V60.9375H51.4062C51.0333 60.9375 50.6756 60.7893 50.4119 60.5256C50.1482 60.2619 50 59.9042 50 59.5312V56.7188C50 56.3458 50.1482 55.9881 50.4119 55.7244C50.6756 55.4607 51.0333 55.3125 51.4062 55.3125H52.8125V52.5H51.4062C51.0333 52.5 50.6756 52.3518 50.4119 52.0881C50.1482 51.8244 50 51.4667 50 51.0938V48.2812C50 47.9083 50.1482 47.5506 50.4119 47.2869C50.6756 47.0232 51.0333 46.875 51.4062 46.875H52.8125V44.0625H51.4062C51.0333 44.0625 50.6756 43.9143 50.4119 43.6506C50.1482 43.3869 50 43.0292 50 42.6562V37.0312C50 36.6583 50.1482 36.3006 50.4119 36.0369C50.6756 35.7732 51.0333 35.625 51.4062 35.625H52.8125ZM55.625 66.5625C55.625 67.3084 55.9213 68.0238 56.4488 68.5512C56.9762 69.0787 57.6916 69.375 58.4375 69.375H89.375C90.1209 69.375 90.8363 69.0787 91.3637 68.5512C91.8912 68.0238 92.1875 67.3084 92.1875 66.5625V35.625C92.1875 34.8791 91.8912 34.1637 91.3637 33.6363C90.8363 33.1088 90.1209 32.8125 89.375 32.8125H58.4375C57.6916 32.8125 56.9762 33.1088 56.4488 33.6363C55.9213 34.1637 55.625 34.8791 55.625 35.625V66.5625Z" fill="black"/>
<defs>
<filter id="filter0_d_384_431" x="0" y="0" width="145" height="145" filterUnits="userSpaceOnUse" color-interpolation-filters="sRGB">
<feFlood flood-opacity="0" result="BackgroundImageFix"/>
<feColorMatrix in="SourceAlpha" type="matrix" values="0 0 0 0 0 0 0 0 0 0 0 0 0 0 0 0 0 0 127 0" result="hardAlpha"/>
<feOffset dy="4"/>
<feGaussianBlur stdDeviation="2"/>
<feComposite in2="hardAlpha" operator="out"/>
<feColorMatrix type="matrix" values="0 0 0 0 0 0 0 0 0 0 0 0 0 0 0 0 0 0 0.5 0"/>
<feBlend mode="normal" in2="BackgroundImageFix" result="effect1_dropShadow_384_431"/>
<feBlend mode="normal" in="SourceGraphic" in2="effect1_dropShadow_384_431" result="shape"/>
</filter>
</defs>
</svg>
