<svg width="97" height="96" viewBox="0 0 97 96" fill="none" xmlns="http://www.w3.org/2000/svg">
<g clip-path="url(#clip0_114_597)">
<g filter="url(#filter0_d_114_597)">
<path d="M4.70935 15C4.70935 6.71571 11.4251 0 19.7094 0H77.2493C85.5336 0 92.2493 6.71573 92.2493 15V72.5399C92.2493 80.8242 85.5336 87.5399 77.2493 87.5399H19.7094C11.4251 87.5399 4.70935 80.8242 4.70935 72.5399V15Z" fill="white"/>
</g>
<path d="M39.1273 53.5233V61.2013H37.5873V56.2073L35.5303 61.2013H34.3643L32.2963 56.2073V61.2013H30.7563V53.5233H32.5053L34.9473 59.2323L37.3893 53.5233H39.1273ZM43.3559 61.3003C42.7692 61.3003 42.2412 61.172 41.7719 60.9153C41.3025 60.6513 40.9322 60.281 40.6609 59.8043C40.3969 59.3276 40.2649 58.7776 40.2649 58.1543C40.2649 57.531 40.4005 56.981 40.6719 56.5043C40.9505 56.0276 41.3282 55.661 41.8049 55.4043C42.2815 55.1403 42.8132 55.0083 43.3999 55.0083C43.9865 55.0083 44.5182 55.1403 44.9949 55.4043C45.4715 55.661 45.8455 56.0276 46.1169 56.5043C46.3955 56.981 46.5349 57.531 46.5349 58.1543C46.5349 58.7776 46.3919 59.3276 46.1059 59.8043C45.8272 60.281 45.4459 60.6513 44.9619 60.9153C44.4852 61.172 43.9499 61.3003 43.3559 61.3003ZM43.3559 59.9583C43.6345 59.9583 43.8949 59.8923 44.1369 59.7603C44.3862 59.621 44.5842 59.4156 44.7309 59.1443C44.8775 58.873 44.9509 58.543 44.9509 58.1543C44.9509 57.575 44.7969 57.1313 44.4889 56.8233C44.1882 56.508 43.8179 56.3503 43.3779 56.3503C42.9379 56.3503 42.5675 56.508 42.2669 56.8233C41.9735 57.1313 41.8269 57.575 41.8269 58.1543C41.8269 58.7336 41.9699 59.181 42.2559 59.4963C42.5492 59.8043 42.9159 59.9583 43.3559 59.9583ZM53.4175 55.1073V61.2013H51.8665V60.4313C51.6685 60.6953 51.4082 60.9043 51.0855 61.0583C50.7702 61.205 50.4255 61.2783 50.0515 61.2783C49.5748 61.2783 49.1532 61.1793 48.7865 60.9813C48.4198 60.776 48.1302 60.479 47.9175 60.0903C47.7122 59.6943 47.6095 59.225 47.6095 58.6823V55.1073H49.1495V58.4623C49.1495 58.9463 49.2705 59.3203 49.5125 59.5843C49.7545 59.841 50.0845 59.9693 50.5025 59.9693C50.9278 59.9693 51.2615 59.841 51.5035 59.5843C51.7455 59.3203 51.8665 58.9463 51.8665 58.4623V55.1073H53.4175ZM57.269 61.3003C56.7703 61.3003 56.323 61.2123 55.927 61.0363C55.531 60.853 55.2156 60.6073 54.981 60.2993C54.7536 59.9913 54.629 59.6503 54.607 59.2763H56.158C56.1873 59.511 56.301 59.7053 56.499 59.8593C56.7043 60.0133 56.9573 60.0903 57.258 60.0903C57.5513 60.0903 57.7786 60.0316 57.94 59.9143C58.1086 59.797 58.193 59.6466 58.193 59.4633C58.193 59.2653 58.0903 59.1186 57.885 59.0233C57.687 58.9206 57.368 58.8106 56.928 58.6933C56.4733 58.5833 56.0993 58.4696 55.806 58.3523C55.52 58.235 55.2706 58.0553 55.058 57.8133C54.8526 57.5713 54.75 57.245 54.75 56.8343C54.75 56.497 54.8453 56.189 55.036 55.9103C55.234 55.6316 55.5126 55.4116 55.872 55.2503C56.2386 55.089 56.6676 55.0083 57.159 55.0083C57.885 55.0083 58.4643 55.1916 58.897 55.5583C59.3296 55.9176 59.568 56.4053 59.612 57.0213H58.138C58.116 56.7793 58.0133 56.5886 57.83 56.4493C57.654 56.3026 57.4156 56.2293 57.115 56.2293C56.8363 56.2293 56.62 56.2806 56.466 56.3833C56.3193 56.486 56.246 56.629 56.246 56.8123C56.246 57.0176 56.3486 57.1753 56.554 57.2853C56.7593 57.388 57.0783 57.4943 57.511 57.6043C57.951 57.7143 58.314 57.828 58.6 57.9453C58.886 58.0626 59.1316 58.246 59.337 58.4953C59.5496 58.7373 59.6596 59.06 59.667 59.4633C59.667 59.8153 59.568 60.1306 59.37 60.4093C59.1793 60.688 58.9006 60.908 58.534 61.0693C58.1746 61.2233 57.753 61.3003 57.269 61.3003ZM66.5961 58.0223C66.5961 58.2423 66.5814 58.4403 66.5521 58.6163H62.0971C62.1338 59.0563 62.2878 59.401 62.5591 59.6503C62.8304 59.8996 63.1642 60.0243 63.5602 60.0243C64.1322 60.0243 64.5391 59.7786 64.7811 59.2873H66.4421C66.2661 59.874 65.9288 60.358 65.4301 60.7393C64.9314 61.1133 64.3191 61.3003 63.5931 61.3003C63.0064 61.3003 62.4784 61.172 62.0091 60.9153C61.5471 60.6513 61.1841 60.281 60.9201 59.8043C60.6634 59.3276 60.5351 58.7776 60.5351 58.1543C60.5351 57.5236 60.6634 56.97 60.9201 56.4933C61.1768 56.0166 61.5361 55.65 61.9981 55.3933C62.4601 55.1366 62.9918 55.0083 63.5931 55.0083C64.1724 55.0083 64.6894 55.133 65.1441 55.3823C65.6061 55.6316 65.9618 55.9873 66.2111 56.4493C66.4678 56.904 66.5961 57.4283 66.5961 58.0223ZM65.0011 57.5823C64.9938 57.1863 64.8508 56.871 64.5721 56.6363C64.2934 56.3943 63.9524 56.2733 63.5491 56.2733C63.1678 56.2733 62.8451 56.3906 62.5811 56.6253C62.3244 56.8526 62.1668 57.1716 62.1081 57.5823H65.0011Z" fill="black"/>
<path d="M37.7038 38.2613L35.3802 35.9377V24.3199L37.7038 21.9963M58.6158 38.2613L60.9394 35.9377V21.9963L58.6158 19.6728M35.3802 30.1288H37.7038M52.807 12.5472L51.6452 10.2236H44.6744L43.5126 12.5472M49.9025 12.5472V29.9739L48.1597 31.1356L46.4171 29.9739V12.5472" stroke="black" stroke-miterlimit="22.9256"/>
<path d="M49.9024 24.165C49.9024 25.1235 49.1182 25.9077 48.1597 25.9077C47.2013 25.9077 46.4171 25.1235 46.4171 24.165M46.4171 19.5178C46.4171 18.5594 47.2013 17.7752 48.1598 17.7752C49.1183 17.7752 49.9025 18.5594 49.9025 19.5178M48.1597 31.1356V40.5849M56.2923 17.8712V16.7094M56.2923 20.1948V19.033" stroke="black" stroke-miterlimit="22.9256"/>
<path d="M55.956 45.2091C57.6081 43.3586 58.6158 40.922 58.6158 38.2613V16.312C58.6158 15.6737 58.0255 15.1564 57.454 14.8707L52.807 12.5471H43.5126L38.8655 14.8707C38.294 15.1564 37.7037 15.6737 37.7037 16.312V18.0383M37.7037 19.2001V38.2613C37.7037 44.012 42.4089 48.7173 48.1598 48.7173C50.8205 48.7173 53.257 47.7096 55.1076 46.0576" stroke="black" stroke-miterlimit="22.9256"/>
<path d="M37.7037 30.1288C37.7037 35.8794 42.4092 40.5848 48.1598 40.5848C53.9103 40.5848 58.6158 35.8794 58.6158 30.1288" stroke="black" stroke-miterlimit="22.9256"/>
</g>
<defs>
<filter id="filter0_d_114_597" x="0.709351" y="0" width="95.5399" height="95.5399" filterUnits="userSpaceOnUse" color-interpolation-filters="sRGB">
<feFlood flood-opacity="0" result="BackgroundImageFix"/>
<feColorMatrix in="SourceAlpha" type="matrix" values="0 0 0 0 0 0 0 0 0 0 0 0 0 0 0 0 0 0 127 0" result="hardAlpha"/>
<feOffset dy="4"/>
<feGaussianBlur stdDeviation="2"/>
<feComposite in2="hardAlpha" operator="out"/>
<feColorMatrix type="matrix" values="0 0 0 0 0 0 0 0 0 0 0 0 0 0 0 0 0 0 0.5 0"/>
<feBlend mode="normal" in2="BackgroundImageFix" result="effect1_dropShadow_114_597"/>
<feBlend mode="normal" in="SourceGraphic" in2="effect1_dropShadow_114_597" result="shape"/>
</filter>
<clipPath id="clip0_114_597">
<rect width="97" height="96" fill="white"/>
</clipPath>
</defs>
</svg>
