<svg width="96" height="96" viewBox="0 0 96 96" fill="none" xmlns="http://www.w3.org/2000/svg">
<g clip-path="url(#clip0_114_586)">
<g filter="url(#filter0_d_114_586)">
<path d="M4 15C4 6.71571 10.7157 0 19 0H76.5399C84.8242 0 91.5399 6.71573 91.5399 15V72.5399C91.5399 80.8242 84.8242 87.5399 76.5399 87.5399H19C10.7157 87.5399 4 80.8242 4 72.5399V15Z" fill="white"/>
</g>
<path d="M30.434 53.5233V61.2013H28.894V56.2073L26.837 61.2013H25.671L23.603 56.2073V61.2013H22.063V53.5233H23.812L26.254 59.2323L28.696 53.5233H30.434ZM34.6626 61.3003C34.0759 61.3003 33.5479 61.172 33.0786 60.9153C32.6092 60.6513 32.2389 60.281 31.9676 59.8043C31.7036 59.3276 31.5716 58.7776 31.5716 58.1543C31.5716 57.531 31.7072 56.981 31.9786 56.5043C32.2572 56.0276 32.6349 55.661 33.1116 55.4043C33.5882 55.1403 34.1199 55.0083 34.7066 55.0083C35.2932 55.0083 35.8249 55.1403 36.3016 55.4043C36.7782 55.661 37.1522 56.0276 37.4236 56.5043C37.7022 56.981 37.8416 57.531 37.8416 58.1543C37.8416 58.7776 37.6986 59.3276 37.4126 59.8043C37.1339 60.281 36.7526 60.6513 36.2686 60.9153C35.7919 61.172 35.2566 61.3003 34.6626 61.3003ZM34.6626 59.9583C34.9412 59.9583 35.2016 59.8923 35.4436 59.7603C35.6929 59.621 35.8909 59.4156 36.0376 59.1443C36.1842 58.873 36.2576 58.543 36.2576 58.1543C36.2576 57.575 36.1036 57.1313 35.7956 56.8233C35.4949 56.508 35.1246 56.3503 34.6846 56.3503C34.2446 56.3503 33.8742 56.508 33.5736 56.8233C33.2802 57.1313 33.1336 57.575 33.1336 58.1543C33.1336 58.7336 33.2766 59.181 33.5626 59.4963C33.8559 59.8043 34.2226 59.9583 34.6626 59.9583ZM44.7242 55.1073V61.2013H43.1732V60.4313C42.9752 60.6953 42.7149 60.9043 42.3922 61.0583C42.0769 61.205 41.7322 61.2783 41.3582 61.2783C40.8816 61.2783 40.4599 61.1793 40.0932 60.9813C39.7266 60.776 39.4369 60.479 39.2242 60.0903C39.0189 59.6943 38.9162 59.225 38.9162 58.6823V55.1073H40.4562V58.4623C40.4562 58.9463 40.5772 59.3203 40.8192 59.5843C41.0612 59.841 41.3912 59.9693 41.8092 59.9693C42.2346 59.9693 42.5682 59.841 42.8102 59.5843C43.0522 59.3203 43.1732 58.9463 43.1732 58.4623V55.1073H44.7242ZM48.5757 61.3003C48.077 61.3003 47.6297 61.2123 47.2337 61.0363C46.8377 60.853 46.5223 60.6073 46.2877 60.2993C46.0603 59.9913 45.9357 59.6503 45.9137 59.2763H47.4647C47.494 59.511 47.6077 59.7053 47.8057 59.8593C48.011 60.0133 48.264 60.0903 48.5647 60.0903C48.858 60.0903 49.0853 60.0316 49.2467 59.9143C49.4153 59.797 49.4997 59.6466 49.4997 59.4633C49.4997 59.2653 49.397 59.1186 49.1917 59.0233C48.9937 58.9206 48.6747 58.8106 48.2347 58.6933C47.78 58.5833 47.406 58.4696 47.1127 58.3523C46.8267 58.235 46.5773 58.0553 46.3647 57.8133C46.1593 57.5713 46.0567 57.245 46.0567 56.8343C46.0567 56.497 46.152 56.189 46.3427 55.9103C46.5407 55.6316 46.8193 55.4116 47.1787 55.2503C47.5453 55.089 47.9743 55.0083 48.4657 55.0083C49.1917 55.0083 49.771 55.1916 50.2037 55.5583C50.6363 55.9176 50.8747 56.4053 50.9187 57.0213H49.4447C49.4227 56.7793 49.32 56.5886 49.1367 56.4493C48.9607 56.3026 48.7223 56.2293 48.4217 56.2293C48.143 56.2293 47.9267 56.2806 47.7727 56.3833C47.626 56.486 47.5527 56.629 47.5527 56.8123C47.5527 57.0176 47.6553 57.1753 47.8607 57.2853C48.066 57.388 48.385 57.4943 48.8177 57.6043C49.2577 57.7143 49.6207 57.828 49.9067 57.9453C50.1927 58.0626 50.4383 58.246 50.6437 58.4953C50.8563 58.7373 50.9663 59.06 50.9737 59.4633C50.9737 59.8153 50.8747 60.1306 50.6767 60.4093C50.486 60.688 50.2073 60.908 49.8407 61.0693C49.4813 61.2233 49.0597 61.3003 48.5757 61.3003ZM57.9028 58.0223C57.9028 58.2423 57.8882 58.4403 57.8588 58.6163H53.4038C53.4405 59.0563 53.5945 59.401 53.8658 59.6503C54.1372 59.8996 54.4708 60.0243 54.8668 60.0243C55.4388 60.0243 55.8458 59.7786 56.0878 59.2873H57.7488C57.5728 59.874 57.2355 60.358 56.7368 60.7393C56.2382 61.1133 55.6258 61.3003 54.8998 61.3003C54.3132 61.3003 53.7852 61.172 53.3158 60.9153C52.8538 60.6513 52.4908 60.281 52.2268 59.8043C51.9702 59.3276 51.8418 58.7776 51.8418 58.1543C51.8418 57.5236 51.9702 56.97 52.2268 56.4933C52.4835 56.0166 52.8428 55.65 53.3048 55.3933C53.7668 55.1366 54.2985 55.0083 54.8998 55.0083C55.4792 55.0083 55.9962 55.133 56.4508 55.3823C56.9128 55.6316 57.2685 55.9873 57.5178 56.4493C57.7745 56.904 57.9028 57.4283 57.9028 58.0223ZM56.3078 57.5823C56.3005 57.1863 56.1575 56.871 55.8788 56.6363C55.6002 56.3943 55.2592 56.2733 54.8558 56.2733C54.4745 56.2733 54.1518 56.3906 53.8878 56.6253C53.6312 56.8526 53.4735 57.1716 53.4148 57.5823H56.3078ZM67.247 55.8993C67.247 56.31 67.148 56.695 66.95 57.0543C66.7593 57.4136 66.455 57.7033 66.037 57.9233C65.6263 58.1433 65.1056 58.2533 64.475 58.2533H63.188V61.2013H61.648V53.5233H64.475C65.069 53.5233 65.575 53.626 65.993 53.8313C66.411 54.0366 66.7226 54.319 66.928 54.6783C67.1406 55.0376 67.247 55.4446 67.247 55.8993ZM64.409 57.0103C64.8343 57.0103 65.1496 56.915 65.355 56.7243C65.5603 56.5263 65.663 56.2513 65.663 55.8993C65.663 55.1513 65.245 54.7773 64.409 54.7773H63.188V57.0103H64.409ZM67.9444 58.1323C67.9444 57.5163 68.0654 56.97 68.3074 56.4933C68.5567 56.0166 68.8904 55.65 69.3084 55.3933C69.7337 55.1366 70.2067 55.0083 70.7274 55.0083C71.182 55.0083 71.578 55.1 71.9154 55.2833C72.26 55.4666 72.535 55.6976 72.7404 55.9763V55.1073H74.2914V61.2013H72.7404V60.3103C72.5424 60.5963 72.2674 60.8346 71.9154 61.0253C71.5707 61.2086 71.171 61.3003 70.7164 61.3003C70.203 61.3003 69.7337 61.1683 69.3084 60.9043C68.8904 60.6403 68.5567 60.27 68.3074 59.7933C68.0654 59.3093 67.9444 58.7556 67.9444 58.1323ZM72.7404 58.1543C72.7404 57.7803 72.667 57.4613 72.5204 57.1973C72.3737 56.926 72.1757 56.7206 71.9264 56.5813C71.677 56.4346 71.4094 56.3613 71.1234 56.3613C70.8374 56.3613 70.5734 56.431 70.3314 56.5703C70.0894 56.7096 69.8914 56.915 69.7374 57.1863C69.5907 57.4503 69.5174 57.7656 69.5174 58.1323C69.5174 58.499 69.5907 58.8216 69.7374 59.1003C69.8914 59.3716 70.0894 59.5806 70.3314 59.7273C70.5807 59.874 70.8447 59.9473 71.1234 59.9473C71.4094 59.9473 71.677 59.8776 71.9264 59.7383C72.1757 59.5916 72.3737 59.3863 72.5204 59.1223C72.667 58.851 72.7404 58.5283 72.7404 58.1543ZM75.3994 58.1323C75.3994 57.5163 75.5204 56.97 75.7624 56.4933C76.0118 56.0166 76.3491 55.65 76.7744 55.3933C77.1998 55.1366 77.6728 55.0083 78.1934 55.0083C78.5894 55.0083 78.9671 55.0963 79.3264 55.2723C79.6858 55.441 79.9718 55.6683 80.1844 55.9543V53.0613H81.7464V61.2013H80.1844V60.2993C79.9938 60.6 79.7261 60.842 79.3814 61.0253C79.0368 61.2086 78.6371 61.3003 78.1824 61.3003C77.6691 61.3003 77.1998 61.1683 76.7744 60.9043C76.3491 60.6403 76.0118 60.27 75.7624 59.7933C75.5204 59.3093 75.3994 58.7556 75.3994 58.1323ZM80.1954 58.1543C80.1954 57.7803 80.1221 57.4613 79.9754 57.1973C79.8288 56.926 79.6308 56.7206 79.3814 56.5813C79.1321 56.4346 78.8644 56.3613 78.5784 56.3613C78.2924 56.3613 78.0284 56.431 77.7864 56.5703C77.5444 56.7096 77.3464 56.915 77.1924 57.1863C77.0458 57.4503 76.9724 57.7656 76.9724 58.1323C76.9724 58.499 77.0458 58.8216 77.1924 59.1003C77.3464 59.3716 77.5444 59.5806 77.7864 59.7273C78.0358 59.874 78.2998 59.9473 78.5784 59.9473C78.8644 59.9473 79.1321 59.8776 79.3814 59.7383C79.6308 59.5916 79.8288 59.3863 79.9754 59.1223C80.1221 58.851 80.1954 58.5283 80.1954 58.1543Z" fill="black"/>
<path d="M63.2397 27.1568H57.9674C57.8403 27.1568 57.7184 27.2073 57.6285 27.2971C57.5387 27.387 57.4882 27.5089 57.4882 27.636C57.4882 27.7631 57.5387 27.885 57.6285 27.9748C57.7184 28.0647 57.8403 28.1152 57.9674 28.1152H63.2397C64.0332 28.1164 64.6761 28.7593 64.6773 29.5529V43.9294C64.6761 44.7229 64.0332 45.3659 63.2397 45.3671H39.2779C38.4844 45.3659 37.8415 44.7229 37.8402 43.9294V36.7409H44.0701C44.1972 36.7409 44.3191 36.6904 44.4089 36.6005C44.4988 36.5106 44.5493 36.3887 44.5493 36.2616C44.5493 36.1345 44.4988 36.0126 44.4089 35.9228C44.3191 35.8329 44.1972 35.7824 44.0701 35.7824H37.8402V34.8243H45.0285C45.0915 34.8243 45.1538 34.812 45.2119 34.788C45.2701 34.764 45.323 34.7287 45.3675 34.6843C45.4121 34.6398 45.4474 34.587 45.4716 34.5289C45.4957 34.4708 45.5082 34.4085 45.5082 34.3455C45.5083 34.2826 45.496 34.2203 45.4719 34.1621C45.4479 34.1039 45.4127 34.0511 45.3682 34.0065C45.3237 33.962 45.2709 33.9266 45.2128 33.9025C45.1547 33.8783 45.0924 33.8659 45.0295 33.8658H37.8402V32.9074H43.1117C43.2388 32.9074 43.3607 32.8569 43.4505 32.767C43.5404 32.6771 43.5909 32.5552 43.5909 32.4281C43.5909 32.301 43.5404 32.1791 43.4505 32.0893C43.3607 31.9994 43.2388 31.9489 43.1117 31.9489H37.8402V29.5528C37.8415 28.7593 38.4844 28.1164 39.2779 28.1151H54.1338C54.3985 28.1151 54.613 27.9006 54.613 27.6359C54.613 27.3713 54.3985 27.1567 54.1338 27.1567H39.2779C37.9552 27.1584 36.8833 28.2302 36.8818 29.5529V43.9295C36.8833 45.2521 37.9552 46.324 39.2779 46.3256H63.2397C64.5624 46.324 65.6342 45.2522 65.6358 43.9295V29.5529C65.6342 28.2302 64.5624 27.1584 63.2397 27.1568Z" fill="black"/>
<path d="M52.2168 23.323H55.0918C55.2188 23.3232 55.3406 23.3737 55.4304 23.4636C55.5203 23.5534 55.5708 23.6752 55.571 23.8022V30.0327H54.3634C52.6495 30.0348 51.2606 31.4235 51.2583 33.1374V38.0973C51.2599 40.5237 53.2264 42.4902 55.6528 42.4918H56.449C58.8754 42.4902 60.8419 40.5237 60.8434 38.0973V36.2619C60.8434 35.9973 60.6289 35.7827 60.3642 35.7827C60.0996 35.7827 59.885 35.9973 59.885 36.2619V38.0973C59.8816 39.9935 58.3452 41.5299 56.449 41.5333H55.6529C53.7566 41.5299 52.2202 39.9935 52.2169 38.0973V34.8243H60.3636C60.4907 34.8242 60.6125 34.7737 60.7024 34.6839C60.7923 34.594 60.8428 34.4721 60.8428 34.3451V33.1374C60.8406 31.4234 59.4515 30.0346 57.7375 30.0328H56.5298V23.8023C56.5286 23.0087 55.8857 22.3658 55.0922 22.3646H52.2169C52.0898 22.3644 51.968 22.3138 51.8781 22.2238C51.7883 22.1339 51.7379 22.012 51.7378 21.8849V19.01C51.738 18.8829 51.6876 18.761 51.5978 18.671C51.508 18.5811 51.3862 18.5305 51.2591 18.5303C51.132 18.5302 51.01 18.5806 50.9201 18.6704C50.8301 18.7601 50.7795 18.882 50.7794 19.0091V21.8848C50.7802 22.6785 51.4232 23.3217 52.2168 23.323ZM55.5708 33.8659H52.2168V33.1375C52.2181 31.9524 53.1784 30.9921 54.3634 30.9906H55.571L55.5708 33.8659ZM56.5293 30.9906H57.7369C58.9221 30.9918 59.8825 31.9523 59.8838 33.1375V33.8659H56.5298L56.5293 30.9906ZM45.9869 35.7827C45.8598 35.7827 45.7379 35.8332 45.6481 35.9231C45.5582 36.013 45.5077 36.1349 45.5077 36.262C45.5077 36.3891 45.5582 36.5109 45.6481 36.6008C45.7379 36.6907 45.8598 36.7412 45.9869 36.7412H46.9454C47.0725 36.7412 47.1944 36.6907 47.2842 36.6008C47.3741 36.5109 47.4246 36.3891 47.4246 36.262C47.4246 36.1349 47.3741 36.013 47.2842 35.9231C47.1944 35.8332 47.0725 35.7827 46.9454 35.7827H45.9869Z" fill="black"/>
</g>
<defs>
<filter id="filter0_d_114_586" x="0" y="0" width="95.5399" height="95.5399" filterUnits="userSpaceOnUse" color-interpolation-filters="sRGB">
<feFlood flood-opacity="0" result="BackgroundImageFix"/>
<feColorMatrix in="SourceAlpha" type="matrix" values="0 0 0 0 0 0 0 0 0 0 0 0 0 0 0 0 0 0 127 0" result="hardAlpha"/>
<feOffset dy="4"/>
<feGaussianBlur stdDeviation="2"/>
<feComposite in2="hardAlpha" operator="out"/>
<feColorMatrix type="matrix" values="0 0 0 0 0 0 0 0 0 0 0 0 0 0 0 0 0 0 0.5 0"/>
<feBlend mode="normal" in2="BackgroundImageFix" result="effect1_dropShadow_114_586"/>
<feBlend mode="normal" in="SourceGraphic" in2="effect1_dropShadow_114_586" result="shape"/>
</filter>
<clipPath id="clip0_114_586">
<rect width="96" height="96" fill="white"/>
</clipPath>
</defs>
</svg>
