<svg width="96" height="96" viewBox="0 0 96 96" fill="none" xmlns="http://www.w3.org/2000/svg">
<g clip-path="url(#clip0_115_654)">
<g filter="url(#filter0_d_115_654)">
<path d="M4 15C4 6.71572 10.7157 0 19 0H76.54C84.8243 0 91.54 6.71573 91.54 15V72.54C91.54 80.8243 84.8243 87.54 76.54 87.54H19C10.7157 87.54 4 80.8243 4 72.54V15Z" fill="white"/>
</g>
<path d="M23.4046 61.077C22.686 61.077 22.026 60.9083 21.4246 60.571C20.8233 60.2337 20.3466 59.768 19.9946 59.174C19.6426 58.5727 19.4666 57.8943 19.4666 57.139C19.4666 56.391 19.6426 55.72 19.9946 55.126C20.3466 54.5247 20.8233 54.0553 21.4246 53.718C22.026 53.3807 22.686 53.212 23.4046 53.212C24.1306 53.212 24.7906 53.3807 25.3846 53.718C25.986 54.0553 26.459 54.5247 26.8036 55.126C27.1556 55.72 27.3316 56.391 27.3316 57.139C27.3316 57.8943 27.1556 58.5727 26.8036 59.174C26.459 59.768 25.986 60.2337 25.3846 60.571C24.7833 60.9083 24.1233 61.077 23.4046 61.077ZM23.4046 59.702C23.8666 59.702 24.2736 59.5993 24.6256 59.394C24.9776 59.1813 25.2526 58.8807 25.4506 58.492C25.6486 58.1033 25.7476 57.6523 25.7476 57.139C25.7476 56.6257 25.6486 56.1783 25.4506 55.797C25.2526 55.4083 24.9776 55.1113 24.6256 54.906C24.2736 54.7007 23.8666 54.598 23.4046 54.598C22.9426 54.598 22.532 54.7007 22.1726 54.906C21.8206 55.1113 21.5456 55.4083 21.3476 55.797C21.1496 56.1783 21.0506 56.6257 21.0506 57.139C21.0506 57.6523 21.1496 58.1033 21.3476 58.492C21.5456 58.8807 21.8206 59.1813 22.1726 59.394C22.532 59.5993 22.9426 59.702 23.4046 59.702ZM30.0174 55.786C30.2154 55.5073 30.4867 55.2763 30.8314 55.093C31.1834 54.9023 31.583 54.807 32.0304 54.807C32.551 54.807 33.0204 54.9353 33.4384 55.192C33.8637 55.4487 34.1974 55.8153 34.4394 56.292C34.6887 56.7613 34.8134 57.3077 34.8134 57.931C34.8134 58.5543 34.6887 59.108 34.4394 59.592C34.1974 60.0687 33.8637 60.439 33.4384 60.703C33.0204 60.967 32.551 61.099 32.0304 61.099C31.583 61.099 31.187 61.0073 30.8424 60.824C30.505 60.6407 30.23 60.4097 30.0174 60.131V63.904H28.4774V54.906H30.0174V55.786ZM33.2404 57.931C33.2404 57.5643 33.1634 57.249 33.0094 56.985C32.8627 56.7137 32.6647 56.5083 32.4154 56.369C32.1734 56.2297 31.9094 56.16 31.6234 56.16C31.3447 56.16 31.0807 56.2333 30.8314 56.38C30.5894 56.5193 30.3914 56.7247 30.2374 56.996C30.0907 57.2673 30.0174 57.5863 30.0174 57.953C30.0174 58.3197 30.0907 58.6387 30.2374 58.91C30.3914 59.1813 30.5894 59.3903 30.8314 59.537C31.0807 59.6763 31.3447 59.746 31.6234 59.746C31.9094 59.746 32.1734 59.6727 32.4154 59.526C32.6647 59.3793 32.8627 59.1703 33.0094 58.899C33.1634 58.6277 33.2404 58.305 33.2404 57.931ZM41.5974 57.821C41.5974 58.041 41.5828 58.239 41.5534 58.415H37.0984C37.1351 58.855 37.2891 59.1997 37.5604 59.449C37.8318 59.6983 38.1654 59.823 38.5614 59.823C39.1334 59.823 39.5404 59.5773 39.7824 59.086H41.4434C41.2674 59.6727 40.9301 60.1567 40.4314 60.538C39.9328 60.912 39.3204 61.099 38.5944 61.099C38.0078 61.099 37.4798 60.9707 37.0104 60.714C36.5484 60.45 36.1854 60.0797 35.9214 59.603C35.6648 59.1263 35.5364 58.5763 35.5364 57.953C35.5364 57.3223 35.6648 56.7687 35.9214 56.292C36.1781 55.8153 36.5374 55.4487 36.9994 55.192C37.4614 54.9353 37.9931 54.807 38.5944 54.807C39.1738 54.807 39.6908 54.9317 40.1454 55.181C40.6074 55.4303 40.9631 55.786 41.2124 56.248C41.4691 56.7027 41.5974 57.227 41.5974 57.821ZM40.0024 57.381C39.9951 56.985 39.8521 56.6697 39.5734 56.435C39.2948 56.193 38.9538 56.072 38.5504 56.072C38.1691 56.072 37.8464 56.1893 37.5824 56.424C37.3258 56.6513 37.1681 56.9703 37.1094 57.381H40.0024ZM44.2615 55.852C44.4595 55.5293 44.7162 55.2763 45.0315 55.093C45.3542 54.9097 45.7208 54.818 46.1315 54.818V56.435H45.7245C45.2405 56.435 44.8738 56.5487 44.6245 56.776C44.3825 57.0033 44.2615 57.3993 44.2615 57.964V61H42.7215V54.906H44.2615V55.852ZM46.7728 57.931C46.7728 57.315 46.8938 56.7687 47.1358 56.292C47.3851 55.8153 47.7188 55.4487 48.1368 55.192C48.5621 54.9353 49.0351 54.807 49.5558 54.807C50.0104 54.807 50.4064 54.8987 50.7438 55.082C51.0884 55.2653 51.3634 55.4963 51.5688 55.775V54.906H53.1198V61H51.5688V60.109C51.3708 60.395 51.0958 60.6333 50.7438 60.824C50.3991 61.0073 49.9994 61.099 49.5448 61.099C49.0314 61.099 48.5621 60.967 48.1368 60.703C47.7188 60.439 47.3851 60.0687 47.1358 59.592C46.8938 59.108 46.7728 58.5543 46.7728 57.931ZM51.5688 57.953C51.5688 57.579 51.4954 57.26 51.3488 56.996C51.2021 56.7247 51.0041 56.5193 50.7548 56.38C50.5054 56.2333 50.2378 56.16 49.9518 56.16C49.6658 56.16 49.4018 56.2297 49.1598 56.369C48.9178 56.5083 48.7198 56.7137 48.5658 56.985C48.4191 57.249 48.3458 57.5643 48.3458 57.931C48.3458 58.2977 48.4191 58.6203 48.5658 58.899C48.7198 59.1703 48.9178 59.3793 49.1598 59.526C49.4091 59.6727 49.6731 59.746 49.9518 59.746C50.2378 59.746 50.5054 59.6763 50.7548 59.537C51.0041 59.3903 51.2021 59.185 51.3488 58.921C51.4954 58.6497 51.5688 58.327 51.5688 57.953ZM56.4168 56.171V59.119C56.4168 59.3243 56.4645 59.4747 56.5598 59.57C56.6625 59.658 56.8312 59.702 57.0658 59.702H57.7808V61H56.8128C55.5148 61 54.8658 60.3693 54.8658 59.108V56.171H54.1398V54.906H54.8658V53.399H56.4168V54.906H57.7808V56.171H56.4168ZM59.6695 54.18C59.3982 54.18 59.1708 54.0957 58.9875 53.927C58.8115 53.751 58.7235 53.5347 58.7235 53.278C58.7235 53.0213 58.8115 52.8087 58.9875 52.64C59.1708 52.464 59.3982 52.376 59.6695 52.376C59.9408 52.376 60.1645 52.464 60.3405 52.64C60.5238 52.8087 60.6155 53.0213 60.6155 53.278C60.6155 53.5347 60.5238 53.751 60.3405 53.927C60.1645 54.0957 59.9408 54.18 59.6695 54.18ZM60.4285 54.906V61H58.8885V54.906H60.4285ZM65.327 54.818C66.053 54.818 66.6397 55.049 67.087 55.511C67.5344 55.9657 67.7579 56.6037 67.7579 57.425V61H66.218V57.634C66.218 57.15 66.0969 56.7797 65.8549 56.523C65.6129 56.259 65.283 56.127 64.865 56.127C64.4397 56.127 64.1024 56.259 63.853 56.523C63.611 56.7797 63.49 57.15 63.49 57.634V61H61.95V54.906H63.49V55.665C63.6954 55.401 63.9557 55.1957 64.271 55.049C64.5937 54.895 64.9457 54.818 65.327 54.818ZM71.6095 54.807C72.0641 54.807 72.4638 54.8987 72.8085 55.082C73.1531 55.258 73.4245 55.489 73.6225 55.775V54.906H75.1735V61.044C75.1735 61.6087 75.0598 62.111 74.8325 62.551C74.6051 62.9983 74.2641 63.3503 73.8095 63.607C73.3548 63.871 72.8048 64.003 72.1595 64.003C71.2941 64.003 70.5828 63.8013 70.0255 63.398C69.4755 62.9947 69.1638 62.4447 69.0905 61.748H70.6195C70.7001 62.0267 70.8725 62.2467 71.1365 62.408C71.4078 62.5767 71.7341 62.661 72.1155 62.661C72.5628 62.661 72.9258 62.5253 73.2045 62.254C73.4831 61.99 73.6225 61.5867 73.6225 61.044V60.098C73.4245 60.384 73.1495 60.6223 72.7975 60.813C72.4528 61.0037 72.0568 61.099 71.6095 61.099C71.0961 61.099 70.6268 60.967 70.2015 60.703C69.7761 60.439 69.4388 60.0687 69.1895 59.592C68.9475 59.108 68.8265 58.5543 68.8265 57.931C68.8265 57.315 68.9475 56.7687 69.1895 56.292C69.4388 55.8153 69.7725 55.4487 70.1905 55.192C70.6158 54.9353 71.0888 54.807 71.6095 54.807ZM73.6225 57.953C73.6225 57.579 73.5491 57.26 73.4025 56.996C73.2558 56.7247 73.0578 56.5193 72.8085 56.38C72.5591 56.2333 72.2915 56.16 72.0055 56.16C71.7195 56.16 71.4555 56.2297 71.2135 56.369C70.9715 56.5083 70.7735 56.7137 70.6195 56.985C70.4728 57.249 70.3995 57.5643 70.3995 57.931C70.3995 58.2977 70.4728 58.6203 70.6195 58.899C70.7735 59.1703 70.9715 59.3793 71.2135 59.526C71.4628 59.6727 71.7268 59.746 72.0055 59.746C72.2915 59.746 72.5591 59.6763 72.8085 59.537C73.0578 59.3903 73.2558 59.185 73.4025 58.921C73.5491 58.6497 73.6225 58.327 73.6225 57.953ZM29.9414 78.077C29.406 78.077 28.922 77.9853 28.4894 77.802C28.064 77.6187 27.7267 77.3547 27.4774 77.01C27.228 76.6653 27.0997 76.2583 27.0924 75.789H28.7424C28.7644 76.1043 28.8744 76.3537 29.0724 76.537C29.2777 76.7203 29.5564 76.812 29.9084 76.812C30.2677 76.812 30.55 76.7277 30.7554 76.559C30.9607 76.383 31.0634 76.1557 31.0634 75.877C31.0634 75.6497 30.9937 75.4627 30.8544 75.316C30.715 75.1693 30.539 75.0557 30.3264 74.975C30.121 74.887 29.835 74.7917 29.4684 74.689C28.9697 74.5423 28.5627 74.3993 28.2474 74.26C27.9394 74.1133 27.6717 73.897 27.4444 73.611C27.2244 73.3177 27.1144 72.929 27.1144 72.445C27.1144 71.9903 27.228 71.5943 27.4554 71.257C27.6827 70.9197 28.0017 70.663 28.4124 70.487C28.823 70.3037 29.2924 70.212 29.8204 70.212C30.6124 70.212 31.254 70.4063 31.7454 70.795C32.244 71.1763 32.519 71.7117 32.5704 72.401H30.8764C30.8617 72.137 30.748 71.9207 30.5354 71.752C30.33 71.576 30.055 71.488 29.7104 71.488C29.4097 71.488 29.1677 71.565 28.9844 71.719C28.8084 71.873 28.7204 72.0967 28.7204 72.39C28.7204 72.5953 28.7864 72.7677 28.9184 72.907C29.0577 73.039 29.2264 73.149 29.4244 73.237C29.6297 73.3177 29.9157 73.413 30.2824 73.523C30.781 73.6697 31.188 73.8163 31.5034 73.963C31.8187 74.1097 32.09 74.3297 32.3174 74.623C32.5447 74.9163 32.6584 75.3013 32.6584 75.778C32.6584 76.1887 32.552 76.57 32.3393 76.922C32.1267 77.274 31.815 77.5563 31.4044 77.769C30.9937 77.9743 30.506 78.077 29.9414 78.077ZM39.8235 71.906L36.0505 80.882H34.4115L35.7315 77.846L33.2895 71.906H35.0165L36.5895 76.163L38.1845 71.906H39.8235ZM42.9856 78.099C42.487 78.099 42.0396 78.011 41.6436 77.835C41.2476 77.6517 40.9323 77.406 40.6976 77.098C40.4703 76.79 40.3456 76.449 40.3236 76.075H41.8746C41.904 76.3097 42.0176 76.504 42.2156 76.658C42.421 76.812 42.674 76.889 42.9746 76.889C43.268 76.889 43.4953 76.8303 43.6566 76.713C43.8253 76.5957 43.9096 76.4453 43.9096 76.262C43.9096 76.064 43.807 75.9173 43.6016 75.822C43.4036 75.7193 43.0846 75.6093 42.6446 75.492C42.19 75.382 41.816 75.2683 41.5226 75.151C41.2366 75.0337 40.9873 74.854 40.7746 74.612C40.5693 74.37 40.4666 74.0437 40.4666 73.633C40.4666 73.2957 40.562 72.9877 40.7526 72.709C40.9506 72.4303 41.2293 72.2103 41.5886 72.049C41.9553 71.8877 42.3843 71.807 42.8756 71.807C43.6016 71.807 44.181 71.9903 44.6136 72.357C45.0463 72.7163 45.2846 73.204 45.3286 73.82H43.8546C43.8326 73.578 43.73 73.3873 43.5466 73.248C43.3706 73.1013 43.1323 73.028 42.8316 73.028C42.553 73.028 42.3366 73.0793 42.1826 73.182C42.036 73.2847 41.9626 73.4277 41.9626 73.611C41.9626 73.8163 42.0653 73.974 42.2706 74.084C42.476 74.1867 42.795 74.293 43.2276 74.403C43.6676 74.513 44.0306 74.6267 44.3166 74.744C44.6026 74.8613 44.8483 75.0447 45.0536 75.294C45.2663 75.536 45.3763 75.8587 45.3836 76.262C45.3836 76.614 45.2846 76.9293 45.0866 77.208C44.896 77.4867 44.6173 77.7067 44.2506 77.868C43.8913 78.022 43.4696 78.099 42.9856 78.099ZM48.4408 73.171V76.119C48.4408 76.3243 48.4884 76.4747 48.5838 76.57C48.6864 76.658 48.8551 76.702 49.0898 76.702H49.8048V78H48.8368C47.5388 78 46.8898 77.3693 46.8898 76.108V73.171H46.1638V71.906H46.8898V70.399H48.4408V71.906H49.8048V73.171H48.4408ZM56.5774 74.821C56.5774 75.041 56.5628 75.239 56.5334 75.415H52.0784C52.1151 75.855 52.2691 76.1997 52.5404 76.449C52.8118 76.6983 53.1454 76.823 53.5414 76.823C54.1134 76.823 54.5204 76.5773 54.7624 76.086H56.4234C56.2474 76.6727 55.9101 77.1567 55.4114 77.538C54.9128 77.912 54.3004 78.099 53.5744 78.099C52.9878 78.099 52.4598 77.9707 51.9904 77.714C51.5284 77.45 51.1654 77.0797 50.9014 76.603C50.6448 76.1263 50.5164 75.5763 50.5164 74.953C50.5164 74.3223 50.6448 73.7687 50.9014 73.292C51.1581 72.8153 51.5174 72.4487 51.9794 72.192C52.4414 71.9353 52.9731 71.807 53.5744 71.807C54.1538 71.807 54.6708 71.9317 55.1254 72.181C55.5874 72.4303 55.9431 72.786 56.1924 73.248C56.4491 73.7027 56.5774 74.227 56.5774 74.821ZM54.9824 74.381C54.9751 73.985 54.8321 73.6697 54.5534 73.435C54.2748 73.193 53.9338 73.072 53.5304 73.072C53.1491 73.072 52.8264 73.1893 52.5624 73.424C52.3058 73.6513 52.1481 73.9703 52.0894 74.381H54.9824ZM65.2695 71.818C66.0175 71.818 66.6188 72.049 67.0735 72.511C67.5355 72.9657 67.7665 73.6037 67.7665 74.425V78H66.2265V74.634C66.2265 74.1573 66.1055 73.7943 65.8635 73.545C65.6215 73.2883 65.2915 73.16 64.8735 73.16C64.4555 73.16 64.1218 73.2883 63.8725 73.545C63.6305 73.7943 63.5095 74.1573 63.5095 74.634V78H61.9695V74.634C61.9695 74.1573 61.8485 73.7943 61.6065 73.545C61.3645 73.2883 61.0345 73.16 60.6165 73.16C60.1911 73.16 59.8538 73.2883 59.6045 73.545C59.3625 73.7943 59.2415 74.1573 59.2415 74.634V78H57.7015V71.906H59.2415V72.643C59.4395 72.3863 59.6925 72.1847 60.0005 72.038C60.3158 71.8913 60.6605 71.818 61.0345 71.818C61.5111 71.818 61.9365 71.9207 62.3105 72.126C62.6845 72.324 62.9741 72.61 63.1795 72.984C63.3775 72.632 63.6635 72.3497 64.0375 72.137C64.4188 71.9243 64.8295 71.818 65.2695 71.818Z" fill="black"/>
<path d="M63.25 17.0833H59.4093C58.2988 16.0021 56.9583 15.1858 55.488 14.6953C54.0177 14.2048 52.4556 14.0528 50.9183 14.2507C50.8118 13.8905 50.5919 13.5742 50.2914 13.3489C49.9908 13.1236 49.6256 13.0013 49.25 13H34.0833C33.6192 13 33.1741 13.1844 32.8459 13.5126C32.5177 13.8408 32.3333 14.2859 32.3333 14.75V17.0833H31.75C31.2859 17.0833 30.8408 17.2677 30.5126 17.5959C30.1844 17.9241 30 18.3692 30 18.8333V40.4167C30 40.8808 30.1844 41.3259 30.5126 41.6541C30.8408 41.9823 31.2859 42.1667 31.75 42.1667H42.2424C42.1129 43.1017 41.6367 43.9539 40.9083 44.5543H40.5C40.0503 44.5543 39.6189 44.7329 39.3009 45.0509C38.9829 45.3689 38.8042 45.8003 38.8042 46.25C38.8042 46.6997 38.9829 47.1311 39.3009 47.4491C39.6189 47.7671 40.0503 47.9458 40.5 47.9458H54.5C54.9497 47.9458 55.3811 47.7671 55.6991 47.4491C56.0171 47.1311 56.1957 46.6997 56.1957 46.25C56.1957 45.8003 56.0171 45.3689 55.6991 45.0509C55.3811 44.7329 54.9497 44.5543 54.5 44.5543H54.0917C53.3633 43.9539 52.8871 43.1017 52.7576 42.1667H63.25C63.7141 42.1667 64.1592 41.9823 64.4874 41.6541C64.8156 41.3259 65 40.8808 65 40.4167V18.8333C65 18.3692 64.8156 17.9241 64.4874 17.5959C64.1592 17.2677 63.7141 17.0833 63.25 17.0833ZM61.5 24.6667C61.4942 29.8187 57.3187 33.9942 52.1667 34C51.7764 33.9975 51.3867 33.9701 51 33.9178V28.575C51.6101 28.7596 52.2549 28.7988 52.8828 28.6895C53.5107 28.5802 54.1044 28.3254 54.6162 27.9456C55.128 27.5657 55.5438 27.0713 55.8303 26.5019C56.1167 25.9326 56.2659 25.304 56.2659 24.6667C56.2659 24.0293 56.1167 23.4008 55.8303 22.8314C55.5438 22.262 55.128 21.7676 54.6162 21.3878C54.1044 21.0079 53.5107 20.7531 52.8828 20.6438C52.2549 20.5345 51.6101 20.5737 51 20.7583V15.4156C51.3867 15.3631 51.7764 15.3357 52.1667 15.3333C57.3187 15.3392 61.4942 19.5147 61.5 24.6667ZM51 25.9617C51.2509 26.1897 51.5626 26.3399 51.8972 26.3941C52.2319 26.4484 52.5751 26.4042 52.8851 26.267C53.1951 26.1299 53.4586 25.9056 53.6436 25.6215C53.8286 25.3374 53.9271 25.0057 53.9271 24.6667C53.9271 24.3277 53.8286 23.9959 53.6436 23.7118C53.4586 23.4277 53.1951 23.2035 52.8851 23.0663C52.5751 22.9291 52.2319 22.885 51.8972 22.9392C51.5626 22.9934 51.2509 23.1436 51 23.3717V21.9968C51.3671 21.8329 51.7647 21.7488 52.1667 21.75C52.9402 21.75 53.6821 22.0573 54.2291 22.6043C54.776 23.1513 55.0833 23.8931 55.0833 24.6667C55.0833 25.4402 54.776 26.1821 54.2291 26.7291C53.6821 27.276 52.9402 27.5833 52.1667 27.5833C51.7647 27.5845 51.3671 27.5004 51 27.3366V25.9617ZM51.5833 24.6667C51.5833 24.512 51.6448 24.3636 51.7542 24.2542C51.8636 24.1448 52.012 24.0833 52.1667 24.0833C52.3214 24.0833 52.4697 24.1448 52.5791 24.2542C52.6885 24.3636 52.75 24.512 52.75 24.6667C52.75 24.8214 52.6885 24.9698 52.5791 25.0791C52.4697 25.1885 52.3214 25.25 52.1667 25.25C52.012 25.25 51.8636 25.1885 51.7542 25.0791C51.6448 24.9698 51.5833 24.8214 51.5833 24.6667ZM33.5 14.75C33.5 14.5953 33.5615 14.4469 33.6709 14.3375C33.7803 14.2281 33.9286 14.1667 34.0833 14.1667H49.25C49.4047 14.1667 49.5531 14.2281 49.6625 14.3375C49.7719 14.4469 49.8333 14.5953 49.8333 14.75V34.5833C49.8333 34.738 49.7719 34.8864 49.6625 34.9958C49.5531 35.1052 49.4047 35.1667 49.25 35.1667H34.0833C33.9286 35.1667 33.7803 35.1052 33.6709 34.9958C33.5615 34.8864 33.5 34.738 33.5 34.5833V14.75ZM55.1376 46.25C55.1376 46.6018 54.8517 46.887 54.5 46.8876H40.5C40.3309 46.8876 40.1687 46.8204 40.0492 46.7008C39.9296 46.5813 39.8624 46.4191 39.8624 46.25C39.8624 46.0809 39.9296 45.9187 40.0492 45.7992C40.1687 45.6796 40.3309 45.6124 40.5 45.6124H54.5C54.8517 45.6124 55.137 45.8983 55.1376 46.25ZM52.6193 44.5543H42.3807C42.8806 43.846 43.2002 43.0264 43.3117 42.1667H51.6883C51.7998 43.0264 52.1194 43.846 52.6193 44.5543ZM63.25 41H31.75C31.5953 41 31.4469 40.9385 31.3375 40.8291C31.2281 40.7198 31.1667 40.5714 31.1667 40.4167V39.25H33.5C33.6547 39.25 33.8031 39.1885 33.9125 39.0791C34.0219 38.9698 34.0833 38.8214 34.0833 38.6667C34.0833 38.512 34.0219 38.3636 33.9125 38.2542C33.8031 38.1448 33.6547 38.0833 33.5 38.0833H31.1667V18.8333C31.1667 18.6786 31.2281 18.5303 31.3375 18.4209C31.4469 18.3115 31.5953 18.25 31.75 18.25H32.3333V34.5833C32.3333 35.0475 32.5177 35.4926 32.8459 35.8208C33.1741 36.149 33.6192 36.3333 34.0833 36.3333H49.25C49.6256 36.3321 49.9908 36.2097 50.2914 35.9844C50.5919 35.7591 50.8118 35.4429 50.9183 35.0827C51.3325 35.1358 51.749 35.1643 52.1667 35.1667C54.1304 35.1701 56.0556 34.6218 57.7229 33.5843C59.3902 32.5468 60.7325 31.0618 61.5969 29.2985C62.4613 27.5353 62.8129 25.5646 62.6118 23.6112C62.4107 21.6578 61.6649 19.8002 60.4593 18.25H63.25C63.4047 18.25 63.5531 18.3115 63.6625 18.4209C63.7719 18.5303 63.8333 18.6786 63.8333 18.8333V38.0833H35.8333C35.6786 38.0833 35.5303 38.1448 35.4209 38.2542C35.3115 38.3636 35.25 38.512 35.25 38.6667C35.25 38.8214 35.3115 38.9698 35.4209 39.0791C35.5303 39.1885 35.6786 39.25 35.8333 39.25H63.8333V40.4167C63.8333 40.5714 63.7719 40.7198 63.6625 40.8291C63.5531 40.9385 63.4047 41 63.25 41Z" fill="black"/>
<path d="M38.75 28.75C40.3833 28.75 41.6665 26.9563 41.6665 24.6667C41.6665 22.3771 40.3833 20.5834 38.75 20.5834C37.1166 20.5834 35.8333 22.3771 35.8333 24.6667C35.8333 26.9563 37.1166 28.75 38.75 28.75ZM38.75 21.75C39.6985 21.75 40.5 23.0859 40.5 24.6667C40.5 26.2475 39.6985 27.5834 38.75 27.5834C37.8015 27.5834 37 26.2475 37 24.6667C37 23.0859 37.8015 21.75 38.75 21.75ZM45.1665 27.5834C44.8571 27.5834 44.5605 27.4605 44.3417 27.2417C44.1229 27.0229 44 26.7261 44 26.4167C44 26.262 43.9385 26.1136 43.8291 26.0042C43.7197 25.8948 43.5713 25.8334 43.4165 25.8334C43.2618 25.8334 43.1136 25.8948 43.0042 26.0042C42.8948 26.1136 42.8333 26.262 42.8333 26.4167C42.8333 26.8782 42.9702 27.3293 43.2266 27.713C43.4829 28.0968 43.8474 28.3958 44.2737 28.5724C44.7001 28.749 45.1691 28.7952 45.6218 28.7052C46.0744 28.6152 46.4902 28.3929 46.8166 28.0666C47.1429 27.7403 47.3651 27.3245 47.4551 26.8719C47.5452 26.4193 47.4989 25.9501 47.3223 25.5238C47.1457 25.0974 46.8467 24.733 46.463 24.4766C46.0793 24.2202 45.628 24.0834 45.1665 24.0834C44.9358 24.0834 44.7103 24.015 44.5185 23.8868C44.3266 23.7586 44.177 23.5764 44.0887 23.3632C44.0004 23.15 43.9774 22.9154 44.0224 22.6891C44.0674 22.4628 44.1785 22.2549 44.3417 22.0918C44.5048 21.9286 44.7126 21.8175 44.9389 21.7725C45.1653 21.7274 45.3998 21.7505 45.613 21.8388C45.8262 21.9272 46.0085 22.0767 46.1367 22.2685C46.2649 22.4604 46.3333 22.686 46.3333 22.9167C46.3333 23.0714 46.3948 23.2198 46.5042 23.3292C46.6136 23.4386 46.7618 23.5 46.9165 23.5C47.0713 23.5 47.2197 23.4386 47.3291 23.3292C47.4385 23.2198 47.5 23.0714 47.5 22.9167C47.5 22.4552 47.3631 22.0041 47.1067 21.6204C46.8504 21.2367 46.4859 20.9376 46.0596 20.761C45.6332 20.5844 45.164 20.5382 44.7113 20.6282C44.2587 20.7182 43.8431 20.9405 43.5167 21.2668C43.1904 21.5931 42.9682 22.0089 42.8781 22.4615C42.7881 22.9141 42.8342 23.3833 43.0108 23.8096C43.1874 24.236 43.4866 24.6004 43.8703 24.8568C44.254 25.1132 44.7051 25.25 45.1665 25.25C45.476 25.25 45.7728 25.373 45.9916 25.5918C46.2104 25.8105 46.3333 26.1073 46.3333 26.4167C46.3333 26.7261 46.2104 27.0229 45.9916 27.2417C45.7728 27.4605 45.476 27.5834 45.1665 27.5834Z" fill="black"/>
</g>
<defs>
<filter id="filter0_d_115_654" x="0" y="0" width="95.54" height="95.54" filterUnits="userSpaceOnUse" color-interpolation-filters="sRGB">
<feFlood flood-opacity="0" result="BackgroundImageFix"/>
<feColorMatrix in="SourceAlpha" type="matrix" values="0 0 0 0 0 0 0 0 0 0 0 0 0 0 0 0 0 0 127 0" result="hardAlpha"/>
<feOffset dy="4"/>
<feGaussianBlur stdDeviation="2"/>
<feComposite in2="hardAlpha" operator="out"/>
<feColorMatrix type="matrix" values="0 0 0 0 0 0 0 0 0 0 0 0 0 0 0 0 0 0 0.5 0"/>
<feBlend mode="normal" in2="BackgroundImageFix" result="effect1_dropShadow_115_654"/>
<feBlend mode="normal" in="SourceGraphic" in2="effect1_dropShadow_115_654" result="shape"/>
</filter>
<clipPath id="clip0_115_654">
<rect width="96" height="96" fill="white"/>
</clipPath>
</defs>
</svg>
