<svg width="96" height="96" viewBox="0 0 96 96" fill="none" xmlns="http://www.w3.org/2000/svg">
<g clip-path="url(#clip0_115_660)">
<g filter="url(#filter0_d_115_660)">
<path d="M4 15C4 6.71572 10.7157 0 19 0H76.54C84.8243 0 91.54 6.71573 91.54 15V72.54C91.54 80.8243 84.8243 87.54 76.54 87.54H19C10.7157 87.54 4 80.8243 4 72.54V15Z" fill="white"/>
</g>
<path d="M15.3528 61.077C14.6341 61.077 13.9741 60.9083 13.3728 60.571C12.7715 60.2337 12.2948 59.768 11.9428 59.174C11.5908 58.5727 11.4148 57.8943 11.4148 57.139C11.4148 56.391 11.5908 55.72 11.9428 55.126C12.2948 54.5247 12.7715 54.0553 13.3728 53.718C13.9741 53.3807 14.6341 53.212 15.3528 53.212C16.0788 53.212 16.7388 53.3807 17.3328 53.718C17.9341 54.0553 18.4071 54.5247 18.7518 55.126C19.1038 55.72 19.2798 56.391 19.2798 57.139C19.2798 57.8943 19.1038 58.5727 18.7518 59.174C18.4071 59.768 17.9341 60.2337 17.3328 60.571C16.7315 60.9083 16.0715 61.077 15.3528 61.077ZM15.3528 59.702C15.8148 59.702 16.2218 59.5993 16.5738 59.394C16.9258 59.1813 17.2008 58.8807 17.3988 58.492C17.5968 58.1033 17.6958 57.6523 17.6958 57.139C17.6958 56.6257 17.5968 56.1783 17.3988 55.797C17.2008 55.4083 16.9258 55.1113 16.5738 54.906C16.2218 54.7007 15.8148 54.598 15.3528 54.598C14.8908 54.598 14.4801 54.7007 14.1208 54.906C13.7688 55.1113 13.4938 55.4083 13.2958 55.797C13.0978 56.1783 12.9988 56.6257 12.9988 57.139C12.9988 57.6523 13.0978 58.1033 13.2958 58.492C13.4938 58.8807 13.7688 59.1813 14.1208 59.394C14.4801 59.5993 14.8908 59.702 15.3528 59.702ZM21.9655 55.786C22.1635 55.5073 22.4348 55.2763 22.7795 55.093C23.1315 54.9023 23.5312 54.807 23.9785 54.807C24.4992 54.807 24.9685 54.9353 25.3865 55.192C25.8118 55.4487 26.1455 55.8153 26.3875 56.292C26.6368 56.7613 26.7615 57.3077 26.7615 57.931C26.7615 58.5543 26.6368 59.108 26.3875 59.592C26.1455 60.0687 25.8118 60.439 25.3865 60.703C24.9685 60.967 24.4992 61.099 23.9785 61.099C23.5312 61.099 23.1352 61.0073 22.7905 60.824C22.4532 60.6407 22.1782 60.4097 21.9655 60.131V63.904H20.4255V54.906H21.9655V55.786ZM25.1885 57.931C25.1885 57.5643 25.1115 57.249 24.9575 56.985C24.8108 56.7137 24.6128 56.5083 24.3635 56.369C24.1215 56.2297 23.8575 56.16 23.5715 56.16C23.2928 56.16 23.0288 56.2333 22.7795 56.38C22.5375 56.5193 22.3395 56.7247 22.1855 56.996C22.0388 57.2673 21.9655 57.5863 21.9655 57.953C21.9655 58.3197 22.0388 58.6387 22.1855 58.91C22.3395 59.1813 22.5375 59.3903 22.7795 59.537C23.0288 59.6763 23.2928 59.746 23.5715 59.746C23.8575 59.746 24.1215 59.6727 24.3635 59.526C24.6128 59.3793 24.8108 59.1703 24.9575 58.899C25.1115 58.6277 25.1885 58.305 25.1885 57.931ZM29.6736 56.171V59.119C29.6736 59.3243 29.7212 59.4747 29.8166 59.57C29.9192 59.658 30.0879 59.702 30.3226 59.702H31.0376V61H30.0696C28.7716 61 28.1226 60.3693 28.1226 59.108V56.171H27.3966V54.906H28.1226V53.399H29.6736V54.906H31.0376V56.171H29.6736ZM32.9262 54.18C32.6549 54.18 32.4276 54.0957 32.2442 53.927C32.0682 53.751 31.9802 53.5347 31.9802 53.278C31.9802 53.0213 32.0682 52.8087 32.2442 52.64C32.4276 52.464 32.6549 52.376 32.9262 52.376C33.1976 52.376 33.4212 52.464 33.5972 52.64C33.7806 52.8087 33.8722 53.0213 33.8722 53.278C33.8722 53.5347 33.7806 53.751 33.5972 53.927C33.4212 54.0957 33.1976 54.18 32.9262 54.18ZM33.6852 54.906V61H32.1452V54.906H33.6852ZM34.8108 57.953C34.8108 57.3223 34.9391 56.7723 35.1958 56.303C35.4524 55.8263 35.8081 55.4597 36.2628 55.203C36.7174 54.939 37.2381 54.807 37.8248 54.807C38.5801 54.807 39.2034 54.9977 39.6948 55.379C40.1934 55.753 40.5271 56.281 40.6958 56.963H39.0348C38.9468 56.699 38.7964 56.4937 38.5838 56.347C38.3784 56.193 38.1218 56.116 37.8138 56.116C37.3738 56.116 37.0254 56.2773 36.7688 56.6C36.5121 56.9153 36.3838 57.3663 36.3838 57.953C36.3838 58.5323 36.5121 58.9833 36.7688 59.306C37.0254 59.6213 37.3738 59.779 37.8138 59.779C38.4371 59.779 38.8441 59.5003 39.0348 58.943H40.6958C40.5271 59.603 40.1934 60.1273 39.6948 60.516C39.1961 60.9047 38.5728 61.099 37.8248 61.099C37.2381 61.099 36.7174 60.9707 36.2628 60.714C35.8081 60.45 35.4524 60.0833 35.1958 59.614C34.9391 59.1373 34.8108 58.5837 34.8108 57.953ZM41.4279 57.931C41.4279 57.315 41.5489 56.7687 41.7909 56.292C42.0403 55.8153 42.3739 55.4487 42.7919 55.192C43.2173 54.9353 43.6903 54.807 44.2109 54.807C44.6656 54.807 45.0616 54.8987 45.3989 55.082C45.7436 55.2653 46.0186 55.4963 46.2239 55.775V54.906H47.7749V61H46.2239V60.109C46.0259 60.395 45.7509 60.6333 45.3989 60.824C45.0543 61.0073 44.6546 61.099 44.1999 61.099C43.6866 61.099 43.2173 60.967 42.7919 60.703C42.3739 60.439 42.0403 60.0687 41.7909 59.592C41.5489 59.108 41.4279 58.5543 41.4279 57.931ZM46.2239 57.953C46.2239 57.579 46.1506 57.26 46.0039 56.996C45.8573 56.7247 45.6593 56.5193 45.4099 56.38C45.1606 56.2333 44.8929 56.16 44.6069 56.16C44.3209 56.16 44.0569 56.2297 43.8149 56.369C43.5729 56.5083 43.3749 56.7137 43.2209 56.985C43.0743 57.249 43.0009 57.5643 43.0009 57.931C43.0009 58.2977 43.0743 58.6203 43.2209 58.899C43.3749 59.1703 43.5729 59.3793 43.8149 59.526C44.0643 59.6727 44.3283 59.746 44.6069 59.746C44.8929 59.746 45.1606 59.6763 45.4099 59.537C45.6593 59.3903 45.8573 59.185 46.0039 58.921C46.1506 58.6497 46.2239 58.327 46.2239 57.953ZM50.819 52.86V61H49.279V52.86H50.819ZM57.6456 53.322C58.4523 53.322 59.16 53.4797 59.7686 53.795C60.3846 54.1103 60.8576 54.5613 61.1876 55.148C61.525 55.7273 61.6936 56.402 61.6936 57.172C61.6936 57.942 61.525 58.6167 61.1876 59.196C60.8576 59.768 60.3846 60.2117 59.7686 60.527C59.16 60.8423 58.4523 61 57.6456 61H54.9616V53.322H57.6456ZM57.5906 59.691C58.3973 59.691 59.0206 59.471 59.4606 59.031C59.9006 58.591 60.1206 57.9713 60.1206 57.172C60.1206 56.3727 59.9006 55.7493 59.4606 55.302C59.0206 54.8473 58.3973 54.62 57.5906 54.62H56.5016V59.691H57.5906ZM64.3864 55.852C64.5844 55.5293 64.8411 55.2763 65.1564 55.093C65.4791 54.9097 65.8457 54.818 66.2564 54.818V56.435H65.8494C65.3654 56.435 64.9987 56.5487 64.7494 56.776C64.5074 57.0033 64.3864 57.3993 64.3864 57.964V61H62.8464V54.906H64.3864V55.852ZM68.0747 54.18C67.8033 54.18 67.576 54.0957 67.3927 53.927C67.2167 53.751 67.1287 53.5347 67.1287 53.278C67.1287 53.0213 67.2167 52.8087 67.3927 52.64C67.576 52.464 67.8033 52.376 68.0747 52.376C68.346 52.376 68.5697 52.464 68.7457 52.64C68.929 52.8087 69.0207 53.0213 69.0207 53.278C69.0207 53.5347 68.929 53.751 68.7457 53.927C68.5697 54.0957 68.346 54.18 68.0747 54.18ZM68.8337 54.906V61H67.2937V54.906H68.8337ZM72.8962 59.581L74.4362 54.906H76.0752L73.8202 61H71.9502L69.7062 54.906H71.3562L72.8962 59.581ZM82.6052 57.821C82.6052 58.041 82.5905 58.239 82.5612 58.415H78.1062C78.1428 58.855 78.2968 59.1997 78.5682 59.449C78.8395 59.6983 79.1732 59.823 79.5692 59.823C80.1412 59.823 80.5482 59.5773 80.7902 59.086H82.4512C82.2752 59.6727 81.9378 60.1567 81.4392 60.538C80.9405 60.912 80.3282 61.099 79.6022 61.099C79.0155 61.099 78.4875 60.9707 78.0182 60.714C77.5562 60.45 77.1932 60.0797 76.9292 59.603C76.6725 59.1263 76.5442 58.5763 76.5442 57.953C76.5442 57.3223 76.6725 56.7687 76.9292 56.292C77.1858 55.8153 77.5452 55.4487 78.0072 55.192C78.4692 54.9353 79.0008 54.807 79.6022 54.807C80.1815 54.807 80.6985 54.9317 81.1532 55.181C81.6152 55.4303 81.9708 55.786 82.2202 56.248C82.4768 56.7027 82.6052 57.227 82.6052 57.821ZM81.0102 57.381C81.0028 56.985 80.8598 56.6697 80.5812 56.435C80.3025 56.193 79.9615 56.072 79.5582 56.072C79.1768 56.072 78.8542 56.1893 78.5902 56.424C78.3335 56.6513 78.1758 56.9703 78.1172 57.381H81.0102Z" fill="black"/>
<path d="M59.9656 47.6412H36.0343C34.8893 47.6412 34.0305 46.7824 34.0305 45.6374C34.0305 44.4923 34.8893 43.6335 36.0343 43.6335H59.9656C61.1107 43.6335 61.9695 44.4923 61.9695 45.6374C61.9695 46.7824 61.1107 47.6412 59.9656 47.6412ZM36.0343 44.7786C35.5763 44.7786 35.1756 45.1793 35.1756 45.6374C35.1756 46.0954 35.5763 46.4961 36.0343 46.4961H59.9656C60.4237 46.4961 60.8244 46.0954 60.8244 45.6374C60.8244 45.1793 60.4237 44.7786 59.9656 44.7786H36.0343Z" fill="black"/>
<path d="M59.4502 44.7786H36.5495C36.206 44.7786 35.9771 44.5496 35.9771 44.2061V35.561C35.9771 35.2175 36.206 34.9885 36.5495 34.9885C36.893 34.9885 37.1221 35.2175 37.1221 35.561V43.6336H58.8778V35.561C58.8778 35.2175 59.1067 34.9885 59.4502 34.9885C59.7937 34.9885 60.0229 35.2175 60.0229 35.561V44.2061C60.0229 44.5496 59.7937 44.7786 59.4502 44.7786Z" fill="black"/>
<path d="M48.0573 43.1756C43.5916 43.1756 39.6412 40.0267 38.7252 35.6756C38.6679 35.3893 38.8397 35.0458 39.1832 34.9886C39.4695 34.9313 39.813 35.1031 39.8702 35.4466C40.6718 39.2824 44.1641 42.0305 48.0573 42.0305C52.0076 42.0305 55.4427 39.2824 56.2443 35.4466C56.3015 35.1603 56.5878 34.9313 56.9313 34.9886C57.2176 35.0458 57.4466 35.3321 57.3893 35.6756C56.4733 40.0267 52.5229 43.1756 48.0573 43.1756ZM48 36.7061C47.3702 36.7061 46.7405 36.4771 46.1107 36.0191C45.8817 35.8473 45.8244 35.4466 45.9962 35.2176C46.1679 34.9886 46.5687 34.9313 46.7977 35.1031C47.1985 35.3893 47.5992 35.5611 48 35.5611C48.4008 35.5611 48.8588 35.3893 49.145 35.1031C49.374 34.874 49.7176 34.9313 49.9466 35.1603C50.1756 35.3893 50.1183 35.7901 49.8893 35.9618C49.374 36.4198 48.687 36.7061 48 36.7061ZM60.1374 33.8435H35.8626C34.2595 33.8435 33 32.584 33 30.9809V13.8626C33 12.2595 34.2595 11 35.8626 11H60.0802C61.6832 11 63 12.2595 63 13.8626V30.9809C63 32.584 61.7405 33.8435 60.1374 33.8435ZM35.8626 12.145C34.8893 12.145 34.145 12.8893 34.145 13.8626V30.9809C34.145 31.9542 34.8893 32.6985 35.8626 32.6985H60.1374C61.1107 32.6985 61.855 31.9542 61.855 30.9809V13.8626C61.855 12.8893 61.0534 12.145 60.0802 12.145H35.8626Z" fill="black"/>
<path d="M37.4085 15.0076H36.4352C36.0917 15.0076 35.8627 14.7786 35.8627 14.4351C35.8627 14.0916 36.0917 13.8625 36.4352 13.8625H37.4085C37.752 13.8625 37.981 14.0916 37.981 14.4351C37.981 14.7786 37.752 15.0076 37.4085 15.0076ZM59.565 15.0076H58.5917C58.2482 15.0076 58.0192 14.7786 58.0192 14.4351C58.0192 14.0916 58.2482 13.8625 58.5917 13.8625H59.565C59.9085 13.8625 60.1375 14.0916 60.1375 14.4351C60.1375 14.7786 59.9085 15.0076 59.565 15.0076ZM37.4085 30.9809H36.4352C36.0917 30.9809 35.8627 30.7519 35.8627 30.4084C35.8627 30.0648 36.0917 29.8358 36.4352 29.8358H37.4085C37.752 29.8358 37.981 30.0648 37.981 30.4084C37.981 30.7519 37.752 30.9809 37.4085 30.9809ZM59.565 30.9809H58.5917C58.2482 30.9809 58.0192 30.7519 58.0192 30.4084C58.0192 30.0648 58.2482 29.8358 58.5917 29.8358H59.565C59.9085 29.8358 60.1375 30.0648 60.1375 30.4084C60.1375 30.7519 59.9085 30.9809 59.565 30.9809Z" fill="black"/>
</g>
<defs>
<filter id="filter0_d_115_660" x="0" y="0" width="95.54" height="95.54" filterUnits="userSpaceOnUse" color-interpolation-filters="sRGB">
<feFlood flood-opacity="0" result="BackgroundImageFix"/>
<feColorMatrix in="SourceAlpha" type="matrix" values="0 0 0 0 0 0 0 0 0 0 0 0 0 0 0 0 0 0 127 0" result="hardAlpha"/>
<feOffset dy="4"/>
<feGaussianBlur stdDeviation="2"/>
<feComposite in2="hardAlpha" operator="out"/>
<feColorMatrix type="matrix" values="0 0 0 0 0 0 0 0 0 0 0 0 0 0 0 0 0 0 0.5 0"/>
<feBlend mode="normal" in2="BackgroundImageFix" result="effect1_dropShadow_115_660"/>
<feBlend mode="normal" in="SourceGraphic" in2="effect1_dropShadow_115_660" result="shape"/>
</filter>
<clipPath id="clip0_115_660">
<rect width="96" height="96" fill="white"/>
</clipPath>
</defs>
</svg>
