<svg width="145" height="145" viewBox="0 0 145 145" fill="none" xmlns="http://www.w3.org/2000/svg">
<g filter="url(#filter0_d_384_436)">
<path d="M4 15C4 6.71573 10.7157 0 19 0H126C134.284 0 141 6.71573 141 15V122C141 130.284 134.284 137 126 137H19C10.7157 137 4 130.284 4 122V15Z" fill="white"/>
</g>
<path d="M54.402 89.324C54.402 89.996 54.24 90.626 53.916 91.214C53.604 91.802 53.106 92.276 52.422 92.636C51.75 92.996 50.898 93.176 49.866 93.176H47.76V98H45.24V85.436H49.866C50.838 85.436 51.666 85.604 52.35 85.94C53.034 86.276 53.544 86.738 53.88 87.326C54.228 87.914 54.402 88.58 54.402 89.324ZM49.758 91.142C50.454 91.142 50.97 90.986 51.306 90.674C51.642 90.35 51.81 89.9 51.81 89.324C51.81 88.1 51.126 87.488 49.758 87.488H47.76V91.142H49.758ZM60.6192 98.162C59.6592 98.162 58.7952 97.952 58.0272 97.532C57.2592 97.1 56.6532 96.494 56.2092 95.714C55.7772 94.934 55.5612 94.034 55.5612 93.014C55.5612 91.994 55.7832 91.094 56.2272 90.314C56.6832 89.534 57.3012 88.934 58.0812 88.514C58.8612 88.082 59.7312 87.866 60.6912 87.866C61.6512 87.866 62.5212 88.082 63.3012 88.514C64.0812 88.934 64.6932 89.534 65.1372 90.314C65.5932 91.094 65.8212 91.994 65.8212 93.014C65.8212 94.034 65.5872 94.934 65.1192 95.714C64.6632 96.494 64.0392 97.1 63.2472 97.532C62.4672 97.952 61.5912 98.162 60.6192 98.162ZM60.6192 95.966C61.0752 95.966 61.5012 95.858 61.8972 95.642C62.3052 95.414 62.6292 95.078 62.8692 94.634C63.1092 94.19 63.2292 93.65 63.2292 93.014C63.2292 92.066 62.9772 91.34 62.4732 90.836C61.9812 90.32 61.3752 90.062 60.6552 90.062C59.9352 90.062 59.3292 90.32 58.8372 90.836C58.3572 91.34 58.1172 92.066 58.1172 93.014C58.1172 93.962 58.3512 94.694 58.8192 95.21C59.2992 95.714 59.8992 95.966 60.6192 95.966ZM81.4937 88.028L78.5777 98H75.8597L74.0417 91.034L72.2237 98H69.4877L66.5537 88.028H69.1097L70.8737 95.624L72.7817 88.028H75.4457L77.3177 95.606L79.0817 88.028H81.4937ZM92.1272 92.798C92.1272 93.158 92.1032 93.482 92.0552 93.77H84.7652C84.8252 94.49 85.0772 95.054 85.5212 95.462C85.9652 95.87 86.5112 96.074 87.1592 96.074C88.0952 96.074 88.7612 95.672 89.1572 94.868H91.8752C91.5872 95.828 91.0352 96.62 90.2192 97.244C89.4032 97.856 88.4012 98.162 87.2132 98.162C86.2532 98.162 85.3892 97.952 84.6212 97.532C83.8652 97.1 83.2712 96.494 82.8392 95.714C82.4192 94.934 82.2092 94.034 82.2092 93.014C82.2092 91.982 82.4192 91.076 82.8392 90.296C83.2592 89.516 83.8472 88.916 84.6032 88.496C85.3592 88.076 86.2292 87.866 87.2132 87.866C88.1612 87.866 89.0072 88.07 89.7512 88.478C90.5072 88.886 91.0892 89.468 91.4972 90.224C91.9172 90.968 92.1272 91.826 92.1272 92.798ZM89.5172 92.078C89.5052 91.43 89.2712 90.914 88.8152 90.53C88.3592 90.134 87.8012 89.936 87.1412 89.936C86.5172 89.936 85.9892 90.128 85.5572 90.512C85.1372 90.884 84.8792 91.406 84.7832 92.078H89.5172ZM96.4866 89.576C96.8106 89.048 97.2306 88.634 97.7466 88.334C98.2746 88.034 98.8746 87.884 99.5466 87.884V90.53H98.8806C98.0886 90.53 97.4886 90.716 97.0806 91.088C96.6846 91.46 96.4866 92.108 96.4866 93.032V98H93.9666V88.028H96.4866V89.576ZM45.9921 125.126C45.1161 125.126 44.3241 124.976 43.6161 124.676C42.9201 124.376 42.3681 123.944 41.9601 123.38C41.5521 122.816 41.3421 122.15 41.3301 121.382H44.0301C44.0661 121.898 44.2461 122.306 44.5701 122.606C44.9061 122.906 45.3621 123.056 45.9381 123.056C46.5261 123.056 46.9881 122.918 47.3241 122.642C47.6601 122.354 47.8281 121.982 47.8281 121.526C47.8281 121.154 47.7141 120.848 47.4861 120.608C47.2581 120.368 46.9701 120.182 46.6221 120.05C46.2861 119.906 45.8181 119.75 45.2181 119.582C44.4021 119.342 43.7361 119.108 43.2201 118.88C42.7161 118.64 42.2781 118.286 41.9061 117.818C41.5461 117.338 41.3661 116.702 41.3661 115.91C41.3661 115.166 41.5521 114.518 41.9241 113.966C42.2961 113.414 42.8181 112.994 43.4901 112.706C44.1621 112.406 44.9301 112.256 45.7941 112.256C47.0901 112.256 48.1401 112.574 48.9441 113.21C49.7601 113.834 50.2101 114.71 50.2941 115.838H47.5221C47.4981 115.406 47.3121 115.052 46.9641 114.776C46.6281 114.488 46.1781 114.344 45.6141 114.344C45.1221 114.344 44.7261 114.47 44.4261 114.722C44.1381 114.974 43.9941 115.34 43.9941 115.82C43.9941 116.156 44.1021 116.438 44.3181 116.666C44.5461 116.882 44.8221 117.062 45.1461 117.206C45.4821 117.338 45.9501 117.494 46.5501 117.674C47.3661 117.914 48.0321 118.154 48.5481 118.394C49.0641 118.634 49.5081 118.994 49.8801 119.474C50.2521 119.954 50.4381 120.584 50.4381 121.364C50.4381 122.036 50.2641 122.66 49.9161 123.236C49.5681 123.812 49.0581 124.274 48.3861 124.622C47.7141 124.958 46.9161 125.126 45.9921 125.126ZM62.0369 115.028V125H59.4989V123.74C59.1749 124.172 58.7489 124.514 58.2209 124.766C57.7049 125.006 57.1409 125.126 56.5289 125.126C55.7489 125.126 55.0589 124.964 54.4589 124.64C53.8589 124.304 53.3849 123.818 53.0369 123.182C52.7009 122.534 52.5329 121.766 52.5329 120.878V115.028H55.0529V120.518C55.0529 121.31 55.2509 121.922 55.6469 122.354C56.0429 122.774 56.5829 122.984 57.2669 122.984C57.9629 122.984 58.5089 122.774 58.9049 122.354C59.3009 121.922 59.4989 121.31 59.4989 120.518V115.028H62.0369ZM67.0433 116.468C67.3673 116.012 67.8113 115.634 68.3753 115.334C68.9513 115.022 69.6053 114.866 70.3373 114.866C71.1893 114.866 71.9573 115.076 72.6413 115.496C73.3373 115.916 73.8833 116.516 74.2793 117.296C74.6873 118.064 74.8913 118.958 74.8913 119.978C74.8913 120.998 74.6873 121.904 74.2793 122.696C73.8833 123.476 73.3373 124.082 72.6413 124.514C71.9573 124.946 71.1893 125.162 70.3373 125.162C69.6053 125.162 68.9573 125.012 68.3933 124.712C67.8413 124.412 67.3913 124.034 67.0433 123.578V129.752H64.5233V115.028H67.0433V116.468ZM72.3173 119.978C72.3173 119.378 72.1913 118.862 71.9393 118.43C71.6993 117.986 71.3753 117.65 70.9673 117.422C70.5713 117.194 70.1393 117.08 69.6713 117.08C69.2153 117.08 68.7833 117.2 68.3753 117.44C67.9793 117.668 67.6553 118.004 67.4033 118.448C67.1633 118.892 67.0433 119.414 67.0433 120.014C67.0433 120.614 67.1633 121.136 67.4033 121.58C67.6553 122.024 67.9793 122.366 68.3753 122.606C68.7833 122.834 69.2153 122.948 69.6713 122.948C70.1393 122.948 70.5713 122.828 70.9673 122.588C71.3753 122.348 71.6993 122.006 71.9393 121.562C72.1913 121.118 72.3173 120.59 72.3173 119.978ZM79.2425 116.468C79.5665 116.012 80.0105 115.634 80.5745 115.334C81.1505 115.022 81.8045 114.866 82.5365 114.866C83.3885 114.866 84.1565 115.076 84.8405 115.496C85.5365 115.916 86.0825 116.516 86.4785 117.296C86.8865 118.064 87.0905 118.958 87.0905 119.978C87.0905 120.998 86.8865 121.904 86.4785 122.696C86.0825 123.476 85.5365 124.082 84.8405 124.514C84.1565 124.946 83.3885 125.162 82.5365 125.162C81.8045 125.162 81.1565 125.012 80.5925 124.712C80.0405 124.412 79.5905 124.034 79.2425 123.578V129.752H76.7225V115.028H79.2425V116.468ZM84.5165 119.978C84.5165 119.378 84.3905 118.862 84.1385 118.43C83.8985 117.986 83.5745 117.65 83.1665 117.422C82.7705 117.194 82.3385 117.08 81.8705 117.08C81.4145 117.08 80.9825 117.2 80.5745 117.44C80.1785 117.668 79.8545 118.004 79.6025 118.448C79.3625 118.892 79.2425 119.414 79.2425 120.014C79.2425 120.614 79.3625 121.136 79.6025 121.58C79.8545 122.024 80.1785 122.366 80.5745 122.606C80.9825 122.834 81.4145 122.948 81.8705 122.948C82.3385 122.948 82.7705 122.828 83.1665 122.588C83.5745 122.348 83.8985 122.006 84.1385 121.562C84.3905 121.118 84.5165 120.59 84.5165 119.978ZM91.4417 111.68V125H88.9217V111.68H91.4417ZM103.471 115.028L97.2975 129.716H94.6155L96.7755 124.748L92.7795 115.028H95.6055L98.1795 121.994L100.789 115.028H103.471Z" fill="black"/>
<path d="M90.95 43.4136H70.0455V40.2909C70.0455 38.8318 68.8591 37.6455 67.4 37.6455H62.9545C62.1295 37.6455 61.4545 36.9705 61.4545 36.1455C61.4545 35.3205 62.1295 34.6455 62.9545 34.6455H75.0023V35.6409C75.0023 36.0091 75.2955 36.3023 75.6636 36.3023H77.9682C78.8068 37.8841 80.4636 38.9682 82.3727 38.9682H86.6955C87.0636 38.9682 87.3568 38.675 87.3568 38.3068V37.4H89.6068C89.975 37.4 90.2682 37.1068 90.2682 36.7386C90.2682 36.3705 89.975 36.0773 89.6068 36.0773H87.3568V31.8977H89.6068C89.975 31.8977 90.2682 31.6045 90.2682 31.2364C90.2682 30.8682 89.975 30.575 89.6068 30.575H87.3568V29.6614C87.3568 29.2932 87.0636 29 86.6955 29H82.3727C80.4636 29 78.8 30.0841 77.9682 31.6659H75.6705C75.3023 31.6659 75.0091 31.9591 75.0091 32.3273V33.3227H62.9545C61.4 33.3227 60.1318 34.5909 60.1318 36.1455C60.1318 37.7 61.4 38.9682 62.9545 38.9682H67.4C68.1295 38.9682 68.7227 39.5614 68.7227 40.2909V43.4136H52.6864C51.9751 43.4136 51.2928 43.6957 50.7892 44.198C50.2856 44.7004 50.0018 45.3819 50 46.0932V69.6636C50 71.1432 51.2068 72.35 52.6864 72.35H90.9568C92.4364 72.35 93.6432 71.1432 93.6432 69.6636V46.0932C93.6389 45.3815 93.3533 44.7004 92.8488 44.1984C92.3442 43.6964 91.6617 43.4143 90.95 43.4136ZM82.3727 30.3227H86.0341V37.6386H82.3727C80.3545 37.6386 78.7114 35.9955 78.7114 33.9773C78.7114 31.9591 80.3545 30.3227 82.3727 30.3227ZM76.325 32.9886H77.4909C77.4227 33.3091 77.3886 33.6432 77.3886 33.9841C77.3886 34.325 77.4227 34.6591 77.4909 34.9795H76.325V32.9886ZM92.3136 69.6636C92.3136 70.4136 91.7 71.0273 90.95 71.0273H52.6864C51.9364 71.0273 51.3227 70.4136 51.3227 69.6636V46.0932C51.3227 45.3432 51.9364 44.7295 52.6864 44.7295H90.9568C91.7068 44.7295 92.3205 45.3432 92.3205 46.0932V69.6636H92.3136Z" fill="black"/>
<path d="M79.0114 47.4977H78.9977C73.2705 47.5045 68.6205 52.1545 68.6205 57.8818C68.6205 63.6091 73.2773 68.2659 79.0045 68.2727H79.0182C84.7386 68.2727 89.3955 63.6091 89.3955 57.8818C89.3886 52.1545 84.7386 47.4977 79.0114 47.4977ZM88.0318 57.2136H85.5364C85.2227 54.1182 82.7545 51.65 79.6659 51.3432V48.8477C84.1318 49.175 87.7114 52.7477 88.0318 57.2136ZM79.0045 59.4909C78.1182 59.4909 77.3955 58.7682 77.3955 57.8818C77.396 57.5643 77.4906 57.2541 77.6673 56.9904C77.844 56.7266 78.0949 56.5212 78.3884 56.3999C78.6818 56.2787 79.0045 56.2471 79.3159 56.3092C79.6272 56.3712 79.9132 56.5242 80.1377 56.7487C80.3622 56.9732 80.5151 57.2591 80.5772 57.5705C80.6393 57.8818 80.6077 58.2046 80.4864 58.498C80.3652 58.7914 80.1597 59.0423 79.896 59.219C79.6322 59.3958 79.322 59.4904 79.0045 59.4909ZM78.3432 55.0318C77.8117 55.1562 77.3253 55.4262 76.9387 55.8116C76.5521 56.197 76.2806 56.6825 76.1545 57.2136H73.8023C73.9503 56.0611 74.4763 54.9901 75.298 54.1684C76.1197 53.3467 77.1906 52.8207 78.3432 52.6727V55.0318ZM76.1545 58.5364C76.2792 59.0688 76.5502 59.5559 76.9369 59.9426C77.3236 60.3293 77.8107 60.6003 78.3432 60.725V63.0773C75.9773 62.7773 74.0955 60.9023 73.8023 58.5295H76.1545V58.5364ZM79.6659 60.725C80.1976 60.6 80.6836 60.3289 81.0692 59.9421C81.4548 59.5553 81.7244 59.0684 81.8477 58.5364H84.2C83.9 60.9023 82.025 62.7841 79.6591 63.0773V60.725H79.6659ZM81.8477 57.2136C81.7232 56.6829 81.453 56.1975 81.0675 55.8121C80.682 55.4266 80.1966 55.1564 79.6659 55.0318V52.6795C82.0318 52.9795 83.9068 54.8545 84.2068 57.2204H81.8477V57.2136ZM78.3432 48.8477V51.3432C75.2477 51.6568 72.7795 54.1182 72.4659 57.2136H69.9705C70.2977 52.7477 73.8705 49.175 78.3432 48.8477ZM69.9705 58.5364H72.4659C72.7795 61.6318 75.2477 64.1068 78.3432 64.4136V66.9091C73.8705 66.5818 70.2977 63.0091 69.9705 58.5364ZM79.6659 66.9091V64.4136C82.7614 64.1 85.2295 61.6318 85.5364 58.5364H88.0318C87.7114 63.0091 84.1318 66.5886 79.6659 66.9091ZM62.5591 47.6954C62.4974 47.6315 62.4231 47.581 62.341 47.5469C62.2589 47.5129 62.1707 47.4962 62.0818 47.4977H57.0295C56.8523 47.4977 56.6818 47.5727 56.5523 47.6954L53.5523 50.7977C53.4295 50.9204 53.3682 51.0841 53.3682 51.2614V55.6659C53.3682 56.0341 53.6614 56.3273 54.0295 56.3273H65.0886C65.4568 56.3273 65.75 56.0341 65.75 55.6659V51.2614C65.75 51.0909 65.6818 50.9273 65.5659 50.7977L62.5591 47.6954ZM64.4273 54.9977H54.6909V51.5204L57.3159 48.8136H61.8091L64.4341 51.5204V54.9977H64.4273Z" fill="black"/>
<path d="M56.9136 51.65C56.5455 51.65 56.2523 51.9432 56.2523 52.3114V53.2932C56.2523 53.6614 56.5455 53.9545 56.9136 53.9545C57.2818 53.9545 57.575 53.6614 57.575 53.2932V52.3114C57.575 52.136 57.5053 51.9677 57.3813 51.8437C57.2573 51.7197 57.089 51.65 56.9136 51.65ZM61.55 52.3045V53.2864C61.55 53.6545 61.8432 53.9477 62.2114 53.9477C62.5795 53.9477 62.8727 53.6545 62.8727 53.2864V52.3045C62.8727 52.1291 62.803 51.9609 62.679 51.8369C62.555 51.7129 62.3868 51.6432 62.2114 51.6432C62.036 51.6432 61.8677 51.7129 61.7437 51.8369C61.6197 51.9609 61.55 52.1291 61.55 52.3045ZM55.7205 63.575C54.425 63.575 53.3682 64.625 53.3682 65.9205C53.3682 67.2159 54.425 68.2727 55.7205 68.2727C57.0159 68.2727 58.0659 67.2159 58.0659 65.9205C58.0659 64.625 57.0159 63.575 55.7205 63.575ZM55.7205 66.9432C55.1545 66.9432 54.6909 66.4795 54.6909 65.9136C54.6909 65.3477 55.1545 64.8909 55.7205 64.8909C56.2864 64.8909 56.7432 65.3477 56.7432 65.9136C56.7441 66.0485 56.7183 66.1822 56.6673 66.3071C56.6163 66.432 56.5411 66.5455 56.4461 66.6412C56.351 66.7369 56.2379 66.8129 56.1134 66.8647C55.9889 66.9165 55.8553 66.9432 55.7205 66.9432ZM63.4045 63.575C62.1091 63.575 61.0523 64.625 61.0523 65.9205C61.0523 67.2159 62.1091 68.2727 63.4045 68.2727C64.7 68.2727 65.75 67.2159 65.75 65.9205C65.75 64.625 64.7 63.575 63.4045 63.575ZM63.4045 66.9432C62.8386 66.9432 62.375 66.4795 62.375 65.9136C62.375 65.3477 62.8386 64.8909 63.4045 64.8909C63.9705 64.8909 64.4273 65.3477 64.4273 65.9136C64.4282 66.0485 64.4024 66.1822 64.3514 66.3071C64.3004 66.432 64.2252 66.5455 64.1301 66.6412C64.0351 66.7369 63.922 66.8129 63.7975 66.8647C63.673 66.9165 63.5394 66.9432 63.4045 66.9432ZM83.2114 35.9682C84.3023 35.9682 85.1955 35.075 85.1955 33.9841C85.1955 32.8932 84.3091 32 83.2114 32C82.1136 32 81.2273 32.8864 81.2273 33.9841C81.2205 35.075 82.1136 35.9682 83.2114 35.9682ZM83.2114 33.3227C83.3868 33.3227 83.555 33.3924 83.679 33.5164C83.803 33.6405 83.8727 33.8087 83.8727 33.9841C83.8727 34.1595 83.803 34.3277 83.679 34.4517C83.555 34.5758 83.3868 34.6455 83.2114 34.6455C83.036 34.6455 82.8677 34.5758 82.7437 34.4517C82.6197 34.3277 82.55 34.1595 82.55 33.9841C82.5432 33.6159 82.8432 33.3227 83.2114 33.3227Z" fill="black"/>
<defs>
<filter id="filter0_d_384_436" x="0" y="0" width="145" height="145" filterUnits="userSpaceOnUse" color-interpolation-filters="sRGB">
<feFlood flood-opacity="0" result="BackgroundImageFix"/>
<feColorMatrix in="SourceAlpha" type="matrix" values="0 0 0 0 0 0 0 0 0 0 0 0 0 0 0 0 0 0 127 0" result="hardAlpha"/>
<feOffset dy="4"/>
<feGaussianBlur stdDeviation="2"/>
<feComposite in2="hardAlpha" operator="out"/>
<feColorMatrix type="matrix" values="0 0 0 0 0 0 0 0 0 0 0 0 0 0 0 0 0 0 0.5 0"/>
<feBlend mode="normal" in2="BackgroundImageFix" result="effect1_dropShadow_384_436"/>
<feBlend mode="normal" in="SourceGraphic" in2="effect1_dropShadow_384_436" result="shape"/>
</filter>
</defs>
</svg>
