<svg width="145" height="145" viewBox="0 0 145 145" fill="none" xmlns="http://www.w3.org/2000/svg">
<g filter="url(#filter0_d_26_74)">
<path d="M4 15C4 6.71573 10.7157 0 19 0H126C134.284 0 141 6.71573 141 15V122C141 130.284 134.284 137 126 137H19C10.7157 137 4 130.284 4 122V15Z" fill="white"/>
</g>
<path d="M37.8952 89.324C37.8952 89.996 37.7332 90.626 37.4092 91.214C37.0972 91.802 36.5992 92.276 35.9152 92.636C35.2432 92.996 34.3912 93.176 33.3592 93.176H31.2532V98H28.7332V85.436H33.3592C34.3312 85.436 35.1592 85.604 35.8432 85.94C36.5272 86.276 37.0372 86.738 37.3732 87.326C37.7212 87.914 37.8952 88.58 37.8952 89.324ZM33.2512 91.142C33.9472 91.142 34.4632 90.986 34.7992 90.674C35.1352 90.35 35.3032 89.9 35.3032 89.324C35.3032 88.1 34.6192 87.488 33.2512 87.488H31.2532V91.142H33.2512ZM42.2044 89.576C42.5284 89.048 42.9484 88.634 43.4644 88.334C43.9924 88.034 44.5924 87.884 45.2644 87.884V90.53H44.5984C43.8064 90.53 43.2064 90.716 42.7984 91.088C42.4024 91.46 42.2044 92.108 42.2044 93.032V98H39.6844V88.028H42.2044V89.576ZM51.3897 98.162C50.4297 98.162 49.5657 97.952 48.7977 97.532C48.0297 97.1 47.4237 96.494 46.9797 95.714C46.5477 94.934 46.3317 94.034 46.3317 93.014C46.3317 91.994 46.5537 91.094 46.9977 90.314C47.4537 89.534 48.0717 88.934 48.8517 88.514C49.6317 88.082 50.5017 87.866 51.4617 87.866C52.4217 87.866 53.2917 88.082 54.0717 88.514C54.8517 88.934 55.4637 89.534 55.9077 90.314C56.3637 91.094 56.5917 91.994 56.5917 93.014C56.5917 94.034 56.3577 94.934 55.8897 95.714C55.4337 96.494 54.8097 97.1 54.0177 97.532C53.2377 97.952 52.3617 98.162 51.3897 98.162ZM51.3897 95.966C51.8457 95.966 52.2717 95.858 52.6677 95.642C53.0757 95.414 53.3997 95.078 53.6397 94.634C53.8797 94.19 53.9997 93.65 53.9997 93.014C53.9997 92.066 53.7477 91.34 53.2437 90.836C52.7517 90.32 52.1457 90.062 51.4257 90.062C50.7057 90.062 50.0997 90.32 49.6077 90.836C49.1277 91.34 48.8877 92.066 48.8877 93.014C48.8877 93.962 49.1217 94.694 49.5897 95.21C50.0697 95.714 50.6697 95.966 51.3897 95.966ZM57.7922 93.014C57.7922 91.982 58.0022 91.082 58.4222 90.314C58.8422 89.534 59.4242 88.934 60.1682 88.514C60.9122 88.082 61.7642 87.866 62.7242 87.866C63.9602 87.866 64.9802 88.178 65.7842 88.802C66.6002 89.414 67.1462 90.278 67.4222 91.394H64.7042C64.5602 90.962 64.3142 90.626 63.9662 90.386C63.6302 90.134 63.2102 90.008 62.7062 90.008C61.9862 90.008 61.4162 90.272 60.9962 90.8C60.5762 91.316 60.3662 92.054 60.3662 93.014C60.3662 93.962 60.5762 94.7 60.9962 95.228C61.4162 95.744 61.9862 96.002 62.7062 96.002C63.7262 96.002 64.3922 95.546 64.7042 94.634H67.4222C67.1462 95.714 66.6002 96.572 65.7842 97.208C64.9682 97.844 63.9482 98.162 62.7242 98.162C61.7642 98.162 60.9122 97.952 60.1682 97.532C59.4242 97.1 58.8422 96.5 58.4222 95.732C58.0022 94.952 57.7922 94.046 57.7922 93.014ZM78.5384 92.798C78.5384 93.158 78.5144 93.482 78.4664 93.77H71.1764C71.2364 94.49 71.4884 95.054 71.9324 95.462C72.3764 95.87 72.9224 96.074 73.5704 96.074C74.5064 96.074 75.1724 95.672 75.5684 94.868H78.2864C77.9984 95.828 77.4464 96.62 76.6304 97.244C75.8144 97.856 74.8124 98.162 73.6244 98.162C72.6644 98.162 71.8004 97.952 71.0324 97.532C70.2764 97.1 69.6824 96.494 69.2504 95.714C68.8304 94.934 68.6204 94.034 68.6204 93.014C68.6204 91.982 68.8304 91.076 69.2504 90.296C69.6704 89.516 70.2584 88.916 71.0144 88.496C71.7704 88.076 72.6404 87.866 73.6244 87.866C74.5724 87.866 75.4184 88.07 76.1624 88.478C76.9184 88.886 77.5004 89.468 77.9084 90.224C78.3284 90.968 78.5384 91.826 78.5384 92.798ZM75.9284 92.078C75.9164 91.43 75.6824 90.914 75.2264 90.53C74.7704 90.134 74.2124 89.936 73.5524 89.936C72.9284 89.936 72.4004 90.128 71.9684 90.512C71.5484 90.884 71.2904 91.406 71.1944 92.078H75.9284ZM84.1937 98.162C83.3777 98.162 82.6457 98.018 81.9977 97.73C81.3497 97.43 80.8337 97.028 80.4497 96.524C80.0777 96.02 79.8737 95.462 79.8377 94.85H82.3757C82.4237 95.234 82.6097 95.552 82.9337 95.804C83.2697 96.056 83.6837 96.182 84.1757 96.182C84.6557 96.182 85.0277 96.086 85.2917 95.894C85.5677 95.702 85.7057 95.456 85.7057 95.156C85.7057 94.832 85.5377 94.592 85.2017 94.436C84.8777 94.268 84.3557 94.088 83.6357 93.896C82.8917 93.716 82.2797 93.53 81.7997 93.338C81.3317 93.146 80.9237 92.852 80.5757 92.456C80.2397 92.06 80.0717 91.526 80.0717 90.854C80.0717 90.302 80.2277 89.798 80.5397 89.342C80.8637 88.886 81.3197 88.526 81.9077 88.262C82.5077 87.998 83.2097 87.866 84.0137 87.866C85.2017 87.866 86.1497 88.166 86.8577 88.766C87.5657 89.354 87.9557 90.152 88.0277 91.16H85.6157C85.5797 90.764 85.4117 90.452 85.1117 90.224C84.8237 89.984 84.4337 89.864 83.9417 89.864C83.4857 89.864 83.1317 89.948 82.8797 90.116C82.6397 90.284 82.5197 90.518 82.5197 90.818C82.5197 91.154 82.6877 91.412 83.0237 91.592C83.3597 91.76 83.8817 91.934 84.5897 92.114C85.3097 92.294 85.9037 92.48 86.3717 92.672C86.8397 92.864 87.2417 93.164 87.5777 93.572C87.9257 93.968 88.1057 94.496 88.1177 95.156C88.1177 95.732 87.9557 96.248 87.6317 96.704C87.3197 97.16 86.8637 97.52 86.2637 97.784C85.6757 98.036 84.9857 98.162 84.1937 98.162ZM94.0023 98.162C93.1863 98.162 92.4543 98.018 91.8063 97.73C91.1583 97.43 90.6423 97.028 90.2583 96.524C89.8863 96.02 89.6823 95.462 89.6463 94.85H92.1843C92.2323 95.234 92.4183 95.552 92.7423 95.804C93.0783 96.056 93.4923 96.182 93.9843 96.182C94.4643 96.182 94.8363 96.086 95.1003 95.894C95.3763 95.702 95.5143 95.456 95.5143 95.156C95.5143 94.832 95.3463 94.592 95.0103 94.436C94.6863 94.268 94.1643 94.088 93.4443 93.896C92.7003 93.716 92.0883 93.53 91.6083 93.338C91.1403 93.146 90.7323 92.852 90.3843 92.456C90.0483 92.06 89.8803 91.526 89.8803 90.854C89.8803 90.302 90.0363 89.798 90.3483 89.342C90.6723 88.886 91.1283 88.526 91.7163 88.262C92.3163 87.998 93.0183 87.866 93.8223 87.866C95.0103 87.866 95.9583 88.166 96.6663 88.766C97.3743 89.354 97.7643 90.152 97.8363 91.16H95.4243C95.3883 90.764 95.2203 90.452 94.9203 90.224C94.6323 89.984 94.2423 89.864 93.7503 89.864C93.2943 89.864 92.9403 89.948 92.6883 90.116C92.4483 90.284 92.3283 90.518 92.3283 90.818C92.3283 91.154 92.4963 91.412 92.8323 91.592C93.1683 91.76 93.6903 91.934 94.3983 92.114C95.1183 92.294 95.7123 92.48 96.1803 92.672C96.6483 92.864 97.0503 93.164 97.3863 93.572C97.7343 93.968 97.9143 94.496 97.9263 95.156C97.9263 95.732 97.7643 96.248 97.4403 96.704C97.1283 97.16 96.6723 97.52 96.0723 97.784C95.4843 98.036 94.7943 98.162 94.0023 98.162ZM104.423 98.162C103.463 98.162 102.599 97.952 101.831 97.532C101.063 97.1 100.457 96.494 100.013 95.714C99.5809 94.934 99.3649 94.034 99.3649 93.014C99.3649 91.994 99.5869 91.094 100.031 90.314C100.487 89.534 101.105 88.934 101.885 88.514C102.665 88.082 103.535 87.866 104.495 87.866C105.455 87.866 106.325 88.082 107.105 88.514C107.885 88.934 108.497 89.534 108.941 90.314C109.397 91.094 109.625 91.994 109.625 93.014C109.625 94.034 109.391 94.934 108.923 95.714C108.467 96.494 107.843 97.1 107.051 97.532C106.271 97.952 105.395 98.162 104.423 98.162ZM104.423 95.966C104.879 95.966 105.305 95.858 105.701 95.642C106.109 95.414 106.433 95.078 106.673 94.634C106.913 94.19 107.033 93.65 107.033 93.014C107.033 92.066 106.781 91.34 106.277 90.836C105.785 90.32 105.179 90.062 104.459 90.062C103.739 90.062 103.133 90.32 102.641 90.836C102.161 91.34 101.921 92.066 101.921 93.014C101.921 93.962 102.155 94.694 102.623 95.21C103.103 95.714 103.703 95.966 104.423 95.966ZM113.993 89.576C114.317 89.048 114.737 88.634 115.253 88.334C115.781 88.034 116.381 87.884 117.053 87.884V90.53H116.387C115.595 90.53 114.995 90.716 114.587 91.088C114.191 91.46 113.993 92.108 113.993 93.032V98H111.473V88.028H113.993V89.576Z" fill="black"/>
<path d="M94.3354 47.7241C94.5117 47.7241 94.6807 47.654 94.8054 47.5294C94.93 47.4048 95 47.2357 95 47.0595C95 46.8832 94.93 46.7142 94.8054 46.5896C94.6807 46.465 94.5117 46.3949 94.3354 46.3949H91.6392V41.2835H94.3354C94.5117 41.2835 94.6807 41.2135 94.8054 41.0889C94.93 40.9643 95 40.7952 95 40.619C95 40.4427 94.93 40.2737 94.8054 40.1491C94.6807 40.0244 94.5117 39.9544 94.3354 39.9544H91.6392V35.0253C91.6391 34.8491 91.5691 34.6801 91.4445 34.5555C91.3199 34.4309 91.1509 34.3609 90.9747 34.3608H86.0456V31.6646C86.0456 31.4883 85.9756 31.3193 85.8509 31.1946C85.7263 31.07 85.5573 31 85.381 31C85.2048 31 85.0357 31.07 84.9111 31.1946C84.7865 31.3193 84.7165 31.4883 84.7165 31.6646V34.3608H79.6051V31.6646C79.6051 31.4883 79.535 31.3193 79.4104 31.1946C79.2858 31.07 79.1168 31 78.9405 31C78.7643 31 78.5952 31.07 78.4706 31.1946C78.346 31.3193 78.2759 31.4883 78.2759 31.6646V34.3608H73.1646V31.6646C73.1646 31.4883 73.0945 31.3193 72.9699 31.1946C72.8453 31.07 72.6763 31 72.5 31C72.3237 31 72.1547 31.07 72.0301 31.1946C71.9055 31.3193 71.8354 31.4883 71.8354 31.6646V34.3608H66.7241V31.6646C66.7241 31.4883 66.654 31.3193 66.5294 31.1946C66.4048 31.07 66.2357 31 66.0595 31C65.8832 31 65.7142 31.07 65.5896 31.1946C65.465 31.3193 65.3949 31.4883 65.3949 31.6646V34.3608H60.2835V31.6646C60.2835 31.4883 60.2135 31.3193 60.0889 31.1946C59.9643 31.07 59.7952 31 59.619 31C59.4427 31 59.2737 31.07 59.1491 31.1946C59.0244 31.3193 58.9544 31.4883 58.9544 31.6646V34.3608H54.0253C53.8491 34.3609 53.6801 34.4309 53.5555 34.5555C53.4309 34.6801 53.3609 34.8491 53.3608 35.0253V39.9544H50.6646C50.4883 39.9544 50.3193 40.0244 50.1946 40.1491C50.07 40.2737 50 40.4427 50 40.619C50 40.7952 50.07 40.9643 50.1946 41.0889C50.3193 41.2135 50.4883 41.2835 50.6646 41.2835H53.3608V46.3949H50.6646C50.4883 46.3949 50.3193 46.465 50.1946 46.5896C50.07 46.7142 50 46.8832 50 47.0595C50 47.2357 50.07 47.4048 50.1946 47.5294C50.3193 47.654 50.4883 47.7241 50.6646 47.7241H53.3608V52.8354H50.6646C50.4883 52.8354 50.3193 52.9055 50.1946 53.0301C50.07 53.1547 50 53.3237 50 53.5C50 53.6763 50.07 53.8453 50.1946 53.9699C50.3193 54.0945 50.4883 54.1646 50.6646 54.1646H53.3608V59.2759H50.6646C50.4883 59.2759 50.3193 59.346 50.1946 59.4706C50.07 59.5952 50 59.7643 50 59.9405C50 60.1168 50.07 60.2858 50.1946 60.4104C50.3193 60.535 50.4883 60.6051 50.6646 60.6051H53.3608V65.7165H50.6646C50.4883 65.7165 50.3193 65.7865 50.1946 65.9111C50.07 66.0357 50 66.2048 50 66.381C50 66.5573 50.07 66.7263 50.1946 66.8509C50.3193 66.9756 50.4883 67.0456 50.6646 67.0456H53.3608V71.9747C53.3609 72.1509 53.4309 72.3199 53.5555 72.4445C53.6801 72.5691 53.8491 72.6391 54.0253 72.6392H58.9544V75.3354C58.9544 75.5117 59.0244 75.6807 59.1491 75.8054C59.2737 75.93 59.4427 76 59.619 76C59.7952 76 59.9643 75.93 60.0889 75.8054C60.2135 75.6807 60.2835 75.5117 60.2835 75.3354V72.6392H65.3949V75.3354C65.3949 75.5117 65.465 75.6807 65.5896 75.8054C65.7142 75.93 65.8832 76 66.0595 76C66.2357 76 66.4048 75.93 66.5294 75.8054C66.654 75.6807 66.7241 75.5117 66.7241 75.3354V72.6392H71.8354V75.3354C71.8354 75.5117 71.9055 75.6807 72.0301 75.8054C72.1547 75.93 72.3237 76 72.5 76C72.6763 76 72.8453 75.93 72.9699 75.8054C73.0945 75.6807 73.1646 75.5117 73.1646 75.3354V72.6392H78.2759V75.3354C78.2759 75.5117 78.346 75.6807 78.4706 75.8054C78.5952 75.93 78.7643 76 78.9405 76C79.1168 76 79.2858 75.93 79.4104 75.8054C79.535 75.6807 79.6051 75.5117 79.6051 75.3354V72.6392H84.7165V75.3354C84.7165 75.5117 84.7865 75.6807 84.9111 75.8054C85.0357 75.93 85.2048 76 85.381 76C85.5573 76 85.7263 75.93 85.8509 75.8054C85.9756 75.6807 86.0456 75.5117 86.0456 75.3354V72.6392H90.9747C91.1509 72.6391 91.3199 72.5691 91.4445 72.4445C91.5691 72.3199 91.6391 72.1509 91.6392 71.9747V67.0456H94.3354C94.5117 67.0456 94.6807 66.9756 94.8054 66.8509C94.93 66.7263 95 66.5573 95 66.381C95 66.2048 94.93 66.0357 94.8054 65.9111C94.6807 65.7865 94.5117 65.7165 94.3354 65.7165H91.6392V60.6051H94.3354C94.5117 60.6051 94.6807 60.535 94.8054 60.4104C94.93 60.2858 95 60.1168 95 59.9405C95 59.7643 94.93 59.5952 94.8054 59.4706C94.6807 59.346 94.5117 59.2759 94.3354 59.2759H91.6392V54.1646H94.3354C94.5117 54.1646 94.6807 54.0945 94.8054 53.9699C94.93 53.8453 95 53.6763 95 53.5C95 53.3237 94.93 53.1547 94.8054 53.0301C94.6807 52.9055 94.5117 52.8354 94.3354 52.8354H91.6392V47.7241H94.3354ZM90.3101 71.3101H54.6899V35.6899H90.3101V71.3101Z" fill="black"/>
<path d="M87.557 64.4747C87.3807 64.4748 87.2118 64.5448 87.0872 64.6694C86.9626 64.794 86.8925 64.963 86.8924 65.1392V67.8924H84.1392C83.963 67.8924 83.794 67.9624 83.6693 68.087C83.5447 68.2117 83.4747 68.3807 83.4747 68.557C83.4747 68.7332 83.5447 68.9022 83.6693 69.0269C83.794 69.1515 83.963 69.2215 84.1392 69.2215H87.557C87.7332 69.2214 87.9022 69.1514 88.0268 69.0268C88.1514 68.9021 88.2214 68.7332 88.2215 68.557V65.1392C88.2214 64.963 88.1514 64.794 88.0268 64.6694C87.9022 64.5448 87.7332 64.4748 87.557 64.4747ZM57.443 69.2215H60.8608C61.037 69.2215 61.2061 69.1515 61.3307 69.0269C61.4553 68.9022 61.5253 68.7332 61.5253 68.557C61.5253 68.3807 61.4553 68.2117 61.3307 68.087C61.2061 67.9624 61.037 67.8924 60.8608 67.8924H58.1076V65.1392C58.1076 64.963 58.0376 64.7939 57.913 64.6693C57.7883 64.5447 57.6193 64.4747 57.443 64.4747C57.2668 64.4747 57.0978 64.5447 56.9731 64.6693C56.8485 64.7939 56.7785 64.963 56.7785 65.1392V68.557C56.7786 68.7332 56.8486 68.9021 56.9732 69.0268C57.0979 69.1514 57.2668 69.2214 57.443 69.2215ZM84.1392 39.1076H86.8924V41.8608C86.8924 42.037 86.9624 42.206 87.0871 42.3307C87.2117 42.4553 87.3807 42.5253 87.557 42.5253C87.7332 42.5253 87.9023 42.4553 88.0269 42.3307C88.1515 42.206 88.2215 42.037 88.2215 41.8608V38.443C88.2214 38.2668 88.1514 38.0978 88.0268 37.9732C87.9022 37.8486 87.7332 37.7786 87.557 37.7785H84.1392C83.963 37.7785 83.794 37.8485 83.6693 37.9731C83.5447 38.0977 83.4747 38.2668 83.4747 38.443C83.4747 38.6193 83.5447 38.7883 83.6693 38.9129C83.794 39.0376 83.963 39.1076 84.1392 39.1076ZM57.443 42.5253C57.6193 42.5252 57.7882 42.4552 57.9128 42.3306C58.0375 42.2059 58.1075 42.037 58.1076 41.8608V39.1076H60.8608C61.037 39.1076 61.2061 39.0376 61.3307 38.9129C61.4553 38.7883 61.5253 38.6193 61.5253 38.443C61.5253 38.2668 61.4553 38.0977 61.3307 37.9731C61.2061 37.8485 61.037 37.7785 60.8608 37.7785H57.443C57.2668 37.7786 57.0979 37.8486 56.9732 37.9732C56.8486 38.0978 56.7786 38.2668 56.7785 38.443V41.8608C56.7786 42.037 56.8486 42.2059 56.9732 42.3306C57.0979 42.4552 57.2668 42.5252 57.443 42.5253ZM64.8671 57.8196C65.4565 57.8178 66.0393 57.6963 66.5803 57.4624C67.1212 57.2285 67.609 56.8871 68.0141 56.459L66.9451 55.4621C66.6882 55.7632 66.3698 56.0057 66.0114 56.1735C65.653 56.3412 65.2628 56.4303 64.8671 56.4347C64.1051 56.4102 63.3825 56.0902 62.8522 55.5425C62.3219 54.9949 62.0253 54.2624 62.0253 53.5C62.0253 52.7376 62.3219 52.0051 62.8522 51.4574C63.3825 50.9098 64.1051 50.5898 64.8671 50.5653C65.2611 50.5697 65.6494 50.6588 66.0059 50.8266C66.3624 50.9944 66.6785 51.237 66.9329 51.5378L68.0141 50.5292C67.5231 49.9981 66.9073 49.5981 66.2226 49.3653C65.5378 49.1326 64.8057 49.0745 64.0928 49.1964C63.38 49.3183 62.7088 49.6163 62.1402 50.0633C61.5717 50.5103 61.1238 51.0923 60.8372 51.7563C60.5506 52.4203 60.4344 53.1454 60.499 53.8658C60.5637 54.5861 60.8073 55.2789 61.2075 55.8813C61.6078 56.4836 62.1522 56.9765 62.7913 57.3151C63.4304 57.6537 64.1439 57.8274 64.8671 57.8204V57.8196ZM70.7015 54.8671H72.816C74.6008 54.8671 75.9386 53.7248 75.9386 52.0949C75.9386 50.4651 74.6023 49.3228 72.816 49.3228H69.1829V57.6738H70.7019L70.7015 54.8671ZM70.7015 50.7233H72.6458C73.6787 50.7233 74.3957 51.2458 74.3957 52.0964C74.3957 52.9471 73.6772 53.4696 72.6458 53.4696H70.7015V50.7233ZM80.8362 57.8196C81.3273 57.84 81.8172 57.7579 82.2749 57.5786C82.7325 57.3992 83.1478 57.1266 83.4943 56.778C83.8408 56.4294 84.1109 56.0125 84.2874 55.5538C84.464 55.0951 84.5431 54.6046 84.5198 54.1137V49.3262H83.011V54.0651C83.011 55.4504 82.1122 56.4464 80.8362 56.4464C79.5724 56.4464 78.6717 55.4504 78.6717 54.0651V49.3262H77.1527V54.1137C77.1304 54.6044 77.2102 55.0943 77.3871 55.5526C77.564 56.0108 77.8342 56.4273 78.1805 56.7757C78.5268 57.1241 78.9416 57.3967 79.3988 57.5764C79.8559 57.7561 80.3454 57.8389 80.8362 57.8196Z" fill="black"/>
<defs>
<filter id="filter0_d_26_74" x="0" y="0" width="145" height="145" filterUnits="userSpaceOnUse" color-interpolation-filters="sRGB">
<feFlood flood-opacity="0" result="BackgroundImageFix"/>
<feColorMatrix in="SourceAlpha" type="matrix" values="0 0 0 0 0 0 0 0 0 0 0 0 0 0 0 0 0 0 127 0" result="hardAlpha"/>
<feOffset dy="4"/>
<feGaussianBlur stdDeviation="2"/>
<feComposite in2="hardAlpha" operator="out"/>
<feColorMatrix type="matrix" values="0 0 0 0 0 0 0 0 0 0 0 0 0 0 0 0 0 0 0.5 0"/>
<feBlend mode="normal" in2="BackgroundImageFix" result="effect1_dropShadow_26_74"/>
<feBlend mode="normal" in="SourceGraphic" in2="effect1_dropShadow_26_74" result="shape"/>
</filter>
</defs>
</svg>
