<svg width="145" height="145" viewBox="0 0 145 145" fill="none" xmlns="http://www.w3.org/2000/svg">
<g filter="url(#filter0_d_384_432)">
<path d="M4 15C4 6.71573 10.7157 0 19 0H126C134.284 0 141 6.71573 141 15V122C141 130.284 134.284 137 126 137H19C10.7157 137 4 130.284 4 122V15Z" fill="white"/>
</g>
<path d="M60.9193 98L58.1473 93.104H56.9593V98H54.4393V85.436H59.1553C60.1273 85.436 60.9553 85.61 61.6393 85.958C62.3233 86.294 62.8333 86.756 63.1693 87.344C63.5173 87.92 63.6913 88.568 63.6913 89.288C63.6913 90.116 63.4513 90.866 62.9713 91.538C62.4913 92.198 61.7773 92.654 60.8293 92.906L63.8353 98H60.9193ZM56.9593 91.214H59.0653C59.7493 91.214 60.2593 91.052 60.5953 90.728C60.9313 90.392 61.0993 89.93 61.0993 89.342C61.0993 88.766 60.9313 88.322 60.5953 88.01C60.2593 87.686 59.7493 87.524 59.0653 87.524H56.9593V91.214ZM73.6745 95.606H68.6705L67.8425 98H65.1965L69.7145 85.418H72.6485L77.1665 98H74.5025L73.6745 95.606ZM72.9905 93.59L71.1725 88.334L69.3545 93.59H72.9905ZM92.5533 85.436V98H90.0333V89.828L86.6673 98H84.7593L81.3753 89.828V98H78.8553V85.436H81.7173L85.7133 94.778L89.7093 85.436H92.5533Z" fill="black"/>
<path d="M60.0347 74.2912C59.8191 74.2921 59.6055 74.2501 59.4063 74.1677C59.207 74.0854 59.0262 73.9642 58.8742 73.8113L52.5341 67.4704C52.277 67.2087 52.1141 66.869 52.0711 66.5046C52.0281 66.1402 52.1075 65.7719 52.2967 65.4576C52.4675 65.1559 52.5347 64.8065 52.4881 64.463C52.4414 64.1195 52.2834 63.8007 52.0383 63.5555C51.7932 63.3103 51.4745 63.1522 51.131 63.1054C50.7875 63.0586 50.4381 63.1257 50.1364 63.2965C49.8219 63.4862 49.4532 63.5659 49.0884 63.5229C48.7237 63.4799 48.3836 63.3167 48.1219 63.059L47.4795 62.4167C47.1726 62.109 47.0002 61.6922 47 61.2576C46.9998 60.823 47.172 60.406 47.4787 60.0981L81.0978 26.479C81.4054 26.1723 81.8222 26 82.2566 26C82.6911 26 83.1078 26.1723 83.4155 26.479L84.0587 27.1231C84.5885 27.6621 84.6852 28.491 84.2953 29.1375C84.1257 29.4393 84.0594 29.7883 84.1066 30.1312C84.1539 30.4742 84.312 30.7922 84.5568 31.0369C84.8017 31.2816 85.1199 31.4395 85.4629 31.4864C85.8059 31.5334 86.1548 31.4669 86.4564 31.297C86.7711 31.1078 87.1396 31.0285 87.5042 31.0715C87.8688 31.1145 88.2089 31.2773 88.4709 31.5344L94.811 37.8754C95.1179 38.1832 95.2902 38.6001 95.29 39.0348C95.2899 39.4695 95.1173 39.8864 94.8101 40.1939L61.1936 73.8122C61.0418 73.9648 60.8612 74.0858 60.6622 74.168C60.4633 74.2502 60.25 74.2921 60.0347 74.2912ZM50.937 61.4328C51.7918 61.4328 52.6116 61.7727 53.2156 62.3775C53.718 62.8812 54.0417 63.5355 54.1372 64.2405C54.2327 64.9455 54.0948 65.6623 53.7446 66.2815L60.053 72.6341L93.6338 39.0151L87.292 32.7125C86.6771 33.0764 85.9584 33.2252 85.2495 33.1353C84.5406 33.0454 83.8818 32.7219 83.3772 32.2159C82.8748 31.7123 82.551 31.058 82.4554 30.3531C82.3597 29.6482 82.4973 28.9313 82.8473 28.3119L82.2375 27.6571L48.6567 61.2761L49.3007 61.881C49.7961 61.5875 50.3613 61.4327 50.937 61.4328Z" fill="black"/>
<path d="M64.0229 76.0008C63.8074 76.0015 63.594 75.9595 63.3949 75.8771C63.1958 75.7948 63.0151 75.6737 62.8632 75.5209L60.5846 73.2423C60.505 73.1654 60.4415 73.0735 60.3979 72.9719C60.3542 72.8702 60.3312 72.7609 60.3303 72.6503C60.3293 72.5396 60.3504 72.4299 60.3923 72.3276C60.4342 72.2252 60.496 72.1321 60.5742 72.0539C60.6525 71.9757 60.7455 71.9138 60.8479 71.8719C60.9503 71.8301 61.06 71.809 61.1706 71.8099C61.2812 71.8109 61.3905 71.8339 61.4922 71.8775C61.5938 71.9212 61.6858 71.9847 61.7626 72.0642L64.042 74.3437L71.411 66.9364L69.1316 64.6953C68.9754 64.5389 68.8877 64.327 68.8877 64.106C68.8878 63.885 68.9757 63.673 69.132 63.5168C69.2883 63.3606 69.5003 63.2729 69.7213 63.273C69.9423 63.273 70.1542 63.3609 70.3105 63.5172L72.5891 65.7958C72.8958 66.1035 73.0681 66.5202 73.0681 66.9547C73.0681 67.3892 72.8958 67.8059 72.5891 68.1136L65.1809 75.5217C65.0292 75.6743 64.8487 75.7952 64.6499 75.8774C64.4512 75.9596 64.238 76.0016 64.0229 76.0008ZM76.5589 63.4647C76.3435 63.4656 76.1301 63.4237 75.931 63.3415C75.7319 63.2593 75.5512 63.1383 75.3992 62.9857L73.1206 60.7063C72.9688 60.5491 72.8849 60.3387 72.8868 60.1202C72.8887 59.9018 72.9763 59.6929 73.1307 59.5384C73.2852 59.3839 73.4942 59.2963 73.7126 59.2944C73.931 59.2925 74.1415 59.3765 74.2986 59.5282L76.5781 61.8077L95.3425 43.0041L93.0639 40.7629C92.9121 40.6058 92.8282 40.3954 92.8301 40.1769C92.832 39.9585 92.9196 39.7495 93.0741 39.5951C93.2285 39.4406 93.4375 39.353 93.6559 39.3511C93.8744 39.3492 94.0848 39.4332 94.2419 39.5849L96.5205 41.8643C96.8276 42.172 97 42.589 97 43.0236C97 43.4583 96.8276 43.8752 96.5205 44.1829L77.7169 62.9857C77.5652 63.1382 77.3848 63.2591 77.186 63.3414C76.9872 63.4236 76.774 63.4655 76.5589 63.4647Z" fill="black"/>
<path d="M66.8713 73.4864C66.7619 73.4865 66.6535 73.465 66.5525 73.4231C66.4514 73.3812 66.3596 73.3198 66.2823 73.2423L63.433 70.393C63.285 70.2352 63.2042 70.0259 63.2077 69.8096C63.2112 69.5932 63.2988 69.3867 63.4518 69.2338C63.6049 69.0809 63.8115 68.9935 64.0278 68.9901C64.2442 68.9867 64.4533 69.0677 64.6111 69.2158L67.4603 72.0651C67.5768 72.1816 67.6561 72.33 67.6883 72.4916C67.7204 72.6532 67.7039 72.8207 67.6409 72.9729C67.5778 73.1251 67.4711 73.2552 67.3341 73.3468C67.1971 73.4383 67.0361 73.4872 66.8713 73.4872V73.4864ZM69.7214 70.6379C69.6119 70.6382 69.5034 70.6167 69.4021 70.5748C69.3009 70.5329 69.209 70.4714 69.1316 70.3938L66.2823 67.5446C66.1261 67.3882 66.0384 67.1762 66.0384 66.9552C66.0385 66.7342 66.1264 66.5223 66.2827 66.3661C66.4391 66.2099 66.651 66.1222 66.872 66.1222C67.093 66.1223 67.305 66.2102 67.4612 66.3665L70.3105 69.2158C70.4269 69.3323 70.5063 69.4807 70.5384 69.6423C70.5705 69.8039 70.554 69.9714 70.491 70.1236C70.4279 70.2758 70.3212 70.4059 70.1842 70.4975C70.0472 70.589 69.8862 70.6379 69.7214 70.6379ZM79.4082 60.9504C79.2986 60.9506 79.1901 60.9291 79.0889 60.8873C78.9876 60.8454 78.8957 60.7838 78.8183 60.7063L75.969 57.857C75.821 57.6992 75.7402 57.4899 75.7437 57.2736C75.7473 57.0572 75.8348 56.8507 75.9879 56.6978C76.1409 56.5448 76.3475 56.4574 76.5638 56.4541C76.7802 56.4507 76.9893 56.5317 77.1471 56.6798L79.9964 59.5291C80.1126 59.6456 80.1916 59.794 80.2236 59.9554C80.2556 60.1169 80.239 60.2842 80.176 60.4362C80.113 60.5883 80.0063 60.7182 79.8696 60.8097C79.7328 60.9012 79.5719 60.9502 79.4073 60.9504H79.4082ZM82.2575 58.1019C82.1479 58.1021 82.0394 58.0807 81.9381 58.0388C81.8369 57.9969 81.745 57.9354 81.6676 57.8578L78.8183 55.0085C78.6666 54.8514 78.5826 54.641 78.5845 54.4225C78.5864 54.2041 78.674 53.9951 78.8285 53.8406C78.9829 53.6862 79.1919 53.5986 79.4103 53.5967C79.6288 53.5948 79.8392 53.6787 79.9964 53.8305L82.8456 56.6798C82.9621 56.7963 83.0414 56.9447 83.0736 57.1063C83.1057 57.2679 83.0892 57.4354 83.0262 57.5876C82.9631 57.7398 82.8564 57.8699 82.7194 57.9615C82.5824 58.053 82.4222 58.1019 82.2575 58.1019ZM85.1067 55.2526C84.9972 55.2529 84.8887 55.2314 84.7874 55.1895C84.6862 55.1476 84.5943 55.0861 84.5169 55.0085L81.6676 52.1593C81.5158 52.0021 81.4319 51.7917 81.4338 51.5732C81.4357 51.3548 81.5233 51.1458 81.6778 50.9914C81.8322 50.8369 82.0412 50.7493 82.2596 50.7474C82.4781 50.7455 82.6885 50.8295 82.8456 50.9812L85.6949 53.8305C85.8114 53.947 85.8907 54.0954 85.9229 54.257C85.955 54.4186 85.9385 54.5861 85.8755 54.7383C85.8124 54.8905 85.7057 55.0206 85.5687 55.1122C85.4317 55.2037 85.2707 55.2526 85.1059 55.2526H85.1067ZM87.9544 52.4034C87.8449 52.4035 87.7366 52.382 87.6355 52.3401C87.5344 52.2982 87.4426 52.2367 87.3653 52.1593L84.5169 49.31C84.4373 49.2331 84.3738 49.1412 84.3302 49.0395C84.2865 48.9379 84.2635 48.8286 84.2626 48.718C84.2616 48.6073 84.2827 48.4976 84.3246 48.3952C84.3665 48.2928 84.4283 48.1998 84.5066 48.1216C84.5848 48.0434 84.6778 47.9815 84.7802 47.9396C84.8826 47.8977 84.9923 47.8767 85.1029 47.8776C85.2135 47.8786 85.3229 47.9016 85.4245 47.9452C85.5261 47.9889 85.6181 48.0524 85.6949 48.1319L88.5442 50.9812C88.6607 51.0978 88.7401 51.2463 88.7722 51.408C88.8043 51.5696 88.7877 51.7372 88.7246 51.8894C88.6614 52.0417 88.5545 52.1718 88.4174 52.2632C88.2803 52.3547 88.1192 52.4035 87.9544 52.4034ZM90.8036 49.5549C90.6942 49.5551 90.5858 49.5336 90.4848 49.4917C90.3837 49.4498 90.2919 49.3883 90.2146 49.3108L87.3653 46.4615C87.2858 46.3847 87.2223 46.2927 87.1786 46.1911C87.135 46.0894 87.112 45.9801 87.111 45.8695C87.1101 45.7589 87.1311 45.6492 87.173 45.5468C87.2149 45.4444 87.2768 45.3514 87.355 45.2732C87.4332 45.1949 87.5263 45.1331 87.6287 45.0912C87.731 45.0493 87.8407 45.0282 87.9514 45.0292C88.062 45.0301 88.1713 45.0531 88.2729 45.0968C88.3746 45.1404 88.4665 45.2039 88.5434 45.2835L91.3927 48.1328C91.5091 48.2493 91.5885 48.3977 91.6206 48.5593C91.6527 48.7209 91.6362 48.8884 91.5732 49.0406C91.5101 49.1928 91.4034 49.3229 91.2664 49.4144C91.1294 49.506 90.9684 49.5549 90.8036 49.5549ZM93.6529 46.7056C93.5435 46.7057 93.4351 46.6842 93.3341 46.6423C93.233 46.6004 93.1412 46.539 93.0639 46.4615L90.2146 43.6122C90.0629 43.4551 89.9789 43.2447 89.9808 43.0262C89.9827 42.8078 90.0703 42.5988 90.2248 42.4443C90.3792 42.2899 90.5882 42.2023 90.8066 42.2004C91.0251 42.1985 91.2355 42.2824 91.3927 42.4342L94.2419 45.2835C94.3584 45.4 94.4377 45.5484 94.4699 45.71C94.502 45.8716 94.4855 46.0391 94.4225 46.1913C94.3594 46.3435 94.2527 46.4736 94.1157 46.5652C93.9787 46.6567 93.8177 46.7056 93.6529 46.7056ZM61.1736 67.4429C60.732 67.4437 60.3071 67.268 59.9956 66.9555L54.3361 61.2961C54.0239 60.9834 53.8486 60.5596 53.8486 60.1177C53.8486 59.6758 54.0239 59.2519 54.3361 58.9392L58.2851 54.9894C58.5978 54.6769 59.0216 54.5014 59.4636 54.5014C59.9056 54.5014 60.3294 54.6769 60.6421 54.9894L66.3015 60.6488C66.9513 61.2995 66.9513 62.3542 66.3015 63.0057L62.3516 66.9547C62.1971 67.1097 62.0135 67.2326 61.8113 67.3164C61.6092 67.4002 61.3924 67.4432 61.1736 67.4429ZM59.4632 56.1674L55.5133 60.1173L61.1728 65.7775L65.1234 61.8268L59.4632 56.1674ZM68.5809 60.0348C68.1393 60.0356 67.7153 59.8598 67.4029 59.5482L61.7434 53.888C61.4313 53.5754 61.2559 53.1517 61.2559 52.7099C61.2559 52.2682 61.4313 51.8445 61.7434 51.5319L65.6933 47.5821C66.0059 47.2696 66.4298 47.0941 66.8717 47.0941C67.3137 47.0941 67.7376 47.2696 68.0502 47.5821L73.7096 53.2415C74.022 53.5539 74.1975 53.9777 74.1975 54.4195C74.1975 54.8613 74.022 55.2851 73.7096 55.5976L69.7589 59.5474C69.6043 59.7022 69.4207 59.825 69.2185 59.9086C69.0164 59.9922 68.7997 60.0351 68.5809 60.0348ZM66.8713 48.7601L62.9223 52.7099L68.5809 58.3702L72.5307 54.4195L72.5316 54.4179L66.8713 48.7601ZM75.989 52.6275C75.5475 52.6283 75.1226 52.4525 74.811 52.1401L69.1508 46.4807C68.8393 46.1678 68.6644 45.7443 68.6642 45.3028C68.664 44.8613 68.8387 44.4377 69.1499 44.1246L73.1014 40.1739C73.2555 40.0188 73.4387 39.8957 73.6407 39.8119C73.8426 39.7281 74.0592 39.6852 74.2778 39.6857H74.2795C74.721 39.6849 75.1459 39.8607 75.4575 40.1739L81.1169 45.8342C81.4293 46.1466 81.6048 46.5704 81.6048 47.0122C81.6048 47.454 81.4293 47.8778 81.1169 48.1902L77.1671 52.1401C77.0125 52.2949 76.8289 52.4177 76.6267 52.5013C76.4245 52.585 76.2078 52.6278 75.989 52.6275ZM74.2795 41.352L70.3288 45.3026L75.989 50.9621L79.9397 47.0114L74.2795 41.352ZM83.3963 45.2193C82.9548 45.2202 82.5299 45.0452 82.2183 44.7328L76.5589 39.0734C76.2465 38.7608 76.071 38.3369 76.071 37.8949C76.071 37.453 76.2465 37.0291 76.5589 36.7165L80.5087 32.7675C80.663 32.6121 80.8465 32.4888 81.0487 32.4049C81.2509 32.3209 81.4678 32.2779 81.6868 32.2784H81.6884C82.13 32.2776 82.5549 32.4534 82.8656 32.7675L88.5251 38.426C88.8374 38.7385 89.0129 39.1622 89.0129 39.6041C89.0129 40.0459 88.8374 40.4696 88.5251 40.7821L84.576 44.7328C84.4211 44.8877 84.237 45.0104 84.0344 45.0939C83.8318 45.1774 83.6155 45.2201 83.3963 45.2193ZM81.6868 33.9447L77.7369 37.8945L83.3963 43.5547L87.347 39.6041L81.6868 33.9447Z" fill="black"/>
<defs>
<filter id="filter0_d_384_432" x="0" y="0" width="145" height="145" filterUnits="userSpaceOnUse" color-interpolation-filters="sRGB">
<feFlood flood-opacity="0" result="BackgroundImageFix"/>
<feColorMatrix in="SourceAlpha" type="matrix" values="0 0 0 0 0 0 0 0 0 0 0 0 0 0 0 0 0 0 127 0" result="hardAlpha"/>
<feOffset dy="4"/>
<feGaussianBlur stdDeviation="2"/>
<feComposite in2="hardAlpha" operator="out"/>
<feColorMatrix type="matrix" values="0 0 0 0 0 0 0 0 0 0 0 0 0 0 0 0 0 0 0.5 0"/>
<feBlend mode="normal" in2="BackgroundImageFix" result="effect1_dropShadow_384_432"/>
<feBlend mode="normal" in="SourceGraphic" in2="effect1_dropShadow_384_432" result="shape"/>
</filter>
</defs>
</svg>
