<svg width="226" height="50" viewBox="0 0 226 50" fill="none" xmlns="http://www.w3.org/2000/svg">
<rect x="0.5" y="0.5" width="225" height="49" rx="5.5" fill="black"/>
<rect x="0.5" y="0.5" width="225" height="49" rx="5.5" stroke="black"/>
<path d="M66.407 32.14C65.4337 32.14 64.5537 31.9733 63.767 31.64C62.9937 31.3067 62.3804 30.8267 61.927 30.2C61.4737 29.5733 61.2404 28.8333 61.227 27.98H64.227C64.267 28.5533 64.467 29.0067 64.827 29.34C65.2004 29.6733 65.707 29.84 66.347 29.84C67.0004 29.84 67.5137 29.6867 67.887 29.38C68.2604 29.06 68.447 28.6467 68.447 28.14C68.447 27.7267 68.3204 27.3867 68.067 27.12C67.8137 26.8533 67.4937 26.6467 67.107 26.5C66.7337 26.34 66.2137 26.1667 65.547 25.98C64.6404 25.7133 63.9004 25.4533 63.327 25.2C62.767 24.9333 62.2804 24.54 61.867 24.02C61.467 23.4867 61.267 22.78 61.267 21.9C61.267 21.0733 61.4737 20.3533 61.887 19.74C62.3004 19.1267 62.8804 18.66 63.627 18.34C64.3737 18.0067 65.227 17.84 66.187 17.84C67.627 17.84 68.7937 18.1933 69.687 18.9C70.5937 19.5933 71.0937 20.5667 71.187 21.82H68.107C68.0804 21.34 67.8737 20.9467 67.487 20.64C67.1137 20.32 66.6137 20.16 65.987 20.16C65.4404 20.16 65.0004 20.3 64.667 20.58C64.347 20.86 64.187 21.2667 64.187 21.8C64.187 22.1733 64.307 22.4867 64.547 22.74C64.8004 22.98 65.107 23.18 65.467 23.34C65.8404 23.4867 66.3604 23.66 67.027 23.86C67.9337 24.1267 68.6737 24.3933 69.247 24.66C69.8204 24.9267 70.3137 25.3267 70.727 25.86C71.1404 26.3933 71.347 27.0933 71.347 27.96C71.347 28.7067 71.1537 29.4 70.767 30.04C70.3804 30.68 69.8137 31.1933 69.067 31.58C68.3204 31.9533 67.4337 32.14 66.407 32.14ZM73.0545 26.42C73.0545 25.3 73.2745 24.3067 73.7145 23.44C74.1679 22.5733 74.7745 21.9067 75.5345 21.44C76.3079 20.9733 77.1679 20.74 78.1145 20.74C78.9412 20.74 79.6612 20.9067 80.2745 21.24C80.9012 21.5733 81.4012 21.9933 81.7745 22.5V20.92H84.5945V32H81.7745V30.38C81.4145 30.9 80.9145 31.3333 80.2745 31.68C79.6479 32.0133 78.9212 32.18 78.0945 32.18C77.1612 32.18 76.3079 31.94 75.5345 31.46C74.7745 30.98 74.1679 30.3067 73.7145 29.44C73.2745 28.56 73.0545 27.5533 73.0545 26.42ZM81.7745 26.46C81.7745 25.78 81.6412 25.2 81.3745 24.72C81.1079 24.2267 80.7479 23.8533 80.2945 23.6C79.8412 23.3333 79.3545 23.2 78.8345 23.2C78.3145 23.2 77.8345 23.3267 77.3945 23.58C76.9545 23.8333 76.5945 24.2067 76.3145 24.7C76.0479 25.18 75.9145 25.7533 75.9145 26.42C75.9145 27.0867 76.0479 27.6733 76.3145 28.18C76.5945 28.6733 76.9545 29.0533 77.3945 29.32C77.8479 29.5867 78.3279 29.72 78.8345 29.72C79.3545 29.72 79.8412 29.5933 80.2945 29.34C80.7479 29.0733 81.1079 28.7 81.3745 28.22C81.6412 27.7267 81.7745 27.14 81.7745 26.46ZM91.9492 29.42L94.7492 20.92H97.7292L93.6292 32H90.2292L86.1492 20.92H89.1492L91.9492 29.42ZM109.602 26.22C109.602 26.62 109.575 26.98 109.522 27.3H101.422C101.489 28.1 101.769 28.7267 102.262 29.18C102.755 29.6333 103.362 29.86 104.082 29.86C105.122 29.86 105.862 29.4133 106.302 28.52H109.322C109.002 29.5867 108.389 30.4667 107.482 31.16C106.575 31.84 105.462 32.18 104.142 32.18C103.075 32.18 102.115 31.9467 101.262 31.48C100.422 31 99.7619 30.3267 99.2819 29.46C98.8152 28.5933 98.5819 27.5933 98.5819 26.46C98.5819 25.3133 98.8152 24.3067 99.2819 23.44C99.7485 22.5733 100.402 21.9067 101.242 21.44C102.082 20.9733 103.049 20.74 104.142 20.74C105.195 20.74 106.135 20.9667 106.962 21.42C107.802 21.8733 108.449 22.52 108.902 23.36C109.369 24.1867 109.602 25.14 109.602 26.22ZM106.702 25.42C106.689 24.7 106.429 24.1267 105.922 23.7C105.415 23.26 104.795 23.04 104.062 23.04C103.369 23.04 102.782 23.2533 102.302 23.68C101.835 24.0933 101.549 24.6733 101.442 25.42H106.702ZM124.331 24.84C125.118 24.9867 125.765 25.38 126.271 26.02C126.778 26.66 127.031 27.3933 127.031 28.22C127.031 28.9667 126.845 29.6267 126.471 30.2C126.111 30.76 125.585 31.2 124.891 31.52C124.198 31.84 123.378 32 122.431 32H116.411V18.04H122.171C123.118 18.04 123.931 18.1933 124.611 18.5C125.305 18.8067 125.825 19.2333 126.171 19.78C126.531 20.3267 126.711 20.9467 126.711 21.64C126.711 22.4533 126.491 23.1333 126.051 23.68C125.625 24.2267 125.051 24.6133 124.331 24.84ZM119.211 23.8H121.771C122.438 23.8 122.951 23.6533 123.311 23.36C123.671 23.0533 123.851 22.62 123.851 22.06C123.851 21.5 123.671 21.0667 123.311 20.76C122.951 20.4533 122.438 20.3 121.771 20.3H119.211V23.8ZM122.031 29.72C122.711 29.72 123.238 29.56 123.611 29.24C123.998 28.92 124.191 28.4667 124.191 27.88C124.191 27.28 123.991 26.8133 123.591 26.48C123.191 26.1333 122.651 25.96 121.971 25.96H119.211V29.72H122.031ZM139.723 20.92V32H136.903V30.6C136.543 31.08 136.069 31.46 135.483 31.74C134.909 32.0067 134.283 32.14 133.603 32.14C132.736 32.14 131.969 31.96 131.303 31.6C130.636 31.2267 130.109 30.6867 129.723 29.98C129.349 29.26 129.163 28.4067 129.163 27.42V20.92H131.963V27.02C131.963 27.9 132.183 28.58 132.623 29.06C133.063 29.5267 133.663 29.76 134.423 29.76C135.196 29.76 135.803 29.5267 136.243 29.06C136.683 28.58 136.903 27.9 136.903 27.02V20.92H139.723ZM143.905 19.6C143.412 19.6 142.999 19.4467 142.665 19.14C142.345 18.82 142.185 18.4267 142.185 17.96C142.185 17.4933 142.345 17.1067 142.665 16.8C142.999 16.48 143.412 16.32 143.905 16.32C144.399 16.32 144.805 16.48 145.125 16.8C145.459 17.1067 145.625 17.4933 145.625 17.96C145.625 18.4267 145.459 18.82 145.125 19.14C144.805 19.4467 144.399 19.6 143.905 19.6ZM145.285 20.92V32H142.485V20.92H145.285ZM150.852 17.2V32H148.052V17.2H150.852ZM152.898 26.42C152.898 25.3 153.118 24.3067 153.558 23.44C154.012 22.5733 154.625 21.9067 155.398 21.44C156.172 20.9733 157.032 20.74 157.978 20.74C158.698 20.74 159.385 20.9 160.038 21.22C160.692 21.5267 161.212 21.94 161.598 22.46V17.2H164.438V32H161.598V30.36C161.252 30.9067 160.765 31.3467 160.138 31.68C159.512 32.0133 158.785 32.18 157.958 32.18C157.025 32.18 156.172 31.94 155.398 31.46C154.625 30.98 154.012 30.3067 153.558 29.44C153.118 28.56 152.898 27.5533 152.898 26.42ZM161.618 26.46C161.618 25.78 161.485 25.2 161.218 24.72C160.952 24.2267 160.592 23.8533 160.138 23.6C159.685 23.3333 159.198 23.2 158.678 23.2C158.158 23.2 157.678 23.3267 157.238 23.58C156.798 23.8333 156.438 24.2067 156.158 24.7C155.892 25.18 155.758 25.7533 155.758 26.42C155.758 27.0867 155.892 27.6733 156.158 28.18C156.438 28.6733 156.798 29.0533 157.238 29.32C157.692 29.5867 158.172 29.72 158.678 29.72C159.198 29.72 159.685 29.5933 160.138 29.34C160.592 29.0733 160.952 28.7 161.218 28.22C161.485 27.7267 161.618 27.14 161.618 26.46Z" fill="#FEF9E6"/>
</svg>
