<svg width="17" height="18" viewBox="0 0 17 18" fill="none" xmlns="http://www.w3.org/2000/svg">
<path d="M1 8.27823V12.2725C1 14.7493 1 15.9885 1.58719 16.5292C1.86718 16.7876 2.22077 16.95 2.59756 16.9932C3.38714 17.0836 4.30952 16.2676 6.15348 14.6365C6.96946 13.9157 7.37665 13.5549 7.84784 13.4605C8.07984 13.4125 8.31983 13.4125 8.55182 13.4605C9.02381 13.5549 9.431 13.9157 10.2462 14.6365C12.0901 16.2676 13.0125 17.0836 13.8021 16.9924C14.1781 16.95 14.5325 16.7876 14.8125 16.5292C15.3997 15.9885 15.3997 14.7501 15.3997 12.2725V8.27743C15.3997 4.84711 15.3997 3.13195 14.3453 2.06558C13.2909 1 11.5934 1 8.19983 1C4.80551 1 3.10875 1 2.05438 2.06558C1.40879 2.71836 1.1584 3.61594 1.0616 4.99991M10.5998 4.19993H5.79989" stroke="white" stroke-width="1.5" stroke-linecap="round"/>
</svg>
