<svg width="16" height="27" viewBox="0 0 16 27" fill="none" xmlns="http://www.w3.org/2000/svg">
<path d="M15.7262 0H0.276481C0.124416 0 0 0.124416 0 0.276481V25.0575C0 25.2095 0.124416 25.334 0.276481 25.334H0.594435L0.823913 26.4288C0.851561 26.556 0.96492 26.6472 1.09487 26.6472H2.89199C3.02194 26.6472 3.1353 26.556 3.16294 26.4288L3.39242 25.334H12.8508L13.0803 26.4288C13.108 26.556 13.2213 26.6472 13.3513 26.6472H15.1484C15.2783 26.6472 15.3917 26.556 15.4193 26.4288L15.6488 25.334H15.7235C15.8755 25.334 16 25.2095 16 25.0575V0.276481C16.0027 0.121652 15.8783 0 15.7262 0ZM0.552962 0.552962H15.4498V24.781H0.552962V0.552962ZM2.66804 26.0915H1.31881L1.15846 25.3312H2.8284L2.66804 26.0915ZM14.9272 26.0915H13.578L13.4176 25.3312H15.0876L14.9272 26.0915Z" fill="#FEF9E6"/>
<path d="M1.88836 20.4237H14.1116C14.2636 20.4237 14.3881 20.2992 14.3881 20.1472V1.3824C14.3881 1.23034 14.2636 1.10592 14.1116 1.10592H1.88836C1.73629 1.10592 1.61188 1.23034 1.61188 1.3824V20.1472C1.61188 20.2992 1.73629 20.4237 1.88836 20.4237ZM2.16484 1.65888H13.8351V19.8707H2.16484V1.65888Z" fill="#FEF9E6"/>
<path d="M11.3634 7.0088C11.3634 6.99221 11.3606 6.97839 11.3551 6.9618C11.3458 6.92597 11.3299 6.8922 11.3081 6.86227C11.3026 6.85397 11.2998 6.84568 11.2915 6.83738C10.6805 6.18765 9.93674 6.13512 9.37271 6.2623C9.5856 5.98306 10.1247 5.44945 10.9846 5.70658H10.9957C11.0178 5.71211 11.0399 5.71764 11.062 5.71764C11.0675 5.71764 11.0758 5.71487 11.0814 5.71487C11.0897 5.71487 11.098 5.71211 11.1063 5.71211C11.1173 5.70934 11.1256 5.71211 11.1367 5.70934C11.145 5.70658 11.1533 5.70105 11.1615 5.69552C11.1809 5.68722 11.1975 5.67893 11.2141 5.66787C11.2279 5.65957 11.239 5.64852 11.25 5.63746C11.2638 5.62363 11.2777 5.60981 11.2887 5.59322C11.297 5.57939 11.3053 5.56557 11.3108 5.54898C11.3164 5.53792 11.3219 5.52963 11.3274 5.52133C11.3302 5.51304 11.3274 5.50474 11.3302 5.49645C11.333 5.47986 11.333 5.46604 11.3357 5.44945C11.3357 5.42733 11.3357 5.40798 11.3302 5.38586C11.3302 5.38033 11.3302 5.37203 11.3274 5.3665C11.1726 4.82184 10.8768 4.32417 10.4731 3.92051L10.4676 3.91498C10.4565 3.90392 10.4482 3.89286 10.4399 3.88457C10.4344 3.87904 10.4261 3.87627 10.4206 3.87351C10.404 3.85968 10.3846 3.84862 10.3653 3.83756C10.3515 3.83203 10.3376 3.82651 10.321 3.82098C10.3017 3.81545 10.2851 3.81268 10.2657 3.80992C10.2464 3.80715 10.2298 3.80992 10.2132 3.81268C10.2022 3.81268 10.1939 3.80992 10.1828 3.81268C9.31465 4.01728 8.89717 4.63383 8.72575 5.18403C8.59304 4.85778 8.40227 4.12234 9.052 3.51132C9.05753 3.50579 9.06029 3.49749 9.06582 3.49196C9.07965 3.47814 9.08794 3.46432 9.099 3.44773C9.10729 3.43114 9.11835 3.41455 9.12388 3.39796C9.12665 3.38967 9.13218 3.38414 9.13494 3.37861C9.13771 3.36755 9.13494 3.35925 9.13771 3.35096C9.14047 3.3316 9.14047 3.31225 9.14047 3.2929C9.14047 3.27631 9.13771 3.25972 9.13218 3.24313C9.12665 3.22378 9.12112 3.20719 9.11282 3.1906C9.10453 3.17401 9.09624 3.16019 9.08518 3.14636C9.07965 3.13807 9.07688 3.12701 9.06859 3.11871C9.06306 3.11318 9.05476 3.11042 9.04923 3.10489C9.03541 3.09383 9.02158 3.08554 9.00776 3.07448C8.9907 3.06341 8.97206 3.05502 8.95246 3.04959C8.94693 3.04683 8.9414 3.0413 8.93311 3.0413C8.36909 2.89753 7.76083 2.90859 7.2051 3.06895C7.19681 3.07171 7.19128 3.07724 7.18299 3.08001C7.16363 3.0883 7.14428 3.09659 7.12492 3.11042C7.11387 3.11871 7.10281 3.12701 7.09175 3.13807C7.07792 3.15189 7.0641 3.16572 7.05304 3.18507C7.04475 3.19889 7.03645 3.21272 7.03092 3.22931C7.02539 3.24037 7.01986 3.24589 7.0171 3.25695C6.75997 4.10852 7.08622 4.7776 7.47329 5.20338C7.12216 5.15638 6.39501 4.96008 6.19042 4.08916C6.18765 4.08087 6.18489 4.07534 6.18212 4.06981C6.17659 4.05322 6.1683 4.03663 6.16001 4.02004C6.15171 4.00345 6.14065 3.98686 6.12683 3.97304C6.1213 3.96751 6.1213 3.96198 6.11577 3.95645C6.11024 3.95092 6.09918 3.94816 6.09365 3.94263C6.07788 3.92903 6.06018 3.91784 6.04112 3.90945L5.99965 3.89286C5.98029 3.88733 5.96094 3.88457 5.93882 3.8818H5.89458C5.88352 3.8818 5.87247 3.87904 5.85864 3.8818C5.84758 3.88457 5.84205 3.8901 5.83376 3.89286C5.81993 3.89839 5.80888 3.90392 5.79505 3.90945C5.77293 3.92051 5.75358 3.93433 5.73699 3.94816C5.73146 3.95092 5.7287 3.95369 5.72317 3.95645C5.31497 4.37687 5.02503 4.89762 4.88266 5.46604C4.8799 5.47433 4.88266 5.48263 4.88266 5.49092C4.8799 5.51027 4.87713 5.53239 4.8799 5.55175C4.8799 5.56834 4.88266 5.58216 4.88819 5.59875C4.89372 5.61534 4.89925 5.63469 4.90755 5.65128C4.91584 5.66787 4.92414 5.68169 4.9352 5.69828C4.94073 5.70658 4.94349 5.71487 4.94902 5.72317C5.39415 6.19871 5.91394 6.35354 6.38119 6.35354C6.55537 6.35354 6.7185 6.32866 6.87333 6.29272C6.6632 6.5692 6.12406 7.11386 5.25591 6.85397C5.25038 6.85121 5.24485 6.85397 5.23656 6.85121C5.21721 6.84568 5.19785 6.84568 5.17573 6.84568C5.15638 6.84568 5.13979 6.84568 5.1232 6.85121C5.11491 6.85397 5.10938 6.85121 5.10108 6.85397C5.09279 6.85674 5.08449 6.86227 5.0762 6.8678C5.05685 6.87609 5.04026 6.88438 5.02367 6.89544C5.00985 6.90374 4.99879 6.9148 4.98773 6.92586C4.9739 6.93968 4.96284 6.95351 4.95178 6.97009C4.94349 6.98392 4.9352 6.99774 4.92967 7.01433C4.92414 7.02539 4.91861 7.03369 4.91308 7.04474C4.91031 7.05304 4.91308 7.06133 4.91031 7.06963C4.90755 7.08622 4.90755 7.10004 4.90478 7.11663C4.90478 7.13875 4.90478 7.1581 4.91031 7.18022C4.91031 7.18575 4.91031 7.19128 4.91308 7.19957C5.07067 7.75806 5.37756 8.27232 5.80058 8.68151C5.80334 8.68428 5.80611 8.68428 5.80888 8.68704C5.82823 8.70639 5.85311 8.72022 5.878 8.73128L5.89458 8.73957C5.925 8.75063 5.95817 8.75893 5.99412 8.75893C6.01624 8.75893 6.03559 8.75616 6.05771 8.75063C6.92586 8.54604 7.34334 7.92948 7.51476 7.37929C7.64747 7.70553 7.83825 8.44097 7.18851 9.04923C7.18299 9.05476 7.18022 9.06029 7.17469 9.06582C7.16087 9.07964 7.15257 9.09623 7.14151 9.11282C7.13045 9.12941 7.12216 9.146 7.11663 9.16259C7.11387 9.17088 7.10834 9.17365 7.10834 9.18194C7.10557 9.19024 7.10834 9.2013 7.10834 9.20959C7.10557 9.22894 7.10281 9.2483 7.10557 9.26765C7.10557 9.28424 7.10834 9.30083 7.11386 9.31465C7.11939 9.33401 7.12492 9.35059 7.13322 9.36718C7.14151 9.38377 7.14981 9.3976 7.16087 9.41142C7.1664 9.41972 7.16916 9.43077 7.17746 9.4363C7.18299 9.44183 7.19128 9.4446 7.19681 9.45013C7.21063 9.46395 7.22722 9.47225 7.24381 9.48331C7.2604 9.4916 7.27699 9.50266 7.29358 9.50819C7.29911 9.51095 7.30464 9.51648 7.31293 9.51648C7.88147 9.65831 8.47723 9.64878 9.04094 9.48884H9.0437C9.07688 9.47778 9.10729 9.46119 9.13494 9.44183C9.14047 9.43907 9.14324 9.43354 9.146 9.43078C9.16535 9.41142 9.18471 9.39207 9.19853 9.36718C9.20406 9.35889 9.20683 9.3506 9.21236 9.33954C9.21789 9.32848 9.22618 9.31742 9.22895 9.30359C9.48607 8.45203 9.15982 7.78018 8.76999 7.35717C9.12112 7.40417 9.85103 7.60877 10.0556 8.47415C10.0584 8.48244 10.0612 8.48798 10.0639 8.49627C10.0694 8.51009 10.075 8.52392 10.0833 8.53774C10.0916 8.55433 10.1026 8.57092 10.1137 8.58474C10.122 8.5958 10.1303 8.60686 10.1413 8.61516C10.1579 8.62898 10.1745 8.64004 10.1939 8.6511C10.2049 8.65663 10.2132 8.66216 10.2243 8.66769C10.2547 8.68151 10.2906 8.68704 10.3238 8.68704C10.3459 8.68704 10.3653 8.68428 10.3874 8.67875C10.3985 8.67598 10.4068 8.66769 10.4178 8.66492C10.4316 8.65939 10.4427 8.65386 10.4565 8.64833C10.4771 8.6377 10.4958 8.62368 10.5118 8.60686C10.5173 8.60133 10.5229 8.59857 10.5284 8.59304C10.9321 8.17279 11.2224 7.653 11.3606 7.09175C11.3634 7.08345 11.3606 7.07516 11.3606 7.06686C11.3634 7.05027 11.3634 7.03092 11.3634 7.0088ZM8.12302 6.91203C7.77742 6.91203 7.49541 6.63002 7.49541 6.28442C7.49541 5.93882 7.77742 5.65681 8.12302 5.65681C8.46862 5.65681 8.75063 5.93882 8.75063 6.28442C8.75063 6.63002 8.46862 6.91203 8.12302 6.91203ZM10.1635 4.40159C10.3548 4.60746 10.5133 4.84152 10.6335 5.09555C10.0224 5.06791 9.53031 5.33333 9.19577 5.64299C9.24 5.31397 9.41972 4.65318 10.1635 4.40159ZM8.34697 3.51408C8.01796 4.0311 8.00413 4.58683 8.10367 5.03196C7.84101 4.83013 7.35717 4.34352 7.512 3.57214C7.78571 3.51408 8.06772 3.49196 8.34697 3.51408ZM5.47157 5.45774C5.55451 5.18956 5.67616 4.93796 5.83652 4.70572C6.11853 5.24762 6.59408 5.53792 7.02816 5.6734C6.72126 5.80058 6.05494 5.972 5.47157 5.45774ZM6.08259 8.16726C5.89182 7.9599 5.73146 7.72489 5.61257 7.47329C5.64022 7.47329 5.6734 7.47882 5.70105 7.47882C6.2706 7.47882 6.72956 7.22169 7.05027 6.92862C7.00327 7.25763 6.81803 7.91842 6.08259 8.16726ZM7.89907 9.05476C8.22808 8.53774 8.24191 7.98201 8.14237 7.53688C8.40503 7.73871 8.88887 8.22532 8.73404 8.99394C8.46033 9.05476 8.17832 9.07688 7.89907 9.05476ZM9.21789 6.89544C9.52478 6.77103 10.1911 6.59684 10.7745 7.1111C10.6915 7.37929 10.5699 7.63088 10.4095 7.86313C10.1275 7.32123 9.65196 7.03092 9.21789 6.89544ZM11.3634 16.0027C11.3634 15.9861 11.3606 15.9723 11.3551 15.9557C11.3496 15.9364 11.344 15.9198 11.3357 15.9032C11.3274 15.8866 11.3191 15.8728 11.3081 15.859C11.3026 15.8507 11.2998 15.8424 11.2915 15.8341C10.6805 15.1843 9.93674 15.1318 9.37548 15.259C9.59114 14.9797 10.133 14.4489 10.9846 14.706C10.9901 14.7088 10.9957 14.706 11.0012 14.7088C11.0233 14.7143 11.0427 14.7199 11.0648 14.7199C11.0703 14.7199 11.0758 14.7171 11.0841 14.7171C11.0952 14.7171 11.1035 14.7143 11.1145 14.7116C11.1228 14.7088 11.1311 14.7116 11.1422 14.7088C11.1505 14.706 11.156 14.7005 11.1643 14.6977C11.1837 14.6894 11.203 14.6811 11.2224 14.6673C11.2334 14.659 11.2445 14.6507 11.2556 14.6397C11.2694 14.6259 11.2832 14.612 11.2943 14.5927C11.3026 14.5789 11.3108 14.565 11.3164 14.5512C11.3219 14.5401 11.3302 14.5318 11.333 14.5208C11.3357 14.5125 11.333 14.5042 11.3357 14.4959C11.3385 14.4793 11.3385 14.4655 11.3413 14.4489C11.3413 14.4268 11.3413 14.4047 11.3357 14.3853C11.3357 14.3798 11.3357 14.3743 11.333 14.366C11.1781 13.8213 10.8823 13.3236 10.4786 12.92L10.4731 12.9144C10.4621 12.9034 10.4565 12.8923 10.4455 12.884C10.4399 12.8785 10.4316 12.8757 10.4261 12.873C10.4089 12.8578 10.3893 12.8457 10.368 12.837C10.3542 12.8315 10.3432 12.826 10.3293 12.8232C10.31 12.8177 10.2906 12.8149 10.2713 12.8121C10.2547 12.8121 10.2381 12.8121 10.2215 12.8149C10.2105 12.8149 10.2022 12.8121 10.1911 12.8149C9.32295 13.0195 8.90546 13.6361 8.73404 14.1862C8.60133 13.86 8.41056 13.1246 9.06029 12.5135C9.06582 12.508 9.06859 12.4997 9.07412 12.4942C9.08518 12.4804 9.09624 12.4665 9.10453 12.4499C9.11559 12.4334 9.12388 12.4168 9.12941 12.3974C9.13218 12.3891 9.13771 12.3864 9.13771 12.3781C9.14047 12.3698 9.13771 12.3587 9.13771 12.3504C9.14047 12.3311 9.14047 12.3117 9.14047 12.2924C9.14047 12.2758 9.13771 12.2592 9.13218 12.2454C9.12665 12.226 9.12112 12.2094 9.11282 12.1928C9.10453 12.1762 9.09624 12.1624 9.08518 12.1486C9.07965 12.1403 9.07688 12.1292 9.06859 12.1237C9.06306 12.1182 9.05476 12.1154 9.04923 12.1099C9.03541 12.0988 9.02158 12.0878 9.00776 12.0795C8.99139 12.0689 8.97374 12.0606 8.95523 12.0546C8.9497 12.0518 8.94417 12.0463 8.93588 12.0463C8.36732 11.9046 7.7716 11.9142 7.20787 12.0739C7.19957 12.0767 7.19405 12.0822 7.18575 12.085C7.1664 12.0933 7.14704 12.1016 7.12769 12.1154C7.11663 12.1237 7.10557 12.132 7.09451 12.1431C7.08069 12.1569 7.06686 12.1707 7.0558 12.1873C7.04751 12.2011 7.03922 12.2149 7.03369 12.2315C7.02816 12.2426 7.02263 12.2481 7.01986 12.2592C6.76273 13.1107 7.08898 13.7826 7.47882 14.2056C7.13045 14.1586 6.40054 13.9623 6.19318 13.0886C6.19042 13.0803 6.18765 13.0748 6.18489 13.0693C6.17936 13.0527 6.17107 13.0361 6.16277 13.0195C6.15448 13.0029 6.14342 12.9863 6.12959 12.9725C6.12406 12.967 6.12406 12.9614 6.11853 12.9559C6.113 12.9504 6.10194 12.9476 6.09641 12.9421C6.08065 12.9285 6.06294 12.9173 6.04388 12.9089L6.00241 12.8923C5.98306 12.8868 5.9637 12.884 5.94435 12.8813H5.90011C5.88905 12.8813 5.878 12.8785 5.86417 12.8813C5.85311 12.884 5.84758 12.8896 5.83929 12.8923C5.82546 12.8978 5.8144 12.9034 5.80058 12.9089C5.77846 12.92 5.75911 12.9338 5.74252 12.9476C5.73699 12.9504 5.73423 12.9531 5.7287 12.9559C5.3205 13.3763 5.03056 13.8971 4.88819 14.4655C4.88543 14.4738 4.88819 14.4821 4.88819 14.4904C4.88543 14.5097 4.88266 14.5318 4.88543 14.5512C4.88543 14.5678 4.88819 14.5816 4.89372 14.5982C4.89925 14.6148 4.90478 14.6341 4.91308 14.6507C4.92137 14.6673 4.92967 14.6811 4.94073 14.6977C4.94625 14.706 4.94902 14.7143 4.95455 14.7226C5.39968 15.1982 5.91947 15.353 6.38672 15.353C6.5609 15.353 6.72403 15.3281 6.87609 15.2922C6.6632 15.5687 6.11853 16.1106 5.26144 15.8507C5.25591 15.8479 5.24762 15.8507 5.24209 15.8479C5.22274 15.8424 5.20338 15.8424 5.18403 15.8424C5.16467 15.8424 5.14808 15.8424 5.12873 15.8479C5.12044 15.8507 5.11491 15.8479 5.10661 15.8507C5.09555 15.8507 5.09002 15.859 5.08173 15.8617C5.06238 15.87 5.04579 15.8783 5.0292 15.8894C5.01537 15.8977 5.00432 15.9087 4.99326 15.9198C4.97943 15.9336 4.96561 15.9474 4.95455 15.964C4.94625 15.9778 4.93796 15.9917 4.93243 16.0083C4.9269 16.0193 4.91861 16.0276 4.91584 16.0387C4.91308 16.047 4.91584 16.0553 4.91308 16.0636C4.91031 16.0801 4.91031 16.094 4.90755 16.1106C4.90755 16.1327 4.90755 16.152 4.91308 16.1741C4.91308 16.1797 4.91308 16.188 4.91584 16.1935C5.07527 16.7573 5.38154 17.2687 5.80335 17.6754C5.80611 17.6782 5.80887 17.6782 5.81164 17.681C5.83376 17.7003 5.85588 17.7141 5.88076 17.7252C5.88629 17.728 5.88905 17.7307 5.89458 17.7335C5.925 17.7446 5.96094 17.7529 5.99412 17.7529C6.01624 17.7529 6.03559 17.7501 6.05771 17.7446C6.92586 17.54 7.34334 16.9234 7.51476 16.3732C7.64747 16.6995 7.83825 17.4349 7.18851 18.0459C7.18299 18.0515 7.18022 18.0597 7.17469 18.0653C7.16087 18.0791 7.15257 18.0929 7.14151 18.1095C7.13045 18.1261 7.12216 18.1427 7.11663 18.1593C7.11387 18.1676 7.10834 18.1703 7.10834 18.1786C7.10557 18.1869 7.10834 18.198 7.10834 18.2063C7.10557 18.2256 7.10281 18.245 7.10557 18.2643C7.10557 18.2809 7.10834 18.2975 7.11386 18.3113C7.11939 18.3307 7.12492 18.3473 7.13322 18.3639C7.14151 18.3805 7.14981 18.3943 7.16087 18.4081C7.1664 18.4164 7.16916 18.4275 7.17746 18.433C7.18299 18.4385 7.19128 18.4413 7.19681 18.4468C7.21063 18.4606 7.22722 18.4689 7.24381 18.48C7.2604 18.4883 7.27699 18.4994 7.29358 18.5049C7.29911 18.5076 7.30464 18.5132 7.31293 18.5132C7.88147 18.655 8.47723 18.6455 9.04094 18.4855H9.0437C9.07688 18.4745 9.10729 18.4579 9.13494 18.4385C9.14047 18.4358 9.14324 18.4302 9.146 18.4275C9.16535 18.4081 9.18471 18.3888 9.19853 18.3639C9.20406 18.3556 9.20683 18.3445 9.21236 18.3362C9.21789 18.3252 9.22618 18.3141 9.22895 18.3031C9.48607 17.4515 9.15982 16.7796 8.76999 16.3566C9.12112 16.4036 9.84826 16.5999 10.0529 17.4736C10.0556 17.4819 10.0584 17.4874 10.0612 17.4957L10.0777 17.5372C10.086 17.5538 10.0971 17.5704 10.1109 17.5842C10.1325 17.613 10.1611 17.6358 10.1939 17.6506C10.2022 17.6561 10.2105 17.6616 10.2187 17.6644C10.2519 17.6782 10.2851 17.6865 10.321 17.6865C10.3432 17.6865 10.3625 17.6837 10.3846 17.6782C10.3957 17.6754 10.404 17.6671 10.415 17.6644C10.4289 17.6588 10.4399 17.6533 10.4538 17.6478C10.4752 17.6372 10.4948 17.6232 10.5118 17.6063C10.5173 17.6008 10.5229 17.598 10.5284 17.5953C10.9348 17.175 11.2224 16.6552 11.3606 16.094C11.3634 16.0857 11.3606 16.0774 11.3606 16.0691C11.3634 16.0442 11.3634 16.0221 11.3634 16.0027ZM8.12302 15.906C7.77742 15.906 7.49541 15.6239 7.49541 15.2783C7.49541 14.9327 7.77742 14.6507 8.12302 14.6507C8.46862 14.6507 8.75063 14.9327 8.75063 15.2783C8.75063 15.6239 8.46862 15.906 8.12302 15.906ZM10.1635 13.3955C10.3542 13.6029 10.5146 13.8351 10.6335 14.0867C10.0224 14.0591 9.53307 14.3245 9.19853 14.6341C9.24277 14.3051 9.42801 13.6443 10.1635 13.3955ZM8.34697 12.508C8.01796 13.025 8.00413 13.5808 8.10367 14.0259C7.84101 13.8241 7.35717 13.3375 7.512 12.5688C7.78571 12.5052 8.06772 12.4859 8.34697 12.508ZM5.47157 14.4517C5.55451 14.1835 5.67616 13.9319 5.83652 13.6996C6.11853 14.2443 6.59408 14.5346 7.03092 14.6701C6.72679 14.7945 6.06047 14.9715 5.47157 14.4517ZM6.08259 17.1612C5.89182 16.9538 5.73146 16.7188 5.61257 16.4672C5.64299 16.4672 5.6734 16.4727 5.70105 16.4727C6.27336 16.4727 6.73232 16.2156 7.05027 15.9198C7.00604 16.246 6.82632 16.9096 6.08259 17.1612ZM7.89907 18.0459C8.22808 17.5289 8.24191 16.9732 8.14237 16.528C8.40503 16.7299 8.88887 17.2165 8.73404 17.9851C8.46033 18.0487 8.17832 18.068 7.89907 18.0459ZM9.21512 15.8866C9.51925 15.7594 10.1856 15.5825 10.7745 16.105C10.6915 16.3732 10.5699 16.6248 10.4095 16.8571C10.1275 16.3124 9.6492 16.0221 9.21512 15.8866ZM8.12302 20.8384C7.20787 20.8384 6.46413 21.5821 6.46413 22.4973C6.46413 23.4124 7.20787 24.1562 8.12302 24.1562C9.03817 24.1562 9.78191 23.4124 9.78191 22.4973C9.78191 21.5821 9.03817 20.8384 8.12302 20.8384ZM8.12302 23.6032C7.512 23.6032 7.0171 23.1083 7.0171 22.4973C7.0171 21.8862 7.512 21.3913 8.12302 21.3913C8.73404 21.3913 9.22895 21.8862 9.22895 22.4973C9.22895 23.1083 8.73404 23.6032 8.12302 23.6032Z" fill="#FEF9E6"/>
<path d="M11.2058 11.4906C9.26488 10.7524 7.2051 10.7579 5.06237 11.5127C4.89719 11.5699 4.74677 11.663 4.62198 11.7854C4.49719 11.9078 4.40113 12.0564 4.34075 12.2205C3.59149 14.283 3.59149 16.2875 4.34628 18.3501C4.40552 18.5117 4.49928 18.6586 4.62104 18.7803C4.7428 18.9021 4.88963 18.9958 5.05131 19.0551C6.07152 19.4283 7.10556 19.6191 8.12301 19.6191C9.14046 19.6191 10.1745 19.4311 11.1947 19.0551C11.3564 18.9958 11.5032 18.9021 11.625 18.7803C11.7467 18.6586 11.8405 18.5117 11.8997 18.3501C12.6573 16.2792 12.6545 14.2637 11.8942 12.1901C11.836 12.0311 11.7445 11.8864 11.6257 11.7658C11.507 11.6451 11.3638 11.5513 11.2058 11.4906ZM11.38 18.1565C11.3164 18.3307 11.1781 18.4689 11.0039 18.5325C9.08517 19.2348 7.16086 19.2348 5.24208 18.5325C5.0679 18.4689 4.92966 18.3307 4.86607 18.1565C4.15828 16.2211 4.15828 14.3411 4.86054 12.4085C4.92413 12.2315 5.06513 12.0961 5.24485 12.0325C6.26783 11.673 7.27422 11.4906 8.23914 11.4906C9.17917 11.4906 10.1109 11.6647 11.0067 12.0048C11.1754 12.0684 11.3081 12.2039 11.3717 12.3781C12.0905 14.3245 12.0905 16.2129 11.38 18.1565ZM11.2058 2.4994C9.26488 1.76119 7.2051 1.76672 5.06237 2.52152C4.89719 2.57871 4.74677 2.67188 4.62198 2.79428C4.49719 2.91668 4.40113 3.06527 4.34075 3.22931C3.59149 5.29186 3.59149 7.29634 4.34628 9.35889C4.40509 9.52082 4.4987 9.66787 4.62051 9.78969C4.74233 9.9115 4.88938 10.0051 5.05131 10.0639C6.07152 10.4372 7.10556 10.6279 8.12301 10.6279C9.14046 10.6279 10.1745 10.4372 11.1947 10.0639C11.3566 10.0051 11.5037 9.9115 11.6255 9.78969C11.7473 9.66787 11.8409 9.52082 11.8997 9.35889C12.6573 7.28805 12.6545 5.2725 11.8942 3.20166C11.837 3.04185 11.7458 2.89633 11.6269 2.7751C11.5081 2.65388 11.3644 2.55982 11.2058 2.4994ZM11.38 9.16535C11.3488 9.25183 11.2989 9.33036 11.2339 9.39536C11.169 9.46035 11.0904 9.51021 11.0039 9.54137C9.0824 10.2436 7.16086 10.2436 5.24208 9.54137C5.15561 9.51021 5.07707 9.46035 5.01208 9.39536C4.94708 9.33036 4.89723 9.25183 4.86607 9.16535C4.15828 7.22999 4.15828 5.34992 4.86054 3.41731C4.92413 3.24037 5.06513 3.10489 5.24485 3.0413C6.26783 2.68187 7.27422 2.4994 8.23914 2.4994C9.17917 2.4994 10.1109 2.67358 11.0067 3.01642C11.1754 3.08001 11.3081 3.21548 11.3717 3.38967C12.0905 5.33333 12.0905 7.22169 11.38 9.16535Z" fill="#FEF9E6"/>
</svg>
