<svg width="234" height="28" viewBox="0 0 234 28" fill="none" xmlns="http://www.w3.org/2000/svg">
<rect x="0.5" y="0.5" width="233" height="27" rx="6.5" fill="#17264D" stroke="black"/>
<path d="M9.54456 11.0598C9.32893 11.0598 9.15393 11.2347 9.15393 11.4503C9.15393 11.6659 9.32893 11.8409 9.54456 11.8409C9.76018 11.8409 9.93518 11.6659 9.93518 11.4503C9.93518 11.2347 9.76018 11.0598 9.54456 11.0598Z" fill="white"/>
<path d="M20.4891 15.7273C20.4529 15.691 20.4098 15.6622 20.3624 15.6425C20.3151 15.6229 20.2643 15.6128 20.213 15.6128C20.209 15.6136 20.0588 15.6052 19.9368 15.7273L19.6607 16.0033L18.7632 15.1059C20.7438 12.3296 20.4426 8.49975 18.0035 6.0608C15.256 3.3133 10.8086 3.31283 8.06081 6.0608C5.3133 8.80815 5.31283 13.2556 8.06081 16.0034C10.4938 18.4366 14.3221 18.7488 17.1058 16.7632L18.0033 17.6607L17.7273 17.9367C17.5748 18.0892 17.5747 18.3367 17.7273 18.4892L22.6657 23.4271C23.4288 24.1907 24.664 24.1912 25.4272 23.4273C26.1908 22.6644 26.1911 21.429 25.4272 20.6658L20.4891 15.7273ZM18.5557 17.1083L17.7194 16.272C17.8166 16.1849 17.9116 16.0954 18.0035 16.0034C18.0956 15.9112 18.1851 15.8165 18.272 15.7194L19.1084 16.5558L18.5557 17.1083ZM8.61316 15.451C6.17084 13.0089 6.17057 9.05565 8.61316 6.61315C11.0554 4.17084 15.0086 4.17057 17.4511 6.61315C19.8879 9.04987 19.9003 13.0022 17.4511 15.451C14.9743 17.9282 11.0221 17.8601 8.61316 15.451ZM20.213 16.5558L21.3175 17.6605L19.6606 19.3175L18.5559 18.2129L20.213 16.5558ZM24.8748 22.875C24.4171 23.3332 23.6763 23.3333 23.2182 22.875L20.213 19.8699L21.8699 18.2129L24.875 21.2183C25.3331 21.6759 25.3335 22.4167 24.8748 22.8749V22.875Z" fill="white"/>
<path d="M16.8989 7.16571C14.7628 5.02961 11.3022 5.0284 9.16526 7.16539C7.03358 9.2975 7.03358 12.7668 9.16526 14.899C11.3025 17.0362 14.7611 17.0363 16.8986 14.899C19.0307 12.7668 19.0309 9.29766 16.8989 7.16571ZM16.3462 14.3465C14.5144 16.1783 11.5499 16.1788 9.71761 14.3466C7.89049 12.5189 7.89049 9.54532 9.71761 7.71762C11.5485 5.88688 14.515 5.88641 16.3465 7.71809C18.1739 9.54543 18.1737 12.5189 16.3462 14.3465Z" fill="white"/>
<path d="M13.0321 7.12665C11.9881 7.12665 11.0073 7.53282 10.2703 8.27028C9.84305 8.69755 9.52856 9.20231 9.33571 9.77083C9.26641 9.97501 9.37567 10.1969 9.57997 10.2661C9.78462 10.3356 10.0061 10.2257 10.0754 10.0218C10.2294 9.56794 10.4809 9.16442 10.8227 8.82251C11.4123 8.23274 12.1969 7.9079 13.0321 7.9079C13.2479 7.9079 13.4228 7.73302 13.4228 7.51727C13.4228 7.30153 13.2479 7.12665 13.0321 7.12665Z" fill="white"/>
</svg>
