<svg width="20" height="20" viewBox="0 0 20 20" fill="none" xmlns="http://www.w3.org/2000/svg">
<path d="M3.54456 7.05984C3.32893 7.05984 3.15393 7.23473 3.15393 7.45031C3.15393 7.6659 3.32893 7.84094 3.54456 7.84094C3.76018 7.84094 3.93518 7.66594 3.93518 7.45031C3.93518 7.23469 3.76018 7.05984 3.54456 7.05984Z" fill="white"/>
<path d="M14.4891 11.7273C14.4529 11.691 14.4098 11.6622 14.3624 11.6425C14.3151 11.6229 14.2643 11.6128 14.213 11.6128C14.209 11.6136 14.0588 11.6052 13.9368 11.7273L13.6607 12.0033L12.7632 11.1059C14.7438 8.32956 14.4426 4.49975 12.0035 2.0608C9.25596 -0.686699 4.80863 -0.687168 2.06081 2.0608C-0.686702 4.80815 -0.687171 9.25561 2.06081 12.0034C4.49383 14.4366 8.32213 14.7488 11.1058 12.7632L12.0033 13.6607L11.7273 13.9367C11.5748 14.0892 11.5747 14.3367 11.7273 14.4892L16.6657 19.4271C17.4288 20.1907 18.664 20.1912 19.4272 19.4273C20.1908 18.6644 20.1911 17.429 19.4272 16.6658L14.4891 11.7273ZM12.5557 13.1083L11.7194 12.272C11.8166 12.1849 11.9116 12.0954 12.0035 12.0034C12.0956 11.9112 12.1851 11.8165 12.272 11.7194L13.1084 12.5558L12.5557 13.1083ZM2.61316 11.451C0.170841 9.00885 0.170567 5.05565 2.61316 2.61315C5.05535 0.17084 9.00861 0.170567 11.4511 2.61315C13.8879 5.04987 13.9003 9.00217 11.4511 11.451C8.97428 13.9282 5.02207 13.8601 2.61316 11.451ZM14.213 12.5558L15.3175 13.6605L13.6606 15.3175L12.5559 14.2129L14.213 12.5558ZM18.8748 18.875C18.4171 19.3332 17.6763 19.3333 17.2182 18.875L14.213 15.8699L15.8699 14.2129L18.875 17.2183C19.3331 17.6759 19.3335 18.4167 18.8748 18.8749V18.875Z" fill="white"/>
<path d="M10.8989 3.16571C8.76279 1.02961 5.30223 1.0284 3.16526 3.16539C1.03358 5.2975 1.03358 8.76676 3.16526 10.899C5.30254 13.0362 8.76111 13.0363 10.8986 10.899C13.0307 8.76676 13.0309 5.29766 10.8989 3.16571ZM10.3462 10.3465C8.51439 12.1783 5.54988 12.1788 3.71761 10.3466C1.89049 8.51891 1.89049 5.54532 3.71761 3.71762C5.54852 1.88688 8.51498 1.88641 10.3465 3.71809C12.1739 5.54543 12.1737 8.51895 10.3462 10.3465Z" fill="white"/>
<path d="M7.03213 3.12665C5.98814 3.12665 5.00732 3.53282 4.27028 4.27028C3.84305 4.69755 3.52856 5.20231 3.33571 5.77083C3.26641 5.97501 3.37567 6.19688 3.57997 6.26614C3.78462 6.33556 4.00614 6.22571 4.07544 6.02184C4.22938 5.56794 4.48087 5.16442 4.82267 4.82251C5.41228 4.23274 6.19689 3.9079 7.03213 3.9079C7.24791 3.9079 7.42276 3.73302 7.42276 3.51727C7.42276 3.30153 7.24791 3.12665 7.03213 3.12665Z" fill="white"/>
</svg>
