<svg width="170" height="55" viewBox="0 0 170 55" fill="none" xmlns="http://www.w3.org/2000/svg">
<rect x="0.5" y="0.5" width="168.5" height="54" rx="5.5" fill="black" stroke="white"/>
<path d="M59.0303 33.112C58.2516 33.112 57.5476 32.9787 56.9183 32.712C56.2996 32.4453 55.809 32.0613 55.4463 31.56C55.0836 31.0587 54.897 30.4667 54.8863 29.784H57.2863C57.3183 30.2427 57.4783 30.6053 57.7663 30.872C58.065 31.1387 58.4703 31.272 58.9823 31.272C59.505 31.272 59.9156 31.1493 60.2143 30.904C60.513 30.648 60.6623 30.3173 60.6623 29.912C60.6623 29.5813 60.561 29.3093 60.3583 29.096C60.1556 28.8827 59.8996 28.7173 59.5903 28.6C59.2916 28.472 58.8756 28.3333 58.3423 28.184C57.617 27.9707 57.025 27.7627 56.5663 27.56C56.1183 27.3467 55.729 27.032 55.3983 26.616C55.0783 26.1893 54.9183 25.624 54.9183 24.92C54.9183 24.2587 55.0836 23.6827 55.4143 23.192C55.745 22.7013 56.209 22.328 56.8063 22.072C57.4036 21.8053 58.0863 21.672 58.8543 21.672C60.0063 21.672 60.9396 21.9547 61.6543 22.52C62.3796 23.0747 62.7796 23.8533 62.8543 24.856H60.3903C60.369 24.472 60.2036 24.1573 59.8943 23.912C59.5956 23.656 59.1956 23.528 58.6943 23.528C58.257 23.528 57.905 23.64 57.6383 23.864C57.3823 24.088 57.2543 24.4133 57.2543 24.84C57.2543 25.1387 57.3503 25.3893 57.5423 25.592C57.745 25.784 57.9903 25.944 58.2783 26.072C58.577 26.1893 58.993 26.328 59.5263 26.488C60.2516 26.7013 60.8436 26.9147 61.3023 27.128C61.761 27.3413 62.1556 27.6613 62.4863 28.088C62.817 28.5147 62.9823 29.0747 62.9823 29.768C62.9823 30.3653 62.8276 30.92 62.5183 31.432C62.209 31.944 61.7556 32.3547 61.1583 32.664C60.561 32.9627 59.8516 33.112 59.0303 33.112ZM66.0603 23.08C65.6656 23.08 65.335 22.9573 65.0683 22.712C64.8123 22.456 64.6843 22.1413 64.6843 21.768C64.6843 21.3947 64.8123 21.0853 65.0683 20.84C65.335 20.584 65.6656 20.456 66.0603 20.456C66.455 20.456 66.7803 20.584 67.0363 20.84C67.303 21.0853 67.4363 21.3947 67.4363 21.768C67.4363 22.1413 67.303 22.456 67.0363 22.712C66.7803 22.9573 66.455 23.08 66.0603 23.08ZM67.1643 24.136V33H64.9243V24.136H67.1643ZM72.8494 23.992C73.5108 23.992 74.0921 24.1253 74.5934 24.392C75.0948 24.648 75.4894 24.984 75.7774 25.4V24.136H78.0334V33.064C78.0334 33.8853 77.8681 34.616 77.5374 35.256C77.2068 35.9067 76.7108 36.4187 76.0494 36.792C75.3881 37.176 74.5881 37.368 73.6494 37.368C72.3908 37.368 71.3561 37.0747 70.5454 36.488C69.7454 35.9013 69.2921 35.1013 69.1854 34.088H71.4094C71.5268 34.4933 71.7774 34.8133 72.1614 35.048C72.5561 35.2933 73.0308 35.416 73.5854 35.416C74.2361 35.416 74.7641 35.2187 75.1694 34.824C75.5748 34.44 75.7774 33.8533 75.7774 33.064V31.688C75.4894 32.104 75.0894 32.4507 74.5774 32.728C74.0761 33.0053 73.5001 33.144 72.8494 33.144C72.1028 33.144 71.4201 32.952 70.8014 32.568C70.1828 32.184 69.6921 31.6453 69.3294 30.952C68.9774 30.248 68.8014 29.4427 68.8014 28.536C68.8014 27.64 68.9774 26.8453 69.3294 26.152C69.6921 25.4587 70.1774 24.9253 70.7854 24.552C71.4041 24.1787 72.0921 23.992 72.8494 23.992ZM75.7774 28.568C75.7774 28.024 75.6708 27.56 75.4574 27.176C75.2441 26.7813 74.9561 26.4827 74.5934 26.28C74.2308 26.0667 73.8414 25.96 73.4254 25.96C73.0094 25.96 72.6254 26.0613 72.2734 26.264C71.9214 26.4667 71.6334 26.7653 71.4094 27.16C71.1961 27.544 71.0894 28.0027 71.0894 28.536C71.0894 29.0693 71.1961 29.5387 71.4094 29.944C71.6334 30.3387 71.9214 30.6427 72.2734 30.856C72.6361 31.0693 73.0201 31.176 73.4254 31.176C73.8414 31.176 74.2308 31.0747 74.5934 30.872C74.9561 30.6587 75.2441 30.36 75.4574 29.976C75.6708 29.5813 75.7774 29.112 75.7774 28.568ZM85.1332 24.008C86.1892 24.008 87.0425 24.344 87.6932 25.016C88.3439 25.6773 88.6692 26.6053 88.6692 27.8V33H86.4292V28.104C86.4292 27.4 86.2532 26.8613 85.9012 26.488C85.5492 26.104 85.0692 25.912 84.4612 25.912C83.8425 25.912 83.3519 26.104 82.9892 26.488C82.6372 26.8613 82.4612 27.4 82.4612 28.104V33H80.2212V24.136H82.4612V25.24C82.7599 24.856 83.1385 24.5573 83.5972 24.344C84.0665 24.12 84.5785 24.008 85.1332 24.008ZM102.98 24.136V33H100.724V31.88C100.436 32.264 100.057 32.568 99.5878 32.792C99.1291 33.0053 98.6278 33.112 98.0838 33.112C97.3905 33.112 96.7771 32.968 96.2438 32.68C95.7105 32.3813 95.2891 31.9493 94.9798 31.384C94.6811 30.808 94.5318 30.1253 94.5318 29.336V24.136H96.7718V29.016C96.7718 29.72 96.9478 30.264 97.2998 30.648C97.6518 31.0213 98.1318 31.208 98.7398 31.208C99.3585 31.208 99.8438 31.0213 100.196 30.648C100.548 30.264 100.724 29.72 100.724 29.016V24.136H102.98ZM107.43 25.416C107.718 25.0107 108.113 24.6747 108.614 24.408C109.126 24.1307 109.707 23.992 110.358 23.992C111.115 23.992 111.798 24.1787 112.406 24.552C113.025 24.9253 113.51 25.4587 113.862 26.152C114.225 26.8347 114.406 27.6293 114.406 28.536C114.406 29.4427 114.225 30.248 113.862 30.952C113.51 31.6453 113.025 32.184 112.406 32.568C111.798 32.952 111.115 33.144 110.358 33.144C109.707 33.144 109.131 33.0107 108.63 32.744C108.139 32.4773 107.739 32.1413 107.43 31.736V37.224H105.19V24.136H107.43V25.416ZM112.118 28.536C112.118 28.0027 112.006 27.544 111.782 27.16C111.569 26.7653 111.281 26.4667 110.918 26.264C110.566 26.0613 110.182 25.96 109.766 25.96C109.361 25.96 108.977 26.0667 108.614 26.28C108.262 26.4827 107.974 26.7813 107.75 27.176C107.537 27.5707 107.43 28.0347 107.43 28.568C107.43 29.1013 107.537 29.5653 107.75 29.96C107.974 30.3547 108.262 30.6587 108.614 30.872C108.977 31.0747 109.361 31.176 109.766 31.176C110.182 31.176 110.566 31.0693 110.918 30.856C111.281 30.6427 111.569 30.3387 111.782 29.944C112.006 29.5493 112.118 29.08 112.118 28.536Z" fill="white"/>
</svg>
