<svg width="170" height="55" viewBox="0 0 170 55" fill="none" xmlns="http://www.w3.org/2000/svg">
<rect x="0.5" y="0.5" width="168.5" height="54" rx="5.5" fill="black" stroke="white"/>
<path d="M66.6331 31.224H70.3131V33H64.3931V21.832H66.6331V31.224ZM75.6728 33.144C74.8195 33.144 74.0515 32.9573 73.3688 32.584C72.6861 32.2 72.1475 31.6613 71.7528 30.968C71.3688 30.2747 71.1768 29.4747 71.1768 28.568C71.1768 27.6613 71.3741 26.8613 71.7688 26.168C72.1741 25.4747 72.7235 24.9413 73.4168 24.568C74.1101 24.184 74.8835 23.992 75.7368 23.992C76.5901 23.992 77.3635 24.184 78.0568 24.568C78.7501 24.9413 79.2941 25.4747 79.6888 26.168C80.0941 26.8613 80.2968 27.6613 80.2968 28.568C80.2968 29.4747 80.0888 30.2747 79.6728 30.968C79.2675 31.6613 78.7128 32.2 78.0088 32.584C77.3155 32.9573 76.5368 33.144 75.6728 33.144ZM75.6728 31.192C76.0781 31.192 76.4568 31.096 76.8088 30.904C77.1715 30.7013 77.4595 30.4027 77.6728 30.008C77.8861 29.6133 77.9928 29.1333 77.9928 28.568C77.9928 27.7253 77.7688 27.08 77.3208 26.632C76.8835 26.1733 76.3448 25.944 75.7048 25.944C75.0648 25.944 74.5261 26.1733 74.0888 26.632C73.6621 27.08 73.4488 27.7253 73.4488 28.568C73.4488 29.4107 73.6568 30.0613 74.0728 30.52C74.4995 30.968 75.0328 31.192 75.6728 31.192ZM85.4119 23.992C86.0733 23.992 86.6546 24.1253 87.1559 24.392C87.6573 24.648 88.0519 24.984 88.3399 25.4V24.136H90.5959V33.064C90.5959 33.8853 90.4306 34.616 90.0999 35.256C89.7693 35.9067 89.2733 36.4187 88.6119 36.792C87.9506 37.176 87.1506 37.368 86.2119 37.368C84.9533 37.368 83.9186 37.0747 83.1079 36.488C82.3079 35.9013 81.8546 35.1013 81.7479 34.088H83.9719C84.0893 34.4933 84.3399 34.8133 84.7239 35.048C85.1186 35.2933 85.5933 35.416 86.1479 35.416C86.7986 35.416 87.3266 35.2187 87.7319 34.824C88.1373 34.44 88.3399 33.8533 88.3399 33.064V31.688C88.0519 32.104 87.6519 32.4507 87.1399 32.728C86.6386 33.0053 86.0626 33.144 85.4119 33.144C84.6653 33.144 83.9826 32.952 83.3639 32.568C82.7453 32.184 82.2546 31.6453 81.8919 30.952C81.5399 30.248 81.3639 29.4427 81.3639 28.536C81.3639 27.64 81.5399 26.8453 81.8919 26.152C82.2546 25.4587 82.7399 24.9253 83.3479 24.552C83.9666 24.1787 84.6546 23.992 85.4119 23.992ZM88.3399 28.568C88.3399 28.024 88.2333 27.56 88.0199 27.176C87.8066 26.7813 87.5186 26.4827 87.1559 26.28C86.7933 26.0667 86.4039 25.96 85.9879 25.96C85.5719 25.96 85.1879 26.0613 84.8359 26.264C84.4839 26.4667 84.1959 26.7653 83.9719 27.16C83.7586 27.544 83.6519 28.0027 83.6519 28.536C83.6519 29.0693 83.7586 29.5387 83.9719 29.944C84.1959 30.3387 84.4839 30.6427 84.8359 30.856C85.1986 31.0693 85.5826 31.176 85.9879 31.176C86.4039 31.176 86.7933 31.0747 87.1559 30.872C87.5186 30.6587 87.8066 30.36 88.0199 29.976C88.2333 29.5813 88.3399 29.112 88.3399 28.568ZM93.9197 23.08C93.525 23.08 93.1944 22.9573 92.9277 22.712C92.6717 22.456 92.5437 22.1413 92.5437 21.768C92.5437 21.3947 92.6717 21.0853 92.9277 20.84C93.1944 20.584 93.525 20.456 93.9197 20.456C94.3144 20.456 94.6397 20.584 94.8957 20.84C95.1624 21.0853 95.2957 21.3947 95.2957 21.768C95.2957 22.1413 95.1624 22.456 94.8957 22.712C94.6397 22.9573 94.3144 23.08 93.9197 23.08ZM95.0237 24.136V33H92.7837V24.136H95.0237ZM102.149 24.008C103.205 24.008 104.058 24.344 104.709 25.016C105.359 25.6773 105.685 26.6053 105.685 27.8V33H103.445V28.104C103.445 27.4 103.269 26.8613 102.917 26.488C102.565 26.104 102.085 25.912 101.477 25.912C100.858 25.912 100.367 26.104 100.005 26.488C99.6528 26.8613 99.4768 27.4 99.4768 28.104V33H97.2368V24.136H99.4768V25.24C99.7755 24.856 100.154 24.5573 100.613 24.344C101.082 24.12 101.594 24.008 102.149 24.008Z" fill="white"/>
</svg>
