<svg width="50" height="50" viewBox="0 0 50 50" fill="none" xmlns="http://www.w3.org/2000/svg">
<rect width="50" height="50" rx="6" fill="#0B2994"/>
<path d="M16.6883 39.3397C16.2476 38.9167 16 38.3431 16 37.7451C16 37.147 16.2476 36.5735 16.6883 36.1505L28.3254 24.9864L16.6883 13.8222C16.2601 13.3969 16.0231 12.8271 16.0285 12.2358C16.0338 11.6444 16.2811 11.0788 16.717 10.6606C17.1528 10.2424 17.7425 10.0052 18.3589 10.0001C18.9753 9.99495 19.5691 10.2223 20.0125 10.6331L33.3117 23.3918C33.7524 23.8148 34 24.3883 34 24.9864C34 25.5844 33.7524 26.158 33.3117 26.5809L20.0125 39.3397C19.5717 39.7625 18.9738 40 18.3504 40C17.727 40 17.1292 39.7625 16.6883 39.3397Z" fill="#FEF9E6"/>
</svg>
