<svg width="96" height="96" viewBox="0 0 96 96" fill="none" xmlns="http://www.w3.org/2000/svg">
<g clip-path="url(#clip0_114_558)">
<g filter="url(#filter0_d_114_558)">
<path d="M4.25562 15C4.25562 6.71571 10.9713 0 19.2556 0H76.7956C85.0798 0 91.7955 6.71573 91.7955 15V72.5399C91.7955 80.8242 85.0798 87.5399 76.7955 87.5399H19.2556C10.9713 87.5399 4.25562 80.8242 4.25562 72.5399V15Z" fill="white"/>
</g>
<path d="M25.0877 61.2783C24.5524 61.2783 24.0684 61.1866 23.6357 61.0033C23.2104 60.82 22.873 60.556 22.6237 60.2113C22.3744 59.8666 22.246 59.4596 22.2387 58.9903H23.8887C23.9107 59.3056 24.0207 59.555 24.2187 59.7383C24.424 59.9216 24.7027 60.0133 25.0547 60.0133C25.414 60.0133 25.6964 59.929 25.9017 59.7603C26.107 59.5843 26.2097 59.357 26.2097 59.0783C26.2097 58.851 26.14 58.664 26.0007 58.5173C25.8614 58.3706 25.6854 58.257 25.4727 58.1763C25.2674 58.0883 24.9814 57.993 24.6147 57.8903C24.116 57.7436 23.709 57.6006 23.3937 57.4613C23.0857 57.3146 22.818 57.0983 22.5907 56.8123C22.3707 56.519 22.2607 56.1303 22.2607 55.6463C22.2607 55.1916 22.3744 54.7956 22.6017 54.4583C22.829 54.121 23.148 53.8643 23.5587 53.6883C23.9694 53.505 24.4387 53.4133 24.9667 53.4133C25.7587 53.4133 26.4004 53.6076 26.8917 53.9963C27.3904 54.3776 27.6654 54.913 27.7167 55.6023H26.0227C26.008 55.3383 25.8944 55.122 25.6817 54.9533C25.4764 54.7773 25.2014 54.6893 24.8567 54.6893C24.556 54.6893 24.314 54.7663 24.1307 54.9203C23.9547 55.0743 23.8667 55.298 23.8667 55.5913C23.8667 55.7966 23.9327 55.969 24.0647 56.1083C24.204 56.2403 24.3727 56.3503 24.5707 56.4383C24.776 56.519 25.062 56.6143 25.4287 56.7243C25.9274 56.871 26.3344 57.0176 26.6497 57.1643C26.965 57.311 27.2364 57.531 27.4637 57.8243C27.691 58.1176 27.8047 58.5026 27.8047 58.9793C27.8047 59.39 27.6984 59.7713 27.4857 60.1233C27.273 60.4753 26.9614 60.7576 26.5507 60.9703C26.14 61.1756 25.6524 61.2783 25.0877 61.2783ZM30.6798 55.9873C30.8778 55.7086 31.1492 55.4776 31.4938 55.2943C31.8458 55.1036 32.2455 55.0083 32.6928 55.0083C33.2135 55.0083 33.6828 55.1366 34.1008 55.3933C34.5262 55.65 34.8598 56.0166 35.1018 56.4933C35.3512 56.9626 35.4758 57.509 35.4758 58.1323C35.4758 58.7556 35.3512 59.3093 35.1018 59.7933C34.8598 60.27 34.5262 60.6403 34.1008 60.9043C33.6828 61.1683 33.2135 61.3003 32.6928 61.3003C32.2455 61.3003 31.8495 61.2086 31.5048 61.0253C31.1675 60.842 30.8925 60.611 30.6798 60.3323V64.1053H29.1398V55.1073H30.6798V55.9873ZM33.9028 58.1323C33.9028 57.7656 33.8258 57.4503 33.6718 57.1863C33.5252 56.915 33.3272 56.7096 33.0778 56.5703C32.8358 56.431 32.5718 56.3613 32.2858 56.3613C32.0072 56.3613 31.7432 56.4346 31.4938 56.5813C31.2518 56.7206 31.0538 56.926 30.8998 57.1973C30.7532 57.4686 30.6798 57.7876 30.6798 58.1543C30.6798 58.521 30.7532 58.84 30.8998 59.1113C31.0538 59.3826 31.2518 59.5916 31.4938 59.7383C31.7432 59.8776 32.0072 59.9473 32.2858 59.9473C32.5718 59.9473 32.8358 59.874 33.0778 59.7273C33.3272 59.5806 33.5252 59.3716 33.6718 59.1003C33.8258 58.829 33.9028 58.5063 33.9028 58.1323ZM42.2599 58.0223C42.2599 58.2423 42.2452 58.4403 42.2159 58.6163H37.7609C37.7976 59.0563 37.9516 59.401 38.2229 59.6503C38.4942 59.8996 38.8279 60.0243 39.2239 60.0243C39.7959 60.0243 40.2029 59.7786 40.4449 59.2873H42.1059C41.9299 59.874 41.5926 60.358 41.0939 60.7393C40.5952 61.1133 39.9829 61.3003 39.2569 61.3003C38.6702 61.3003 38.1422 61.172 37.6729 60.9153C37.2109 60.6513 36.8479 60.281 36.5839 59.8043C36.3272 59.3276 36.1989 58.7776 36.1989 58.1543C36.1989 57.5236 36.3272 56.97 36.5839 56.4933C36.8406 56.0166 37.1999 55.65 37.6619 55.3933C38.1239 55.1366 38.6556 55.0083 39.2569 55.0083C39.8362 55.0083 40.3532 55.133 40.8079 55.3823C41.2699 55.6316 41.6256 55.9873 41.8749 56.4493C42.1316 56.904 42.2599 57.4283 42.2599 58.0223ZM40.6649 57.5823C40.6576 57.1863 40.5146 56.871 40.2359 56.6363C39.9572 56.3943 39.6162 56.2733 39.2129 56.2733C38.8316 56.2733 38.5089 56.3906 38.2449 56.6253C37.9882 56.8526 37.8306 57.1716 37.7719 57.5823H40.6649ZM42.988 58.1323C42.988 57.5163 43.109 56.97 43.351 56.4933C43.6003 56.0166 43.934 55.65 44.352 55.3933C44.7773 55.1366 45.2503 55.0083 45.771 55.0083C46.2256 55.0083 46.6216 55.1 46.959 55.2833C47.3036 55.4666 47.5786 55.6976 47.784 55.9763V55.1073H49.335V61.2013H47.784V60.3103C47.586 60.5963 47.311 60.8346 46.959 61.0253C46.6143 61.2086 46.2146 61.3003 45.76 61.3003C45.2466 61.3003 44.7773 61.1683 44.352 60.9043C43.934 60.6403 43.6003 60.27 43.351 59.7933C43.109 59.3093 42.988 58.7556 42.988 58.1323ZM47.784 58.1543C47.784 57.7803 47.7106 57.4613 47.564 57.1973C47.4173 56.926 47.2193 56.7206 46.97 56.5813C46.7206 56.4346 46.453 56.3613 46.167 56.3613C45.881 56.3613 45.617 56.431 45.375 56.5703C45.133 56.7096 44.935 56.915 44.781 57.1863C44.6343 57.4503 44.561 57.7656 44.561 58.1323C44.561 58.499 44.6343 58.8216 44.781 59.1003C44.935 59.3716 45.133 59.5806 45.375 59.7273C45.6243 59.874 45.8883 59.9473 46.167 59.9473C46.453 59.9473 46.7206 59.8776 46.97 59.7383C47.2193 59.5916 47.4173 59.3863 47.564 59.1223C47.7106 58.851 47.784 58.5283 47.784 58.1543ZM54.447 61.2013L52.379 58.6053V61.2013H50.839V53.0613H52.379V57.6923L54.425 55.1073H56.427L53.743 58.1653L56.449 61.2013H54.447ZM62.9279 58.0223C62.9279 58.2423 62.9132 58.4403 62.8839 58.6163H58.4289C58.4655 59.0563 58.6195 59.401 58.8909 59.6503C59.1622 59.8996 59.4959 60.0243 59.8919 60.0243C60.4639 60.0243 60.8709 59.7786 61.1129 59.2873H62.7739C62.5979 59.874 62.2605 60.358 61.7619 60.7393C61.2632 61.1133 60.6509 61.3003 59.9249 61.3003C59.3382 61.3003 58.8102 61.172 58.3409 60.9153C57.8789 60.6513 57.5159 60.281 57.2519 59.8043C56.9952 59.3276 56.8669 58.7776 56.8669 58.1543C56.8669 57.5236 56.9952 56.97 57.2519 56.4933C57.5085 56.0166 57.8679 55.65 58.3299 55.3933C58.7919 55.1366 59.3235 55.0083 59.9249 55.0083C60.5042 55.0083 61.0212 55.133 61.4759 55.3823C61.9379 55.6316 62.2935 55.9873 62.5429 56.4493C62.7995 56.904 62.9279 57.4283 62.9279 58.0223ZM61.3329 57.5823C61.3255 57.1863 61.1825 56.871 60.9039 56.6363C60.6252 56.3943 60.2842 56.2733 59.8809 56.2733C59.4995 56.2733 59.1769 56.3906 58.9129 56.6253C58.6562 56.8526 58.4985 57.1716 58.4399 57.5823H61.3329ZM65.5919 56.0533C65.7899 55.7306 66.0466 55.4776 66.3619 55.2943C66.6846 55.111 67.0513 55.0193 67.4619 55.0193V56.6363H67.0549C66.5709 56.6363 66.2043 56.75 65.9549 56.9773C65.7129 57.2046 65.5919 57.6006 65.5919 58.1653V61.2013H64.0519V55.1073H65.5919V56.0533ZM70.8312 61.3003C70.3325 61.3003 69.8852 61.2123 69.4892 61.0363C69.0932 60.853 68.7779 60.6073 68.5432 60.2993C68.3159 59.9913 68.1912 59.6503 68.1692 59.2763H69.7202C69.7495 59.511 69.8632 59.7053 70.0612 59.8593C70.2665 60.0133 70.5195 60.0903 70.8202 60.0903C71.1135 60.0903 71.3409 60.0316 71.5022 59.9143C71.6709 59.797 71.7552 59.6466 71.7552 59.4633C71.7552 59.2653 71.6525 59.1186 71.4472 59.0233C71.2492 58.9206 70.9302 58.8106 70.4902 58.6933C70.0355 58.5833 69.6615 58.4696 69.3682 58.3523C69.0822 58.235 68.8329 58.0553 68.6202 57.8133C68.4149 57.5713 68.3122 57.245 68.3122 56.8343C68.3122 56.497 68.4075 56.189 68.5982 55.9103C68.7962 55.6316 69.0749 55.4116 69.4342 55.2503C69.8009 55.089 70.2299 55.0083 70.7212 55.0083C71.4472 55.0083 72.0265 55.1916 72.4592 55.5583C72.8919 55.9176 73.1302 56.4053 73.1742 57.0213H71.7002C71.6782 56.7793 71.5755 56.5886 71.3922 56.4493C71.2162 56.3026 70.9779 56.2293 70.6772 56.2293C70.3985 56.2293 70.1822 56.2806 70.0282 56.3833C69.8815 56.486 69.8082 56.629 69.8082 56.8123C69.8082 57.0176 69.9109 57.1753 70.1162 57.2853C70.3215 57.388 70.6405 57.4943 71.0732 57.6043C71.5132 57.7143 71.8762 57.828 72.1622 57.9453C72.4482 58.0626 72.6939 58.246 72.8992 58.4953C73.1119 58.7373 73.2219 59.06 73.2292 59.4633C73.2292 59.8153 73.1302 60.1306 72.9322 60.4093C72.7415 60.688 72.4629 60.908 72.0962 61.0693C71.7369 61.2233 71.3152 61.3003 70.8312 61.3003Z" fill="black"/>
<path d="M44.8475 43.6497H33.7839C33.3562 43.6497 33.0095 43.303 33.0095 42.8753V21.8606C33.0095 21.4329 33.3562 21.0862 33.7839 21.0862H44.8476C45.2752 21.0862 45.622 21.4329 45.622 21.8606V42.8754C45.6219 43.303 45.2752 43.6497 44.8475 43.6497Z" stroke="black" stroke-miterlimit="10" stroke-linecap="round" stroke-linejoin="round"/>
<path d="M37.3695 23.2558C37.9599 22.9775 38.6197 22.8219 39.3157 22.8219C41.8399 22.8219 43.8863 24.8682 43.8863 27.3924C43.8863 29.9167 41.8399 31.963 39.3157 31.963C36.7915 31.963 34.7452 29.9167 34.7452 27.3924C34.7452 26.307 35.1236 25.3098 35.7557 24.5258M44.8475 43.6497H33.7839C33.3562 43.6497 33.0095 43.303 33.0095 42.8753V38.7899H45.6219V42.8753C45.6219 43.303 45.2752 43.6497 44.8475 43.6497Z" stroke="black" stroke-miterlimit="10" stroke-linecap="round" stroke-linejoin="round"/>
<path d="M39.3157 28.8343C40.112 28.8343 40.7576 28.1888 40.7576 27.3924C40.7576 26.5961 40.112 25.9505 39.3157 25.9505C38.5193 25.9505 37.8738 26.5961 37.8738 27.3924C37.8738 28.1888 38.5193 28.8343 39.3157 28.8343Z" stroke="black" stroke-miterlimit="10" stroke-linecap="round" stroke-linejoin="round"/>
<path d="M39.3158 36.646C40.0507 36.646 40.6464 36.0503 40.6464 35.3153C40.6464 34.5804 40.0507 33.9847 39.3158 33.9847C38.5809 33.9847 37.9851 34.5804 37.9851 35.3153C37.9851 36.0503 38.5809 36.646 39.3158 36.646Z" stroke="black" stroke-miterlimit="10" stroke-linecap="round" stroke-linejoin="round"/>
<path d="M35.8029 42.1455C36.3141 42.1455 36.7286 41.731 36.7286 41.2198C36.7286 40.7086 36.3141 40.2941 35.8029 40.2941C35.2916 40.2941 34.8772 40.7086 34.8772 41.2198C34.8772 41.731 35.2916 42.1455 35.8029 42.1455Z" stroke="black" stroke-miterlimit="10" stroke-linecap="round" stroke-linejoin="round"/>
<path d="M39.3157 42.1455C39.8269 42.1455 40.2414 41.731 40.2414 41.2198C40.2414 40.7086 39.8269 40.2941 39.3157 40.2941C38.8045 40.2941 38.39 40.7086 38.39 41.2198C38.39 41.731 38.8045 42.1455 39.3157 42.1455Z" stroke="black" stroke-miterlimit="10" stroke-linecap="round" stroke-linejoin="round"/>
<path d="M42.3687 40.5523H43.8863M42.3687 41.8873H43.8863M34.3512 22.4066L34.4856 22.5409M44.2803 22.4066L44.1459 22.5409M34.3512 37.4508L34.4856 37.3164M44.2803 37.4508L44.1459 37.3164M61.7635 35.7525V42.8753C61.7635 43.303 61.4168 43.6497 60.9891 43.6497H49.9255C49.4978 43.6497 49.1511 43.303 49.1511 42.8753V21.8606C49.1511 21.433 49.4978 21.0862 49.9255 21.0862H60.9891C61.4168 21.0862 61.7635 21.4329 61.7635 21.8606V33.6719" stroke="black" stroke-miterlimit="10" stroke-linecap="round" stroke-linejoin="round"/>
<path d="M60.9891 43.6497H49.9255C49.4978 43.6497 49.1511 43.303 49.1511 42.8753V38.7899H61.7635V42.8753C61.7635 43.303 61.4168 43.6497 60.9891 43.6497Z" stroke="black" stroke-miterlimit="10" stroke-linecap="round" stroke-linejoin="round"/>
<path d="M51.5431 41.4928V40.7911C51.5431 40.6693 51.5915 40.5526 51.6776 40.4664C51.7637 40.3803 51.8805 40.332 52.0022 40.332H58.9122C59.034 40.332 59.1508 40.3803 59.2369 40.4664C59.323 40.5526 59.3713 40.6693 59.3713 40.7911V41.4928C59.3713 41.6145 59.323 41.7313 59.2369 41.8174C59.1508 41.9035 59.034 41.9519 58.9122 41.9519H52.0022C51.8805 41.9519 51.7637 41.9035 51.6776 41.8174C51.5915 41.7313 51.5431 41.6145 51.5431 41.4928Z" stroke="black" stroke-miterlimit="10" stroke-linecap="round" stroke-linejoin="round"/>
<path d="M55.4573 31.963C57.9815 31.963 60.0278 29.9167 60.0278 27.3924C60.0278 24.8682 57.9815 22.8219 55.4573 22.8219C52.933 22.8219 50.8867 24.8682 50.8867 27.3924C50.8867 29.9167 52.933 31.963 55.4573 31.963Z" stroke="black" stroke-miterlimit="10" stroke-linecap="round" stroke-linejoin="round"/>
<path d="M55.4573 28.8343C56.2537 28.8343 56.8992 28.1888 56.8992 27.3924C56.8992 26.5961 56.2537 25.9505 55.4573 25.9505C54.661 25.9505 54.0154 26.5961 54.0154 27.3924C54.0154 28.1888 54.661 28.8343 55.4573 28.8343Z" stroke="black" stroke-miterlimit="10" stroke-linecap="round" stroke-linejoin="round"/>
<path d="M55.4573 36.646C56.1922 36.646 56.7879 36.0503 56.7879 35.3153C56.7879 34.5804 56.1922 33.9847 55.4573 33.9847C54.7223 33.9847 54.1266 34.5804 54.1266 35.3153C54.1266 36.0503 54.7223 36.646 55.4573 36.646Z" stroke="black" stroke-miterlimit="10" stroke-linecap="round" stroke-linejoin="round"/>
<path d="M50.4927 22.4066L50.6271 22.541M60.4218 22.4066L60.2874 22.541M50.4927 37.4508L50.6271 37.3164M60.4218 37.4508L60.2874 37.3164" stroke="black" stroke-miterlimit="10" stroke-linecap="round" stroke-linejoin="round"/>
<path d="M48.0255 37.9692H47.1269C47.0077 37.9692 46.8935 38.0166 46.8092 38.1008C46.7249 38.1851 46.6776 38.2994 46.6776 38.4185C46.6776 38.5377 46.7249 38.652 46.8092 38.7362C46.8935 38.8205 47.0077 38.8678 47.1269 38.8678H48.0255C48.1446 38.8678 48.2589 38.8205 48.3431 38.7362C48.4274 38.652 48.4747 38.5377 48.4747 38.4185C48.4747 38.2994 48.4274 38.1851 48.3431 38.1008C48.2589 38.0166 48.1446 37.9692 48.0255 37.9692Z" fill="black"/>
</g>
<defs>
<filter id="filter0_d_114_558" x="0.255615" y="0" width="95.5399" height="95.5399" filterUnits="userSpaceOnUse" color-interpolation-filters="sRGB">
<feFlood flood-opacity="0" result="BackgroundImageFix"/>
<feColorMatrix in="SourceAlpha" type="matrix" values="0 0 0 0 0 0 0 0 0 0 0 0 0 0 0 0 0 0 127 0" result="hardAlpha"/>
<feOffset dy="4"/>
<feGaussianBlur stdDeviation="2"/>
<feComposite in2="hardAlpha" operator="out"/>
<feColorMatrix type="matrix" values="0 0 0 0 0 0 0 0 0 0 0 0 0 0 0 0 0 0 0.5 0"/>
<feBlend mode="normal" in2="BackgroundImageFix" result="effect1_dropShadow_114_558"/>
<feBlend mode="normal" in="SourceGraphic" in2="effect1_dropShadow_114_558" result="shape"/>
</filter>
<clipPath id="clip0_114_558">
<rect width="96" height="96" fill="white"/>
</clipPath>
</defs>
</svg>
