<svg width="31" height="31" viewBox="0 0 31 31" fill="none" xmlns="http://www.w3.org/2000/svg">
<path d="M11.3722 5.94162C13.2094 2.6472 14.1272 1 15.5004 1C16.8735 1 17.7914 2.6472 19.6285 5.94162L20.1041 6.79422C20.6261 7.73092 20.8871 8.19927 21.2932 8.50812C21.6992 8.81697 22.2067 8.93152 23.2217 9.16062L24.1439 9.36943C27.7109 10.1771 29.4929 10.5802 29.9178 11.9446C30.3412 13.3076 29.1261 14.7301 26.6944 17.5736L26.0651 18.3087C25.3749 19.1164 25.0284 19.5209 24.8732 20.0197C24.7181 20.52 24.7703 21.0594 24.8747 22.1367L24.9704 23.1184C25.3372 26.913 25.5214 28.8096 24.4107 29.6521C23.3 30.496 21.6296 29.726 18.2916 28.189L17.426 27.7917C16.4777 27.3538 16.0035 27.1363 15.5004 27.1363C14.9972 27.1363 14.5231 27.3538 13.5733 27.7917L12.7106 28.189C9.37122 29.726 7.70081 30.4945 6.59156 29.6535C5.4794 28.8096 5.66355 26.913 6.03041 23.1184L6.12611 22.1382C6.23051 21.0594 6.28271 20.52 6.12611 20.0212C5.97241 19.5209 5.62586 19.1164 4.93565 18.3102L4.30635 17.5736C1.87469 14.7315 0.65959 13.3091 1.08299 11.9446C1.50784 10.5802 3.29135 10.1756 6.85836 9.36943L7.78056 9.16062C8.79411 8.93152 9.30017 8.81697 9.70762 8.50812C10.1136 8.19927 10.3746 7.73092 10.8966 6.79422L11.3722 5.94162Z" fill="url(#paint0_linear_321_559)" stroke="black" stroke-width="1.5"/>
<defs>
<linearGradient id="paint0_linear_321_559" x1="15.5004" y1="1" x2="15.5004" y2="30" gradientUnits="userSpaceOnUse">
<stop stop-color="#F9F6EE"/>
<stop offset="0.5" stop-color="#EFECE5"/>
<stop offset="1" stop-color="#93918D"/>
</linearGradient>
</defs>
</svg>
