<svg width="375" height="833" viewBox="0 0 375 833" fill="none" xmlns="http://www.w3.org/2000/svg">
<g clip-path="url(#clip0_469_235)">
<rect width="375" height="833" fill="white"/>
<path d="M65.2548 96.7021L66.8984 16.6748L145.282 95.0585L65.2548 96.7021Z" fill="black"/>
<path d="M315.821 47.9311C350.209 72.5543 395.105 141.308 299.584 219.337" stroke="black" stroke-width="15" stroke-linecap="round"/>
<path d="M78.1333 495.552C82.0472 495.271 85.5053 498.231 85.1809 502.141C84.5791 509.394 82.2614 516.437 78.3758 522.671C73.231 530.925 65.6023 537.336 56.5856 540.982C47.569 544.629 37.6285 545.324 28.1921 542.967C18.7558 540.611 10.3093 535.324 4.06604 527.866C-2.17721 520.408 -5.89588 511.163 -6.55575 501.459C-7.21561 491.755 -4.78272 482.092 0.393434 473.858C5.56959 465.623 13.2226 459.241 22.253 455.629C29.0731 452.901 36.4137 451.858 43.6596 452.542C47.5663 452.91 49.8714 456.835 48.9061 460.638C47.9408 464.442 44.0569 466.657 40.1341 466.558C35.8473 466.451 31.5578 467.212 27.5309 468.822C21.2901 471.319 16.0012 475.729 12.4241 481.42C8.84693 487.111 7.16559 493.789 7.62162 500.495C8.07764 507.201 10.6476 513.59 14.9622 518.744C19.2768 523.898 25.114 527.552 31.6353 529.181C38.1567 530.81 45.0264 530.329 51.2577 527.809C57.4889 525.289 62.761 520.858 66.3165 515.154C68.6107 511.473 70.114 507.385 70.7626 503.146C71.356 499.267 74.2194 495.833 78.1333 495.552Z" fill="black"/>
<circle cx="338" cy="466" r="11" fill="black"/>
<circle cx="72" cy="142" r="11" fill="black"/>
</g>
<defs>
<clipPath id="clip0_469_235">
<rect width="375" height="833" fill="white"/>
</clipPath>
</defs>
</svg>
