<svg width="375" height="833" viewBox="0 0 375 833" fill="none" xmlns="http://www.w3.org/2000/svg">
<g clip-path="url(#clip0_469_284)">
<rect width="375" height="833" fill="white"/>
<path d="M73.7409 40.1007L44.5569 114.635L-1.92871 14.0015L73.7409 40.1007Z" fill="black"/>
<path d="M246.316 161.065C253.386 119.366 295.524 48.8883 407.512 100.574" stroke="black" stroke-width="15" stroke-linecap="round"/>
<path d="M10.5363 438.486C11.3416 434.646 15.1376 432.134 18.8084 433.521C25.617 436.093 31.7515 440.257 36.6775 445.706C43.1998 452.921 47.2674 462.018 48.2958 471.689C49.3242 481.361 47.2606 491.11 42.4013 499.535C37.5421 507.961 30.1373 514.629 21.2508 518.582C12.3643 522.535 2.4534 523.57 -7.0581 521.538C-16.5696 519.506 -25.1921 514.511 -31.687 507.271C-38.1819 500.031 -42.2149 490.919 -43.2066 481.244C-43.9555 473.936 -42.9407 466.592 -40.292 459.813C-38.864 456.158 -34.4569 455.02 -31.0651 456.993C-27.6734 458.967 -26.6115 463.31 -27.7839 467.055C-29.0652 471.147 -29.5128 475.48 -29.0706 479.795C-28.3852 486.481 -25.5981 492.779 -21.1096 497.782C-16.621 502.785 -10.6621 506.237 -4.08887 507.642C2.48437 509.046 9.33364 508.331 15.475 505.599C21.6163 502.867 26.7336 498.258 30.0918 492.436C33.4499 486.613 34.8761 479.876 34.1654 473.192C33.4546 466.508 30.6436 460.221 26.1361 455.235C23.2276 452.018 19.7094 449.449 15.812 447.66C12.2455 446.024 9.73093 442.327 10.5363 438.486Z" fill="black"/>
<circle cx="338" cy="466" r="11" fill="black"/>
<circle cx="72" cy="142" r="11" fill="black"/>
</g>
<defs>
<clipPath id="clip0_469_284">
<rect width="375" height="833" fill="white"/>
</clipPath>
</defs>
</svg>
