<svg width="375" height="833" viewBox="0 0 375 833" fill="none" xmlns="http://www.w3.org/2000/svg">
<g clip-path="url(#clip0_469_260)">
<rect width="375" height="833" fill="white"/>
<path d="M15.7224 40.6034L90.8791 13.0619L46.3265 114.566L15.7224 40.6034Z" fill="#0B2994"/>
<path d="M409.73 151.617C379.636 181.335 304.269 213.931 243.555 106.569" stroke="#0B2994" stroke-width="15" stroke-linecap="round"/>
<path d="M-17.497 509.882C-19.5199 513.244 -23.9304 514.369 -26.9416 511.853C-32.5266 507.186 -36.9517 501.237 -39.813 494.472C-43.6016 485.514 -44.4533 475.585 -42.2458 466.113C-40.0383 456.641 -34.8851 448.112 -27.5267 441.752C-20.1682 435.392 -10.9831 431.527 -1.29094 430.715C8.40121 429.902 18.1016 432.182 26.4167 437.227C34.7318 442.273 41.2337 449.824 44.9882 458.797C48.7427 467.769 49.5567 477.7 47.3132 487.164C45.6189 494.312 42.2465 500.915 37.5169 506.446C34.9669 509.429 30.4307 509.055 27.876 506.076C25.3213 503.098 25.7457 498.647 28.0838 495.496C30.639 492.052 32.4859 488.107 33.4863 483.886C35.0368 477.346 34.4743 470.483 31.8795 464.282C29.2848 458.081 24.7915 452.863 19.0451 449.376C13.2986 445.889 6.59483 444.313 -0.103273 444.875C-6.80137 445.437 -13.149 448.107 -18.2344 452.503C-23.3197 456.898 -26.881 462.792 -28.4065 469.338C-29.9321 475.885 -29.3435 482.746 -26.7253 488.937C-25.0359 492.931 -22.5575 496.514 -19.4644 499.484C-16.634 502.202 -15.4741 506.52 -17.497 509.882Z" fill="#0B2994"/>
<circle cx="72" cy="142" r="11" fill="#0B2994"/>
<circle cx="338" cy="466" r="11" fill="#0B2994"/>
</g>
<defs>
<clipPath id="clip0_469_260">
<rect width="375" height="833" fill="white"/>
</clipPath>
</defs>
</svg>
