<svg width="38" height="38" viewBox="0 0 38 38" fill="none" xmlns="http://www.w3.org/2000/svg">
<g filter="url(#filter0_d_655_220)">
<circle cx="15" cy="15" r="15" fill="#17264D"/>
<path d="M12.7226 9.72641C13.7362 7.9088 14.2426 7 15.0002 7C15.7578 7 16.2642 7.9088 17.2778 9.72641L17.5402 10.1968C17.8282 10.7136 17.9722 10.972 18.1962 11.1424C18.4202 11.3128 18.7002 11.376 19.2602 11.5024L19.769 11.6176C21.737 12.0632 22.7202 12.2856 22.9546 13.0384C23.1882 13.7904 22.5178 14.5752 21.1762 16.144L20.829 16.5496C20.4482 16.9952 20.257 17.2184 20.1714 17.4936C20.0858 17.7696 20.1146 18.0672 20.1722 18.6616L20.225 19.2032C20.4274 21.2968 20.529 22.3432 19.9162 22.808C19.3034 23.2736 18.3818 22.8488 16.5402 22.0008L16.0626 21.7816C15.5394 21.54 15.2778 21.42 15.0002 21.42C14.7226 21.42 14.461 21.54 13.937 21.7816L13.461 22.0008C11.6186 22.8488 10.697 23.2729 10.085 22.8088C9.4714 22.3432 9.573 21.2968 9.7754 19.2032L9.8282 18.6624C9.8858 18.0672 9.9146 17.7696 9.8282 17.4944C9.7434 17.2184 9.5522 16.9952 9.17139 16.5504L8.82419 16.144C7.48259 14.576 6.81219 13.7912 7.04579 13.0384C7.28019 12.2856 8.26419 12.0624 10.2322 11.6176L10.741 11.5024C11.3002 11.376 11.5794 11.3128 11.8042 11.1424C12.0282 10.972 12.1722 10.7136 12.4602 10.1968L12.7226 9.72641Z" fill="#FEF9E6" stroke="#FEF9E6" stroke-width="1.5"/>
</g>
<defs>
<filter id="filter0_d_655_220" x="0" y="0" width="38" height="38" filterUnits="userSpaceOnUse" color-interpolation-filters="sRGB">
<feFlood flood-opacity="0" result="BackgroundImageFix"/>
<feColorMatrix in="SourceAlpha" type="matrix" values="0 0 0 0 0 0 0 0 0 0 0 0 0 0 0 0 0 0 127 0" result="hardAlpha"/>
<feOffset dx="4" dy="4"/>
<feGaussianBlur stdDeviation="2"/>
<feComposite in2="hardAlpha" operator="out"/>
<feColorMatrix type="matrix" values="0 0 0 0 0 0 0 0 0 0 0 0 0 0 0 0 0 0 0.35 0"/>
<feBlend mode="normal" in2="BackgroundImageFix" result="effect1_dropShadow_655_220"/>
<feBlend mode="normal" in="SourceGraphic" in2="effect1_dropShadow_655_220" result="shape"/>
</filter>
</defs>
</svg>
