<svg width="38" height="38" viewBox="0 0 38 38" fill="none" xmlns="http://www.w3.org/2000/svg">
<g filter="url(#filter0_d_655_218)">
<circle cx="15" cy="15" r="15" fill="#17264D"/>
<path d="M10.2321 11.6176C8.26416 12.0632 7.28018 12.2856 7.04579 13.0384C6.81219 13.7904 7.48258 14.5752 8.82415 16.144L9.17134 16.5496C9.55213 16.9952 9.74332 17.2184 9.82892 17.4936C9.91452 17.7696 9.88572 18.0672 9.82812 18.6616L9.77532 19.2032C9.57293 21.2968 9.47133 22.3432 10.0841 22.808C10.6969 23.2737 11.6185 22.8488 13.46 22.0008L13.9376 21.7816C14.4608 21.54 14.7224 21.42 15 21.42C15.2776 21.42 15.5392 21.54 16.0632 21.7816L16.5392 22.0008C18.3815 22.8488 19.3031 23.2728 19.9151 22.8088C20.5287 22.3432 20.4271 21.2968 20.2247 19.2032M21.1759 16.144C22.5174 14.576 23.1878 13.7912 22.9542 13.0384C22.7198 12.2856 21.7358 12.0624 19.7679 11.6176L19.2591 11.5024C18.6999 11.376 18.4207 11.3128 18.1959 11.1424C17.9719 10.972 17.8279 10.7136 17.5399 10.1968L17.2775 9.72641C16.264 7.9088 15.7576 7 15 7C14.2424 7 13.736 7.9088 12.7225 9.72641" stroke="#FEF9E6" stroke-width="1.5" stroke-linecap="round"/>
</g>
<defs>
<filter id="filter0_d_655_218" x="0" y="0" width="38" height="38" filterUnits="userSpaceOnUse" color-interpolation-filters="sRGB">
<feFlood flood-opacity="0" result="BackgroundImageFix"/>
<feColorMatrix in="SourceAlpha" type="matrix" values="0 0 0 0 0 0 0 0 0 0 0 0 0 0 0 0 0 0 127 0" result="hardAlpha"/>
<feOffset dx="4" dy="4"/>
<feGaussianBlur stdDeviation="2"/>
<feComposite in2="hardAlpha" operator="out"/>
<feColorMatrix type="matrix" values="0 0 0 0 0 0 0 0 0 0 0 0 0 0 0 0 0 0 0.35 0"/>
<feBlend mode="normal" in2="BackgroundImageFix" result="effect1_dropShadow_655_218"/>
<feBlend mode="normal" in="SourceGraphic" in2="effect1_dropShadow_655_218" result="shape"/>
</filter>
</defs>
</svg>
