<svg width="145" height="145" viewBox="0 0 145 145" fill="none" xmlns="http://www.w3.org/2000/svg">
<g filter="url(#filter0_d_384_433)">
<path d="M4 15C4 6.71573 10.7157 0 19 0H126C134.284 0 141 6.71573 141 15V122C141 130.284 134.284 137 126 137H19C10.7157 137 4 130.284 4 122V15Z" fill="white"/>
</g>
<path d="M41.9745 98.126C41.0985 98.126 40.3065 97.976 39.5985 97.676C38.9025 97.376 38.3505 96.944 37.9425 96.38C37.5345 95.816 37.3245 95.15 37.3125 94.382H40.0125C40.0485 94.898 40.2285 95.306 40.5525 95.606C40.8885 95.906 41.3445 96.056 41.9205 96.056C42.5085 96.056 42.9705 95.918 43.3065 95.642C43.6425 95.354 43.8105 94.982 43.8105 94.526C43.8105 94.154 43.6965 93.848 43.4685 93.608C43.2405 93.368 42.9525 93.182 42.6045 93.05C42.2685 92.906 41.8005 92.75 41.2005 92.582C40.3845 92.342 39.7185 92.108 39.2025 91.88C38.6985 91.64 38.2605 91.286 37.8885 90.818C37.5285 90.338 37.3485 89.702 37.3485 88.91C37.3485 88.166 37.5345 87.518 37.9065 86.966C38.2785 86.414 38.8005 85.994 39.4725 85.706C40.1445 85.406 40.9125 85.256 41.7765 85.256C43.0725 85.256 44.1225 85.574 44.9265 86.21C45.7425 86.834 46.1925 87.71 46.2765 88.838H43.5045C43.4805 88.406 43.2945 88.052 42.9465 87.776C42.6105 87.488 42.1605 87.344 41.5965 87.344C41.1045 87.344 40.7085 87.47 40.4085 87.722C40.1205 87.974 39.9765 88.34 39.9765 88.82C39.9765 89.156 40.0845 89.438 40.3005 89.666C40.5285 89.882 40.8045 90.062 41.1285 90.206C41.4645 90.338 41.9325 90.494 42.5325 90.674C43.3485 90.914 44.0145 91.154 44.5305 91.394C45.0465 91.634 45.4905 91.994 45.8625 92.474C46.2345 92.954 46.4205 93.584 46.4205 94.364C46.4205 95.036 46.2465 95.66 45.8985 96.236C45.5505 96.812 45.0405 97.274 44.3685 97.622C43.6965 97.958 42.8985 98.126 41.9745 98.126ZM51.5393 90.098V94.922C51.5393 95.258 51.6173 95.504 51.7733 95.66C51.9413 95.804 52.2173 95.876 52.6013 95.876H53.7713V98H52.1873C50.0633 98 49.0013 96.968 49.0013 94.904V90.098H47.8133V88.028H49.0013V85.562H51.5393V88.028H53.7713V90.098H51.5393ZM60.0118 98.162C59.0518 98.162 58.1878 97.952 57.4198 97.532C56.6518 97.1 56.0458 96.494 55.6018 95.714C55.1698 94.934 54.9538 94.034 54.9538 93.014C54.9538 91.994 55.1758 91.094 55.6198 90.314C56.0758 89.534 56.6938 88.934 57.4738 88.514C58.2538 88.082 59.1238 87.866 60.0838 87.866C61.0438 87.866 61.9138 88.082 62.6938 88.514C63.4738 88.934 64.0858 89.534 64.5298 90.314C64.9858 91.094 65.2138 91.994 65.2138 93.014C65.2138 94.034 64.9798 94.934 64.5118 95.714C64.0558 96.494 63.4318 97.1 62.6398 97.532C61.8598 97.952 60.9838 98.162 60.0118 98.162ZM60.0118 95.966C60.4678 95.966 60.8938 95.858 61.2898 95.642C61.6978 95.414 62.0218 95.078 62.2618 94.634C62.5018 94.19 62.6218 93.65 62.6218 93.014C62.6218 92.066 62.3698 91.34 61.8658 90.836C61.3738 90.32 60.7678 90.062 60.0478 90.062C59.3278 90.062 58.7218 90.32 58.2298 90.836C57.7498 91.34 57.5098 92.066 57.5098 93.014C57.5098 93.962 57.7438 94.694 58.2118 95.21C58.6918 95.714 59.2918 95.966 60.0118 95.966ZM69.5823 89.576C69.9063 89.048 70.3263 88.634 70.8423 88.334C71.3703 88.034 71.9703 87.884 72.6423 87.884V90.53H71.9763C71.1843 90.53 70.5843 90.716 70.1763 91.088C69.7803 91.46 69.5823 92.108 69.5823 93.032V98H67.0623V88.028H69.5823V89.576ZM73.6917 92.978C73.6917 91.97 73.8897 91.076 74.2857 90.296C74.6937 89.516 75.2397 88.916 75.9237 88.496C76.6197 88.076 77.3937 87.866 78.2457 87.866C78.9897 87.866 79.6377 88.016 80.1897 88.316C80.7537 88.616 81.2037 88.994 81.5397 89.45V88.028H84.0777V98H81.5397V96.542C81.2157 97.01 80.7657 97.4 80.1897 97.712C79.6257 98.012 78.9717 98.162 78.2277 98.162C77.3877 98.162 76.6197 97.946 75.9237 97.514C75.2397 97.082 74.6937 96.476 74.2857 95.696C73.8897 94.904 73.6917 93.998 73.6917 92.978ZM81.5397 93.014C81.5397 92.402 81.4197 91.88 81.1797 91.448C80.9397 91.004 80.6157 90.668 80.2077 90.44C79.7997 90.2 79.3617 90.08 78.8937 90.08C78.4257 90.08 77.9937 90.194 77.5977 90.422C77.2017 90.65 76.8777 90.986 76.6257 91.43C76.3857 91.862 76.2657 92.378 76.2657 92.978C76.2657 93.578 76.3857 94.106 76.6257 94.562C76.8777 95.006 77.2017 95.348 77.5977 95.588C78.0057 95.828 78.4377 95.948 78.8937 95.948C79.3617 95.948 79.7997 95.834 80.2077 95.606C80.6157 95.366 80.9397 95.03 81.1797 94.598C81.4197 94.154 81.5397 93.626 81.5397 93.014ZM90.4449 87.866C91.1889 87.866 91.8429 88.016 92.4069 88.316C92.9709 88.604 93.4149 88.982 93.7389 89.45V88.028H96.2769V98.072C96.2769 98.996 96.0909 99.818 95.7189 100.538C95.3469 101.27 94.7889 101.846 94.0449 102.266C93.3009 102.698 92.4009 102.914 91.3449 102.914C89.9289 102.914 88.7649 102.584 87.8529 101.924C86.9529 101.264 86.4429 100.364 86.3229 99.224H88.8249C88.9569 99.68 89.2389 100.04 89.6709 100.304C90.1149 100.58 90.6489 100.718 91.2729 100.718C92.0049 100.718 92.5989 100.496 93.0549 100.052C93.5109 99.62 93.7389 98.96 93.7389 98.072V96.524C93.4149 96.992 92.9649 97.382 92.3889 97.694C91.8249 98.006 91.1769 98.162 90.4449 98.162C89.6049 98.162 88.8369 97.946 88.1409 97.514C87.4449 97.082 86.8929 96.476 86.4849 95.696C86.0889 94.904 85.8909 93.998 85.8909 92.978C85.8909 91.97 86.0889 91.076 86.4849 90.296C86.8929 89.516 87.4389 88.916 88.1229 88.496C88.8189 88.076 89.5929 87.866 90.4449 87.866ZM93.7389 93.014C93.7389 92.402 93.6189 91.88 93.3789 91.448C93.1389 91.004 92.8149 90.668 92.4069 90.44C91.9989 90.2 91.5609 90.08 91.0929 90.08C90.6249 90.08 90.1929 90.194 89.7969 90.422C89.4009 90.65 89.0769 90.986 88.8249 91.43C88.5849 91.862 88.4649 92.378 88.4649 92.978C88.4649 93.578 88.5849 94.106 88.8249 94.562C89.0769 95.006 89.4009 95.348 89.7969 95.588C90.2049 95.828 90.6369 95.948 91.0929 95.948C91.5609 95.948 91.9989 95.834 92.4069 95.606C92.8149 95.366 93.1389 95.03 93.3789 94.598C93.6189 94.154 93.7389 93.626 93.7389 93.014ZM108.008 92.798C108.008 93.158 107.984 93.482 107.936 93.77H100.646C100.706 94.49 100.958 95.054 101.402 95.462C101.846 95.87 102.392 96.074 103.04 96.074C103.976 96.074 104.642 95.672 105.038 94.868H107.756C107.468 95.828 106.916 96.62 106.1 97.244C105.284 97.856 104.282 98.162 103.094 98.162C102.134 98.162 101.27 97.952 100.502 97.532C99.7461 97.1 99.1521 96.494 98.7201 95.714C98.3001 94.934 98.0901 94.034 98.0901 93.014C98.0901 91.982 98.3001 91.076 98.7201 90.296C99.1401 89.516 99.7281 88.916 100.484 88.496C101.24 88.076 102.11 87.866 103.094 87.866C104.042 87.866 104.888 88.07 105.632 88.478C106.388 88.886 106.97 89.468 107.378 90.224C107.798 90.968 108.008 91.826 108.008 92.798ZM105.398 92.078C105.386 91.43 105.152 90.914 104.696 90.53C104.24 90.134 103.682 89.936 103.022 89.936C102.398 89.936 101.87 90.128 101.438 90.512C101.018 90.884 100.76 91.406 100.664 92.078H105.398Z" fill="black"/>
<path d="M88.016 22H55.9924C53.7903 22 52 23.7903 52 25.9924V71.3801C52 73.5822 53.7903 75.3725 55.9924 75.3725H88.0076C90.2097 75.3725 92 73.5822 92 71.3801V25.9924C92.0011 25.4685 91.8989 24.9496 91.6991 24.4652C91.4994 23.9809 91.2061 23.5407 90.8361 23.1699C90.466 22.799 90.0264 22.5048 89.5425 22.3041C89.0586 22.1033 88.5399 22 88.016 22ZM90.7476 71.3801C90.7476 72.8846 89.5205 74.1118 88.016 74.1118H55.9924C54.4879 74.1118 53.2608 72.8846 53.2608 71.3801V25.9924C53.2608 24.4879 54.4879 23.2608 55.9924 23.2608H88.0076C89.5121 23.2608 90.7392 24.4879 90.7392 25.9924V71.3801H90.7476Z" fill="black"/>
<path d="M86.7804 64.9922V63.8407C86.7804 63.0338 86.1164 62.3698 85.3095 62.3698H81.1742C80.3673 62.3698 79.7033 63.0338 79.7033 63.8407V64.8325H78.4425V63.8407C78.4425 63.0338 77.7785 62.3698 76.9716 62.3698H72.8363C72.0294 62.3698 71.3654 63.0338 71.3654 63.8407V64.8325H69.2221C70.8443 62.4959 72.9372 59.3524 74.7779 56.5619C78.1941 55.9282 81.2802 54.1171 83.4992 51.4435C85.7182 48.7699 86.9299 45.403 86.9233 41.9285C86.9233 33.6999 80.2328 27.001 72.0042 27.001C63.7756 27.001 57.0851 33.6915 57.0851 41.9201C57.0851 48.4761 61.4221 54.2505 67.5747 56.1668C65.0027 57.8899 62.5905 59.5373 61.1784 60.5879H58.1189C56.5976 60.5879 55.3705 61.8235 55.3705 63.3364V69.2536C55.3704 69.9833 55.6598 70.6833 56.175 71.2C56.6901 71.7168 57.3892 72.0083 58.1189 72.0105H85.8895C87.4108 72.0105 88.6379 70.7749 88.6379 69.2536V67.581C88.6463 66.379 87.8647 65.362 86.7804 64.9922ZM80.9641 63.8407C80.9641 63.723 81.0565 63.6306 81.1742 63.6306H85.3095C85.4272 63.6306 85.5196 63.723 85.5196 63.8407V64.8325H80.9641V63.8407ZM72.6178 63.8407C72.6178 63.723 72.7102 63.6306 72.8279 63.6306H76.9632C77.0809 63.6306 77.1733 63.723 77.1733 63.8407V64.8325H72.6178V63.8407ZM66.4988 64.8325C65.6751 64.8325 65.0027 64.1601 65.0027 63.3448C65.0027 62.1261 64.2042 61.109 63.1116 60.7476C66.5745 58.3017 72.8363 54.1748 76.316 51.9054C74.0971 55.3011 70.1299 61.336 67.6672 64.8409H66.4988V64.8325ZM58.3459 41.9201C58.3459 34.3891 64.4732 28.2618 72.0042 28.2618C79.5352 28.2618 85.6625 34.3891 85.6625 41.9201C85.6625 48.0811 81.586 53.3679 75.7865 55.0237C77.6104 52.25 78.9889 50.1235 79.0141 50.0815C79.1738 49.8294 79.1401 49.5016 78.93 49.2914C78.7199 49.0813 78.3921 49.0477 78.1399 49.2074C78.0643 49.2578 73.5087 52.208 68.9699 55.2339C62.8006 53.8302 58.3459 48.2828 58.3459 41.9201ZM87.3856 69.2536C87.3856 70.0773 86.7132 70.7497 85.8979 70.7497H58.1189C57.2952 70.7497 56.6312 70.0773 56.6312 69.2536V63.3364C56.6312 62.5127 57.3036 61.8487 58.1189 61.8487H62.2627C63.0864 61.8487 63.7504 62.5211 63.7504 63.3364C63.7504 64.8577 64.9859 66.0849 66.5072 66.0849H85.8979C86.7216 66.0849 87.3856 66.7573 87.3856 67.581V69.2536Z" fill="black"/>
<path d="M86.3349 53.8638C85.0574 53.8638 84.0235 54.8977 84.0235 56.1752C84.0235 57.4528 85.0574 58.4867 86.3349 58.4867C87.6125 58.4867 88.6463 57.4528 88.6463 56.1752C88.6463 54.8977 87.6041 53.8638 86.3349 53.8638ZM86.3349 57.2259C86.1271 57.2259 85.924 57.1643 85.7512 57.0488C85.5784 56.9334 85.4438 56.7693 85.3643 56.5773C85.2847 56.3853 85.2639 56.1741 85.3045 55.9703C85.345 55.7665 85.4451 55.5793 85.592 55.4323C85.7389 55.2854 85.9262 55.1853 86.13 55.1448C86.3338 55.1043 86.545 55.1251 86.737 55.2046C86.929 55.2841 87.0931 55.4188 87.2085 55.5915C87.324 55.7643 87.3856 55.9674 87.3856 56.1752C87.3856 56.7552 86.9065 57.2259 86.3349 57.2259ZM57.6735 58.4867C58.951 58.4867 59.9849 57.4528 59.9849 56.1752C59.9849 54.8977 58.951 53.8638 57.6735 53.8638C56.3959 53.8638 55.362 54.8977 55.362 56.1752C55.362 57.4528 56.4043 58.4867 57.6735 58.4867ZM57.6735 55.1246C57.8813 55.1246 58.0844 55.1862 58.2572 55.3017C58.4299 55.4171 58.5646 55.5812 58.6441 55.7732C58.7236 55.9652 58.7444 56.1764 58.7039 56.3802C58.6634 56.584 58.5633 56.7712 58.4164 56.9182C58.2694 57.0651 58.0822 57.1652 57.8784 57.2057C57.6746 57.2462 57.4634 57.2254 57.2714 57.1459C57.0794 57.0664 56.9153 56.9317 56.7999 56.759C56.6844 56.5862 56.6228 56.383 56.6228 56.1752C56.6228 55.5953 57.1019 55.1246 57.6735 55.1246ZM86.3349 29.9849C87.6125 29.9849 88.6463 28.951 88.6463 27.6735C88.6463 26.3959 87.6125 25.3621 86.3349 25.3621C85.0574 25.3621 84.0235 26.3959 84.0235 27.6735C84.0235 28.951 85.0574 29.9849 86.3349 29.9849ZM86.3349 26.6228C86.6136 26.6228 86.8808 26.7335 87.0778 26.9306C87.2749 27.1276 87.3856 27.3948 87.3856 27.6735C87.3856 27.9521 87.2749 28.2194 87.0778 28.4164C86.8808 28.6134 86.6136 28.7241 86.3349 28.7241C86.0563 28.7241 85.789 28.6134 85.592 28.4164C85.395 28.2194 85.2843 27.9521 85.2843 27.6735C85.2843 27.3948 85.395 27.1276 85.592 26.9306C85.789 26.7335 86.0563 26.6228 86.3349 26.6228ZM57.6735 29.9849C58.951 29.9849 59.9849 28.951 59.9849 27.6735C59.9849 26.3959 58.951 25.3621 57.6735 25.3621C56.3959 25.3621 55.362 26.3959 55.362 27.6735C55.362 28.951 56.4043 29.9849 57.6735 29.9849ZM57.6735 26.6228C57.8813 26.6228 58.0844 26.6844 58.2572 26.7999C58.4299 26.9153 58.5646 27.0794 58.6441 27.2714C58.7236 27.4634 58.7444 27.6746 58.7039 27.8784C58.6634 28.0822 58.5633 28.2695 58.4164 28.4164C58.2694 28.5633 58.0822 28.6634 57.8784 28.7039C57.6746 28.7445 57.4634 28.7237 57.2714 28.6441C57.0794 28.5646 56.9153 28.43 56.7999 28.2572C56.6844 28.0844 56.6228 27.8813 56.6228 27.6735C56.6228 27.0935 57.1019 26.6228 57.6735 26.6228ZM72.0042 35.4062C68.4152 35.4062 65.4902 38.3312 65.4902 41.9202C65.4902 45.5091 68.4152 48.4341 72.0042 48.4341C75.5932 48.4341 78.5182 45.5091 78.5182 41.9202C78.5182 38.3312 75.5932 35.4062 72.0042 35.4062ZM72.0042 47.1734C69.1044 47.1734 66.751 44.8199 66.751 41.9202C66.751 39.0204 69.1044 36.667 72.0042 36.667C74.904 36.667 77.2574 39.0204 77.2574 41.9202C77.2574 44.8199 74.904 47.1734 72.0042 47.1734Z" fill="black"/>
<path d="M72.0042 38.7682C70.2643 38.7682 68.8523 40.1803 68.8523 41.9202C68.8523 43.66 70.2643 45.0721 72.0042 45.0721C73.744 45.0721 75.1561 43.66 75.1561 41.9202C75.1561 40.1803 73.744 38.7682 72.0042 38.7682ZM72.0042 43.8113C70.9619 43.8113 70.113 42.9624 70.113 41.9202C70.113 40.8779 70.9619 40.029 72.0042 40.029C73.0464 40.029 73.8953 40.8779 73.8953 41.9202C73.8953 42.9624 73.0464 43.8113 72.0042 43.8113ZM60.5564 63.1515C59.2788 63.1515 58.245 64.1853 58.245 65.4629C58.245 66.7405 59.2788 67.7743 60.5564 67.7743C61.834 67.7743 62.8678 66.7405 62.8678 65.4629C62.8678 64.1853 61.834 63.1515 60.5564 63.1515ZM60.5564 66.5136C60.2778 66.5136 60.0105 66.4029 59.8135 66.2058C59.6165 66.0088 59.5058 65.7416 59.5058 65.4629C59.5058 65.1843 59.6165 64.917 59.8135 64.72C60.0105 64.523 60.2778 64.4123 60.5564 64.4123C60.8351 64.4123 61.1023 64.523 61.2993 64.72C61.4964 64.917 61.607 65.1843 61.607 65.4629C61.607 65.7416 61.4964 66.0088 61.2993 66.2058C61.1023 66.4029 60.8351 66.5136 60.5564 66.5136Z" fill="black"/>
<defs>
<filter id="filter0_d_384_433" x="0" y="0" width="145" height="145" filterUnits="userSpaceOnUse" color-interpolation-filters="sRGB">
<feFlood flood-opacity="0" result="BackgroundImageFix"/>
<feColorMatrix in="SourceAlpha" type="matrix" values="0 0 0 0 0 0 0 0 0 0 0 0 0 0 0 0 0 0 127 0" result="hardAlpha"/>
<feOffset dy="4"/>
<feGaussianBlur stdDeviation="2"/>
<feComposite in2="hardAlpha" operator="out"/>
<feColorMatrix type="matrix" values="0 0 0 0 0 0 0 0 0 0 0 0 0 0 0 0 0 0 0.5 0"/>
<feBlend mode="normal" in2="BackgroundImageFix" result="effect1_dropShadow_384_433"/>
<feBlend mode="normal" in="SourceGraphic" in2="effect1_dropShadow_384_433" result="shape"/>
</filter>
</defs>
</svg>
