<svg width="96" height="96" viewBox="0 0 96 96" fill="none" xmlns="http://www.w3.org/2000/svg">
<g clip-path="url(#clip0_114_611)">
<g filter="url(#filter0_d_114_611)">
<path d="M4 15C4 6.71572 10.7157 0 19 0H76.54C84.8243 0 91.54 6.71573 91.54 15V72.54C91.54 80.8243 84.8243 87.54 76.54 87.54H19C10.7157 87.54 4 80.8243 4 72.54V15Z" fill="white"/>
</g>
<path d="M30.0339 53.322V54.565H27.9879V61H26.4479V54.565H24.4019V53.322H30.0339ZM34.5895 54.818C35.0515 54.818 35.4622 54.9207 35.8215 55.126C36.1809 55.324 36.4595 55.621 36.6575 56.017C36.8629 56.4057 36.9655 56.875 36.9655 57.425V61H35.4255V57.634C35.4255 57.15 35.3045 56.7797 35.0625 56.523C34.8205 56.259 34.4905 56.127 34.0725 56.127C33.6472 56.127 33.3099 56.259 33.0605 56.523C32.8185 56.7797 32.6975 57.15 32.6975 57.634V61H31.1575V52.86H32.6975V55.665C32.8955 55.401 33.1595 55.1957 33.4895 55.049C33.8195 54.895 34.1862 54.818 34.5895 54.818ZM44.095 57.821C44.095 58.041 44.0803 58.239 44.051 58.415H39.596C39.6327 58.855 39.7867 59.1997 40.058 59.449C40.3293 59.6983 40.663 59.823 41.059 59.823C41.631 59.823 42.038 59.5773 42.28 59.086H43.941C43.765 59.6727 43.4277 60.1567 42.929 60.538C42.4303 60.912 41.818 61.099 41.092 61.099C40.5053 61.099 39.9773 60.9707 39.508 60.714C39.046 60.45 38.683 60.0797 38.419 59.603C38.1623 59.1263 38.034 58.5763 38.034 57.953C38.034 57.3223 38.1623 56.7687 38.419 56.292C38.6757 55.8153 39.035 55.4487 39.497 55.192C39.959 54.9353 40.4907 54.807 41.092 54.807C41.6713 54.807 42.1883 54.9317 42.643 55.181C43.105 55.4303 43.4607 55.786 43.71 56.248C43.9667 56.7027 44.095 57.227 44.095 57.821ZM42.5 57.381C42.4927 56.985 42.3497 56.6697 42.071 56.435C41.7923 56.193 41.4513 56.072 41.048 56.072C40.6667 56.072 40.344 56.1893 40.08 56.424C39.8233 56.6513 39.6657 56.9703 39.607 57.381H42.5ZM46.7591 55.852C46.9571 55.5293 47.2137 55.2763 47.5291 55.093C47.8517 54.9097 48.2184 54.818 48.6291 54.818V56.435H48.2221C47.7381 56.435 47.3714 56.5487 47.1221 56.776C46.8801 57.0033 46.7591 57.3993 46.7591 57.964V61H45.2191V54.906H46.7591V55.852ZM57.2343 54.818C57.9823 54.818 58.5837 55.049 59.0383 55.511C59.5003 55.9657 59.7313 56.6037 59.7313 57.425V61H58.1913V57.634C58.1913 57.1573 58.0703 56.7943 57.8283 56.545C57.5863 56.2883 57.2563 56.16 56.8383 56.16C56.4203 56.16 56.0867 56.2883 55.8373 56.545C55.5953 56.7943 55.4743 57.1573 55.4743 57.634V61H53.9343V57.634C53.9343 57.1573 53.8133 56.7943 53.5713 56.545C53.3293 56.2883 52.9993 56.16 52.5813 56.16C52.156 56.16 51.8187 56.2883 51.5693 56.545C51.3273 56.7943 51.2063 57.1573 51.2063 57.634V61H49.6663V54.906H51.2063V55.643C51.4043 55.3863 51.6573 55.1847 51.9653 55.038C52.2807 54.8913 52.6253 54.818 52.9993 54.818C53.476 54.818 53.9013 54.9207 54.2753 55.126C54.6493 55.324 54.939 55.61 55.1443 55.984C55.3423 55.632 55.6283 55.3497 56.0023 55.137C56.3837 54.9243 56.7943 54.818 57.2343 54.818ZM60.7967 57.931C60.7967 57.315 60.9177 56.7687 61.1597 56.292C61.409 55.8153 61.7427 55.4487 62.1607 55.192C62.586 54.9353 63.059 54.807 63.5797 54.807C64.0344 54.807 64.4304 54.8987 64.7677 55.082C65.1124 55.2653 65.3874 55.4963 65.5927 55.775V54.906H67.1437V61H65.5927V60.109C65.3947 60.395 65.1197 60.6333 64.7677 60.824C64.423 61.0073 64.0234 61.099 63.5687 61.099C63.0554 61.099 62.586 60.967 62.1607 60.703C61.7427 60.439 61.409 60.0687 61.1597 59.592C60.9177 59.108 60.7967 58.5543 60.7967 57.931ZM65.5927 57.953C65.5927 57.579 65.5194 57.26 65.3727 56.996C65.226 56.7247 65.028 56.5193 64.7787 56.38C64.5294 56.2333 64.2617 56.16 63.9757 56.16C63.6897 56.16 63.4257 56.2297 63.1837 56.369C62.9417 56.5083 62.7437 56.7137 62.5897 56.985C62.443 57.249 62.3697 57.5643 62.3697 57.931C62.3697 58.2977 62.443 58.6203 62.5897 58.899C62.7437 59.1703 62.9417 59.3793 63.1837 59.526C63.433 59.6727 63.697 59.746 63.9757 59.746C64.2617 59.746 64.5294 59.6763 64.7787 59.537C65.028 59.3903 65.226 59.185 65.3727 58.921C65.5194 58.6497 65.5927 58.327 65.5927 57.953ZM70.1878 52.86V61H68.6478V52.86H70.1878ZM38.2604 72.698C38.2604 73.1087 38.1614 73.4937 37.9634 73.853C37.7728 74.2123 37.4684 74.502 37.0504 74.722C36.6398 74.942 36.1191 75.052 35.4884 75.052H34.2014V78H32.6614V70.322H35.4884C36.0824 70.322 36.5884 70.4247 37.0064 70.63C37.4244 70.8353 37.7361 71.1177 37.9414 71.477C38.1541 71.8363 38.2604 72.2433 38.2604 72.698ZM35.4224 73.809C35.8478 73.809 36.1631 73.7137 36.3684 73.523C36.5738 73.325 36.6764 73.05 36.6764 72.698C36.6764 71.95 36.2584 71.576 35.4224 71.576H34.2014V73.809H35.4224ZM38.9578 74.931C38.9578 74.315 39.0788 73.7687 39.3208 73.292C39.5702 72.8153 39.9038 72.4487 40.3218 72.192C40.7472 71.9353 41.2202 71.807 41.7408 71.807C42.1955 71.807 42.5915 71.8987 42.9288 72.082C43.2735 72.2653 43.5485 72.4963 43.7538 72.775V71.906H45.3048V78H43.7538V77.109C43.5558 77.395 43.2808 77.6333 42.9288 77.824C42.5842 78.0073 42.1845 78.099 41.7298 78.099C41.2165 78.099 40.7472 77.967 40.3218 77.703C39.9038 77.439 39.5702 77.0687 39.3208 76.592C39.0788 76.108 38.9578 75.5543 38.9578 74.931ZM43.7538 74.953C43.7538 74.579 43.6805 74.26 43.5338 73.996C43.3872 73.7247 43.1892 73.5193 42.9398 73.38C42.6905 73.2333 42.4228 73.16 42.1368 73.16C41.8508 73.16 41.5868 73.2297 41.3448 73.369C41.1028 73.5083 40.9048 73.7137 40.7508 73.985C40.6042 74.249 40.5308 74.5643 40.5308 74.931C40.5308 75.2977 40.6042 75.6203 40.7508 75.899C40.9048 76.1703 41.1028 76.3793 41.3448 76.526C41.5942 76.6727 41.8582 76.746 42.1368 76.746C42.4228 76.746 42.6905 76.6763 42.9398 76.537C43.1892 76.3903 43.3872 76.185 43.5338 75.921C43.6805 75.6497 43.7538 75.327 43.7538 74.953ZM49.1409 78.099C48.6422 78.099 48.1949 78.011 47.7989 77.835C47.4029 77.6517 47.0876 77.406 46.8529 77.098C46.6256 76.79 46.5009 76.449 46.4789 76.075H48.0299C48.0592 76.3097 48.1729 76.504 48.3709 76.658C48.5762 76.812 48.8292 76.889 49.1299 76.889C49.4232 76.889 49.6506 76.8303 49.8119 76.713C49.9806 76.5957 50.0649 76.4453 50.0649 76.262C50.0649 76.064 49.9622 75.9173 49.7569 75.822C49.5589 75.7193 49.2399 75.6093 48.7999 75.492C48.3452 75.382 47.9712 75.2683 47.6779 75.151C47.3919 75.0337 47.1426 74.854 46.9299 74.612C46.7246 74.37 46.6219 74.0437 46.6219 73.633C46.6219 73.2957 46.7172 72.9877 46.9079 72.709C47.1059 72.4303 47.3846 72.2103 47.7439 72.049C48.1106 71.8877 48.5396 71.807 49.0309 71.807C49.7569 71.807 50.3362 71.9903 50.7689 72.357C51.2016 72.7163 51.4399 73.204 51.4839 73.82H50.0099C49.9879 73.578 49.8852 73.3873 49.7019 73.248C49.5259 73.1013 49.2876 73.028 48.9869 73.028C48.7082 73.028 48.4919 73.0793 48.3379 73.182C48.1912 73.2847 48.1179 73.4277 48.1179 73.611C48.1179 73.8163 48.2206 73.974 48.4259 74.084C48.6312 74.1867 48.9502 74.293 49.3829 74.403C49.8229 74.513 50.1859 74.6267 50.4719 74.744C50.7579 74.8613 51.0036 75.0447 51.2089 75.294C51.4216 75.536 51.5316 75.8587 51.5389 76.262C51.5389 76.614 51.4399 76.9293 51.2419 77.208C51.0512 77.4867 50.7726 77.7067 50.4059 77.868C50.0466 78.022 49.6249 78.099 49.1409 78.099ZM54.596 73.171V76.119C54.596 76.3243 54.6437 76.4747 54.739 76.57C54.8417 76.658 55.0104 76.702 55.245 76.702H55.96V78H54.992C53.694 78 53.045 77.3693 53.045 76.108V73.171H52.319V71.906H53.045V70.399H54.596V71.906H55.96V73.171H54.596ZM62.7327 74.821C62.7327 75.041 62.718 75.239 62.6887 75.415H58.2337C58.2704 75.855 58.4244 76.1997 58.6957 76.449C58.967 76.6983 59.3007 76.823 59.6967 76.823C60.2687 76.823 60.6757 76.5773 60.9177 76.086H62.5787C62.4027 76.6727 62.0654 77.1567 61.5667 77.538C61.068 77.912 60.4557 78.099 59.7297 78.099C59.143 78.099 58.615 77.9707 58.1457 77.714C57.6837 77.45 57.3207 77.0797 57.0567 76.603C56.8 76.1263 56.6717 75.5763 56.6717 74.953C56.6717 74.3223 56.8 73.7687 57.0567 73.292C57.3134 72.8153 57.6727 72.4487 58.1347 72.192C58.5967 71.9353 59.1284 71.807 59.7297 71.807C60.309 71.807 60.826 71.9317 61.2807 72.181C61.7427 72.4303 62.0984 72.786 62.3477 73.248C62.6044 73.7027 62.7327 74.227 62.7327 74.821ZM61.1377 74.381C61.1304 73.985 60.9874 73.6697 60.7087 73.435C60.43 73.193 60.089 73.072 59.6857 73.072C59.3044 73.072 58.9817 73.1893 58.7177 73.424C58.461 73.6513 58.3034 73.9703 58.2447 74.381H61.1377Z" fill="black"/>
<path d="M58.4263 48H30.4225C30.3105 48 30.203 47.9555 30.1238 47.8762C30.0445 47.797 30 47.6895 30 47.5775V46.3099C30 46.1978 30.0445 46.0903 30.1238 46.0111C30.203 45.9318 30.3105 45.8873 30.4225 45.8873H64.5775C64.6895 45.8873 64.797 45.9318 64.8762 46.0111C64.9555 46.0903 65 46.1978 65 46.3099V47.5775C65 47.6895 64.9555 47.797 64.8762 47.8762C64.797 47.9555 64.6895 48 64.5775 48H60.9399M44.659 24.1584V19.8066H50.341V30.2424M50.341 30.2424H44.659M50.341 30.2424V31.5282C50.341 31.8779 50.2342 32.2192 50.0348 32.5066L49.6483 33.0635C49.5587 33.1926 49.4391 33.2982 49.2998 33.3711C49.1604 33.444 49.0055 33.482 48.8483 33.482H46.1516C45.9944 33.482 45.8395 33.444 45.7002 33.3711C45.5609 33.2982 45.4413 33.1926 45.3516 33.0635L44.9651 32.5066C44.7658 32.2193 44.659 31.8779 44.6589 31.5282L44.659 30.2424M44.659 30.2424V26.5996M50.1923 30.2424H44.7968M44.8618 22.7072H50.1923M59.331 45.8873H35.669V43.7868C35.669 43.3134 36.0528 42.9296 36.5263 42.9296H58.4737C58.9472 42.9296 59.331 43.3134 59.331 43.7868V45.8873ZM52.8274 19.8066H42.1726C42.0476 19.8066 41.9277 19.757 41.8394 19.6686C41.751 19.5802 41.7013 19.4603 41.7013 19.3354V18.7503C41.7013 18.1669 42.1743 17.6939 42.7577 17.6939H52.2425C52.8258 17.6939 53.2988 18.1669 53.2988 18.7503V19.3354C53.2988 19.4604 53.2491 19.5802 53.1607 19.6686C53.0723 19.757 52.9524 19.8066 52.8274 19.8066ZM50.4686 15.1127H44.5314C44.4553 15.1127 44.3822 15.0824 44.3284 15.0286C44.2745 14.9747 44.2443 14.9017 44.2443 14.8256V14.1213C44.2443 13.502 44.7463 13 45.3656 13H49.6343C50.2536 13 50.7556 13.502 50.7556 14.1213V14.8256C50.7556 14.8633 50.7482 14.9006 50.7338 14.9354C50.7194 14.9703 50.6982 15.0019 50.6716 15.0286C50.6449 15.0552 50.6133 15.0764 50.5785 15.0908C50.5436 15.1052 50.5063 15.1127 50.4686 15.1127ZM48.0906 37.8483H46.9094C46.7859 37.8483 46.6674 37.7992 46.5801 37.7119C46.4927 37.6246 46.4437 37.5061 46.4437 37.3826V33.4821H48.5563V37.3826C48.5563 37.5061 48.5073 37.6246 48.4199 37.7119C48.3326 37.7992 48.2141 37.8483 48.0906 37.8483ZM48.547 17.6939H46.4343L46.0783 15.1127H48.9217L48.547 17.6939ZM41.115 42.9296H53.8849C53.8849 42.9296 52.267 40.453 47.4999 40.453C42.7328 40.453 41.115 42.9296 41.115 42.9296Z" stroke="black" stroke-miterlimit="10" stroke-linecap="round" stroke-linejoin="round"/>
</g>
<defs>
<filter id="filter0_d_114_611" x="0" y="0" width="95.54" height="95.54" filterUnits="userSpaceOnUse" color-interpolation-filters="sRGB">
<feFlood flood-opacity="0" result="BackgroundImageFix"/>
<feColorMatrix in="SourceAlpha" type="matrix" values="0 0 0 0 0 0 0 0 0 0 0 0 0 0 0 0 0 0 127 0" result="hardAlpha"/>
<feOffset dy="4"/>
<feGaussianBlur stdDeviation="2"/>
<feComposite in2="hardAlpha" operator="out"/>
<feColorMatrix type="matrix" values="0 0 0 0 0 0 0 0 0 0 0 0 0 0 0 0 0 0 0.5 0"/>
<feBlend mode="normal" in2="BackgroundImageFix" result="effect1_dropShadow_114_611"/>
<feBlend mode="normal" in="SourceGraphic" in2="effect1_dropShadow_114_611" result="shape"/>
</filter>
<clipPath id="clip0_114_611">
<rect width="96" height="96" fill="white"/>
</clipPath>
</defs>
</svg>
