<svg width="20" height="16" viewBox="0 0 20 16" fill="none" xmlns="http://www.w3.org/2000/svg">
<path fill-rule="evenodd" clip-rule="evenodd" d="M12.4002 0.0727222C12.8585 -0.00561924 13.3709 -0.0317329 13.8535 0.0502104C14.7133 0.195429 15.5099 0.594665 16.1407 1.19652C16.5514 1.20552 16.9557 1.12448 17.3132 1.00922C17.6587 0.89654 17.9903 0.745202 18.3019 0.558079L18.31 0.552676C18.4397 0.46628 18.5952 0.427379 18.7503 0.442567C18.9054 0.457755 19.0504 0.526098 19.1609 0.636011C19.2713 0.745924 19.3403 0.890646 19.3563 1.04565C19.3722 1.20064 19.3341 1.35639 19.2483 1.48647C19.0619 1.77012 18.8016 2.27619 18.5108 2.84349L18.3712 3.11453C18.2046 3.4387 18.0335 3.76648 17.8742 4.04742C17.7742 4.22392 17.667 4.40311 17.559 4.55799V4.80472C17.5701 6.28028 17.2871 7.74326 16.7267 9.1083C16.1663 10.4733 15.3396 11.7131 14.2949 12.7552C13.2502 13.7973 12.0084 14.6209 10.642 15.1779C9.27556 15.7349 7.81188 16.0142 6.33635 15.9994C4.19812 16.0014 2.10489 15.3854 0.308565 14.2255C0.18017 14.1425 0.0837588 14.0183 0.0351023 13.8733C-0.0135542 13.7284 -0.0115754 13.5712 0.0407149 13.4275C0.0930053 13.2838 0.192512 13.1621 0.322957 13.0823C0.453401 13.0025 0.607062 12.9694 0.758803 12.9883C1.99954 13.1366 3.25706 12.9364 4.39042 12.4101C3.83747 12.1588 3.34293 11.795 2.93829 11.342C2.53365 10.889 2.22779 10.3567 2.04018 9.77895C2.00443 9.66836 1.99783 9.5504 2.02102 9.43651C2.04421 9.32261 2.09641 9.21663 2.17255 9.12881L2.18156 9.11981C1.72446 8.71257 1.35813 8.21375 1.10634 7.65573C0.854562 7.09771 0.72296 6.49298 0.720083 5.88079V5.83397C0.720016 5.68571 0.768739 5.54155 0.858733 5.42372C0.948727 5.3059 1.07499 5.22097 1.21805 5.18202C0.913123 4.57361 0.754918 3.90224 0.756102 3.22169C0.75559 2.45013 0.957405 1.69193 1.34141 1.02272C1.39597 0.927727 1.47282 0.847427 1.56533 0.788751C1.65784 0.730074 1.76323 0.694782 1.87242 0.68592C1.98161 0.677057 2.09132 0.694889 2.19208 0.737878C2.29284 0.780867 2.38163 0.847722 2.4508 0.932677C4.0259 2.87314 6.28249 4.13897 8.75953 4.47155C8.73803 3.66129 8.94243 2.86103 9.34987 2.16033C9.75732 1.45963 10.3517 0.886143 11.0666 0.50405C11.4285 0.311348 11.9067 0.157367 12.4002 0.0727222ZM2.24459 6.86952C2.41945 7.36164 2.71908 7.79994 3.11417 8.14152C3.50925 8.48309 3.98625 8.71624 4.49848 8.81815C4.64606 8.84755 4.77959 8.92539 4.87789 9.03933C4.97618 9.15327 5.03361 9.29677 5.04106 9.44706C5.0485 9.59736 5.00554 9.74583 4.91899 9.86893C4.83244 9.99203 4.70726 10.0827 4.56331 10.1265C4.31839 10.2013 4.06715 10.2526 3.81232 10.2823C4.08899 10.6392 4.44207 10.9296 4.84566 11.1322C5.24924 11.3347 5.69307 11.4443 6.14455 11.4529C6.28381 11.4556 6.41886 11.5012 6.53119 11.5836C6.64351 11.6659 6.72762 11.781 6.77199 11.913C6.81637 12.0451 6.81883 12.1876 6.77905 12.3211C6.73926 12.4546 6.65918 12.5725 6.54977 12.6587C5.61079 13.3975 4.51962 13.9188 3.35488 14.185C4.31917 14.4936 5.32567 14.6501 6.33815 14.6487H6.34626C7.64295 14.6624 8.92938 14.4175 10.1304 13.9284C11.3313 13.4393 12.4228 12.7157 13.341 11.8C14.2591 10.8842 14.9856 9.79469 15.4779 8.59501C15.9702 7.39532 16.2185 6.10956 16.2083 4.81283V4.33107C16.2081 4.16709 16.2677 4.00866 16.3758 3.88534C16.4388 3.8142 16.5469 3.65031 16.6999 3.38107C16.844 3.12714 17.0043 2.82098 17.1709 2.4977L17.2006 2.43827C16.7302 2.54413 16.2459 2.57362 15.7661 2.52562C15.6039 2.50795 15.4536 2.43214 15.3429 2.31221C14.8901 1.82116 14.287 1.49431 13.6284 1.38291C13.2962 1.33593 12.9586 1.34353 12.6289 1.40543C12.3075 1.45545 11.9954 1.5535 11.7032 1.69628C11.114 2.01109 10.6459 2.51258 10.3725 3.12209C10.099 3.73159 10.0356 4.41463 10.1922 5.06406C10.2168 5.16618 10.2173 5.27264 10.1936 5.37498C10.1699 5.47732 10.1226 5.57272 10.0556 5.65359C9.98851 5.73446 9.90352 5.79857 9.80734 5.84082C9.71116 5.88308 9.60645 5.90232 9.50153 5.897C6.73489 5.75706 4.11925 4.59288 2.16355 2.63098C2.12555 2.82588 2.10655 3.02401 2.10682 3.22259V3.22439C2.1058 3.72032 2.22745 4.20881 2.46091 4.64636C2.69437 5.0839 3.03241 5.45693 3.44492 5.73221C3.56606 5.81375 3.65751 5.93234 3.70557 6.07023C3.75362 6.20812 3.75569 6.35786 3.71147 6.49703C3.66724 6.63619 3.57911 6.75727 3.46027 6.84212C3.34143 6.92697 3.1983 6.97102 3.05232 6.96767C2.78056 6.96014 2.51012 6.92787 2.24459 6.86952Z" fill="#FEF9E6"/>
</svg>
