<svg width="97" height="96" viewBox="0 0 97 96" fill="none" xmlns="http://www.w3.org/2000/svg">
<g clip-path="url(#clip0_114_576)">
<g filter="url(#filter0_d_114_576)">
<path d="M4.54639 15C4.54639 6.71571 11.2621 0 19.5464 0H77.0863C85.3706 0 92.0863 6.71573 92.0863 15V72.5399C92.0863 80.8242 85.3706 87.5399 77.0863 87.5399H19.5464C11.2621 87.5399 4.54639 80.8242 4.54639 72.5399V15Z" fill="white"/>
</g>
<path d="M33.4632 53.5233L31.3182 61.2013H29.5032L28.0622 55.7343L26.5552 61.2013L24.7512 61.2123L22.6832 53.5233H24.3332L25.6862 59.4853L27.2482 53.5233H28.9642L30.4382 59.4523L31.8022 53.5233H33.4632ZM40.1337 58.0223C40.1337 58.2423 40.1191 58.4403 40.0897 58.6163H35.6347C35.6714 59.0563 35.8254 59.401 36.0967 59.6503C36.3681 59.8996 36.7017 60.0243 37.0977 60.0243C37.6697 60.0243 38.0767 59.7786 38.3187 59.2873H39.9797C39.8037 59.874 39.4664 60.358 38.9677 60.7393C38.4691 61.1133 37.8567 61.3003 37.1307 61.3003C36.5441 61.3003 36.0161 61.172 35.5467 60.9153C35.0847 60.6513 34.7217 60.281 34.4577 59.8043C34.2011 59.3276 34.0727 58.7776 34.0727 58.1543C34.0727 57.5236 34.2011 56.97 34.4577 56.4933C34.7144 56.0166 35.0737 55.65 35.5357 55.3933C35.9977 55.1366 36.5294 55.0083 37.1307 55.0083C37.7101 55.0083 38.2271 55.133 38.6817 55.3823C39.1437 55.6316 39.4994 55.9873 39.7487 56.4493C40.0054 56.904 40.1337 57.4283 40.1337 58.0223ZM38.5387 57.5823C38.5314 57.1863 38.3884 56.871 38.1097 56.6363C37.8311 56.3943 37.4901 56.2733 37.0867 56.2733C36.7054 56.2733 36.3827 56.3906 36.1187 56.6253C35.8621 56.8526 35.7044 57.1716 35.6457 57.5823H38.5387ZM42.7978 55.9983C42.9958 55.705 43.2671 55.4666 43.6118 55.2833C43.9638 55.1 44.3635 55.0083 44.8108 55.0083C45.3315 55.0083 45.8008 55.1366 46.2188 55.3933C46.6441 55.65 46.9778 56.0166 47.2198 56.4933C47.4691 56.9626 47.5938 57.509 47.5938 58.1323C47.5938 58.7556 47.4691 59.3093 47.2198 59.7933C46.9778 60.27 46.6441 60.6403 46.2188 60.9043C45.8008 61.1683 45.3315 61.3003 44.8108 61.3003C44.3561 61.3003 43.9565 61.2123 43.6118 61.0363C43.2745 60.853 43.0031 60.6183 42.7978 60.3323V61.2013H41.2578V53.0613H42.7978V55.9983ZM46.0208 58.1323C46.0208 57.7656 45.9438 57.4503 45.7898 57.1863C45.6431 56.915 45.4451 56.7096 45.1958 56.5703C44.9538 56.431 44.6898 56.3613 44.4038 56.3613C44.1251 56.3613 43.8611 56.4346 43.6118 56.5813C43.3698 56.7206 43.1718 56.926 43.0178 57.1973C42.8711 57.4686 42.7978 57.7876 42.7978 58.1543C42.7978 58.521 42.8711 58.84 43.0178 59.1113C43.1718 59.3826 43.3698 59.5916 43.6118 59.7383C43.8611 59.8776 44.1251 59.9473 44.4038 59.9473C44.6898 59.9473 44.9538 59.874 45.1958 59.7273C45.4451 59.5806 45.6431 59.3716 45.7898 59.1003C45.9438 58.829 46.0208 58.5063 46.0208 58.1323ZM48.3169 58.1543C48.3169 57.5236 48.4452 56.9736 48.7019 56.5043C48.9585 56.0276 49.3142 55.661 49.7689 55.4043C50.2235 55.1403 50.7442 55.0083 51.3309 55.0083C52.0862 55.0083 52.7095 55.199 53.2009 55.5803C53.6995 55.9543 54.0332 56.4823 54.2019 57.1643H52.5409C52.4529 56.9003 52.3025 56.695 52.0899 56.5483C51.8845 56.3943 51.6279 56.3173 51.3199 56.3173C50.8799 56.3173 50.5315 56.4786 50.2749 56.8013C50.0182 57.1166 49.8899 57.5676 49.8899 58.1543C49.8899 58.7336 50.0182 59.1846 50.2749 59.5073C50.5315 59.8226 50.8799 59.9803 51.3199 59.9803C51.9432 59.9803 52.3502 59.7016 52.5409 59.1443H54.2019C54.0332 59.8043 53.6995 60.3286 53.2009 60.7173C52.7022 61.106 52.0789 61.3003 51.3309 61.3003C50.7442 61.3003 50.2235 61.172 49.7689 60.9153C49.3142 60.6513 48.9585 60.2846 48.7019 59.8153C48.4452 59.3386 48.3169 58.785 48.3169 58.1543ZM54.9341 58.1323C54.9341 57.5163 55.0551 56.97 55.2971 56.4933C55.5464 56.0166 55.8801 55.65 56.2981 55.3933C56.7234 55.1366 57.1964 55.0083 57.7171 55.0083C58.1717 55.0083 58.5677 55.1 58.9051 55.2833C59.2497 55.4666 59.5247 55.6976 59.7301 55.9763V55.1073H61.2811V61.2013H59.7301V60.3103C59.5321 60.5963 59.2571 60.8346 58.9051 61.0253C58.5604 61.2086 58.1607 61.3003 57.7061 61.3003C57.1927 61.3003 56.7234 61.1683 56.2981 60.9043C55.8801 60.6403 55.5464 60.27 55.2971 59.7933C55.0551 59.3093 54.9341 58.7556 54.9341 58.1323ZM59.7301 58.1543C59.7301 57.7803 59.6567 57.4613 59.5101 57.1973C59.3634 56.926 59.1654 56.7206 58.9161 56.5813C58.6667 56.4346 58.3991 56.3613 58.1131 56.3613C57.8271 56.3613 57.5631 56.431 57.3211 56.5703C57.0791 56.7096 56.8811 56.915 56.7271 57.1863C56.5804 57.4503 56.5071 57.7656 56.5071 58.1323C56.5071 58.499 56.5804 58.8216 56.7271 59.1003C56.8811 59.3716 57.0791 59.5806 57.3211 59.7273C57.5704 59.874 57.8344 59.9473 58.1131 59.9473C58.3991 59.9473 58.6667 59.8776 58.9161 59.7383C59.1654 59.5916 59.3634 59.3863 59.5101 59.1223C59.6567 58.851 59.7301 58.5283 59.7301 58.1543ZM70.3531 55.0193C71.1011 55.0193 71.7025 55.2503 72.1571 55.7123C72.6191 56.167 72.8501 56.805 72.8501 57.6263V61.2013H71.3101V57.8353C71.3101 57.3586 71.1891 56.9956 70.9471 56.7463C70.7051 56.4896 70.3751 56.3613 69.9571 56.3613C69.5391 56.3613 69.2055 56.4896 68.9561 56.7463C68.7141 56.9956 68.5931 57.3586 68.5931 57.8353V61.2013H67.0531V57.8353C67.0531 57.3586 66.9321 56.9956 66.6901 56.7463C66.4481 56.4896 66.1181 56.3613 65.7001 56.3613C65.2748 56.3613 64.9375 56.4896 64.6881 56.7463C64.4461 56.9956 64.3251 57.3586 64.3251 57.8353V61.2013H62.7851V55.1073H64.3251V55.8443C64.5231 55.5876 64.7761 55.386 65.0841 55.2393C65.3995 55.0926 65.7441 55.0193 66.1181 55.0193C66.5948 55.0193 67.0201 55.122 67.3941 55.3273C67.7681 55.5253 68.0578 55.8113 68.2631 56.1853C68.4611 55.8333 68.7471 55.551 69.1211 55.3383C69.5025 55.1256 69.9131 55.0193 70.3531 55.0193Z" fill="black"/>
<path d="M46.3788 36.0235H49.4114V37.6687H46.3788V36.0235ZM44.8624 33.5803V35.1811C44.8624 35.6463 45.2396 36.0235 45.7048 36.0235H50.0853C50.5506 36.0235 50.9277 35.6463 50.9277 35.1811V33.5803H44.8624ZM50.9277 39.261V38.5111C50.9277 38.0459 50.5506 37.6687 50.0853 37.6687H45.7048C45.2396 37.6687 44.8624 38.0459 44.8624 38.5111V39.261H50.9277Z" stroke="black" stroke-miterlimit="10" stroke-linecap="round" stroke-linejoin="round"/>
<path d="M51.2647 44.3235H52.4278C53.2032 44.3235 53.8318 43.6949 53.8318 42.9195V40.1033C53.8318 39.638 53.4546 39.2609 52.9894 39.2609H42.8009C42.3357 39.2609 41.9585 39.638 41.9585 40.1033V42.9195C41.9585 43.6949 42.5871 44.3235 43.3625 44.3235H49.2991M40.8751 33.5803H57.3482C59.835 33.5803 61.8509 31.5644 61.8509 29.0776C61.8509 26.5908 59.835 24.5749 57.3482 24.5749H38.442C35.9553 24.5749 33.9393 26.5908 33.9393 29.0776C33.9393 31.5644 35.9553 33.5803 38.442 33.5803H38.9095" stroke="black" stroke-miterlimit="10" stroke-linecap="round" stroke-linejoin="round"/>
<path d="M54.7886 27.9166V27.1511C54.7886 25.7283 53.6352 24.5749 52.2123 24.5749H43.5779C42.1551 24.5749 41.0017 25.7283 41.0017 27.1511V31.004C41.0017 32.4269 42.1551 33.5803 43.5779 33.5803H52.2123C53.6352 33.5803 54.7886 32.4269 54.7886 31.004V29.8822M52.5003 29.0776H53.3427" stroke="black" stroke-miterlimit="10" stroke-linecap="round" stroke-linejoin="round"/>
<path d="M47.8951 32.1664C49.601 32.1664 50.9839 30.7835 50.9839 29.0776C50.9839 27.3717 49.601 25.9888 47.8951 25.9888C46.1892 25.9888 44.8063 27.3717 44.8063 29.0776C44.8063 30.7835 46.1892 32.1664 47.8951 32.1664Z" stroke="black" stroke-miterlimit="10" stroke-linecap="round" stroke-linejoin="round"/>
<path d="M47.8951 30.4816C48.6705 30.4816 49.2991 29.853 49.2991 29.0776C49.2991 28.3022 48.6705 27.6736 47.8951 27.6736C47.1197 27.6736 46.4911 28.3022 46.4911 29.0776C46.4911 29.853 47.1197 30.4816 47.8951 30.4816Z" stroke="black" stroke-miterlimit="10" stroke-linecap="round" stroke-linejoin="round"/>
<path d="M45.0511 21.6234C46.6193 20.0552 49.1708 20.0553 50.7389 21.6234M46.8286 22.738C47.4166 22.1499 48.3734 22.1499 48.9615 22.738M46.3787 41.1704H49.4114" stroke="black" stroke-miterlimit="10" stroke-linecap="round" stroke-linejoin="round"/>
</g>
<defs>
<filter id="filter0_d_114_576" x="0.546387" y="0" width="95.5399" height="95.5399" filterUnits="userSpaceOnUse" color-interpolation-filters="sRGB">
<feFlood flood-opacity="0" result="BackgroundImageFix"/>
<feColorMatrix in="SourceAlpha" type="matrix" values="0 0 0 0 0 0 0 0 0 0 0 0 0 0 0 0 0 0 127 0" result="hardAlpha"/>
<feOffset dy="4"/>
<feGaussianBlur stdDeviation="2"/>
<feComposite in2="hardAlpha" operator="out"/>
<feColorMatrix type="matrix" values="0 0 0 0 0 0 0 0 0 0 0 0 0 0 0 0 0 0 0.5 0"/>
<feBlend mode="normal" in2="BackgroundImageFix" result="effect1_dropShadow_114_576"/>
<feBlend mode="normal" in="SourceGraphic" in2="effect1_dropShadow_114_576" result="shape"/>
</filter>
<clipPath id="clip0_114_576">
<rect width="97" height="96" fill="white"/>
</clipPath>
</defs>
</svg>
