<svg width="18" height="18" viewBox="0 0 18 18" fill="none" xmlns="http://www.w3.org/2000/svg">
<path d="M4.23211 5.61761C2.26416 6.06322 1.28018 6.28562 1.04579 7.03842C0.812192 7.79042 1.48258 8.57522 2.82415 10.144L3.17134 10.5496C3.55213 10.9952 3.74332 11.2184 3.82892 11.4936C3.91452 11.7696 3.88572 12.0672 3.82812 12.6616L3.77532 13.2032C3.57293 15.2968 3.47133 16.3432 4.08412 16.808C4.6969 17.2737 5.61848 16.8488 7.46004 16.0008L7.93762 15.7816C8.46081 15.54 8.72241 15.42 9 15.42C9.27759 15.42 9.53919 15.54 10.0632 15.7816L10.5392 16.0008C12.3815 16.8488 13.3031 17.2728 13.9151 16.8088C14.5287 16.3432 14.4271 15.2968 14.2247 13.2032M15.1759 10.144C16.5174 8.57602 17.1878 7.79122 16.9542 7.03842C16.7198 6.28562 15.7358 6.06242 13.7679 5.61761L13.2591 5.50241C12.6999 5.37601 12.4207 5.31281 12.1959 5.14241C11.9719 4.97201 11.8279 4.71361 11.5399 4.19681L11.2775 3.72641C10.264 1.9088 9.75758 1 9 1C8.24242 1 7.73603 1.9088 6.72245 3.72641" stroke="#FEF9E6" stroke-width="1.5" stroke-linecap="round"/>
</svg>
